<svg width="476" height="98" xmlns="http://www.w3.org/2000/svg" xmlns:xlink="http://www.w3.org/1999/xlink" xml:space="preserve" overflow="hidden"><g transform="translate(-730 -108)"><g><g><g><g><path d="M0 0C8.26396 0 16.5279 0 25.0423 0 25.0423 3.35529 25.0423 6.71059 25.0423 10.1676 20.8793 10.1676 16.7162 10.1676 12.427 10.1676 12.427 32.1634 12.427 54.1592 12.427 76.8215 16.5901 76.8215 20.7531 76.8215 25.0423 76.8215 25.0423 80.1768 25.0423 83.5321 25.0423 86.9891 16.7783 86.9891 8.51439 86.9891 0 86.9891 0 58.2827 0 29.5763 0 0Z" fill="#3A4C7A" fill-rule="nonzero" fill-opacity="1" transform="matrix(1.01247 0 0 1 775.936 115.303)"/><path d="M0 0C4.10091 0 8.20183 0 12.427 0 12.2152 1.69459 12.2152 1.69459 12.0695 2.34178 12.0365 2.49001 12.0035 2.63825 11.9695 2.79096 11.9156 3.02806 11.9156 3.02806 11.8606 3.26994 11.8028 3.52808 11.8028 3.52808 11.7438 3.79145 11.6148 4.36702 11.4847 4.94237 11.3547 5.51772 11.2612 5.93356 11.1678 6.34941 11.0745 6.76528 10.819 7.90312 10.5626 9.04074 10.306 10.1783 10.06 11.2699 9.81467 12.3616 9.56935 13.4534 9.10277 15.5296 8.63571 17.6058 8.16831 19.6817 7.40383 23.0775 6.64076 26.4733 5.87812 29.8694 5.81677 30.1426 5.75541 30.4158 5.69406 30.6889 5.66366 30.8243 5.63326 30.9596 5.60195 31.0991 5.57153 31.2345 5.54113 31.3699 5.50979 31.5094 5.4483 31.7833 5.38683 32.0571 5.32535 32.3308 5.29489 32.4664 5.26445 32.6019 5.23306 32.7417 5.17155 33.0156 5.11002 33.2896 5.04851 33.5635 4.58442 35.63 4.12016 37.6966 3.6558 39.763 2.52641 44.7891 1.39738 49.8152 0.270664 54.8418 0.222162 55.0582 0.17366 55.2746 0.123688 55.4975-0.0681774 56.3535-0.260037 57.2094-0.451894 58.0654-2.61341 67.709-4.78673 77.3497-6.96666 86.9891-11.0676 86.9891-15.1685 86.9891-19.3937 86.9891-19.1819 85.2945-19.1819 85.2945-19.0504 84.7117-19.0056 84.5106-19.0056 84.5106-18.96 84.3057-18.9276 84.1635-18.8953 84.0212-18.8618 83.8746-18.8269 83.7191-18.792 83.5635-18.7561 83.4032-18.6394 82.8827-18.5215 82.3624-18.4037 81.842-18.3187 81.4646-18.234 81.087-18.1491 80.7095-17.9646 79.8887-17.7796 79.0681-17.5944 78.2474-17.2925 76.9112-16.9917 75.5746-16.6912 74.2381-16.3667 72.7964-16.0423 71.3548-15.7174 69.9131-15.6896 69.7895-15.6618 69.6658-15.6331 69.5385-15.605 69.4144-15.5771 69.2903-15.5482 69.1624-14.7949 65.8193-14.0435 62.4757-13.2927 59.132-13.2335 58.8683-13.1743 58.6045-13.115 58.3409-12.8755 57.2742-12.636 56.2076-12.3965 55.1409-11.7824 52.4061-11.168 49.6714-10.5535 46.9366-9.52914 42.3776-8.50498 37.8184-7.48106 33.2591-3.27676 14.5386-3.27676 14.5386-1.97702 8.76789-1.94173 8.61117-1.90643 8.45444-1.87005 8.29296-1.24735 5.5285-0.623568 2.76427 0 0Z" fill="#3A4C7A" fill-rule="nonzero" fill-opacity="1" transform="matrix(1.01247 0 0 1 828.169 115.303)"/><path d="M0 0C4.10091 0 8.20183 0 12.427 0 12.2152 1.69459 12.2152 1.69459 12.0552 2.40612 12.001 2.64985 12.001 2.64985 11.9456 2.89851 11.9061 3.07241 11.8667 3.24632 11.826 3.4255 11.7838 3.61412 11.7416 3.80274 11.6981 3.99708 11.5568 4.62769 11.4146 5.25804 11.2723 5.88842 11.1704 6.34232 11.0685 6.79624 10.9667 7.25018 10.7467 8.23092 10.5262 9.21156 10.3053 10.1921 9.98095 11.632 9.65739 13.0721 9.33405 14.5122 8.80244 16.8797 8.27022 19.2472 7.73764 21.6145 7.014 24.8311 6.29134 28.048 5.56897 31.2649 5.29188 32.4988 5.01475 33.7328 4.73763 34.9668 4.70724 35.1021 4.67684 35.2374 4.64553 35.3769 4.18417 37.4312 3.7226 39.4856 3.26093 41.54 2.13364 46.5562 1.00672 51.5725-0.11768 56.5894-0.166757 56.8084-0.215833 57.0272-0.266396 57.2529-0.460345 58.1183-0.654289 58.9835-0.84823 59.8489-2.87639 68.8982-4.9165 77.9447-6.96666 86.9891-11.0676 86.9891-15.1685 86.9891-19.3937 86.9891-19.1819 85.2945-19.1819 85.2945-18.9916 84.4508-18.9487 84.2592-18.9059 84.0677-18.8618 83.8703-18.8149 83.6643-18.7681 83.4584-18.7199 83.2462-18.6701 83.0245-18.6202 82.8027-18.569 82.5743-18.4318 81.9642-18.2941 81.3545-18.156 80.7446-18.0083 80.0916-17.8616 79.4386-17.7146 78.7855-17.462 77.6629-17.2089 76.5405-16.9555 75.4182-16.5539 73.6397-16.1531 71.861-15.7526 70.0821-15.6175 69.4815-15.4822 68.8808-15.3469 68.2801-15.3133 68.1313-15.2799 67.9826-15.2454 67.8293-15.0073 66.7724-14.7692 65.7156-14.5309 64.6588-13.7413 61.1555-12.9529 57.6518-12.1674 54.1476-12.1216 53.9434-12.0759 53.7393-12.0287 53.5288-11.803 52.5219-11.5774 51.5149-11.3517 50.508-10.9014 48.4981-10.4507 46.4883-9.99986 44.4787-9.95451 44.2765-9.90916 44.0743-9.86244 43.8659-8.59303 38.2068-7.32094 32.5483-6.04875 26.8898-6.01964 26.7604-5.99054 26.631-5.96055 26.4976-4.73725 21.0565-3.5136 15.6157-2.28961 10.1749-2.25116 10.004-2.2127 9.83302-2.17308 9.65692-1.44891 6.4379-0.724422 3.21896 0 0Z" fill="#3A4C7A" fill-rule="nonzero" fill-opacity="1" transform="matrix(1.01247 0 0 1 857.718 115.303)"/><path d="M0 0C2.4854 0 4.9708 0 7.53152 0 7.98308 1.5454 8.43429 3.09089 8.88483 4.63659 8.95228 4.86796 9.01974 5.0993 9.08923 5.33768 10.1648 9.02935 11.2216 12.726 12.2576 16.429 12.3062 16.6021 12.3547 16.7752 12.4047 16.9535 12.4949 17.275 12.5848 17.5967 12.6743 17.9184 12.8801 18.6734 12.8801 18.6734 13.1802 19.3937 13.2481 19.1563 13.3161 18.9189 13.3862 18.6743 14.0258 16.4409 14.6659 14.2077 15.3062 11.9746 15.6354 10.8265 15.9647 9.67825 16.2934 8.52997 16.6105 7.42258 16.928 6.31528 17.2456 5.20808 17.367 4.78485 17.4882 4.36158 17.6094 3.93828 17.7786 3.3471 17.9482 2.75606 18.1179 2.16504 18.1683 1.98857 18.2186 1.8121 18.2706 1.63028 18.3168 1.46975 18.363 1.30922 18.4105 1.14382 18.4708 0.933987 18.4708 0.933987 18.532 0.719909 18.6405 0.376576 18.6405 0.376576 18.8288 0 21.3142 0 23.7996 0 26.3603 0 26.3603 8.57464 26.3603 17.1493 26.3603 25.9837 24.9312 25.9837 23.5021 25.9837 22.0297 25.9837 22.0297 18.9625 22.0297 11.9412 22.0297 4.7072 21.5991 4.86952 21.5991 4.86952 21.4632 5.39099 21.3962 5.61266 21.3291 5.83434 21.26 6.06273 21.2225 6.185 21.1852 6.30727 21.1466 6.43325 21.0218 6.84208 20.8991 7.25151 20.7764 7.66096 20.6887 7.9498 20.6009 8.23859 20.513 8.52735 20.2796 9.29472 20.048 10.0626 19.8167 10.8306 19.5891 11.5862 19.3596 12.3412 19.1304 13.0963 18.4964 15.1857 17.8652 17.2762 17.2352 19.3667 17.014 20.1006 16.7925 20.8344 16.5708 21.5681 16.4483 21.9745 16.326 22.3809 16.2038 22.7873 16.1299 23.032 16.056 23.2766 15.982 23.5212 15.9179 23.7341 15.8539 23.9469 15.7878 24.1662 15.6279 24.6657 15.6279 24.6657 15.4396 25.0423 13.9484 25.0423 12.4571 25.0423 10.9207 25.0423 10.534 24.14 10.2137 23.3206 9.93537 22.3906 9.87827 22.201 9.87827 22.201 9.82002 22.0075 9.69512 21.5923 9.57132 21.1766 9.4475 20.7609 9.35912 20.4663 9.27065 20.1719 9.18213 19.8773 8.94895 19.101 8.71668 18.3242 8.48462 17.5474 8.11789 16.3205 7.74972 15.094 7.38177 13.8676 7.24754 13.4199 7.11348 12.9722 6.97945 12.5245 6.57276 11.1672 6.16359 9.81076 5.74454 8.45725 5.67354 8.22793 5.60255 7.99862 5.52941 7.76236 5.39825 7.34018 5.2666 6.91814 5.13435 6.49628 5.04896 6.22191 5.04896 6.22191 4.96182 5.94196 4.91228 5.78401 4.86273 5.62605 4.81167 5.46331 4.7072 5.08378 4.7072 5.08378 4.7072 4.7072 4.58293 4.7072 4.45866 4.7072 4.33063 4.7072 4.33063 11.7285 4.33063 18.7497 4.33063 25.9837 2.90152 25.9837 1.47241 25.9837 0 25.9837 0 17.4091 0 8.83447 0 0Z" fill="#3A4C7A" fill-rule="nonzero" fill-opacity="1" transform="matrix(1.01247 0 0 1 915.481 166.141)"/><path d="M0 0C2.50225 1.86524 3.78476 4.44419 4.31813 7.46753 4.75543 10.6135 4.01036 13.8339 2.09369 16.389 0.344718 18.507-2.08368 19.8218-4.81311 20.2006-8.01011 20.445-10.8416 19.7437-13.3567 17.6939-15.5639 15.6075-16.6586 12.7744-16.9172 9.79024-17.0089 6.51217-16.0055 3.6357-13.8509 1.18342-10.0674-2.45575-4.34725-2.90921 0 0Z" fill="#D68C2D" fill-rule="nonzero" fill-opacity="1" transform="matrix(1.01247 0 0 1 884.706 182.092)"/><path d="M0 0C0.186405 0.12427 0.37281 0.24854 0.564864 0.376576 1.02206 0.231784 1.02206 0.231784 1.5063-0.035304 4.09153-1.2903 7.26701-1.85368 10.0602-0.970125 11.587-0.285584 12.3839 0.813703 12.997 2.33227 13.5455 4.36985 13.6091 6.40407 13.5935 8.50018 13.5928 8.78374 13.5923 9.0673 13.5919 9.35086 13.5905 10.0885 13.5868 10.8261 13.5826 11.5637 13.5787 12.3198 13.577 13.076 13.5751 13.8322 13.5711 15.3094 13.5645 16.7867 13.5567 18.2639 12.1276 18.2639 10.6985 18.2639 9.22611 18.2639 9.22336 17.8917 9.22062 17.5193 9.21779 17.1358 9.20802 15.8995 9.19573 14.6633 9.18174 13.427 9.17335 12.6782 9.16595 11.9294 9.16088 11.1805 9.15595 10.4565 9.14832 9.73259 9.13891 9.00864 9.13578 8.73377 9.13361 8.4589 9.13242 8.18403 9.15907 5.57841 9.15907 5.57841 8.08461 3.28328 7.42547 2.79422 6.97229 2.78277 6.15466 2.76547 5.83538 2.75493 5.83538 2.75493 5.50963 2.74415 4.41094 2.82723 4.41094 2.82723 2.25946 3.57747 2.25946 8.42401 2.25946 13.2705 2.25946 18.2639 0.83035 18.2639-0.598756 18.2639-2.07117 18.2639-2.07676 17.7125-2.07676 17.7125-2.08248 17.15-2.09528 15.9303-2.10974 14.7107-2.12531 13.4909-2.13468 12.752-2.1434 12.0131-2.1506 11.2742-2.15759 10.5599-2.16633 9.84576-2.17625 9.13158-2.17971 8.86024-2.18256 8.58889-2.18476 8.31752-2.13057 5.60477-2.13057 5.60477-3.2009 3.2009-3.93384 2.83182-4.56241 2.763-5.37797 2.75371-5.58793 2.74837-5.79788 2.74304-6.01418 2.73753-7.05117 2.82858-7.05117 2.82858-9.03783 3.57747-9.09996 8.42401-9.1621 13.2705-9.22611 18.2639-10.6552 18.2639-12.0843 18.2639-13.5567 18.2639-13.5567 11.9262-13.5567 5.58839-13.5567-0.94144-12.1276-0.94144-10.6985-0.94144-9.22611-0.94144-9.16398-0.630765-9.10184-0.32009-9.03783 0-8.90579-0.0635914-8.77374-0.127183-8.63771-0.192701-5.72084-1.56395-2.75531-1.94493 0 0Z" fill="#3A4C7A" fill-rule="nonzero" fill-opacity="1" transform="matrix(1.01247 0 0 1 970.385 128.483)"/><path d="M0 0C2.85821 0 5.71642 0 8.66125 0 9.32961 2.6649 9.99759 5.3299 10.6649 7.99506 10.9749 9.23312 11.285 10.4711 11.5956 11.7091 11.8964 12.9079 12.1966 14.1067 12.4966 15.3056 12.6101 15.759 12.7237 16.212 12.8375 16.6652 13.6155 19.7637 14.3524 22.869 15.063 25.9837 13.5718 25.9837 12.0806 25.9837 10.5441 25.9837 10.3966 25.4673 10.249 24.9508 10.0969 24.4186 10.0512 24.2605 10.0055 24.1025 9.9584 23.9395 9.63687 22.7975 9.44102 21.7054 9.22611 20.5234 5.99509 20.5855 2.76407 20.6477-0.564864 20.7117-0.999809 22.4515-1.43475 24.1912-1.88288 25.9837-3.37412 25.9837-4.86536 25.9837-6.40179 25.9837-5.97813 23.6536-5.97813 23.6536-5.7596 22.7726-5.71025 22.5723-5.66089 22.3718-5.61004 22.1654-5.53064 21.8473-5.53064 21.8473-5.44964 21.5229-5.39296 21.2936-5.33627 21.0644-5.27787 20.8281-5.12393 20.2061-4.9694 19.5843-4.81458 18.9623-4.65218 18.3096-4.49044 17.6565-4.32861 17.0036-4.0573 15.9095-3.78549 14.8154-3.51334 13.7213-3.19867 12.4563-2.88476 11.1911-2.57128 9.92575-2.26909 8.70606-1.96639 7.48651-1.66345 6.26701-1.53471 5.74867-1.40611 5.23028-1.27766 4.71186-1.0988 3.9901-0.919189 3.26854-0.7395 2.54699-0.686188 2.33151-0.632877 2.11605-0.57795 1.89405-0.529123 1.69849-0.480295 1.50293-0.429989 1.30144-0.387608 1.13092-0.345228 0.960391-0.301562 0.784698-0.188288 0.376576-0.188288 0.376576 0 0ZM3.38918 3.57747C2.99536 5.15995 2.60247 6.74264 2.21079 8.32565 2.02889 9.0607 1.84667 9.79566 1.6637 10.5304 1.48713 11.2395 1.31142 11.9489 1.1363 12.6584 1.06934 12.929 1.00208 13.1995 0.9345 13.47 0.839892 13.8489 0.746382 14.228 0.653123 14.6072 0.599606 14.8229 0.546087 15.0387 0.490947 15.261 0.35125 15.8447 0.35125 15.8447 0.376576 16.5693 2.98625 16.5693 5.59592 16.5693 8.28467 16.5693 7.66057 13.5914 7.66057 13.5914 6.97034 10.6309 6.9217 10.4317 6.87306 10.2324 6.82295 10.0271 6.72214 9.6148 6.62108 9.20262 6.5197 8.79052 6.36386 8.1563 6.20939 7.52179 6.05501 6.88723 5.95616 6.48365 5.85724 6.08011 5.75822 5.67659 5.71214 5.48697 5.66605 5.29735 5.61857 5.102 5.57577 4.92884 5.53299 4.75569 5.4889 4.5773 5.45145 4.42459 5.41401 4.27191 5.37542 4.11459 5.30234 3.76608 5.30234 3.76608 5.08378 3.57747 4.79771 3.56396 4.51106 3.56167 4.22471 3.5657 4.06914 3.56741 3.91355 3.5691 3.75326 3.57085 3.57304 3.57413 3.57304 3.57413 3.38918 3.57747Z" fill="#3A4C7A" fill-rule="nonzero" fill-opacity="1" transform="matrix(1.01247 0 0 1 1098.87 166.141)"/><path d="M0 0C1.71083 1.54757 2.35647 3.99731 2.47445 6.24026 2.60517 14.0446 2.60517 14.0446 0.558245 16.5275-1.29349 18.3632-3.63138 18.6315-6.11422 18.6221-6.30462 18.6228-6.49504 18.6236-6.69121 18.6243-6.87725 18.6241-7.06329 18.6239-7.25497 18.6236-7.42231 18.6234-7.58964 18.6231-7.76206 18.623-8.38122 18.5945-8.99572 18.498-9.60931 18.4104-9.60931 21.02-9.60931 23.6297-9.60931 26.3185-11.0384 26.3185-12.4675 26.3185-13.9399 26.3185-13.9399 17.3089-13.9399 8.29923-13.9399-0.983363-12.5108-0.983363-11.0817-0.983363-9.60931-0.983363-9.54717-0.672688-9.48504-0.362013-9.42102-0.0419235-9.28899-0.105515-9.15695-0.169106-9.02091-0.234624-6.10495-1.60545-2.77172-2.04996 0 0ZM-9.60931 3.53554C-9.60931 7.20151-9.60931 10.8675-9.60931 14.6446-8.65391 14.8356-7.78893 14.881-6.8203 14.8917-6.65755 14.8971-6.49481 14.9026-6.32714 14.9082-4.96831 14.9215-3.94659 14.6156-2.96039 13.656-1.54476 11.3491-1.52894 8.03819-2.12486 5.45373-2.45646 4.353-2.85605 3.63142-3.76062 2.90007-5.58209 1.97377-7.89393 2.67786-9.60931 3.53554Z" fill="#3A4C7A" fill-rule="nonzero" fill-opacity="1" transform="matrix(1.01247 0 0 1 1003.37 128.525)"/><path d="M0 0C1.42911 0 2.85821 0 4.33063 0 4.33063 8.88531 4.33063 17.7706 4.33063 26.9252 2.90152 26.9252 1.47241 26.9252 0 26.9252-0.0621351 26.7388-0.12427 26.5524-0.188288 26.3603-0.363286 26.4261-0.538284 26.4918-0.718584 26.5596-0.951347 26.6454-1.18411 26.731-1.42393 26.8193-1.6533 26.9045-1.88266 26.9896-2.11898 27.0774-4.30167 27.7716-6.60816 27.6531-8.69655 26.7133-10.4326 25.7691-11.0665 24.5003-11.6842 22.6637-12.7109 19.0062-12.6368 14.0282-10.8619 10.6368-9.97375 9.17429-8.75043 8.29177-7.15495 7.71981-6.13855 7.47948-5.14639 7.49688-4.10703 7.49621-3.9205 7.49391-3.73398 7.4916-3.5418 7.48923-3.26419 7.48868-3.26419 7.48868-2.98098 7.48813-2.8154 7.48735-2.64982 7.48658-2.47923 7.48578-1.64338 7.54989-0.822035 7.74369 0 7.9081 0 5.29843 0 2.68875 0 0ZM-6.82544 12.5329C-7.65514 14.1627-7.81035 15.7995-7.79042 17.6049-7.7926 17.8028-7.79479 18.0006-7.79704 18.2044-7.79133 19.7419-7.6844 21.3429-6.71952 22.5946-5.37916 23.5921-4.28484 23.7069-2.63603 23.536-1.21873 23.2725-1.21873 23.2725 0 22.5946 0.0176639 22.2478 0.0221124 21.9005 0.0213755 21.5535 0.0213613 21.331 0.0213471 21.1087 0.0213323 20.8796 0.0203606 20.6375 0.0193887 20.3955 0.0183875 20.1461 0.0179879 19.7766 0.0179879 19.7766 0.0175802 19.3998 0.01686 18.7438 0.0150093 18.0878 0.0129287 17.432 0.0110052 16.763 0.0101432 16.0941 0.00919376 15.4253 0.0071723 14.112 0.00395718 12.7988 0 11.4856-1.07671 11.3223-2.11408 11.2506-3.2009 11.2384-3.36352 11.233-3.52613 11.2275-3.69368 11.2219-5.04211 11.2086-5.90694 11.4868-6.82544 12.5329Z" fill="#3A4C7A" fill-rule="nonzero" fill-opacity="1" transform="matrix(1.01247 0 0 1 978.2 165.199)"/><path d="M0 0C1.36697 0 2.73394 0 4.14234 0 4.14234 8.88531 4.14234 17.7706 4.14234 26.9252 2.77537 26.9252 1.40839 26.9252 0 26.9252 0 26.6766 0 26.4281 0 26.172-0.208613 26.2675-0.208613 26.2675-0.421442 26.3647-3.16128 27.5693-5.59085 27.7968-8.47296 26.9252-9.80067 26.324-10.6631 25.404-11.2973 24.1009-12.0915 21.9778-12.277 20.0436-12.2858 17.7932-12.2897 17.5511-12.2936 17.3087-12.2976 17.0592-12.3087 14.3002-11.8921 11.6037-10.0852 9.42616-9.84635 9.23394-9.84635 9.23394-9.60269 9.03783-9.46143 8.91732-9.46143 8.91732-9.31732 8.79437-7.82228 7.60324-6.10143 7.44169-4.24824 7.47267-4.06754 7.47208-3.88684 7.47147-3.70067 7.47085-2.39163 7.48054-1.33953 7.66454 0 7.9081 0 5.29843 0 2.68875 0 0ZM-6.81367 12.4741C-8.2822 14.7023-8.13107 17.7453-7.82131 20.2969-7.57196 21.4527-7.17215 22.4216-6.21351 23.1594-4.45135 24.0361-2.47855 23.5133-0.697254 22.9659-0.210276 22.8315-0.210276 22.8315 0 22.5946 0.0186396 22.2546 0.0240993 21.9141 0.0243635 21.5738 0.0252538 21.2467 0.0252538 21.2467 0.0261619 20.913 0.0257808 20.6758 0.0253996 20.4384 0.025007 20.1939 0.0251871 19.9522 0.0253673 19.7106 0.0255529 19.4615 0.0258309 18.9493 0.0254255 18.437 0.0245473 17.9249 0.0234746 17.267 0.024092 16.6092 0.02522 15.9512 0.0260624 15.3256 0.0254732 14.7001 0.025007 14.0745 0.0253882 13.8372 0.0257692 13.5999 0.0261619 13.3554 0.0255685 13.1374 0.024975 12.9194 0.0243635 12.6947 0.0242137 12.5017 0.0240638 12.3087 0.0239095 12.1098 0.0490263 11.681 0.0490263 11.681-0.188288 11.4856-1.25743 11.2877-2.31544 11.2505-3.40095 11.2384-3.56515 11.233-3.72935 11.2275-3.89852 11.2219-5.19519 11.2091-5.89434 11.5285-6.81367 12.4741Z" fill="#3A4C7A" fill-rule="nonzero" fill-opacity="1" transform="matrix(1.01247 0 0 1 1076.57 165.199)"/><path d="M0 0C1.53543 1.59325 1.59951 3.49496 1.59971 5.61775 1.60345 5.97467 1.60345 5.97467 1.60726 6.3388 1.61361 6.96564 1.61784 7.5924 1.62073 8.21926 1.62487 9.10557 1.63101 9.99184 1.6398 10.8781 1.64438 11.3488 1.64717 11.8194 1.64801 12.2901 1.65088 12.6089 1.65088 12.6089 1.65382 12.934 1.65502 13.214 1.65502 13.214 1.65625 13.4997 1.70884 14.0322 1.75557 14.3197 2.08147 14.7453 2.45428 14.8695 2.82709 14.9938 3.21119 15.1218 3.21119 16.2403 3.21119 17.3587 3.21119 18.511 1.61825 18.5732-0.074891 18.5727-1.41363 17.5932-2.21183 17.2247-2.95873 17.6733-3.75546 17.9462-5.18442 18.3836-6.55079 18.5672-8.03901 18.5817-8.25925 18.5856-8.25925 18.5856-8.48396 18.5895-10.014 18.5774-11.3795 18.2067-12.5109 17.1409-13.719 15.7533-14.0173 13.8323-13.9694 12.0423-13.8391 10.6431-13.5935 9.27207-12.5785 8.24202-10.8514 6.885-8.80671 6.62639-6.6857 6.4371-6.52053 6.42084-6.35536 6.40457-6.18519 6.38782-5.05862 6.28322-3.9451 6.25319-2.81402 6.27235-2.82539 5.85248-2.84212 5.43276-2.86109 5.01317-2.86983 4.77943-2.87858 4.54569-2.88757 4.30489-3.01739 3.54846-3.21302 3.22842-3.75546 2.69487-4.29245 2.51588-4.62689 2.48235-5.1838 2.48158-5.44409 2.48103-5.44409 2.48103-5.70965 2.48048-5.98891 2.48175-5.98891 2.48175-6.27382 2.48304-6.46448 2.48342-6.65516 2.48378-6.8516 2.48416-8.77253 2.49489-10.6876 2.58406-12.605 2.69487-12.6671 1.63858-12.7293 0.582281-12.7933-0.506024-12.1737-0.628687-11.5539-0.750098-10.9339-0.870832-10.7611-0.905176-10.5883-0.939521-10.4103-0.974905-7.23487-1.58986-2.66333-2.31037 0 0ZM-5.20293 9.43794C-5.36737 9.45116-5.5318 9.4644-5.70123 9.47803-6.95073 9.59467-8.12338 9.77998-9.10991 10.6147-9.58298 11.5041-9.72784 12.4545-9.50267 13.4457-9.23115 14.1483-8.92062 14.5626-8.27438 14.9336-6.48997 15.1547-4.71194 14.9027-3.00231 14.3687-2.76051 14.1692-2.76051 14.1692-2.79264 13.7097-2.79363 13.5056-2.79461 13.3015-2.79564 13.0912-2.79624 12.8709-2.79684 12.6506-2.79747 12.4237-2.79905 12.1918-2.80063 11.9599-2.80226 11.7209-2.8031 11.4883-2.80396 11.2556-2.80483 11.016-2.80706 10.4389-2.81016 9.86195-2.81402 9.28495-3.61533 9.28495-4.40538 9.36481-5.20293 9.43794Z" fill="#3A4C7A" fill-rule="nonzero" fill-opacity="1" transform="matrix(1.01247 0 0 1 1058.64 128.612)"/><path d="M0 0C0.212542-0.00257885 0.425085-0.0051577 0.644068-0.00781469 2.46013 0.0021216 4.06918 0.265004 5.50742 1.43937 7.01589 2.98625 7.00937 5.22608 7.01299 7.24615 7.01773 7.72692 7.02251 8.20769 7.02733 8.68846 7.03276 9.44256 7.03734 10.1967 7.0408 10.9508 7.04487 11.6812 7.05229 12.4115 7.06006 13.1419 7.06011 13.4811 7.06011 13.4811 7.06013 13.8272 7.0639 14.1421 7.0639 14.1421 7.06774 14.4634 7.06869 14.6479 7.06965 14.8323 7.07064 15.0223 7.15558 15.5936 7.31322 15.8475 7.70803 16.2633 8.19476 16.5023 8.19476 16.5023 8.64947 16.6399 8.67071 17.7905 8.62991 18.8904 8.46119 20.0291 7.00353 19.9827 5.75368 19.825 4.40123 19.2642 3.2506 18.8217 2.57569 18.9696 1.4357 19.3466-1.05901 20.1581-3.82656 20.4881-6.25838 19.2568-7.48943 18.4396-8.03451 17.3299-8.38323 15.9235-8.73195 13.8566-8.64006 11.8228-7.55506 10.0028-5.61931 7.9566-2.48324 7.93137 0.11768 7.76688 0.359788 7.75062 0.601896 7.73435 0.851341 7.71761 1.44225 7.67807 2.03322 7.6396 2.62426 7.60213 2.60272 7.20975 2.57871 6.8175 2.55365 6.42533 2.53399 6.09766 2.53399 6.09766 2.51393 5.76338 2.44188 5.20049 2.38084 4.86258 2.05941 4.40123 0.298525 3.50479-1.59851 3.83379-3.50678 3.95713-4.72741 4.0334-5.94382 4.0438-7.16671 4.02466-7.36767 3.37276-7.37416 2.77435-7.36677 2.0947-7.36508 1.89179-7.36337 1.68889-7.36163 1.47983-7.35944 1.32546-7.35725 1.17109-7.35499 1.01205-4.99079 0.158407-2.49259 0.0153369 0 0ZM-0.70608 10.956C-0.841636 10.9692-0.977193 10.9825-1.11686 10.9961-2.13688 11.1123-3.02643 11.3312-3.74222 12.121-4.24561 12.9688-4.24243 13.8002-4.1541 14.757-3.9078 15.496-3.72172 15.7943-3.08322 16.2398-1.85157 16.6581-0.633132 16.4338 0.611936 16.181 0.744094 16.1557 0.876253 16.1303 1.01242 16.1041 1.56393 15.9964 2.09058 15.8764 2.62426 15.6984 2.62426 14.083 2.62426 12.4675 2.62426 10.803 1.48794 10.803 0.414584 10.8265-0.70608 10.956Z" fill="#3A4C7A" fill-rule="nonzero" fill-opacity="1" transform="matrix(1.01247 0 0 1 1031.97 172.66)"/><path d="M0 0C0.328621-0.00623474 0.328621-0.00623474 0.66388-0.0125954 2.42424-0.00834154 4.2085 0.22682 5.57803 1.42393 7.14767 3.20796 7.10993 5.48997 7.12405 7.72863 7.12934 8.19372 7.13473 8.6588 7.14023 9.12387 7.14804 9.85445 7.15499 10.585 7.15991 11.3156 7.16508 12.0225 7.17372 12.7293 7.1829 13.4361 7.18351 13.6556 7.18412 13.8751 7.18475 14.1012 7.18787 14.3042 7.191 14.5073 7.1942 14.7164 7.19573 14.8952 7.19725 15.0739 7.19882 15.2581 7.28795 15.8042 7.39309 15.9529 7.83749 16.2752 8.14816 16.3995 8.45884 16.5237 8.77893 16.6518 8.71679 17.7702 8.65466 18.8886 8.59064 20.0409 5.11221 19.8558 5.11221 19.8558 3.69515 18.9112 2.85941 18.9868 2.08297 19.2317 1.28271 19.4761 0.25783 19.7731-0.70015 19.9926-1.7652 20.0409-1.89723 20.0506-2.02928 20.0604-2.16531 20.0703-3.84523 20.1423-5.59388 19.7923-6.90781 18.7-8.43732 16.9971-8.47751 14.8965-8.38736 12.7339-8.28722 11.4454-7.86097 10.4187-6.94312 9.50855-5.19187 8.20271-3.04204 8.02624-0.929672 7.84925-0.67578 7.82571-0.42191 7.80193-0.168062 7.77792 1.78923 7.599 1.78923 7.599 2.75371 7.6139 2.71571 7.1579 2.67178 6.70384 2.62426 6.2488 2.60915 6.05621 2.60915 6.05621 2.59374 5.85973 2.51709 5.17317 2.42205 4.83622 1.93805 4.33356 0.370936 3.40661-1.74865 3.86241-3.49804 3.96898-4.74338 4.04196-5.97764 4.05093-7.22555 4.03643-7.22555 3.04226-7.22555 2.0481-7.22555 1.02382-4.84358 0.229823-2.50267 0.02415 0 0ZM-0.670776 10.956C-0.815313 10.9677-0.95985 10.9793-1.10877 10.9913-2.25164 11.1088-3.02197 11.4629-3.81283 12.3329-4.14638 13.2038-4.14602 14.0375-4.02466 14.9572-3.70577 15.6304-3.47958 15.9597-2.84786 16.3457-1.06988 16.7498 1.14469 16.3265 2.75371 15.522 2.75371 13.9686 2.75371 12.4152 2.75371 10.8148 1.58087 10.8148 0.485353 10.8377-0.670776 10.956Z" fill="#3A4C7A" fill-rule="nonzero" fill-opacity="1" transform="matrix(1.01247 0 0 1 1004.01 172.648)"/><path d="M0 0C1.05231 0.944879 1.57444 2.25016 1.67266 3.64258 1.69035 4.29304 1.69692 4.94278 1.69973 5.59347 1.7025 5.83177 1.70525 6.07007 1.70809 6.3156 1.7183 7.20352 1.72533 8.09146 1.73212 8.97943 1.73894 9.85136 1.74849 10.7232 1.75858 11.5952 1.76007 11.94 1.76007 11.94 1.76159 12.2918 1.76411 12.5061 1.76665 12.7204 1.76924 12.9412 1.7713 13.2231 1.7713 13.2231 1.77341 13.5107 1.82904 14.0893 1.89978 14.4705 2.19988 14.9711 2.5727 15.0953 2.94551 15.2196 3.32961 15.3476 3.32961 16.4661 3.32961 17.5845 3.32961 18.7368 1.56078 18.8313-0.0586549 18.581-1.64458 17.7432-2.34905 17.546-2.87507 17.7882-3.53114 18.0425-4.99382 18.5868-6.2881 18.7742-7.83823 18.7839-8.06523 18.7897-8.06523 18.7897-8.29681 18.7956-9.86038 18.8058-11.2357 18.4603-12.3924 17.3652-13.704 15.8657-13.8637 13.8527-13.7928 11.935-13.6588 10.5547-13.3207 9.42033-12.3373 8.41117-10.6832 7.06083-8.7071 6.91166-6.64965 6.68643-6.4618 6.66508-6.27393 6.64371-6.08039 6.62171-4.88722 6.49863-3.70619 6.47727-2.50732 6.49814-2.55052 6.078-2.59853 5.65836-2.64853 5.23897-2.67475 5.00523-2.70096 4.77149-2.72797 4.53067-2.89878 3.79826-3.10856 3.44818-3.63704 2.92067-4.17403 2.74168-4.50847 2.70815-5.06538 2.70738-5.32568 2.70683-5.32568 2.70683-5.59123 2.70628-5.87049 2.70755-5.87049 2.70755-6.1554 2.70884-6.34607 2.7092-6.53674 2.70958-6.73318 2.70996-8.65411 2.72069-10.5692 2.80987-12.4866 2.92067-12.5487 1.86437-12.6109 0.808079-12.6749-0.280226-12.0553-0.402889-11.4355-0.5243-10.8155-0.645034-10.6427-0.679378-10.4699-0.713722-10.2919-0.749107-7.08037-1.37105-2.85634-1.97747 0 0ZM-4.99037 9.66374C-5.16378 9.67696-5.33721 9.69019-5.51588 9.70382-6.7929 9.81711-7.99328 9.98206-8.99149 10.8523-9.52097 11.8266-9.53341 12.7256-9.35629 13.8061-9.05077 14.5143-8.80068 14.7441-8.15596 15.1594-6.17889 15.4834-4.38035 14.977-2.50732 14.4062-2.50732 12.7907-2.50732 11.1752-2.50732 9.51075-3.33935 9.51075-4.16186 9.59162-4.99037 9.66374Z" fill="#3A4C7A" fill-rule="nonzero" fill-opacity="1" transform="matrix(1.01247 0 0 1 1144.5 128.386)"/><path d="M0 0C0.285478 0.00234372 0.285478 0.00234372 0.576723 0.00473478 2.98422 0.0592302 4.74441 0.697685 6.42975 2.45216 7.72649 4.06326 8.06091 6.31559 8.04931 8.31997 8.05004 8.69133 8.05004 8.69133 8.05079 9.07018 8.02284 9.96793 7.92685 10.8625 7.83749 11.7562 3.92298 11.7562 0.00847296 11.7562-4.02466 11.7562-3.69113 13.8994-3.69113 13.8994-2.44903 15.4725-0.513563 16.4013 1.84563 16.0973 3.93051 16.0162 4.25585 16.0052 4.58118 15.9945 4.90653 15.9839 5.69537 15.9581 6.48389 15.9283 7.27262 15.8986 7.36583 17.483 7.36583 17.483 7.46091 19.0995 3.57278 19.9549-1.44104 21.0257-5.10731 18.9987-6.96212 17.7912-7.66745 16.0686-8.13168 13.9569-8.82489 10.1172-8.63234 5.80273-6.38929 2.50805-4.80094 0.491235-2.45684-0.0260318 0 0ZM-3.03614 4.7072C-3.85762 5.79436-4.02466 7.04063-4.02466 8.36706-1.47712 8.36706 1.07042 8.36706 3.69515 8.36706 3.70767 6.34345 3.70767 6.34345 2.942 4.60128 1.23235 3.17077-1.40229 3.18475-3.03614 4.7072Z" fill="#3A4C7A" fill-rule="nonzero" fill-opacity="1" transform="matrix(1.01247 0 0 1 954.824 172.648)"/><path d="M0 0C0 1.18057 0 2.36113 0 3.57747-2.11371 3.40542-2.11371 3.40542-2.68103 3.3422-3.89567 3.20847-5.09778 3.1603-6.31941 3.15382-6.50328 3.14994-6.68714 3.14606-6.87655 3.14205-8.29274 3.13447-9.47368 3.34944-10.6971 4.08349-12.902 6.41432-12.6779 10.5614-12.6153 13.5567-12.5802 14.2528-12.5246 14.9456-12.4623 15.6396-12.4491 15.8121-12.4359 15.9846-12.4222 16.1622-12.2796 17.7742-12.0039 19.4528-10.9207 20.7117-9.4049 21.8618-8.15741 21.8778-6.29587 21.8768-6.06971 21.8769-5.84355 21.8769-5.61053 21.877-3.71366 21.866-1.8809 21.7056 0 21.4648 0 22.7075 0 23.9502 0 25.2306-4.272 26.1158-9.77933 27.1106-13.6626 24.6187-16.2422 22.5943-16.8133 19.4445-17.21 16.356-17.6401 11.8419-17.8656 5.55632-15.063 1.69459-11.5822-2.16173-4.48388-1.49463 0 0Z" fill="#3A4C7A" fill-rule="nonzero" fill-opacity="1" transform="matrix(1.01247 0 0 1 931.876 121.14)"/><path d="M0 0C1.97668 1.71791 2.68232 4.21239 2.86293 6.75769 2.97504 10.1624 2.92052 13.8295 0.615614 16.5818 0.298745 16.8712-0.0104675 17.0994-0.376576 17.3225-0.494779 17.3948-0.61298 17.4672-0.734765 17.5416-2.27183 18.3878-3.88679 18.5215-5.61333 18.511-5.79552 18.5102-5.97771 18.5091-6.16542 18.5083-8.3277 18.4728-10.2381 18.1395-11.8438 16.6032-14.075 14.1975-14.3721 11.0082-14.3378 7.85367-14.2266 5.07358-13.7532 2.20649-11.6739 0.188288-8.72598-2.21546-3.03601-2.3327 0 0ZM-8.90837 3.41272C-10.4444 6.02968-10.1979 9.74127-9.46221 12.5954-9.10541 13.5517-8.6056 14.0428-7.70951 14.524-7.26276 14.7222-6.89068 14.8371-6.40179 14.8748-6.20374 14.8903-6.00568 14.9058-5.80162 14.9218-4.58293 14.8419-3.56402 14.6421-2.64779 13.8039-1.12524 11.3585-1.15724 7.95841-1.74166 5.20146-2.05922 4.05853-2.42528 3.2073-3.45979 2.56542-5.31452 1.7388-7.43843 2.06197-8.90837 3.41272Z" fill="#3A4C7A" fill-rule="nonzero" fill-opacity="1" transform="matrix(1.01247 0 0 1 949.414 128.672)"/><path d="M0 0C1.73084 1.32217 2.39494 3.53967 2.69487 5.61333 2.90466 9.38365 3.12877 13.525 0.477339 16.5378-1.52354 18.4813-4.21387 18.4866-6.82838 18.4582-7.92893 18.428-8.89956 18.2736-9.92042 17.852-10.1203 17.78-10.1203 17.78-10.3242 17.7065-11.6632 17.1483-12.5886 16.1018-13.2236 14.816-14.7732 10.9621-14.895 6.1326-13.2846 2.27857-12.5184 0.751346-11.3442-0.394475-9.73213-0.976744-6.48225-2.01528-2.91951-1.85669 0 0ZM-8.88851 3.30314C-9.94963 4.83516-9.98925 6.59348-9.97927 8.40235-9.97821 8.6021-9.97714 8.80183-9.97605 9.00763-9.94814 10.8045-9.9137 12.6602-8.5774 14.023-7.56218 14.7495-6.24646 14.9727-5.02493 14.8394-3.90984 14.5901-3.09769 14.2712-2.3889 13.3331-1.63178 11.7648-1.59638 10.2224-1.58867 8.50826-1.58479 8.29638-1.58091 8.08448-1.57691 7.86617-1.56964 6.29272-1.64625 4.56975-2.62426 3.25973-3.81815 2.17438-4.88121 2.11828-6.45916 2.16017-7.49512 2.26424-8.19519 2.51356-8.88851 3.30314Z" fill="#3A4C7A" fill-rule="nonzero" fill-opacity="1" transform="matrix(1.01247 0 0 1 1103.2 128.706)"/><path d="M0 0C1.93854 1.65485 2.30437 3.79577 2.55365 6.2488 2.59862 7.24143 2.59806 8.23145 2.59044 9.22464 2.58973 9.49949 2.58919 9.77434 2.58882 10.0492 2.5874 10.763 2.58372 11.4767 2.57952 12.1905 2.57562 12.9227 2.57393 13.6549 2.57204 14.3871 2.56803 15.8166 2.56143 17.2463 2.55365 18.6759 1.12455 18.6759-0.304556 18.6759-1.77696 18.6759-1.77971 18.3101-1.78246 17.9446-1.78529 17.5679-1.79507 16.3527-1.80736 15.1375-1.82135 13.9223-1.82973 13.1863-1.83713 12.4504-1.8422 11.7144-1.84713 11.0027-1.85477 10.2909-1.86418 9.57918-1.8673 9.30921-1.86948 9.03922-1.87066 8.76923-1.81447 6.02115-1.81447 6.02115-3.01261 3.68338-3.77929 3.25089-4.2506 3.19468-5.14261 3.17736-5.49139 3.1668-5.49139 3.1668-5.84723 3.15603-6.93644 3.23088-6.93644 3.23088-8.93191 3.98935-8.99404 8.83588-9.05618 13.6824-9.12021 18.6759-10.5493 18.6759-11.9784 18.6759-13.4508 18.6759-13.4508 12.338-13.4508 6.00028-13.4508-0.52956-12.0838-0.52956-10.7169-0.52956-9.30848-0.52956-9.24635-0.218885-9.18421 0.0917904-9.12021 0.41188-8.97676 0.348289-8.83332 0.284697-8.68552 0.219179-5.83492-1.01217-2.88434-1.52083 0 0Z" fill="#3A4C7A" fill-rule="nonzero" fill-opacity="1" transform="matrix(1.01247 0 0 1 1124.12 128.072)"/><path d="M0 0C1.42911 0 2.85821 0 4.33063 0 4.33338 0.383702 4.33611 0.767404 4.33894 1.16273 4.34847 2.43659 4.36101 3.71042 4.375 4.98423 4.38339 5.75585 4.39079 6.52745 4.39586 7.2991 4.40078 8.04508 4.40842 8.79098 4.41783 9.53692 4.42096 9.82019 4.42313 10.1035 4.42432 10.3868 4.4189 12.6908 4.4189 12.6908 5.08378 14.8748 6.17969 15.802 7.38628 15.6317 8.74362 15.5257 9.46979 15.4325 10.0983 15.2625 10.7758 14.9916 11.109 14.8748 11.109 14.8748 11.6739 14.8748 11.6739 9.96609 11.6739 5.05742 11.6739 0 13.0408 0 14.4078 0 15.8162 0 15.8162 6.33778 15.8162 12.6756 15.8162 19.2054 14.4492 19.2054 13.0823 19.2054 11.6739 19.2054 11.6117 18.8947 11.5496 18.584 11.4856 18.2639 11.2842 18.3594 11.2842 18.3594 11.0788 18.4566 10.8083 18.5826 10.8083 18.5826 10.5324 18.7111 10.3554 18.7942 10.1785 18.8772 9.99618 18.9626 8.79059 19.4657 7.72864 19.6502 6.4371 19.6408 6.28789 19.64 6.13868 19.6392 5.98495 19.6384 4.38708 19.6076 2.93867 19.3344 1.69459 18.2639 0.262794 16.5376-0.0252445 14.1622-0.0213755 11.9916-0.021403 11.8611-0.0214305 11.7305-0.0214588 11.5959-0.0213288 11.1691-0.0198693 10.7422-0.0183875 10.3154-0.018036 10.0175-0.0177682 9.7197-0.0175802 9.42188-0.0168645 8.64152-0.0150176 7.86118-0.0129287 7.08085-0.0109957 6.28313-0.0101412 5.48542-0.00919376 4.68771-0.00718009 3.12513-0.00387055 1.56257 0 0Z" fill="#3A4C7A" fill-rule="nonzero" fill-opacity="1" transform="matrix(1.01247 0 0 1 1010.23 127.542)"/><path d="M0 0C1.30552 0.901239 1.95938 2.37388 2.31829 3.8952 2.61707 5.68643 2.66136 7.43137 2.65443 9.24451 2.65406 9.51647 2.6538 9.78844 2.65362 10.0604 2.65291 10.7708 2.65105 11.4812 2.64897 12.1916 2.64703 12.9186 2.64617 13.6457 2.64523 14.3728 2.64322 15.7953 2.63991 17.2179 2.63603 18.6405 1.20693 18.6405-0.22218 18.6405-1.69459 18.6405-1.70018 18.0977-1.70018 18.0977-1.7059 17.544-1.71871 16.343-1.73316 15.142-1.74873 13.9411-1.7581 13.2136-1.76682 12.4861-1.77402 11.7586-1.78102 11.0553-1.78975 10.3521-1.79967 9.64895-1.80313 9.38181-1.80599 9.11468-1.80819 8.84752-1.75169 6.1492-1.75169 6.1492-2.82432 3.76576-4.24904 2.92256-5.65213 3.0821-7.21378 3.47155-7.39558 3.5218-7.57738 3.57204-7.76468 3.62381-8.24648 3.75533-8.73638 3.8561-9.22611 3.95405-9.22611 8.80058-9.22611 13.6471-9.22611 18.6405-10.5931 18.6405-11.9601 18.6405-13.3685 18.6405-13.3685 12.3649-13.3685 6.08923-13.3685-0.376576-12.0015-0.376576-10.6345-0.376576-9.22611-0.376576-9.22611-0.0659008-9.22611 0.244774-9.22611 0.564864-9.04456 0.485496-8.86301 0.406129-8.67597 0.324355-8.43571 0.220129-8.19544 0.115935-7.95517 0.011768-7.83575-0.0405371-7.71633-0.0928422-7.59331-0.146733-5.34593-1.11825-2.16815-1.25219 0 0Z" fill="#3A4C7A" fill-rule="nonzero" fill-opacity="1" transform="matrix(1.01247 0 0 1 1057.7 173.484)"/><path d="M0 0C0.183629-0.000242715 0.367259-0.000485431 0.556452-0.000735499 2.75638 0.0299571 4.90438 0.413482 7.0608 0.82376 7.0816 2.09234 7.00456 3.32795 6.87251 4.58952 6.71027 4.57242 6.54803 4.5553 6.38088 4.53767 5.7714 4.47381 5.16184 4.41075 4.55224 4.34818 4.28982 4.32109 4.02742 4.29371 3.76507 4.266 0.443078 3.77389 0.443078 3.77389-2.64779 4.73074-3.01119 5.29951-3.02896 5.62109-2.91846 6.28411-2.34598 7.01424-1.80529 7.19731-0.917904 7.41384-0.796015 7.44456-0.674128 7.47528-0.548545 7.50693 0.141841 7.67787 0.835441 7.82881 1.53204 7.97209 5.77054 8.84726 5.77054 8.84726 7.0608 10.803 7.87699 12.3577 7.82952 14.5428 7.40207 16.22 6.94431 17.4766 6.20008 18.4412 5.02715 19.0892 1.43992 20.7076-3.14109 20.1202-6.87251 19.2759-7.0608 19.0876-7.0608 19.0876-7.08218 18.738-7.08119 18.5891-7.08021 18.4402-7.0792 18.2867-7.07859 18.1259-7.07798 17.9651-7.07736 17.7994-7.07578 17.6304-7.0742 17.4614-7.07256 17.2872-7.07172 17.1174-7.07087 16.9477-7.07 16.7727-7.06777 16.3518-7.06467 15.9311-7.0608 15.5102-4.52863 15.6818-4.52863 15.6818-3.55394 15.8045-2.58267 15.9032-1.61099 15.9211-0.635472 15.9338-0.475856 15.9379-0.316241 15.9419-0.151789 15.9461 0.937444 15.9519 1.73754 15.7781 2.73018 15.3219 3.10299 14.8714 3.10481 14.5874 3.16559 14.0039 3.09724 13.3477 2.99786 13.1541 2.54189 12.6859 1.98146 12.4553 1.98146 12.4553 1.31802 12.3093 1.19549 12.2785 1.07297 12.2476 0.946727 12.2158 0.239922 12.042-0.469954 11.8939-1.18489 11.7577-5.4941 10.9328-5.4941 10.9328-6.70776 9.42616-7.56987 7.96154-7.63841 6.10809-7.34985 4.4689-7.00013 3.1197-6.42601 2.05357-5.26839 1.24594-3.56286 0.258402-1.95033-0.00272369 0 0Z" fill="#3A4C7A" fill-rule="nonzero" fill-opacity="1" transform="matrix(1.01247 0 0 1 1151.2 172.66)"/><path d="M0 0C1.42911 0 2.85821 0 4.33063 0 4.33063 1.80192 4.33063 3.60383 4.33063 5.46035 6.07041 5.46035 7.81019 5.46035 9.60269 5.46035 9.60269 6.70305 9.60269 7.94576 9.60269 9.22611 7.86291 9.22611 6.12313 9.22611 4.33063 9.22611 4.3532 10.6803 4.37631 12.1344 4.40073 13.5885 4.40888 14.0831 4.41673 14.5777 4.42426 15.0722 4.43515 15.7836 4.44715 16.4949 4.45934 17.2063 4.46248 17.4269 4.46563 17.6477 4.46887 17.8751 4.47451 18.1859 4.47451 18.1859 4.48026 18.5031 4.48464 18.7752 4.48464 18.7752 4.48912 19.053 4.52087 19.6166 4.60489 20.1568 4.7072 20.7117 5.27728 20.8738 5.80731 20.9343 6.39885 20.9595 6.57482 20.9675 6.75079 20.9753 6.93208 20.9834 7.11436 20.9908 7.29665 20.9983 7.48445 21.0058 7.76223 21.018 7.76223 21.018 8.04563 21.0305 8.50187 21.0505 8.95812 21.0697 9.4144 21.0883 9.71456 21.6886 9.62185 22.3365 9.61445 22.9946 9.61361 23.1367 9.61276 23.2786 9.61189 23.4249 9.60966 23.7759 9.60628 24.1266 9.60269 24.4774 7.22229 25.1266 4.37196 25.5264 2.0947 24.3245 0.788705 23.4103 0.373566 22.2627 0.0880761 20.7431-0.0610976 19.6625-0.0230279 18.5706-0.0183875 17.4821-0.0181211 17.2457-0.0178546 17.0094-0.0175802 16.7659-0.0167078 16.1415-0.01502 15.5173-0.0129287 14.8929-0.0109928 14.2542-0.0101405 13.6155-0.00919376 12.9768-0.00712213 11.7266-0.003874 10.4763 0 9.22611-0.807756 9.22611-1.61551 9.22611-2.44774 9.22611-2.44774 7.98341-2.44774 6.74071-2.44774 5.46035-1.63999 5.46035-0.832233 5.46035 0 5.46035 0 3.65844 0 1.85652 0 0Z" fill="#3A4C7A" fill-rule="nonzero" fill-opacity="1" transform="matrix(1.01247 0 0 1 1131.85 167.647)"/><path d="M0 0C1.42911 0 2.85821 0 4.33063 0 4.33063 1.80192 4.33063 3.60383 4.33063 5.46035 6.00827 5.46035 7.68592 5.46035 9.4144 5.46035 9.4144 6.70305 9.4144 7.94576 9.4144 9.22611 7.73676 9.22611 6.05911 9.22611 4.33063 9.22611 4.34887 10.7106 4.36821 12.1949 4.39038 13.6793 4.3978 14.1843 4.4043 14.6892 4.41005 15.1943 4.41866 15.9202 4.42958 16.646 4.44095 17.3717 4.44312 17.5975 4.44531 17.8233 4.44754 18.056 4.45129 18.267 4.45503 18.478 4.45888 18.6954 4.46138 18.8807 4.46389 19.0659 4.46648 19.2568 4.52281 19.8083 4.64914 20.2161 4.89549 20.7117 5.72849 21.2519 6.72791 21.1304 7.6845 21.1117 7.85089 21.1101 8.01726 21.1084 8.18869 21.1067 8.59729 21.1022 9.00585 21.0955 9.4144 21.0883 9.62114 21.8294 9.62385 22.5363 9.61445 23.3006 9.61361 23.432 9.61276 23.5632 9.61189 23.6985 9.60967 24.0209 9.6063 24.3433 9.60269 24.6657 8.28327 25.0047 6.98079 25.0881 5.6251 25.1011 5.38946 25.106 5.38946 25.106 5.14906 25.1111 3.82646 25.1101 2.6814 24.8436 1.5416 24.1597-0.132481 22.3899-0.0562684 19.8443-0.036775 17.5557-0.0362421 17.3161-0.0357094 17.0767-0.0351603 16.8301-0.033423 16.2007-0.030054 15.5714-0.0258575 14.9422-0.0219694 14.2971-0.0202778 13.652-0.0183875 13.007-0.0142568 11.7467-0.00776733 10.4864 0 9.22611-0.807756 9.22611-1.61551 9.22611-2.44774 9.22611-2.44774 7.98341-2.44774 6.74071-2.44774 5.46035-1.63999 5.46035-0.832233 5.46035 0 5.46035 0 3.65844 0 1.85652 0 0Z" fill="#3A4C7A" fill-rule="nonzero" fill-opacity="1" transform="matrix(1.01247 0 0 1 1032.53 122.081)"/><path d="M0 0C1.42911 0 2.85821 0 4.33063 0 4.33063 1.80192 4.33063 3.60383 4.33063 5.46035 6.00827 5.46035 7.68592 5.46035 9.4144 5.46035 9.4144 6.70305 9.4144 7.94576 9.4144 9.22611 7.73676 9.22611 6.05911 9.22611 4.33063 9.22611 4.34336 10.608 4.35661 11.9897 4.37497 13.3715 4.38337 14.0151 4.3908 14.6585 4.39586 15.3022 4.4017 16.0411 4.41202 16.7799 4.42257 17.5189 4.42377 17.7488 4.42497 17.9786 4.4262 18.2156 4.42994 18.4304 4.43366 18.6452 4.4375 18.8665 4.44064 19.1493 4.44064 19.1493 4.44384 19.4378 4.53148 20.0457 4.72434 20.4059 5.08378 20.9 5.61033 21.123 6.12571 21.1104 6.69305 21.1067 6.85203 21.1061 7.01101 21.1055 7.1748 21.1048 7.33912 21.1032 7.50344 21.1016 7.67274 21.1 7.83997 21.0991 8.00719 21.0984 8.17949 21.0974 8.59115 21.0952 9.00276 21.0922 9.4144 21.0883 9.551 21.9412 9.62416 22.7549 9.61445 23.6184 9.61276 23.8163 9.61106 24.014 9.60931 24.2178 9.60712 24.3656 9.60493 24.5135 9.60269 24.6657 8.28327 25.0047 6.98079 25.0881 5.6251 25.1011 5.38946 25.106 5.38946 25.106 5.14906 25.1111 3.82646 25.1101 2.6814 24.8436 1.5416 24.1597-0.107653 22.4163-0.0555706 19.9771-0.036775 17.7211-0.0362421 17.4772-0.0357094 17.2333-0.0351603 16.982-0.0337367 16.3401-0.0300498 15.6982-0.0258575 15.0561-0.0219744 14.3984-0.0202788 13.7408-0.0183875 13.0831-0.0143739 11.7974-0.00776144 10.5118 0 9.22611-0.807756 9.22611-1.61551 9.22611-2.44774 9.22611-2.44774 7.98341-2.44774 6.74071-2.44774 5.46035-1.63999 5.46035-0.832233 5.46035 0 5.46035 0 3.65844 0 1.85652 0 0Z" fill="#3A4C7A" fill-rule="nonzero" fill-opacity="1" transform="matrix(1.01247 0 0 1 1066.66 122.081)"/><path d="M0 0C1.42911 0 2.85821 0 4.33063 0 4.33063 8.88531 4.33063 17.7706 4.33063 26.9252 2.90152 26.9252 1.47241 26.9252 0 26.9252 0 18.0399 0 9.15456 0 0Z" fill="#3A4C7A" fill-rule="nonzero" fill-opacity="1" transform="matrix(1.01247 0 0 1 1151.87 119.822)"/><path d="M0 0C0 1.42911 0 2.85821 0 4.33063-2.04763 4.84842-2.04763 4.84842-2.6808 5.00636-2.85196 5.05036-3.02309 5.09435-3.19942 5.13967-3.37099 5.18306-3.54257 5.22644-3.71933 5.27115-4.56835 5.53393-5.38831 5.88344-6.21351 6.21351-6.27564 10.563-6.33778 14.9124-6.40179 19.3937-7.8309 19.3937-9.26001 19.3937-10.7324 19.3937-10.7324 13.118-10.7324 6.84239-10.7324 0.376576-9.30331 0.376576-7.87421 0.376576-6.40179 0.376576-6.33966 0.997927-6.27752 1.61928-6.21351 2.25946-6.03802 2.15946-5.86254 2.05947-5.68174 1.95643-3.88978 0.955698-2.09948 0 0 0Z" fill="#3A4C7A" fill-rule="nonzero" fill-opacity="1" transform="matrix(1.01247 0 0 1 1128.04 172.731)"/><path d="M0 0C1.42911 0 2.85821 0 4.33063 0 4.33063 6.33778 4.33063 12.6756 4.33063 19.2054 2.90152 19.2054 1.47241 19.2054 0 19.2054 0 12.8676 0 6.52983 0 0Z" fill="#3A4C7A" fill-rule="nonzero" fill-opacity="1" transform="matrix(1.01247 0 0 1 1080 127.542)"/><path d="M0 0C1.42911 0 2.85821 0 4.33063 0 4.33063 6.27564 4.33063 12.5513 4.33063 19.0171 2.90152 19.0171 1.47241 19.0171 0 19.0171 0 12.7415 0 6.46581 0 0Z" fill="#3A4B7A" fill-rule="nonzero" fill-opacity="1" transform="matrix(1.01247 0 0 1 987.542 173.108)"/><path d="M0 0C1.42911 0 2.85821 0 4.33063 0 4.33063 1.49124 4.33063 2.98248 4.33063 4.51891 2.90152 4.51891 1.47241 4.51891 0 4.51891 0 3.02767 0 1.53643 0 0Z" fill="#3A4C7A" fill-rule="nonzero" fill-opacity="1" transform="matrix(1.01247 0 0 1 987.542 165.576)"/><path d="M0 0C1.42911 0 2.85821 0 4.33063 0 4.33063 1.49124 4.33063 2.98248 4.33063 4.51891 2.90152 4.51891 1.47241 4.51891 0 4.51891 0 3.02767 0 1.53643 0 0Z" fill="#3A4C7A" fill-rule="nonzero" fill-opacity="1" transform="matrix(1.01247 0 0 1 1080 120.01)"/></g></g></g></g></g></svg>