<svg width="523" height="117" xmlns="http://www.w3.org/2000/svg" xmlns:xlink="http://www.w3.org/1999/xlink" xml:space="preserve" overflow="hidden"><g transform="translate(-382 -337)"><g><g><g><g><path d="M0 0C10.1825 0 20.365 0 30.856 0 30.856 4.13424 30.856 8.26848 30.856 12.528 25.7265 12.528 20.597 12.528 15.312 12.528 15.312 39.6302 15.312 66.7325 15.312 94.656 20.4415 94.656 25.571 94.656 30.856 94.656 30.856 98.7902 30.856 102.924 30.856 107.184 20.6735 107.184 10.491 107.184 0 107.184 0 71.8133 0 36.4426 0 0Z" fill="#3A4C7A" fill-rule="nonzero" fill-opacity="1" transform="matrix(1.08538 0 0 1 388.54 344.032)"/><path d="M0 0C5.05296 0 10.1059 0 15.312 0 15.051 2.08799 15.051 2.08799 14.8715 2.88544 14.8308 3.06808 14.7902 3.25073 14.7483 3.43891 14.6818 3.73104 14.6818 3.73104 14.6141 4.02907 14.5429 4.34715 14.5429 4.34715 14.4702 4.67165 14.3112 5.38086 14.1509 6.08977 13.9907 6.79869 13.8755 7.31106 13.7605 7.82346 13.6455 8.33587 13.3306 9.73785 13.0147 11.1396 12.6986 12.5413 12.3955 13.8863 12.0932 15.2315 11.7909 16.5766 11.216 19.1349 10.6405 21.693 10.0646 24.251 9.12267 28.435 8.18245 32.6193 7.24275 36.8037 7.16715 37.1403 7.09156 37.477 7.01596 37.8136 6.97851 37.9803 6.94105 38.1471 6.90247 38.3189 6.865 38.4858 6.82752 38.6526 6.78892 38.8245 6.71316 39.1619 6.6374 39.4992 6.56165 39.8365 6.52413 40.0036 6.48661 40.1707 6.44795 40.3428 6.37215 40.6803 6.29635 41.0179 6.22055 41.3554 5.64872 43.9017 5.07668 46.448 4.50452 48.9942 3.11292 55.1871 1.72179 61.38 0.3335 67.5736 0.273738 67.8402 0.213976 68.1068 0.152403 68.3815-0.0840051 69.4362-0.320406 70.4909-0.556803 71.5455-3.22013 83.4278-5.89799 95.3068-8.584 107.184-13.637 107.184-18.6899 107.184-23.896 107.184-23.635 105.096-23.635 105.096-23.4731 104.378-23.418 104.13-23.418 104.13-23.3617 103.878-23.3218 103.702-23.2818 103.527-23.2407 103.347-23.1977 103.155-23.1548 102.963-23.1105 102.766-22.9666 102.124-22.8214 101.483-22.6762 100.842-22.5715 100.377-22.467 99.9118-22.3625 99.4466-22.1351 98.4353-21.9072 97.4241-21.6789 96.413-21.3071 94.7665-20.9365 93.1197-20.566 91.4729-20.1664 89.6964-19.7666 87.9201-19.3664 86.1438-19.332 85.9915-19.2977 85.8392-19.2624 85.6823-19.2279 85.5293-19.1934 85.3764-19.1579 85.2188-18.2297 81.0995-17.3038 76.9797-16.3787 72.8598-16.3057 72.5348-16.2327 72.2099-16.1598 71.8849-15.8646 70.5707-15.5695 69.2564-15.2744 67.9422-14.5178 64.5724-13.7607 61.2028-13.0036 57.8332-11.7414 52.2156-10.4795 46.598-9.21782 40.9804-4.03747 17.9138-4.03747 17.9138-2.436 10.8034-2.3925 10.6103-2.34901 10.4172-2.3042 10.2182-1.53693 6.81196-0.768333 3.40601 0 0Z" fill="#3A4C7A" fill-rule="nonzero" fill-opacity="1" transform="matrix(1.08538 0 0 1 457.535 344.032)"/><path d="M0 0C5.05296 0 10.1059 0 15.312 0 15.051 2.088 15.051 2.088 14.8539 2.9647 14.787 3.26503 14.787 3.26503 14.7188 3.57141 14.6702 3.78569 14.6216 3.99997 14.5715 4.22075 14.5195 4.45316 14.4675 4.68557 14.4139 4.92502 14.2398 5.70202 14.0645 6.47872 13.8892 7.25544 13.7636 7.81472 13.6381 8.37403 13.5127 8.93334 13.2416 10.1418 12.9699 11.3501 12.6977 12.5583 12.2981 14.3324 11.8994 16.1068 11.501 17.8813 10.846 20.7985 10.1902 23.7155 9.53398 26.6324 8.64235 30.5958 7.75191 34.5594 6.86183 38.5232 6.52041 40.0436 6.17895 41.564 5.8375 43.0845 5.80005 43.2512 5.7626 43.418 5.72402 43.5898 5.15554 46.1211 4.58683 48.6524 4.01797 51.1836 2.62897 57.3644 1.24044 63.5453-0.145 69.7269-0.20547 69.9967-0.265939 70.2665-0.328241 70.5444-0.567216 71.6107-0.806185 72.6769-1.04515 73.7431-3.54416 84.8932-6.0579 96.04-8.584 107.184-13.637 107.184-18.6899 107.184-23.896 107.184-23.635 105.096-23.635 105.096-23.4005 104.056-23.3478 103.82-23.295 103.584-23.2406 103.341-23.1829 103.087-23.1252 102.834-23.0658 102.572-23.0045 102.299-22.9431 102.026-22.8799 101.744-22.7109 100.993-22.5411 100.241-22.371 99.4899-22.1891 98.6853-22.0082 97.8806-21.8272 97.0759-21.5159 95.6928-21.204 94.3098-20.8917 92.9269-20.3968 90.7355-19.9032 88.5438-19.4097 86.3521-19.2431 85.6119-19.0764 84.8718-18.9097 84.1317-18.8684 83.9483-18.8272 83.765-18.7846 83.5761-18.4914 82.2739-18.1979 80.9718-17.9044 79.6696-16.9314 75.353-15.96 71.0359-14.9921 66.7181-14.9357 66.4666-14.8793 66.215-14.8212 65.9559-14.5431 64.7151-14.2651 63.4744-13.9871 62.2336-13.4322 59.7572-12.8768 57.2809-12.3214 54.8046-12.2655 54.5554-12.2096 54.3063-12.152 54.0497-10.5879 47.0768-9.02053 40.1046-7.453 33.1325-7.41713 32.973-7.38127 32.8135-7.34432 32.6491-5.83703 25.945-4.3293 19.241-2.82116 12.5371-2.77377 12.3264-2.72639 12.1158-2.67757 11.8988-1.78527 7.93249-0.892601 3.96625 0 0Z" fill="#3A4C7A" fill-rule="nonzero" fill-opacity="1" transform="matrix(1.08538 0 0 1 496.566 344.032)"/><path d="M0 0C3.0624 0 6.1248 0 9.28 0 9.83639 1.90417 10.3924 3.80847 10.9475 5.713 11.0306 5.99807 11.1137 6.28314 11.1993 6.57685 12.5246 11.1256 13.8268 15.6804 15.1033 20.243 15.1631 20.4563 15.2229 20.6695 15.2846 20.8892 15.3957 21.2854 15.5064 21.6818 15.6167 22.0782 15.8703 23.0085 15.8703 23.0085 16.24 23.896 16.3238 23.6035 16.4075 23.3109 16.4939 23.0096 17.282 20.2578 18.0706 17.5061 18.8596 14.7546 19.2653 13.3399 19.6709 11.9251 20.076 10.5102 20.4667 9.14576 20.8578 7.78141 21.2493 6.41715 21.3989 5.89567 21.5482 5.37414 21.6975 4.85257 21.9059 4.12414 22.1149 3.39588 22.3241 2.66766 22.3861 2.45022 22.4482 2.23278 22.5122 2.00876 22.5691 1.81096 22.626 1.61316 22.6847 1.40937 22.7588 1.15082 22.7588 1.15082 22.8344 0.88704 22.968 0.464 22.968 0.464 23.2 0 26.2624 0 29.3248 0 32.48 0 32.48 10.5653 32.48 21.1306 32.48 32.016 30.7191 32.016 28.9582 32.016 27.144 32.016 27.144 23.3647 27.144 14.7134 27.144 5.8 26.6135 6 26.6135 6 26.446 6.64253 26.3634 6.91567 26.2808 7.1888 26.1956 7.47022 26.1495 7.62088 26.1034 7.77154 26.0558 7.92676 25.9021 8.4305 25.7509 8.93498 25.5997 9.4395 25.4917 9.79538 25.3835 10.1512 25.2751 10.507 24.9876 11.4525 24.7023 12.3987 24.4173 13.345 24.1367 14.276 23.8541 15.2063 23.5716 16.1367 22.7904 18.7112 22.0127 21.2868 21.2364 23.8628 20.9639 24.7671 20.691 25.6712 20.4179 26.5753 20.2668 27.0759 20.1162 27.5767 19.9656 28.0775 19.8745 28.379 19.7835 28.6804 19.6924 28.9819 19.6134 29.2441 19.5344 29.5063 19.453 29.7764 19.256 30.392 19.256 30.392 19.024 30.856 17.1866 30.856 15.3491 30.856 13.456 30.856 12.9795 29.7441 12.5849 28.7346 12.2419 27.5887 12.1716 27.3551 12.1716 27.3551 12.0998 27.1168 11.9459 26.605 11.7933 26.0929 11.6408 25.5807 11.5319 25.2178 11.4229 24.8548 11.3138 24.4919 11.0265 23.5352 10.7403 22.5783 10.4544 21.6212 10.0025 20.1095 9.54886 18.5983 9.09548 17.087 8.93009 16.5354 8.76491 15.9837 8.59975 15.4321 8.09866 13.7597 7.59451 12.0884 7.07815 10.4206 6.99068 10.1381 6.90321 9.85554 6.81308 9.56444 6.65148 9.04424 6.48926 8.52422 6.32632 8.00444 6.22109 7.66634 6.22109 7.66634 6.11373 7.32142 6.05268 7.1268 5.99163 6.93217 5.92873 6.73164 5.8 6.264 5.8 6.264 5.8 5.8 5.64688 5.8 5.49376 5.8 5.336 5.8 5.336 14.4513 5.336 23.1026 5.336 32.016 3.57512 32.016 1.81424 32.016 0 32.016 0 21.4507 0 10.8854 0 0Z" fill="#3A4C7A" fill-rule="nonzero" fill-opacity="1" transform="matrix(1.08538 0 0 1 572.864 406.672)"/><path d="M0 0C3.08316 2.29827 4.66342 5.47592 5.32059 9.20116 5.85944 13.0775 4.94139 17.0455 2.57975 20.1937 0.424746 22.8035-2.56741 24.4235-5.9305 24.8902-9.8697 25.1915-13.3586 24.3274-16.4575 21.8017-19.1772 19.2308-20.5259 15.7401-20.8447 12.0631-20.9577 8.024-19.7213 4.47975-17.0665 1.45816-12.4046-3.02587-5.35649-3.5846 0 0Z" fill="#D68C2D" fill-rule="nonzero" fill-opacity="1" transform="matrix(1.08538 0 0 1 532.213 426.326)"/><path d="M0 0C0.22968 0.15312 0.45936 0.30624 0.696 0.464 1.25934 0.285594 1.25934 0.285594 1.856-0.0435 5.0414-1.58985 8.95408-2.28401 12.3957-1.19534 14.277-0.351883 15.2589 1.00261 16.0143 2.87372 16.6902 5.38432 16.7685 7.89081 16.7493 10.4735 16.7484 10.8229 16.7478 11.1723 16.7473 11.5217 16.7456 12.4306 16.741 13.3394 16.7359 14.2482 16.7311 15.18 16.729 16.1117 16.7267 17.0434 16.7217 18.8636 16.7136 20.6838 16.704 22.504 14.9431 22.504 13.1822 22.504 11.368 22.504 11.3646 22.0453 11.3612 21.5865 11.3577 21.1139 11.3457 19.5906 11.3306 18.0674 11.3133 16.5441 11.303 15.6215 11.2939 14.6988 11.2876 13.7761 11.2815 12.8841 11.2722 11.9921 11.2605 11.1 11.2567 10.7614 11.254 10.4227 11.2526 10.084 11.2854 6.87346 11.2854 6.87346 9.9615 4.0455 9.14932 3.44292 8.59093 3.42879 7.5835 3.4075 7.19008 3.39449 7.19008 3.39449 6.78872 3.38122 5.43497 3.48358 5.43497 3.48358 2.784 4.408 2.784 10.3797 2.784 16.3514 2.784 22.504 1.02312 22.504-0.73776 22.504-2.552 22.504-2.5589 21.8246-2.5589 21.8246-2.56593 21.1315-2.58171 19.6286-2.59953 18.1257-2.61871 16.6229-2.63025 15.7124-2.641 14.802-2.64987 13.8915-2.65848 13.0115-2.66925 12.1315-2.68147 11.2515-2.68574 10.9172-2.68926 10.5828-2.69198 10.2485-2.62519 6.90595-2.62519 6.90595-3.944 3.944-4.8471 3.48924-5.6216 3.40443-6.6265 3.393-6.88519 3.38642-7.14388 3.37984-7.41041 3.37306-8.68814 3.48525-8.68814 3.48525-11.136 4.408-11.2126 10.3797-11.2891 16.3514-11.368 22.504-13.1289 22.504-14.8898 22.504-16.704 22.504-16.704 14.6949-16.704 6.88576-16.704-1.16-14.9431-1.16-13.1822-1.16-11.368-1.16-11.2914-0.7772-11.2149-0.3944-11.136 0-10.9733-0.0783544-10.8106-0.156709-10.643-0.237437-7.04896-1.92703-3.39497-2.39645 0 0Z" fill="#3A4C7A" fill-rule="nonzero" fill-opacity="1" transform="matrix(1.08538 0 0 1 645.385 360.272)"/><path d="M0 0C3.52176 0 7.04352 0 10.672 0 11.4955 3.28357 12.3186 6.56725 13.1408 9.85115 13.5228 11.3766 13.9049 12.9021 14.2876 14.4274 14.6581 15.9045 15.0281 17.3817 15.3978 18.859 15.5376 19.4174 15.6776 19.9758 15.8178 20.5341 16.7764 24.3519 17.6843 28.1782 18.56 32.016 16.7226 32.016 14.8851 32.016 12.992 32.016 12.8102 31.3796 12.6283 30.7432 12.441 30.0875 12.3847 29.8927 12.3283 29.6979 12.2703 29.4972 11.8741 28.09 11.6328 26.7444 11.368 25.288 7.38688 25.3646 3.40576 25.4411-0.696 25.52-1.23192 27.6637-1.76784 29.8074-2.32 32.016-4.15744 32.016-5.99488 32.016-7.888 32.016-7.36599 29.1449-7.36599 29.1449-7.09673 28.0593-7.03591 27.8124-6.97509 27.5656-6.91243 27.3113-6.81461 26.9194-6.81461 26.9194-6.7148 26.5195-6.64496 26.2371-6.57512 25.9546-6.50316 25.6635-6.31347 24.8971-6.12308 24.1308-5.93232 23.3646-5.73221 22.5602-5.53292 21.7556-5.33351 20.9511-4.99922 19.6028-4.6643 18.2548-4.32899 16.9068-3.94125 15.3481-3.55447 13.7891-3.16821 12.2301-2.79587 10.7272-2.42291 9.22454-2.04964 7.72193-1.89099 7.08325-1.73255 6.44451-1.57428 5.80574-1.35389 4.91643-1.13258 4.02735-0.911178 3.13829-0.84549 2.87279-0.779803 2.6073-0.712125 2.33376-0.651962 2.0928-0.591799 1.85184-0.529813 1.60358-0.477593 1.39346-0.425373 1.18335-0.371571 0.966869-0.232 0.464-0.232 0.464 0 0ZM4.176 4.408C3.69074 6.35785 3.20665 8.30798 2.72405 10.2585 2.49991 11.1642 2.27538 12.0698 2.04994 12.9751 1.83238 13.8489 1.61588 14.7229 1.4001 15.597 1.3176 15.9305 1.23471 16.2639 1.15145 16.5971 1.03488 17.064 0.919658 17.5311 0.80475 17.9984 0.738807 18.2642 0.672863 18.53 0.604922 18.8039 0.432794 19.5231 0.432794 19.5231 0.464 20.416 3.67952 20.416 6.89504 20.416 10.208 20.416 9.43901 16.7467 9.43901 16.7467 8.58853 13.0989 8.5286 12.8534 8.46867 12.6079 8.40692 12.3549 8.28273 11.8469 8.15818 11.3391 8.03328 10.8313 7.84127 10.0498 7.65093 9.268 7.4607 8.48612 7.33891 7.98887 7.21702 7.49164 7.09503 6.99444 7.03824 6.7608 6.98146 6.52717 6.92295 6.28645 6.87022 6.0731 6.8175 5.85975 6.76317 5.63993 6.71703 5.45179 6.67089 5.26365 6.62335 5.06981 6.5333 4.6404 6.5333 4.6404 6.264 4.408 5.91153 4.39134 5.55833 4.38853 5.2055 4.3935 5.0138 4.39559 4.8221 4.39769 4.62459 4.39984 4.40254 4.40388 4.40254 4.40388 4.176 4.408Z" fill="#3A4C7A" fill-rule="nonzero" fill-opacity="1" transform="matrix(1.08538 0 0 1 815.104 406.672)"/><path d="M0 0C2.108 1.90684 2.90353 4.9253 3.04891 7.68896 3.20997 17.3051 3.20997 17.3051 0.687844 20.3643-1.59378 22.6263-4.47442 22.957-7.53366 22.9453-7.76827 22.9462-8.00288 22.9471-8.24461 22.9481-8.47384 22.9478-8.70307 22.9475-8.93925 22.9472-9.14544 22.9469-9.35162 22.9466-9.56405 22.9464-10.327 22.9112-11.0841 22.7923-11.8402 22.6843-11.8402 25.8999-11.8402 29.1154-11.8402 32.4283-13.601 32.4283-15.3619 32.4283-17.1762 32.4283-17.1762 21.3271-17.1762 10.2259-17.1762-1.21166-15.4153-1.21166-13.6544-1.21166-11.8402-1.21166-11.7636-0.828856-11.687-0.446056-11.6082-0.0516562-11.4455-0.130011-11.2828-0.208365-11.1152-0.289094-7.52224-1.97815-3.41519-2.52588 0 0ZM-11.8402 4.35634C-11.8402 8.87338-11.8402 13.3904-11.8402 18.0443-10.663 18.2798-9.59716 18.3357-8.40366 18.3488-8.20313 18.3556-8.00261 18.3623-7.79602 18.3692-6.12174 18.3857-4.86282 18.0087-3.64766 16.8263-1.90338 13.9838-1.8839 9.90429-2.61816 6.71984-3.02674 5.36358-3.5191 4.47448-4.63366 3.57334-6.87801 2.43199-9.72654 3.29954-11.8402 4.35634Z" fill="#3A4C7A" fill-rule="nonzero" fill-opacity="1" transform="matrix(1.08538 0 0 1 688.957 360.324)"/><path d="M0 0C1.76088 0 3.52176 0 5.336 0 5.336 10.9481 5.336 21.8962 5.336 33.176 3.57512 33.176 1.81424 33.176 0 33.176-0.07656 32.9463-0.15312 32.7166-0.232 32.48-0.447624 32.561-0.663248 32.6421-0.885406 32.7256-1.17221 32.8312-1.45901 32.9367-1.7545 33.0455-2.03711 33.1505-2.31973 33.2554-2.61091 33.3636-5.30033 34.2189-8.14227 34.073-10.7155 32.915-12.8546 31.7516-13.6356 30.1882-14.3967 27.9252-15.6618 23.4187-15.5705 17.2849-13.3835 13.1062-12.2892 11.3042-10.7819 10.2167-8.816 9.512-7.56364 9.21587-6.34115 9.23732-5.0605 9.2365-4.83067 9.23366-4.60084 9.23082-4.36405 9.22789-4.02199 9.22722-4.02199 9.22722-3.67303 9.22653-3.46901 9.22558-3.265 9.22462-3.0548 9.22364-2.02489 9.30263-1.01287 9.54142 0 9.744 0 6.52848 0 3.31296 0 0ZM-8.41 15.4425C-9.43232 17.4506-9.62356 19.4675-9.599 21.692-9.60169 21.9357-9.60438 22.1795-9.60716 22.4306-9.60013 24.3251-9.46837 26.2977-8.2795 27.84-6.62796 29.0691-5.2796 29.2106-3.248 29-1.50166 28.6753-1.50166 28.6753 0 27.84 0.0217646 27.4128 0.027246 26.9849 0.0263379 26.5571 0.0263204 26.2831 0.0263028 26.0091 0.0262848 25.7268 0.0250874 25.4286 0.02389 25.1303 0.0226562 24.8231 0.0221638 24.3679 0.0221638 24.3679 0.0216615 23.9034 0.0207742 23.0952 0.0184938 22.287 0.0159302 21.4788 0.0135601 20.6547 0.012498 19.8305 0.0113281 19.0063 0.00883737 17.3882 0.00487585 15.7701 0 14.152-1.32668 13.9508-2.60488 13.8625-3.944 13.8475-4.14437 13.8408-4.34474 13.834-4.55119 13.8271-6.21265 13.8107-7.27826 14.1536-8.41 15.4425Z" fill="#3A4C7A" fill-rule="nonzero" fill-opacity="1" transform="matrix(1.08538 0 0 1 655.709 405.512)"/><path d="M0 0C1.68432 0 3.36864 0 5.104 0 5.104 10.9481 5.104 21.8962 5.104 33.176 3.41968 33.176 1.73536 33.176 0 33.176 0 32.8698 0 32.5635 0 32.248-0.257044 32.3655-0.257044 32.3655-0.519281 32.4854-3.8952 33.9696-6.8888 34.2499-10.44 33.176-12.0759 32.4352-13.1386 31.3017-13.92 29.696-14.8986 27.0801-15.1271 24.6967-15.138 21.924-15.1428 21.6255-15.1476 21.3271-15.1525 21.0196-15.1662 17.6201-14.6529 14.2976-12.4265 11.6145-12.1322 11.3776-12.1322 11.3776-11.832 11.136-11.6579 10.9875-11.6579 10.9875-11.4804 10.836-9.63826 9.36837-7.5179 9.16932-5.2345 9.2075-5.01185 9.20675-4.7892 9.206-4.5598 9.20523-2.94686 9.21718-1.65051 9.44391 0 9.744 0 6.52848 0 3.31296 0 0ZM-8.3955 15.37C-10.2049 18.1154-10.0187 21.8649-9.63706 25.0089-9.32982 26.433-8.8372 27.627-7.656 28.536-5.48476 29.6161-3.05397 28.9721-0.859125 28.2977-0.259093 28.132-0.259093 28.132 0 27.84 0.022967 27.4212 0.029694 27.0015 0.0300195 26.5821 0.0311165 26.1792 0.0311165 26.1792 0.0322356 25.7681 0.031766 25.4757 0.0312964 25.1833 0.0308125 24.882 0.0310345 24.5842 0.0312564 24.2864 0.0314851 23.9796 0.0318277 23.3485 0.0313282 22.7173 0.0302461 22.0862 0.0289243 21.2756 0.0296851 20.465 0.0310749 19.6544 0.0321129 18.8836 0.031387 18.1128 0.0308125 17.342 0.0312821 17.0496 0.0317517 16.7572 0.0322356 16.4559 0.0315043 16.1873 0.030773 15.9186 0.0300195 15.6419 0.029835 15.404 0.0296504 15.1662 0.0294602 14.9212 0.0604079 14.3928 0.0604079 14.3928-0.232 14.152-1.54935 13.9082-2.85298 13.8624-4.1905 13.8475-4.39282 13.8408-4.59513 13.834-4.80358 13.8271-6.40128 13.8114-7.26274 14.2049-8.3955 15.37Z" fill="#3A4C7A" fill-rule="nonzero" fill-opacity="1" transform="matrix(1.08538 0 0 1 785.643 405.512)"/><path d="M0 0C1.89188 1.96312 1.97084 4.30633 1.97109 6.92194 1.97569 7.36172 1.97569 7.36172 1.98038 7.81038 1.98822 8.58274 1.99344 9.35501 1.99698 10.1274 2.00209 11.2195 2.00966 12.3115 2.02048 13.4035 2.02613 13.9834 2.02958 14.5634 2.0306 15.1433 2.03414 15.5361 2.03414 15.5361 2.03776 15.9367 2.03925 16.2817 2.03925 16.2817 2.04077 16.6337 2.10556 17.2898 2.16313 17.644 2.56469 18.1685 3.02405 18.3216 3.48341 18.4747 3.95669 18.6325 3.95669 20.0106 3.95669 21.3887 3.95669 22.8085 1.99394 22.885-0.0922773 22.8845-1.74181 21.6775-2.72532 21.2236-3.64561 21.7763-4.62731 22.1125-6.38802 22.6515-8.07158 22.8778-9.90531 22.8955-10.1767 22.9003-10.1767 22.9003-10.4535 22.9052-12.3388 22.8902-14.0213 22.4335-15.4153 21.1202-16.904 19.4105-17.2715 17.0435-17.2124 14.838-17.052 13.114-16.7493 11.4246-15.4987 10.1554-13.3706 8.48338-10.8512 8.16474-8.23781 7.9315-8.0343 7.91146-7.83079 7.89143-7.62111 7.87078-6.233 7.74189-4.86097 7.7049-3.46731 7.7285-3.48131 7.21116-3.50193 6.694-3.52531 6.177-3.53608 5.889-3.54684 5.60101-3.55794 5.30428-3.71789 4.37226-3.95893 3.97791-4.62731 3.3205-5.28896 3.09995-5.70105 3.05864-6.38725 3.05769-6.70797 3.05701-6.70797 3.05701-7.03516 3.05633-7.37926 3.0579-7.37926 3.0579-7.73031 3.0595-7.96524 3.05995-8.20018 3.0604-8.44223 3.06086-10.8091 3.07408-13.1687 3.18396-15.5313 3.3205-15.6079 2.01898-15.6844 0.71746-15.7633-0.6235-14.9999-0.774639-14.2362-0.924237-13.4723-1.073-13.2594-1.11532-13.0464-1.15763-12.8271-1.20123-8.91448-1.95895-3.28165-2.84673 0 0ZM-6.41081 11.629C-6.61343 11.6453-6.81604 11.6616-7.0248 11.6784-8.56436 11.8221-10.0093 12.0505-11.2248 13.079-11.8077 14.1749-11.9862 15.3458-11.7087 16.5672-11.3742 17.4329-10.9916 17.9434-10.1953 18.4005-7.99665 18.673-5.80583 18.3624-3.69931 17.7045-3.40136 17.4587-3.40136 17.4587-3.44097 16.8924-3.44219 16.6409-3.4434 16.3895-3.44466 16.1303-3.4454 15.8589-3.44615 15.5875-3.44692 15.3079-3.44887 15.0222-3.45081 14.7364-3.45281 14.442-3.45386 14.1553-3.45491 13.8687-3.45598 13.5734-3.45873 12.8624-3.46255 12.1515-3.46731 11.4405-4.45464 11.4405-5.42811 11.5389-6.41081 11.629Z" fill="#3A4C7A" fill-rule="nonzero" fill-opacity="1" transform="matrix(1.08538 0 0 1 761.959 360.431)"/><path d="M0 0C0.261885-0.00317754 0.523771-0.00635508 0.793592-0.00962891 3.03126 0.00261414 5.01386 0.326525 6.786 1.77353 8.64466 3.67952 8.63663 6.43935 8.64109 8.92837 8.64693 9.52076 8.65282 10.1131 8.65877 10.7055 8.66545 11.6347 8.67109 12.5639 8.67536 13.493 8.68037 14.393 8.68951 15.2929 8.69909 16.1929 8.69913 16.6108 8.69913 16.6108 8.69917 17.0373 8.70382 17.4253 8.70382 17.4253 8.70855 17.8212 8.70973 18.0484 8.71091 18.2757 8.71212 18.5099 8.81678 19.2138 9.01102 19.5265 9.4975 20.039 10.0972 20.3333 10.0972 20.3333 10.6575 20.503 10.6836 21.9206 10.6334 23.2758 10.4255 24.679 8.62944 24.6219 7.08942 24.4275 5.423 23.7365 4.00524 23.1912 3.17365 23.3735 1.769 23.838-1.30487 24.8379-4.71491 25.2444-7.71128 23.7274-9.22814 22.7205-9.89976 21.3532-10.3294 19.6203-10.7591 17.0735-10.6459 14.5675-9.309 12.325-6.92386 9.80377-3.05975 9.77269 0.145 9.57 0.443315 9.54996 0.74163 9.52993 1.04898 9.50928 1.77708 9.46056 2.50524 9.41316 3.2335 9.367 3.20695 8.88353 3.17737 8.40022 3.1465 7.917 3.12228 7.51327 3.12228 7.51327 3.09756 7.10137 3.00877 6.40781 2.93357 5.99145 2.5375 5.423 0.367828 4.31844-1.96962 4.72382-4.32089 4.87579-5.8249 4.96977-7.3237 4.98258-8.8305 4.959-9.0781 4.15576-9.0861 3.41843-9.077 2.581-9.07491 2.33098-9.07281 2.08097-9.07066 1.82337-9.06796 1.63317-9.06527 1.44297-9.0625 1.247-6.14942 0.195182-3.07125 0.0188974 0 0ZM-0.87 13.4995C-1.03703 13.5158-1.20405 13.5321-1.37614 13.5489-2.63297 13.6921-3.72903 13.9618-4.611 14.935-5.23125 15.9796-5.22734 17.0039-5.1185 18.183-4.81502 19.0934-4.58572 19.4611-3.799 20.01-2.28142 20.5254-0.780117 20.249 0.754 19.9375 0.916839 19.9062 1.07968 19.875 1.24745 19.8428 1.927 19.71 2.57592 19.5622 3.2335 19.343 3.2335 17.3524 3.2335 15.3619 3.2335 13.311 1.83337 13.311 0.510832 13.3399-0.87 13.4995Z" fill="#3A4C7A" fill-rule="nonzero" fill-opacity="1" transform="matrix(1.08538 0 0 1 726.735 414.705)"/><path d="M0 0C0.404912-0.00768217 0.404912-0.00768217 0.818004-0.0155195 2.98704-0.0102781 5.18552 0.279477 6.873 1.7545 8.80705 3.95271 8.76054 6.7645 8.77794 9.52287 8.78444 10.0959 8.79109 10.669 8.79787 11.242 8.80748 12.1422 8.81605 13.0423 8.82212 13.9425 8.82849 14.8135 8.83913 15.6844 8.85044 16.5554 8.85119 16.8258 8.85195 17.0962 8.85272 17.3748 8.85657 17.625 8.86041 17.8752 8.86437 18.1329 8.86625 18.3532 8.86812 18.5734 8.87006 18.8003 8.97988 19.4731 9.10943 19.6565 9.657 20.0535 10.0398 20.2066 10.4226 20.3597 10.817 20.5175 10.7404 21.8956 10.6639 23.2737 10.585 24.6935 6.29903 24.4655 6.29903 24.4655 4.553 23.3015 3.52325 23.3947 2.56654 23.6965 1.5805 23.9975 0.317686 24.3636-0.862694 24.6339-2.175 24.6935-2.33769 24.7055-2.50038 24.7174-2.668 24.7297-4.73792 24.8185-6.89253 24.3872-8.5115 23.0414-10.3961 20.9431-10.4456 18.3548-10.3345 15.6901-10.2111 14.1025-9.68594 12.8375-8.555 11.716-6.39718 10.107-3.74826 9.88957-1.1455 9.6715-0.832666 9.64249-0.519858 9.61319-0.207078 9.58359 2.20461 9.36314 2.20461 9.36314 3.393 9.3815 3.34618 8.81964 3.29205 8.26016 3.2335 7.6995 3.21488 7.46219 3.21488 7.46219 3.19589 7.22009 3.10144 6.37414 2.98434 5.95897 2.38797 5.33962 0.457051 4.19747-2.15461 4.75908-4.31012 4.89041-5.84458 4.98032-7.36538 4.99138-8.903 4.9735-8.903 3.74854-8.903 2.52358-8.903 1.2615-5.96803 0.283178-3.08368 0.0297566 0 0ZM-0.8265 13.4995C-1.00459 13.5139-1.18268 13.5282-1.36617 13.543-2.77437 13.6878-3.72353 14.1241-4.698 15.196-5.10898 16.2691-5.10853 17.2964-4.959 18.4295-4.56609 19.259-4.28739 19.6648-3.509 20.1405-1.31825 20.6384 1.41044 20.1168 3.393 19.1255 3.393 17.2115 3.393 15.2975 3.393 13.3255 1.94788 13.3255 0.59803 13.3538-0.8265 13.4995Z" fill="#3A4C7A" fill-rule="nonzero" fill-opacity="1" transform="matrix(1.08538 0 0 1 689.798 414.69)"/><path d="M0 0C1.2966 1.16424 1.93995 2.77254 2.06098 4.48821 2.08278 5.28969 2.09087 6.09026 2.09434 6.89203 2.09774 7.18565 2.10113 7.47927 2.10462 7.78179 2.11721 8.87586 2.12587 9.96993 2.13423 11.064 2.14265 12.1384 2.15441 13.2127 2.16684 14.287 2.16868 14.7119 2.16868 14.7119 2.17055 15.1454 2.17367 15.4094 2.17678 15.6735 2.17998 15.9456 2.18252 16.2929 2.18252 16.2929 2.18511 16.6473 2.25366 17.3602 2.34082 17.8299 2.71059 18.4467 3.16995 18.5998 3.62931 18.753 4.10259 18.9107 4.10259 20.2888 4.10259 21.6669 4.10259 23.0867 1.92312 23.203-0.0722719 22.8947-2.02638 21.8624-2.8944 21.6194-3.54254 21.9177-4.35091 22.2312-6.15316 22.9019-7.74791 23.1326-9.65791 23.1447-9.9376 23.1519-9.9376 23.1519-10.223 23.1592-12.1495 23.1716-13.8442 22.7459-15.2694 21.3966-16.8854 19.5491-17.0822 17.0686-16.9949 14.7057-16.8297 13.005-16.4132 11.6073-15.2014 10.3639-13.1633 8.70003-10.7285 8.51624-8.19341 8.23872-7.96193 8.2124-7.73046 8.18608-7.49197 8.15897-6.0218 8.00732-4.56659 7.981-3.08941 8.00672-3.14265 7.48904-3.2018 6.97197-3.26341 6.45522-3.2957 6.16722-3.328 5.87922-3.36128 5.5825-3.57176 4.68004-3.83023 4.24869-4.48141 3.59872-5.14305 3.37817-5.55514 3.33686-6.24134 3.33591-6.56206 3.33523-6.56206 3.33523-6.88926 3.33455-7.23336 3.33612-7.23336 3.33612-7.58441 3.33772-7.81934 3.33817-8.05427 3.33862-8.29632 3.33908-10.6632 3.3523-13.0228 3.46218-15.3854 3.59872-15.462 2.2972-15.5385 0.995679-15.6174-0.345281-14.854-0.49642-14.0903-0.646018-13.3264-0.794781-13.1135-0.837099-12.9005-0.879416-12.6812-0.923016-8.72411-1.68935-3.51945-2.43654 0 0ZM-6.14891 11.9072C-6.36259 11.9235-6.57627 11.9398-6.79642 11.9566-8.3699 12.0962-9.84895 12.2995-11.0789 13.3717-11.7313 14.5722-11.7466 15.68-11.5284 17.0112-11.152 17.8839-10.8438 18.1669-10.0494 18.6787-7.61335 19.0779-5.39726 18.4541-3.08941 17.7507-3.08941 15.7602-3.08941 13.7696-3.08941 11.7187-4.1146 11.7187-5.12806 11.8184-6.14891 11.9072Z" fill="#3A4C7A" fill-rule="nonzero" fill-opacity="1" transform="matrix(1.08538 0 0 1 875.366 360.153)"/><path d="M0 0C0.351754 0.00288782 0.351754 0.00288782 0.710613 0.00583398 3.67702 0.0729807 5.84585 0.859657 7.92244 3.02144 9.52022 5.00656 9.9323 7.78179 9.918 10.2515 9.9189 10.7091 9.9189 10.7091 9.91981 11.1759 9.88537 12.282 9.76712 13.3843 9.657 14.4855 4.83372 14.4855 0.01044 14.4855-4.959 14.4855-4.54804 17.1263-4.54804 17.1263-3.01759 19.0644-0.63279 20.2091 2.2741 19.8344 4.843 19.7345 5.24386 19.721 5.64472 19.7077 6.04559 19.6946 7.01757 19.6629 7.98915 19.6261 8.961 19.5895 9.07584 21.5418 9.07584 21.5418 9.193 23.5335 4.40223 24.5875-1.77559 25.907-6.293 23.4093-8.57842 21.9214-9.44748 19.799-10.0195 17.197-10.8736 12.4659-10.6364 7.14987-7.87259 3.09031-5.91549 0.605276-3.0272-0.0320753 0 0ZM-3.741 5.8C-4.75318 7.13955-4.959 8.67514-4.959 10.3095-1.82004 10.3095 1.31892 10.3095 4.553 10.3095 4.56841 7.81611 4.56841 7.81611 3.625 5.6695 1.51845 3.90687-1.72784 3.9241-3.741 5.8Z" fill="#3A4C7A" fill-rule="nonzero" fill-opacity="1" transform="matrix(1.08538 0 0 1 624.831 414.69)"/><path d="M0 0C0 1.45464 0 2.90928 0 4.408-2.60441 4.19601-2.60441 4.19601-3.30345 4.11811-4.80005 3.95333-6.28125 3.89398-7.7865 3.886-8.01304 3.88122-8.23958 3.87643-8.47298 3.8715-10.2179 3.86216-11.673 4.12703-13.1805 5.0315-15.8972 7.90344-15.6212 13.0133-15.544 16.704-15.5007 17.5616-15.4323 18.4153-15.3555 19.2705-15.3392 19.483-15.3229 19.6955-15.3061 19.9144-15.1304 21.9006-14.7907 23.9689-13.456 25.52-11.5883 26.9371-10.0512 26.9568-7.7575 26.9555-7.47883 26.9556-7.20016 26.9558-6.91304 26.956-4.5758 26.9423-2.31756 26.7446 0 26.448 0 27.9792 0 29.5104 0 31.088-5.26375 32.1787-12.0496 33.4045-16.8345 30.334-20.0129 27.8397-20.7166 23.9587-21.2053 20.1532-21.7354 14.5911-22.0133 6.84625-18.56 2.088-14.2711-2.66359-5.52483-1.84161 0 0Z" fill="#3A4C7A" fill-rule="nonzero" fill-opacity="1" transform="matrix(1.08538 0 0 1 594.52 351.224)"/><path d="M0 0C2.43557 2.11673 3.30504 5.19032 3.52758 8.32651 3.6657 12.5217 3.59853 17.0401 0.758531 20.4314 0.3681 20.7879-0.0128976 21.0692-0.464 21.344-0.609643 21.4331-0.755287 21.5222-0.905344 21.6141-2.79923 22.6566-4.78912 22.8213-6.9165 22.8085-7.14098 22.8074-7.36547 22.8062-7.59675 22.805-10.261 22.7614-12.6149 22.3508-14.5933 20.4577-17.3425 17.4935-17.7086 13.5639-17.6664 9.67694-17.5294 6.25143-16.9461 2.71873-14.384 0.232-10.7517-2.72978-3.74085-2.87424 0 0ZM-10.9765 4.205C-12.8691 7.42949-12.5654 12.0028-11.6589 15.5195-11.2193 16.6977-10.6034 17.3029-9.49931 17.8957-8.94884 18.14-8.49037 18.2817-7.888 18.328-7.64396 18.3471-7.39993 18.3663-7.1485 18.386-5.64689 18.2875-4.39143 18.0413-3.2625 17.0085-1.38647 13.9955-1.4259 9.806-2.146 6.409-2.53728 5.00074-2.98833 3.95189-4.263 3.161-6.5483 2.14246-9.16531 2.54066-10.9765 4.205Z" fill="#3A4C7A" fill-rule="nonzero" fill-opacity="1" transform="matrix(1.08538 0 0 1 617.686 360.504)"/><path d="M0 0C2.13267 1.62912 2.95094 4.36142 3.3205 6.9165 3.57899 11.5621 3.85513 16.6649 0.588156 20.377-1.87723 22.7718-5.19213 22.7783-8.41362 22.7432-9.76967 22.7062-10.9656 22.5159-12.2235 21.9965-12.4698 21.9077-12.4698 21.9077-12.721 21.8171-14.3708 21.1294-15.5111 19.84-16.2935 18.2555-18.203 13.507-18.353 7.5563-16.3687 2.80756-15.4247 0.925774-13.9778-0.486055-11.9915-1.2035-7.98713-2.48313-3.59728-2.28774 0 0ZM-10.952 4.06997C-12.2595 5.95767-12.3083 8.12419-12.296 10.353-12.2947 10.5991-12.2934 10.8452-12.292 11.0988-12.2577 13.3128-12.2152 15.5993-10.5687 17.2786-9.31777 18.1736-7.69659 18.4487-6.1915 18.2845-4.81753 17.9773-3.81682 17.5844-2.9435 16.4285-2.0106 14.4961-1.96698 12.5956-1.9575 10.4835-1.95271 10.2224-1.94793 9.96134-1.943 9.69234-1.93403 7.75361-2.02843 5.63064-3.2335 4.0165-4.70455 2.67918-6.0144 2.61006-7.95869 2.66166-9.23516 2.78989-10.0977 3.09709-10.952 4.06997Z" fill="#3A4C7A" fill-rule="nonzero" fill-opacity="1" transform="matrix(1.08538 0 0 1 820.817 360.547)"/><path d="M0 0C2.38858 2.03904 2.83933 4.67697 3.1465 7.6995 3.20191 8.92256 3.20122 10.1424 3.19181 11.3662 3.19094 11.7048 3.19028 12.0435 3.18982 12.3822 3.18807 13.2617 3.18354 14.1411 3.17836 15.0206 3.17356 15.9228 3.17148 16.825 3.16916 17.7272 3.16422 19.4886 3.15608 21.25 3.1465 23.0115 1.38562 23.0115-0.37526 23.0115-2.1895 23.0115-2.19288 22.561-2.19627 22.1105-2.19975 21.6464-2.21179 20.149-2.22695 18.6517-2.24419 17.1544-2.25451 16.2476-2.26363 15.3408-2.26987 14.434-2.27596 13.557-2.28536 12.68-2.29696 11.803-2.3008 11.4704-2.30349 11.1377-2.30495 10.805-2.23571 7.41898-2.23571 7.41898-3.712 4.5385-4.65668 4.00561-5.2374 3.93635-6.3365 3.915-6.76625 3.90199-6.76625 3.90199-7.20469 3.88872-8.54678 3.98095-8.54678 3.98095-11.0055 4.9155-11.0821 10.8872-11.1586 16.8589-11.2375 23.0115-12.9984 23.0115-14.7593 23.0115-16.5735 23.0115-16.5735 15.2024-16.5735 7.39326-16.5735-0.6525-14.8892-0.6525-13.2049-0.6525-11.4695-0.6525-11.3929-0.2697-11.3164 0.1131-11.2375 0.5075-11.0608 0.429146-10.884 0.350791-10.7019 0.270063-7.18952-1.24715-3.55396-1.87391 0 0Z" fill="#3A4C7A" fill-rule="nonzero" fill-opacity="1" transform="matrix(1.08538 0 0 1 848.453 359.764)"/><path d="M0 0C1.76088 0 3.52176 0 5.336 0 5.33938 0.47278 5.34277 0.945561 5.34625 1.43267 5.35798 3.00226 5.37344 4.5718 5.39069 6.14135 5.40102 7.0921 5.41014 8.04283 5.41637 8.99362 5.42245 9.91278 5.43185 10.8319 5.44346 11.751 5.4473 12.1 5.44999 12.449 5.45145 12.7981 5.44476 15.637 5.44476 15.637 6.264 18.328 7.61433 19.4706 9.10104 19.2607 10.7735 19.13 11.6682 19.0152 12.4427 18.8057 13.2775 18.4721 13.688 18.328 13.688 18.328 14.384 18.328 14.384 12.2798 14.384 6.23152 14.384 0 16.0683 0 17.7526 0 19.488 0 19.488 7.80912 19.488 15.6182 19.488 23.664 17.8037 23.664 16.1194 23.664 14.384 23.664 14.3074 23.2812 14.2309 22.8984 14.152 22.504 13.9039 22.6215 13.9039 22.6215 13.6508 22.7414 13.3175 22.8967 13.3175 22.8967 12.9775 23.055 12.7595 23.1573 12.5415 23.2596 12.3168 23.3649 10.8314 23.9847 9.52289 24.212 7.9315 24.2005 7.74765 24.1995 7.5638 24.1986 7.37438 24.1976 5.40556 24.1596 3.6209 23.823 2.088 22.504 0.323803 20.3769-0.0311052 17.45-0.0263379 14.7756-0.0263718 14.6147-0.0264056 14.4538-0.0264406 14.288-0.0262804 13.762-0.024482 13.2361-0.0226562 12.7102-0.022223 12.3432-0.021893 11.9762-0.0216615 11.6092-0.0207797 10.6477-0.0185039 9.6862-0.0159302 8.7247-0.0135484 7.74179-0.0124955 6.75889-0.0113281 5.77598-0.00884697 3.85065-0.00476911 1.92533 0 0Z" fill="#3A4C7A" fill-rule="nonzero" fill-opacity="1" transform="matrix(1.08538 0 0 1 698.013 359.112)"/><path d="M0 0C1.6086 1.11047 2.41427 2.92498 2.8565 4.7995 3.22464 7.00657 3.27921 9.1566 3.27066 11.3907 3.27022 11.7258 3.26989 12.0609 3.26966 12.396 3.26878 13.2713 3.26651 14.1466 3.26393 15.0219 3.26154 15.9178 3.26049 16.8136 3.25933 17.7095 3.25685 19.4623 3.25278 21.2152 3.248 22.968 1.48712 22.968-0.27376 22.968-2.088 22.968-2.0949 22.2992-2.0949 22.2992-2.10193 21.6168-2.11771 20.1371-2.13553 18.6573-2.15471 17.1776-2.16625 16.2812-2.177 15.3848-2.18587 14.4884-2.19448 13.6219-2.20525 12.7555-2.21747 11.889-2.22174 11.5599-2.22526 11.2307-2.22798 10.9015-2.15835 7.57677-2.15835 7.57677-3.48 4.64-5.23547 3.60105-6.96431 3.79763-8.8885 4.2775-9.1125 4.33941-9.3365 4.40131-9.56728 4.46509-10.1609 4.62715-10.7646 4.75132-11.368 4.872-11.368 10.8437-11.368 16.8154-11.368 22.968-13.0523 22.968-14.7366 22.968-16.472 22.968-16.472 15.2354-16.472 7.50288-16.472-0.464-14.7877-0.464-13.1034-0.464-11.368-0.464-11.368-0.0812-11.368 0.3016-11.368 0.696-11.1443 0.598207-10.9206 0.500413-10.6901 0.399656-10.3941 0.271233-10.0981 0.14285-9.802 0.0145-9.65486-0.049948-9.50772-0.114396-9.35612-0.180797-6.58702-1.37786-2.6715-1.5429 0 0Z" fill="#3A4C7A" fill-rule="nonzero" fill-opacity="1" transform="matrix(1.08538 0 0 1 760.713 415.72)"/><path d="M0 0C0.226259-0.000299062 0.452519-0.000598126 0.685635-0.00090625 3.39628 0.0369117 6.04296 0.509474 8.7 1.015 8.72562 2.57808 8.63071 4.10055 8.468 5.655 8.2681 5.63392 8.06819 5.61283 7.86223 5.59111 7.11126 5.51243 6.3602 5.43472 5.60906 5.35764 5.28572 5.32426 4.96241 5.29051 4.63915 5.25636 0.54594 4.65001 0.54594 4.65001-3.2625 5.829-3.71025 6.52982-3.73216 6.92606-3.596 7.743-2.89061 8.64263-2.22439 8.8682-1.131 9.135-0.980814 9.17285-0.830629 9.2107-0.675893 9.2497 0.17477 9.46032 1.02939 9.6463 1.88772 9.82284 7.1102 10.9012 7.1102 10.9012 8.7 13.311 9.70567 15.2266 9.64719 17.919 9.1205 19.9855 8.55646 21.5339 7.63945 22.7225 6.19422 23.5208 1.7742 25.5149-3.87031 24.7912-8.468 23.751-8.7 23.519-8.7 23.519-8.72634 23.088-8.72512 22.9046-8.72391 22.7211-8.72266 22.5321-8.72191 22.334-8.72116 22.1358-8.72039 21.9317-8.71845 21.7234-8.7165 21.5151-8.7145 21.3005-8.71345 21.0913-8.71241 20.8821-8.71133 20.6666-8.70858 20.148-8.70476 19.6295-8.7 19.111-5.57997 19.3223-5.57997 19.3223-4.379 19.4735-3.18225 19.5952-1.98499 19.6172-0.783 19.633-0.586329 19.638-0.389658 19.6429-0.187027 19.648 1.15508 19.6552 2.14091 19.4411 3.364 18.879 3.82336 18.3239 3.82561 17.974 3.9005 17.255 3.81627 16.4464 3.69383 16.208 3.132 15.631 2.44146 15.3469 2.44146 15.3469 1.624 15.167 1.47303 15.129 1.32206 15.091 1.16651 15.0518 0.295622 14.8376-0.579055 14.6552-1.45997 14.4873-6.76958 13.4709-6.76958 13.4709-8.265 11.6145-9.32726 9.80985-9.4117 7.52612-9.05616 5.50637-8.62525 3.84395-7.91783 2.53032-6.49147 1.53519-4.39 0.318391-2.40311-0.00335601 0 0Z" fill="#3A4C7A" fill-rule="nonzero" fill-opacity="1" transform="matrix(1.08538 0 0 1 884.226 414.705)"/><path d="M0 0C1.76088 0 3.52176 0 5.336 0 5.336 2.22024 5.336 4.44048 5.336 6.728 7.47968 6.728 9.62336 6.728 11.832 6.728 11.832 8.2592 11.832 9.7904 11.832 11.368 9.68832 11.368 7.54464 11.368 5.336 11.368 5.36383 13.1598 5.39229 14.9515 5.42238 16.7432 5.43242 17.3526 5.44209 17.9619 5.45138 18.5713 5.4648 19.4478 5.47957 20.3243 5.49459 21.2008 5.49847 21.4727 5.50235 21.7447 5.50634 22.0248 5.51328 22.4079 5.51328 22.4079 5.52037 22.7986 5.52577 23.134 5.52577 23.134 5.53129 23.4762 5.57041 24.1707 5.67393 24.8363 5.8 25.52 6.50242 25.7198 7.1555 25.7943 7.88437 25.8254 8.1012 25.8351 8.31802 25.8448 8.54141 25.8549 8.766 25.864 8.9906 25.8731 9.222 25.8825 9.56428 25.8975 9.56428 25.8975 9.91347 25.9129 10.4756 25.9374 11.0378 25.9611 11.6 25.984 11.9698 26.7237 11.8556 27.5219 11.8465 28.333 11.8455 28.508 11.8444 28.6829 11.8433 28.8632 11.8406 29.2954 11.8364 29.7277 11.832 30.16 8.89899 30.9599 5.38694 31.4524 2.581 29.9715 0.971807 28.8451 0.460291 27.4311 0.108523 25.5588-0.0752816 24.2272-0.028374 22.8819-0.0226562 21.5407-0.022328 21.2494-0.0219997 20.9582-0.0216615 20.6582-0.0205867 19.8889-0.018507 19.1196-0.0159302 18.3503-0.0135448 17.5634-0.0124947 16.7764-0.0113281 15.9894-0.00877556 14.4489-0.00477336 12.9085 0 11.368-0.99528 11.368-1.99056 11.368-3.016 11.368-3.016 9.8368-3.016 8.3056-3.016 6.728-2.02072 6.728-1.02544 6.728 0 6.728 0 4.50776 0 2.28752 0 0Z" fill="#3A4C7A" fill-rule="nonzero" fill-opacity="1" transform="matrix(1.08538 0 0 1 858.667 408.528)"/><path d="M0 0C1.76088 0 3.52176 0 5.336 0 5.336 2.22024 5.336 4.44048 5.336 6.728 7.40312 6.728 9.47024 6.728 11.6 6.728 11.6 8.2592 11.6 9.7904 11.6 11.368 9.53288 11.368 7.46576 11.368 5.336 11.368 5.35849 13.1971 5.38232 15.0261 5.40963 16.8551 5.41876 17.4773 5.42679 18.0995 5.43387 18.7217 5.44447 19.6161 5.45792 20.5104 5.47194 21.4047 5.47462 21.6829 5.4773 21.9611 5.48006 22.2477 5.48467 22.5078 5.48928 22.7678 5.49403 23.0357 5.49712 23.2639 5.50021 23.4921 5.50339 23.7273 5.5728 24.407 5.72845 24.9093 6.032 25.52 7.05838 26.1857 8.28983 26.0359 9.4685 26.013 9.67351 26.0109 9.87851 26.0088 10.0897 26.0067 10.5932 26.0012 11.0966 25.9929 11.6 25.984 11.8547 26.8972 11.8581 27.7682 11.8465 28.71 11.8455 28.8718 11.8444 29.0336 11.8433 29.2003 11.8406 29.5975 11.8364 29.9948 11.832 30.392 10.2063 30.8096 8.60141 30.9124 6.931 30.9285 6.64065 30.9346 6.64065 30.9346 6.34443 30.9407 4.71479 30.9394 3.3039 30.6111 1.8995 29.7685-0.163237 27.5879-0.0693315 24.4512-0.0453125 21.6313-0.044656 21.3362-0.0439994 21.0412-0.043323 20.7372-0.0411823 19.9618-0.0370312 19.1864-0.0318604 18.4111-0.0270698 17.6162-0.0249853 16.8214-0.0226562 16.0266-0.0175666 14.4737-0.00957055 12.9209 0 11.368-0.99528 11.368-1.99056 11.368-3.016 11.368-3.016 9.8368-3.016 8.3056-3.016 6.728-2.02072 6.728-1.02544 6.728 0 6.728 0 4.50776 0 2.28752 0 0Z" fill="#3A4C7A" fill-rule="nonzero" fill-opacity="1" transform="matrix(1.08538 0 0 1 727.475 352.384)"/><path d="M0 0C1.76088 0 3.52176 0 5.336 0 5.336 2.22024 5.336 4.44048 5.336 6.728 7.40312 6.728 9.47024 6.728 11.6 6.728 11.6 8.2592 11.6 9.7904 11.6 11.368 9.53288 11.368 7.46576 11.368 5.336 11.368 5.35169 13.0707 5.36802 14.7732 5.39065 16.4758 5.40099 17.2687 5.41015 18.0616 5.41637 18.8546 5.42358 19.7651 5.43629 20.6755 5.44928 21.586 5.45076 21.8692 5.45225 22.1525 5.45377 22.4444 5.45837 22.709 5.46296 22.9737 5.46769 23.2464 5.47155 23.5949 5.47155 23.5949 5.47549 23.9505 5.58348 24.6994 5.82111 25.1433 6.264 25.752 6.91279 26.0269 7.54782 26.0114 8.24687 26.0067 8.44276 26.0059 8.63865 26.0052 8.84047 26.0044 9.04293 26.0024 9.2454 26.0005 9.454 25.9985 9.66005 25.9975 9.86611 25.9964 10.0784 25.9953 10.5856 25.9926 11.0928 25.9888 11.6 25.984 11.7683 27.0349 11.8585 28.0375 11.8465 29.1015 11.8444 29.3452 11.8423 29.589 11.8402 29.8401 11.8375 30.0222 11.8348 30.2044 11.832 30.392 10.2063 30.8096 8.60141 30.9124 6.931 30.9285 6.64065 30.9346 6.64065 30.9346 6.34443 30.9407 4.71479 30.9394 3.3039 30.6111 1.8995 29.7685-0.132646 27.6202-0.0684716 24.6148-0.0453125 21.8352-0.044656 21.5347-0.0439994 21.2341-0.043323 20.9245-0.0415688 20.1334-0.0370259 19.3425-0.0318604 18.5515-0.0270759 17.7411-0.0249865 16.9307-0.0226562 16.1204-0.0177108 14.5362-0.00956329 12.9521 0 11.368-0.99528 11.368-1.99056 11.368-3.016 11.368-3.016 9.8368-3.016 8.3056-3.016 6.728-2.02072 6.728-1.02544 6.728 0 6.728 0 4.50776 0 2.28752 0 0Z" fill="#3A4C7A" fill-rule="nonzero" fill-opacity="1" transform="matrix(1.08538 0 0 1 772.548 352.384)"/><path d="M0 0C1.76088 0 3.52176 0 5.336 0 5.336 10.9481 5.336 21.8962 5.336 33.176 3.57512 33.176 1.81424 33.176 0 33.176 0 22.2279 0 11.2798 0 0Z" fill="#3A4C7A" fill-rule="nonzero" fill-opacity="1" transform="matrix(1.08538 0 0 1 885.107 349.6)"/><path d="M0 0C0 1.76088 0 3.52176 0 5.336-2.523 5.974-2.523 5.974-3.30317 6.16862-3.51404 6.22282-3.72492 6.27703-3.94219 6.33287-4.15359 6.38633-4.36499 6.43979-4.58279 6.49487-5.62891 6.81866-6.63924 7.2493-7.656 7.656-7.73256 13.0152-7.80912 18.3744-7.888 23.896-9.64888 23.896-11.4098 23.896-13.224 23.896-13.224 16.1634-13.224 8.43088-13.224 0.464-11.4631 0.464-9.70224 0.464-7.888 0.464-7.81144 1.2296-7.73488 1.9952-7.656 2.784-7.43978 2.66079-7.22356 2.53757-7.00078 2.41062-4.79282 1.17757-2.58688 0 0 0Z" fill="#3A4C7A" fill-rule="nonzero" fill-opacity="1" transform="matrix(1.08538 0 0 1 853.631 414.792)"/><path d="M0 0C1.76088 0 3.52176 0 5.336 0 5.336 7.80912 5.336 15.6182 5.336 23.664 3.57512 23.664 1.81424 23.664 0 23.664 0 15.8549 0 8.04576 0 0Z" fill="#3A4C7A" fill-rule="nonzero" fill-opacity="1" transform="matrix(1.08538 0 0 1 790.175 359.112)"/><path d="M0 0C1.76088 0 3.52176 0 5.336 0 5.336 7.73256 5.336 15.4651 5.336 23.432 3.57512 23.432 1.81424 23.432 0 23.432 0 15.6994 0 7.96688 0 0Z" fill="#3A4B7A" fill-rule="nonzero" fill-opacity="1" transform="matrix(1.08538 0 0 1 668.048 415.256)"/><path d="M0 0C1.76088 0 3.52176 0 5.336 0 5.336 1.83744 5.336 3.67488 5.336 5.568 3.57512 5.568 1.81424 5.568 0 5.568 0 3.73056 0 1.89312 0 0Z" fill="#3A4C7A" fill-rule="nonzero" fill-opacity="1" transform="matrix(1.08538 0 0 1 668.048 405.976)"/><path d="M0 0C1.76088 0 3.52176 0 5.336 0 5.336 1.83744 5.336 3.67488 5.336 5.568 3.57512 5.568 1.81424 5.568 0 5.568 0 3.73056 0 1.89312 0 0Z" fill="#3A4C7A" fill-rule="nonzero" fill-opacity="1" transform="matrix(1.08538 0 0 1 790.175 349.832)"/></g></g></g></g></g></svg>