<svg width="504" height="91" xmlns="http://www.w3.org/2000/svg" xmlns:xlink="http://www.w3.org/1999/xlink" xml:space="preserve" overflow="hidden"><g transform="translate(-388 -314)"><g><g><g><path d="M228.092 200.576C227.992 200.444 227.815 200.38 227.561 200.38 224.611 200.035 222.083 199.365 220.069 198.387 218.186 197.465 216.172 196.073 214.091 194.323 215.319 194.187 216.752 194.093 218.448 194.064 221.132 194.022 221.675 193.948 221.855 193.895 222.311 193.766 222.408 193.511 222.408 193.321 222.408 192.884 222.148 192.519 221.649 192.246 221.203 191.992 220.695 191.865 220.14 191.865 219.718 191.865 218.823 192.034 217.403 192.38 217.403 192.38 214.378 192.977 213.402 193.17 213.472 192.726 213.634 191.724 213.634 191.724 213.63 191.744 213.767 191.488 213.767 191.488L213.97 190.99C213.97 190.579 213.543 190.218 212.689 189.877 214.696 189.388 216.48 189.002 217.929 188.765 218.34 188.769 218.362 188.466 218.362 188.407 218.362 188.209 218.255 187.925 217.011 187.039 216.128 186.403 215.484 186.092 215.049 186.092 214.985 186.092 214.775 186.092 214.657 186.247 214.635 186.283 214.486 186.788 214.435 186.966 213.66 187.68 211.268 188.832 207.288 190.391L206.997 190.504 207.361 190.978 207.485 190.972C208.681 190.91 209.952 190.69 211.248 190.317L211.245 190.325C211.251 190.373 211.566 191.865 211.566 191.865 211.682 192.377 211.741 192.884 211.741 193.375 211.741 193.384 211.739 193.393 211.739 193.406 211.37 193.464 207.459 194.087 207.459 194.087 205.442 194.443 203.746 194.67 202.411 194.766L201.88 194.806 202.26 195.17C203.043 195.92 203.708 196.283 204.296 196.283 204.452 196.283 204.836 196.247 206.408 195.912 206.408 195.912 208.423 195.483 209.484 195.256 207.015 198.755 203.499 201.581 198.951 203.62L198.811 203.681 198.811 203.994C198.811 204.043 198.832 204.293 199.206 204.293 199.952 204.293 200.908 204.05 202.132 203.559 203.324 203.071 204.391 202.516 205.314 201.905 206.24 201.287 207.115 200.594 207.93 199.836 208.749 199.066 209.517 198.256 210.218 197.42 210.218 197.42 211.231 196.079 211.807 195.317 211.767 196.243 211.664 197.099 211.459 197.825 211.19 198.776 211.068 199.354 211.068 199.647 211.068 200.177 211.282 200.78 211.709 201.426L211.729 201.462 211.818 201.518 211.897 201.574C211.91 201.586 212.225 201.709 212.225 201.709 212.531 201.709 212.756 201.357 213.034 200.444 213.273 199.7 213.393 198.799 213.393 197.761 213.393 197.761 213.318 196.005 213.275 195.074 213.928 195.86 215.13 197.084 216.989 198.836 219.312 201.028 220.865 202.089 221.755 202.089 222.678 202.089 224.713 201.778 227.966 201.131L228.106 201.105 228.146 200.965C228.161 200.918 228.168 200.869 228.167 200.82 228.171 200.711 228.134 200.628 228.092 200.576M217.425 201.382C216.522 200.996 215.86 200.808 215.414 200.808 215.333 200.824 213.75 201.393 213.75 201.393 212.508 201.764 211.351 202.027 210.324 202.172L208.663 202.391 208.095 202.256 207.124 202.096C206.509 202.096 206.443 202.446 206.443 202.596 206.46 202.691 206.905 203.751 206.905 203.751 207.028 204.098 207.129 204.635 207.189 205.328L207.283 207.796C207.283 208.753 207.224 209.458 207.102 209.89L206.919 211.03C206.919 211.704 207.052 212.355 207.319 212.966 207.651 213.708 207.883 213.995 208.153 213.995 208.434 213.995 208.655 213.757 208.868 211.465 209.057 211.483 209.279 211.505 209.279 211.505L211.537 211.25 213.48 210.998C213.752 210.998 213.965 211.084 214.132 211.258 214.337 211.46 214.519 211.747 214.672 212.109L215.206 213.484 215.637 214.714 215.76 214.733 216.237 214.837 216.324 214.764C217.62 213.711 218.28 211.877 218.28 209.321L218.17 205.583C218.17 203.965 218.36 203.472 218.473 203.325 218.823 202.864 218.867 202.674 218.867 202.552 218.867 202.166 218.424 201.807 217.425 201.382M215.717 210.352 215.347 209.982C214.962 209.574 214.567 209.372 214.179 209.372 213.693 209.372 212.798 209.515 211.447 209.82 210.3 210.067 209.491 210.203 208.938 210.261 208.935 209.842 208.906 207.827 208.901 207.445 209.945 207.439 211.106 207.333 212.357 207.126 214.481 206.777 214.522 206.727 214.6 206.629 214.58 206.649 214.73 206.321 214.73 206.321 214.73 206.026 214.516 205.768 214.091 205.558 213.723 205.361 213.325 205.264 212.907 205.264 212.446 205.264 211.856 205.397 211.144 205.659L209.784 206.092C209.781 206.092 209.251 206.217 208.904 206.294 208.911 206.067 208.923 205.844 208.923 205.597 208.923 205.005 208.892 204.328 208.843 203.615 209.543 203.599 210.246 203.539 210.933 203.381 212.858 202.963 214.163 202.755 214.811 202.755 215.054 202.755 215.245 202.82 215.407 202.954 215.561 203.077 215.642 203.222 215.659 203.41L215.783 205.154 215.88 207.703C215.88 209.317 215.791 210.019 215.717 210.352M269.304 204.293C266.029 203.304 263.675 202.385 262.295 201.57 261.005 200.8 259.184 199.409 256.917 197.482 258.452 197.242 259.977 197.068 261.434 197.032L264.392 196.92C264.982 196.863 265.102 196.614 265.102 196.417 265.102 196.153 264.889 195.855 264.397 195.443 263.958 195.061 263.444 194.864 262.871 194.864 261.807 194.864 260.108 195.186 257.853 195.792 258.033 195.192 258.685 192.977 258.756 192.737 258.979 192.704 259.687 192.603 259.687 192.603 259.689 192.603 261.398 192.432 261.398 192.432 262.037 192.376 262.884 192.237 262.884 191.642 262.884 191.23 262.625 190.742 261.395 190.742 261.012 190.742 260.329 190.86 259.441 191.059 259.745 190.388 260.908 187.817 260.908 187.817L260.872 187.74C260.75 187.402 260.31 187.08 259.477 186.716 258.7 186.37 258.134 186.211 257.759 186.221L257.677 186.222 257.612 186.273C257.4 186.45 257.353 186.652 257.353 186.79L257.612 187.584C257.769 187.905 257.845 188.329 257.845 188.852 257.845 189.173 257.713 190.092 257.463 191.519 257.199 191.576 253.981 192.208 253.493 192.303 253.513 191.933 253.558 190.999 253.558 190.999L253.699 189.179 253.588 189.118C252.723 188.512 251.859 188.204 251.009 188.204 250.438 188.204 250.394 188.553 250.394 188.661 250.394 188.742 250.394 188.75 250.882 189.633 251.174 190.146 251.382 190.772 251.505 191.492 251.505 191.492 251.681 192.271 251.772 192.695 251.372 192.773 248.261 193.393 248.261 193.393L248.617 193.706C249.123 194.158 249.717 194.382 250.374 194.382 250.705 194.382 251.223 194.275 251.889 194.095 251.943 194.506 252.216 196.532 252.267 196.889 250.2 197.297 248.233 197.589 246.436 197.749L246.021 197.787 246.268 198.125C246.744 198.777 247.472 199.108 248.426 199.108 248.963 199.108 249.571 199.015 250.233 198.832 250.233 198.832 250.846 198.683 251.289 198.577 250.123 201.894 247.639 205.002 243.833 207.799L243.718 207.882C243.842 207.526 243.984 207.148 244.155 206.731 244.157 206.731 247.096 200.48 247.096 200.48L246.408 200.478 244.365 203.078C243.472 204.285 242.83 205.06 242.466 205.37 242.131 205.651 241.784 205.803 241.453 205.823 240.915 205.852 240.64 206.021 240.64 206.323 240.64 206.766 240.816 207.546 241.177 208.713 241.571 209.998 241.968 210.573 242.462 210.573 243.088 210.573 243.246 209.664 243.298 209.364 243.366 208.992 243.49 208.552 243.654 208.052L244.051 208.344 244.162 208.309C246.751 207.569 248.876 205.941 250.52 203.531 250.674 204.347 250.773 205.271 250.773 206.357L250.678 208.98C250.678 209.952 251.033 210.866 251.731 211.708 252.464 212.565 253.954 212.984 256.289 212.984 257.747 212.984 259.158 212.826 260.485 212.516 261.927 212.176 262.629 211.677 262.629 210.986 262.629 210.649 262.39 210.38 261.915 210.183L260.937 209.911C260.669 209.912 260.355 210.014 259.996 210.209 259.704 210.365 259.134 210.536 258.302 210.709 257.467 210.875 256.556 210.956 255.592 210.956 254.557 210.956 253.777 210.856 253.265 210.658 252.813 210.47 252.556 210.056 252.482 209.389 252.482 209.389 252.382 208.048 252.341 207.499 252.604 207.52 252.959 207.543 252.959 207.543 253.272 207.543 254.115 207.428 255.534 207.192 257.714 206.812 257.875 206.614 257.964 206.506L258.205 205.959C258.205 205.559 257.822 205.34 257.528 205.223 257.676 204.896 258.072 204.028 258.072 204.028 258.2 203.745 258.407 203.507 258.685 203.317 259.107 203.022 259.268 202.832 259.268 202.63 259.264 202.29 258.891 201.936 258.069 201.476 257.297 201.033 256.784 200.826 256.448 200.826 256.351 200.845 255.033 201.433 255.033 201.433L253.553 201.929C253 202.07 252.465 202.143 251.974 202.143 251.974 202.143 251.751 202.108 251.536 202.073 251.863 201.659 252.605 200.731 252.605 200.731 253.746 199.275 253.746 199.218 253.746 199.11 253.746 198.916 253.57 198.658 252.916 198.177 253.631 198.036 255.333 197.698 255.537 197.658 255.704 197.848 258.7 201.203 258.7 201.203 259.819 202.455 260.786 203.435 261.651 204.206 262.545 204.99 263.133 205.434 263.442 205.561 263.455 205.565 264.501 205.74 264.501 205.74 264.832 205.74 265.714 205.628 267.201 205.404 269.495 205.057 269.604 204.893 269.604 204.63 269.605 204.524 269.553 204.376 269.304 204.293M244.114 208.178C244.187 208.126 244.244 208.066 244.313 208.009 244.332 208.005 244.351 207.996 244.371 207.991L244.377 207.995ZM252.387 203.399C252.816 203.397 253.416 203.314 254.216 203.144L256.006 202.847C256.078 202.847 256.107 202.863 256.123 202.947 256.126 202.964 256.2 203.659 256.2 203.659L256.109 204.713 255.896 205.341C255.879 205.363 255.771 205.49 255.042 205.669L253.6 206.015C253.6 206.015 252.803 206.116 252.386 206.169L252.386 203.399ZM253.541 196.655C253.521 195.688 253.504 194.721 253.488 193.754 253.811 193.692 256.571 193.162 257.136 193.054 257.011 193.599 256.487 195.881 256.43 196.128 256.174 196.174 253.978 196.576 253.541 196.655M247.109 193.354C247.459 193.354 248.042 193.206 248.042 192.226 248.042 191.429 247.678 190.777 246.957 190.289 246.268 189.811 245.359 189.566 244.256 189.566L243.167 189.679 243.451 190.004C245.733 193.008 246.634 193.354 247.109 193.354M244.24 199.36C244.633 199.36 245.298 199.197 245.298 198.095 245.298 197.415 245.035 196.822 244.513 196.322 244.007 195.828 242.925 195.504 241.207 195.338L240.791 195.302 240.968 195.672C242.139 198.152 243.209 199.36 244.24 199.36M303.867 193.132C302.816 192.356 302.053 191.975 301.541 191.975 301.452 191.975 301.28 192.006 300.332 192.373 299.729 192.612 297.954 192.918 295.101 193.289 295.184 190.999 295.34 189.425 295.555 188.643L295.704 187.898C295.704 187.432 295.363 187.008 294.652 186.6 294.011 186.232 293.236 185.972 292.353 185.827L292.292 185.816 292.233 185.837C291.728 186.03 291.622 186.351 291.622 186.584L291.657 186.873C292.111 187.512 292.433 188.238 292.657 189.114 292.885 189.974 293.003 191.48 293.01 193.561 290.789 193.908 289.209 194.083 288.351 194.083L286.281 193.881 284.119 193.649 284.074 193.694C283.962 193.762 283.834 193.904 283.834 194.193L283.956 194.678C284.423 195.145 284.778 195.675 285.059 196.32 285.344 196.973 285.592 198.397 285.801 200.559 286.036 202.955 286.525 204.071 287.353 204.071 287.748 204.071 287.93 203.539 288.018 202.198 288.363 202.164 292.585 201.785 293.044 201.745 293.032 202.217 292.954 206.46 292.954 206.46L292.794 211.391C292.794 211.784 292.92 212.602 293.177 213.9 293.531 215.67 293.751 215.996 294.062 215.996L294.15 215.996 294.298 215.882C294.652 215.563 295.12 214.651 295.12 210.493 295.12 210.493 295.012 202.726 294.994 201.611 297.971 201.382 300.149 201.263 301.452 201.263 301.844 201.263 302.667 201.263 302.667 200.773 302.667 200.34 302.447 199.812 301.642 199.554 303.003 197.449 303.976 196.157 304.509 195.763 305.324 195.16 305.492 194.91 305.492 194.702 305.489 194.507 305.364 194.221 303.867 193.132M301.244 195.115C301.244 195.508 301.117 196.296 300.87 197.459 300.641 198.551 300.267 199.24 299.759 199.503 299.236 199.762 297.628 200.016 295.027 200.26 295.027 199.792 295.052 195.051 295.052 194.683 297.466 194.298 299.192 194.099 300.162 194.099 300.776 194.099 300.977 194.236 301.034 194.321 301.177 194.487 301.244 194.749 301.244 195.115M293.012 194.94 293.012 200.434C292.644 200.47 288.421 200.87 287.991 200.914 287.982 198.883 287.863 197.126 287.642 195.681 288.036 195.627 292.552 195.004 293.012 194.94M332.867 189.968C334.284 191.113 335.335 191.671 336.077 191.671 336.524 191.671 337.06 191.391 337.06 190.055 337.06 189.519 336.749 189.002 336.144 188.526 335.562 188.067 334.933 187.787 334.265 187.696 333.646 187.6 332.594 187.533 331.059 187.489L330.815 187.483 330.753 187.76C330.752 187.986 330.918 188.368 332.867 189.968M349.293 210.147C345.671 209.783 342.743 209.096 340.582 208.107 338.49 207.128 336.575 205.759 334.882 204.05 335.206 203.337 335.549 202.344 335.909 201.043L336.665 198.392C336.785 198.049 336.93 197.795 337.082 197.642L337.436 197.014C337.436 196.764 337.205 196.483 336.637 196.036 336.323 195.789 335.985 195.651 335.658 195.489 338.158 195.041 340.811 194.661 343.586 194.379 344.184 194.022 344.426 193.713 344.426 193.401 344.426 193.029 344.104 192.71 343.448 192.423 342.86 192.169 342.225 192.039 341.562 192.039 340.498 192.039 339.431 192.334 338.374 192.908 334.641 194.507 329.911 195.366 324.322 195.448L323.891 195.453 324.133 195.816C324.713 196.672 325.621 197.107 326.834 197.107 328.116 197.107 330.614 196.657 334.222 195.784 334.197 195.865 334.113 195.909 334.113 196.002 334.113 196.024 334.225 197.153 334.225 197.153 334.224 198.256 333.863 200.012 333.164 202.307 332.771 201.855 331.567 200.468 331.567 200.468 330.707 199.37 330.045 198.687 329.536 198.385 329.044 198.066 328.542 197.905 328.053 197.905 327.706 197.905 326.645 197.905 326.645 198.586L326.747 198.975 326.831 198.973C328.689 199.821 330.579 201.483 332.462 203.885 330.555 206.398 326.916 208.062 321.598 208.816L321.563 209.276C322.449 209.544 323.269 209.682 324.01 209.682 325.012 209.682 326.586 209.361 328.692 208.735 330.736 208.13 332.457 207.018 333.84 205.49 335.455 207.317 337.03 208.865 338.511 210.073 340.09 211.348 341.228 211.965 341.975 211.965 342.551 211.965 343.746 211.762 345.625 211.344L349.298 210.617ZM385.664 209.457C384.282 209.124 382.952 208.538 381.714 207.712 380.482 206.878 379.282 205.786 378.147 204.471 377.033 203.17 375.934 201.608 374.878 199.839 374.885 199.712 374.941 198.541 374.956 198.248 376.206 198.008 377.964 197.779 380.272 197.569L384.486 197.137C385.174 197.025 385.278 196.653 385.278 196.443 385.276 196.065 384.925 195.707 384.184 195.317 383.51 194.953 382.683 194.765 381.737 194.765 381.66 194.765 381.522 194.766 379.455 195.527 378.207 195.985 376.717 196.318 375.043 196.53 375.106 193.508 375.273 191.519 375.528 190.663 375.827 189.706 375.967 189.114 375.967 188.803 375.965 188.366 375.776 188.009 375.421 187.77 375.121 187.546 374.627 187.325 373.962 187.119 373.311 186.911 372.652 186.808 372.006 186.808 371.603 186.808 371.355 187.026 371.355 187.39 371.355 187.575 371.461 187.744 371.669 187.909 372.526 188.918 372.972 190.802 372.972 193.48 372.972 193.48 372.901 196.548 372.887 196.905 372.52 196.955 364.692 198.025 364.692 198.025L364.939 198.349C365.542 199.118 366.447 199.503 367.627 199.503 368.323 199.503 369.323 199.353 370.601 199.053 370.601 199.053 372.168 198.715 372.841 198.569 372.339 204.539 369.311 208.656 363.803 210.779L363.878 211.233C365.68 211.322 367.705 210.535 369.913 208.891 371.999 207.333 373.513 204.925 374.458 201.788 375.768 204.154 377.254 206.423 378.907 208.514 381.333 211.564 382.302 211.916 382.819 211.916 384.568 211.916 387.109 211.61 390.394 211.008L390.403 210.55ZM414.755 189.01C415.134 189.282 415.382 189.509 415.542 189.713 415.334 189.974 413.513 192.306 413.513 192.306L414.174 192.141C415.11 191.907 415.923 191.368 416.635 190.594 416.796 190.784 417.135 191.17 417.135 191.17 417.515 191.628 417.87 191.898 418.237 192.01L418.348 192.046 418.445 191.972C418.748 191.75 418.903 191.475 418.903 191.166 418.903 190.618 418.486 189.999 417.714 189.303 417.887 189.108 418.286 188.643 418.286 188.643 418.716 188.156 418.936 187.657 418.936 187.172 418.936 186.69 418.358 186.391 417.074 186.191L416.754 186.142 416.802 186.459C416.823 186.578 416.829 186.696 416.829 186.818 416.829 187.373 416.621 187.958 416.25 188.553 415.999 188.429 415.432 188.149 415.432 188.149 414.871 187.858 414.372 187.721 413.946 187.742L413.546 187.766 413.765 188.107C413.925 188.352 414.248 188.649 414.755 189.01M413.092 197.336 413.755 197.217C414.557 197.056 415.555 196.362 416.761 195.186 417.004 195.435 417.963 196.435 417.963 196.435L418.634 196.584 418.663 196.387 418.759 195.873C418.759 195.375 418.364 194.774 417.637 194.07 417.761 193.908 417.994 193.592 417.994 193.592 418.257 193.264 418.39 192.926 418.39 192.596 418.39 192.544 418.382 192.486 418.374 192.435L418.362 192.336 418.28 192.272C417.874 191.976 417.556 191.836 417.305 191.836 417.043 191.836 416.709 191.987 416.584 192.724 416.525 193.062 416.469 193.215 416.423 193.305 415.874 192.964 415.38 192.77 414.937 192.77L413.916 192.902 414.437 193.243C415.027 193.666 415.422 194.022 415.656 194.324 415.449 194.581 414.735 195.443 414.735 195.443ZM429.27 197.09C428.551 196.345 427.938 195.986 427.385 195.986L425.934 196.281C425.26 196.437 424.353 196.525 423.309 196.556 423.42 196.037 424.148 192.658 424.148 192.658 424.544 190.895 424.769 190.271 424.884 190.058 425.052 189.755 425.253 189.528 425.462 189.379 425.788 189.136 425.926 188.956 425.926 188.771 425.926 188.587 425.828 188.357 424.626 187.619 423.493 186.898 423.255 186.837 423.122 186.837 423.054 186.839 422.979 186.839 422.019 187.255 421.44 187.499 420.608 187.736 419.559 187.955L419.056 188.061 419.461 188.372C419.973 188.771 420.49 188.974 420.98 188.974L421.847 188.838 422.597 188.706C422.722 188.706 422.968 188.706 422.968 189.361 422.968 189.703 422.879 190.092 422.755 190.5 421.924 190.496 420.816 190.598 419.444 190.805L419.056 190.861 419.288 191.178C419.628 191.641 420.143 191.876 420.808 191.876L422.396 191.749C422.396 191.749 422.465 191.761 422.54 191.767 422.465 192.122 422.256 193.12 422.204 193.387 421.891 193.413 418.916 193.683 418.916 193.683L418.996 193.961C419.113 194.35 419.446 194.809 420.364 194.809L421.393 194.712C421.401 194.712 421.736 194.674 421.987 194.647 421.912 195.079 421.697 196.425 421.652 196.691 421.318 196.729 412.422 197.736 411.992 197.785 411.945 197.452 411.786 196.238 411.744 195.925 412.047 195.859 412.711 195.704 412.711 195.704L413.838 195.417 413.966 195.323 414.088 195.244C414.255 195.144 414.346 195.001 414.346 194.837 414.346 194.773 414.327 194.71 414.305 194.644L414.28 194.588 414.232 194.552C413.98 194.348 413.689 194.245 413.37 194.245 413.103 194.245 412.728 194.353 412.232 194.569 411.856 194.72 411.646 194.772 411.487 194.802 411.431 194.487 411.25 193.501 411.205 193.216 411.478 193.128 412.307 192.865 412.307 192.865 412.844 192.694 413.56 192.405 413.56 191.896 413.56 191.698 413.478 191.231 412.739 191.231 412.409 191.231 412.009 191.344 411.513 191.572 411.513 191.572 411.116 191.711 410.864 191.797 410.812 191.513 410.751 191.121 410.751 191.121 410.751 191.121 410.69 190.418 410.668 190.187 410.886 190.055 413.194 188.665 413.194 188.665L413.181 188.517C413.148 188.135 412.888 187.811 412.405 187.55 411.975 187.299 411.555 187.174 411.165 187.174 410.566 187.178 410.505 187.494 410.505 187.631 410.505 188.301 410.23 188.943 409.707 189.542 408.346 189.55 407.794 189.721 407.794 190.15L408.155 190.692C408.957 191.416 409.745 193.896 410.492 198.018 410.1 198.097 407.605 198.575 407.338 198.627 406.87 197.816 406.403 197.335 405.919 197.227L405.621 197.165 405.637 197.467C405.685 198.65 405.497 199.575 405.075 200.215 404.595 200.948 404.37 201.527 404.37 201.979 404.37 203.077 404.921 203.247 405.254 203.247 405.732 203.247 406.231 202.871 406.794 202.1 407.289 201.422 407.528 200.628 407.569 199.765 408.652 199.486 411.551 199.074 416.267 198.533 421.157 197.978 424.099 197.695 425.025 197.695L426.156 197.743C426.166 197.743 426.369 197.788 426.369 197.788 426.358 197.857 426.258 198.268 424.93 199.509L425.156 199.91 427.564 199.224C427.567 199.224 428.609 199.139 428.609 199.139 429.412 199.139 430.334 199.066 430.334 198.478 430.335 198.315 430.255 198.091 429.27 197.09M426.029 204.192C425.415 203.786 424.675 203.581 423.804 203.581 423.192 203.581 422.289 203.714 421.044 203.983 419.854 204.242 418.982 204.374 418.446 204.374 418.424 204.374 417.887 204.425 417.887 204.425 417.809 204.422 417.752 204.387 417.703 204.317 418.741 203.398 419.835 202.587 420.964 201.93 421.654 201.648 421.832 201.272 421.832 200.962 421.832 200.905 421.832 200.843 421.816 200.793L421.798 200.709 421.738 200.654C420.582 199.736 419.528 199.271 418.59 199.271 418.518 199.281 416.172 200.04 416.172 200.04L413.687 200.623C412.841 200.753 411.965 200.819 411.079 200.807L410.546 200.803 410.895 201.201C411.583 201.969 412.405 202.344 413.351 202.31 413.41 202.301 417.863 200.911 418.056 200.852L418.447 200.852C418.513 200.852 418.533 201.053 418.533 201.17 418.533 201.304 418.354 201.837 417.028 203.523 416.525 203.152 415.996 202.93 415.434 202.93 414.895 202.93 414.832 203.24 414.832 203.373 414.832 203.529 414.934 203.694 415.488 204.169 415.713 204.364 415.846 204.518 415.933 204.641 411.079 205.251 407.592 205.624 405.607 205.738L405.388 205.752 405.353 206.019C405.353 206.206 405.463 206.456 406.262 207.022 406.851 207.425 407.352 207.625 407.796 207.625 408 207.625 408.623 207.543 411.634 206.873 413.721 206.405 415.276 206.151 416.346 206.077 416.496 206.917 416.584 207.795 416.584 208.733 416.584 211.134 416.121 212.35 415.198 212.35 414.789 212.35 413.77 212.167 412.157 211.817L411.98 212.244C413.666 213.324 414.732 214.336 415.143 215.253L415.238 215.459 415.449 215.369C417.417 214.53 418.416 212.5 418.416 209.334 418.416 208.431 418.303 207.277 418.097 205.93 418.541 205.915 421.83 205.809 421.83 205.809L426.281 205.955C426.936 205.955 427.007 205.557 427.007 205.385 427.005 205.015 426.686 204.624 426.029 204.192M204.618 237.764C204.618 238.676 204.567 239.303 204.4 239.567 204.254 239.802 203.964 239.901 203.389 239.925L202.233 239.998 202.233 240.726C203.482 240.678 204.616 240.659 205.791 240.659 206.899 240.659 208.033 240.678 209.285 240.726L209.285 239.998 208.13 239.925C207.552 239.901 207.261 239.801 207.118 239.567 206.948 239.303 206.898 238.676 206.898 237.764L206.898 227.589C206.898 226.676 206.924 225.904 206.997 225.183L210.728 225.183C211.449 225.183 211.642 225.399 211.688 225.981L211.786 227.877 212.53 227.877C212.53 226.582 212.58 225.258 212.7 224.005 211.832 224.005 210.963 224.031 210.101 224.031 209.234 224.051 208.368 224.076 207.502 224.076L204.012 224.076C202.279 224.076 200.545 224.005 198.812 224.005 198.934 225.258 198.982 226.582 198.982 227.877L199.726 227.877 199.824 225.981C199.872 225.4 200.065 225.183 200.788 225.183L204.518 225.183C204.588 225.905 204.614 226.676 204.614 227.589L204.614 237.764Z" fill="#231F20" fill-rule="evenodd" fill-opacity="1" transform="matrix(1 0 0 1.00557 314.821 142.156)"/><path d="M213.803 238.193C213.803 238.843 213.78 239.324 213.681 239.588 213.588 239.804 213.327 239.904 212.913 239.924L211.831 240 211.831 240.729C212.673 240.708 213.639 240.664 214.815 240.664 215.993 240.664 216.959 240.708 217.801 240.729L217.801 240 216.716 239.924C216.31 239.904 216.044 239.804 215.949 239.588 215.85 239.324 215.824 238.843 215.824 238.193L215.824 233.1C215.824 232.112 217.319 230.838 218.788 230.838 220.424 230.838 221.557 231.898 221.557 233.894L221.557 240.73C222.108 240.709 222.805 240.665 223.478 240.665 224.155 240.665 224.85 240.709 225.45 240.73L225.45 240 224.466 239.925C224.057 239.905 223.793 239.805 223.694 239.589 223.599 239.325 223.577 238.844 223.577 238.194L223.577 233.554C223.577 230.937 222.421 229.373 219.603 229.373 218.64 229.373 218.184 229.517 217.656 229.974L215.875 231.514 215.824 231.514 215.824 223.383 215.61 223.188C214.41 223.67 213.132 223.883 211.856 224.079L211.856 224.753 213.203 224.753C213.731 224.753 213.802 225.183 213.802 225.739L213.802 238.193ZM231.054 230.162C232.789 230.162 233.606 231.995 233.606 234.234 231.874 234.33 229.854 234.378 227.881 234.159 227.758 231.538 229.204 230.162 231.054 230.162M231.177 229.372C230.355 229.372 229.662 229.635 228.818 230.024 228.285 230.258 227.782 230.622 227.325 230.983 226.223 231.85 225.596 233.248 225.596 235.58 225.596 238.826 227.518 241.141 231.151 241.141 232.79 241.141 234.834 240.08 235.006 239.79L235.486 238.974 235.171 238.734C234.257 239.286 233.344 239.865 232.188 239.865 229.228 239.865 227.832 237.937 227.832 235.125L231.341 235.125C232.79 235.125 234.259 235.029 235.702 234.786 235.751 234.452 235.751 234.111 235.751 233.775 235.749 231.053 233.799 229.372 231.177 229.372M256.461 238.639 256.245 238.395C255.137 239.217 253.095 239.839 251.362 239.839 246.596 239.839 243.443 236.762 243.443 231.995 243.443 227.905 245.826 224.609 250.348 224.609 251.241 224.609 252.275 224.752 253.047 225.013 254.152 225.423 255.117 225.834 255.117 226.508L255.117 228.24 255.862 228.24C255.862 226.99 256.078 225.711 256.32 224.583 255.162 224.172 252.999 223.598 250.756 223.598 248.066 223.598 245.608 224.412 243.807 225.908 241.953 227.423 240.87 229.61 240.87 232.382 240.87 237.841 244.768 241.139 250.546 241.139 252.014 241.139 254.395 240.68 255.792 239.838ZM258.798 238.193C258.798 238.843 258.774 239.324 258.681 239.588 258.582 239.804 258.316 239.904 257.91 239.924L256.827 240 256.827 240.729C257.667 240.708 258.63 240.664 259.81 240.664 260.988 240.664 261.951 240.708 262.792 240.729L262.792 240 261.711 239.924C261.303 239.904 261.036 239.804 260.939 239.588 260.845 239.324 260.821 238.843 260.821 238.193L260.821 233.1C260.821 232.112 262.309 230.838 263.781 230.838 265.417 230.838 266.55 231.898 266.55 233.894L266.55 240.73C267.103 240.709 267.8 240.665 268.474 240.665 269.147 240.665 269.843 240.709 270.447 240.73L270.447 240 269.46 239.925C269.051 239.905 268.788 239.805 268.69 239.589 268.592 239.325 268.569 238.844 268.569 238.194L268.569 233.554C268.569 230.937 267.413 229.373 264.597 229.373 263.635 229.373 263.18 229.517 262.651 229.974L260.869 231.514 260.821 231.514 260.821 223.383 260.603 223.188C259.4 223.67 258.125 223.883 256.849 224.079L256.849 224.753 258.196 224.753C258.726 224.753 258.797 225.183 258.797 225.739L258.797 238.193ZM274.484 229.467 274.266 229.372C273.376 229.757 271.929 230.212 270.512 230.359L270.512 231.033 271.402 231.033C271.907 231.033 272.148 231.105 272.296 231.298 272.415 231.489 272.462 232.016 272.462 232.786L272.462 238.194C272.462 238.846 272.439 239.323 272.34 239.589 272.248 239.806 271.98 239.903 271.572 239.927L270.465 240 270.465 240.729C271.333 240.709 272.296 240.661 273.475 240.661 274.652 240.661 275.614 240.709 276.481 240.729L276.481 240 275.372 239.927C274.966 239.903 274.7 239.806 274.604 239.589 274.505 239.323 274.484 238.846 274.484 238.194ZM273.352 224.125C272.652 224.125 272.028 224.773 272.028 225.47 272.028 226.169 272.653 226.798 273.352 226.798 274.052 226.798 274.7 226.169 274.7 225.47 274.7 224.773 274.052 224.125 273.352 224.125" fill="#231F20" fill-rule="evenodd" fill-opacity="1" transform="matrix(1 0 0 1.00557 314.821 142.156)"/><path d="M280.372 233.098C280.372 232.116 281.866 230.838 283.333 230.838 284.97 230.838 286.1 231.896 286.1 233.896L286.1 240.729C286.652 240.709 287.352 240.661 288.022 240.661 288.699 240.661 289.396 240.709 290 240.729L290 240 289.012 239.927C288.603 239.903 288.34 239.806 288.244 239.589 288.145 239.325 288.121 238.846 288.121 238.194L288.121 233.554C288.121 230.939 286.967 229.373 284.151 229.373 283.188 229.373 282.731 229.517 282.204 229.974L280.419 231.514 280.372 231.514 280.372 229.471 280.154 229.374C279.264 229.759 277.824 230.213 276.4 230.361L276.4 231.035 277.292 231.035C277.797 231.035 278.037 231.107 278.182 231.299 278.304 231.49 278.351 232.017 278.351 232.788L278.351 238.195C278.351 238.848 278.325 239.327 278.229 239.591 278.134 239.808 277.867 239.905 277.461 239.929L276.377 240.002 276.377 240.73C277.217 240.711 278.182 240.663 279.362 240.663 280.541 240.663 281.503 240.711 282.344 240.73L282.344 240.002 281.262 239.929C280.853 239.905 280.59 239.808 280.497 239.591 280.394 239.327 280.371 238.848 280.371 238.195L280.371 233.098ZM295.599 230.162C297.332 230.162 298.151 231.995 298.151 234.234 296.417 234.33 294.396 234.378 292.423 234.159 292.303 231.538 293.75 230.162 295.599 230.162M295.722 229.372C294.901 229.372 294.207 229.635 293.365 230.024 292.833 230.258 292.326 230.622 291.869 230.983 290.766 231.85 290.137 233.248 290.137 235.58 290.137 238.826 292.064 241.141 295.695 241.141 297.332 241.141 299.379 240.08 299.547 239.79L300.027 238.974 299.716 238.734C298.798 239.286 297.887 239.865 296.727 239.865 293.768 239.865 292.374 237.937 292.374 235.125L295.888 235.125C297.332 235.125 298.798 235.029 300.245 234.786 300.292 234.452 300.292 234.111 300.292 233.775 300.292 231.053 298.346 229.372 295.722 229.372M301.298 237.215C301.298 238.348 301.274 239.502 301.032 240.564 302.211 240.97 303.247 241.14 304.403 241.14 307.074 241.14 309.722 239.744 309.722 237.097 309.722 235.214 308.373 234.496 305.508 234.019 303.678 233.703 302.887 233.149 302.887 232.113 302.887 231.295 303.203 230.163 305.246 230.163 306.618 230.163 308.038 230.89 308.038 232.137L308.038 232.692 308.709 232.692C308.735 231.729 308.759 230.838 308.831 229.976 307.895 229.635 306.856 229.372 305.725 229.372 303.464 229.372 301.203 230.289 301.203 232.889 301.203 234.354 302.095 235.072 303.247 235.508 304.404 235.942 305.726 236.209 306.784 236.474 307.53 236.663 307.939 237.292 307.939 238.061 307.939 239.357 306.639 240.25 305.125 240.25 303.728 240.25 302.019 239.692 302.019 238.204L302.019 237.215 301.298 237.215ZM315.877 230.162C317.613 230.162 318.428 231.995 318.428 234.234 316.697 234.33 314.673 234.378 312.701 234.159 312.581 231.538 314.025 230.162 315.877 230.162M315.998 229.372C315.176 229.372 314.482 229.635 313.641 230.024 313.108 230.258 312.606 230.622 312.146 230.983 311.042 231.85 310.416 233.248 310.416 235.58 310.416 238.826 312.34 241.141 315.973 241.141 317.613 241.141 319.656 240.08 319.826 239.79L320.303 238.974 319.993 238.734C319.078 239.286 318.166 239.865 317.007 239.865 314.048 239.865 312.653 237.937 312.653 235.125L316.167 235.125C317.613 235.125 319.078 235.029 320.524 234.786 320.573 234.452 320.573 234.111 320.573 233.775 320.573 231.053 318.622 229.372 315.998 229.372M327.593 235.509C327.593 239.912 329.998 241.14 334.091 241.14 338.954 241.14 340.901 239.07 340.901 233.924L340.901 226.976C340.901 226.061 340.948 225.436 341.116 225.168 341.263 224.932 341.545 224.856 342.128 224.808L343.187 224.737 343.187 224.008C342.128 224.031 341.264 224.078 340.298 224.078 339.43 224.078 338.472 224.031 337.506 224.008L337.506 224.737 338.569 224.808C339.143 224.857 339.43 224.932 339.574 225.168 339.743 225.436 339.791 226.06 339.791 226.976L339.791 234.671C339.791 238.662 337.437 239.645 334.833 239.645 331.661 239.645 329.879 238.661 329.879 235.251L329.879 226.976C329.879 226.061 329.928 225.436 330.092 225.168 330.239 224.932 330.528 224.834 331.106 224.808L332.259 224.737 332.259 224.008C331.011 224.054 329.879 224.078 328.769 224.078 327.595 224.078 326.46 224.054 325.21 224.008L325.21 224.737 326.364 224.808C326.942 224.834 327.231 224.932 327.379 225.168 327.545 225.436 327.593 226.06 327.593 226.976ZM346.338 233.098C346.338 232.116 347.827 230.838 349.297 230.838 350.937 230.838 352.064 231.896 352.064 233.896L352.064 240.729C352.623 240.709 353.319 240.661 353.992 240.661 354.661 240.661 355.361 240.709 355.962 240.729L355.962 240 354.975 239.927C354.567 239.903 354.303 239.806 354.208 239.589 354.114 239.325 354.087 238.846 354.087 238.194L354.087 233.554C354.087 230.939 352.929 229.373 350.116 229.373 349.152 229.373 348.695 229.517 348.166 229.974L346.387 231.514 346.338 231.514 346.338 229.471 346.119 229.374C345.232 229.759 343.785 230.213 342.367 230.361L342.367 231.035 343.257 231.035C343.763 231.035 344.001 231.107 344.147 231.299 344.267 231.49 344.317 232.017 344.317 232.788L344.317 238.195C344.317 238.848 344.291 239.327 344.194 239.591 344.098 239.808 343.832 239.905 343.426 239.929L342.342 240.002 342.342 240.73C343.186 240.711 344.147 240.663 345.327 240.663 346.503 240.663 347.468 240.711 348.309 240.73L348.309 240.002 347.224 239.929C346.815 239.905 346.556 239.808 346.46 239.591 346.364 239.327 346.338 238.848 346.338 238.195ZM360.001 229.467 359.783 229.372C358.894 229.757 357.449 230.212 356.032 230.359L356.032 231.033 356.92 231.033C357.423 231.033 357.668 231.105 357.808 231.298 357.932 231.489 357.978 232.016 357.978 232.786L357.978 238.194C357.978 238.846 357.956 239.323 357.859 239.589 357.764 239.806 357.497 239.903 357.084 239.927L355.982 240 355.982 240.729C356.848 240.709 357.808 240.661 358.994 240.661 360.169 240.661 361.132 240.709 361.994 240.729L361.994 240 360.889 239.927C360.479 239.903 360.217 239.806 360.123 239.589 360.024 239.323 360.001 238.846 360.001 238.194ZM358.87 224.125C358.172 224.125 357.543 224.773 357.543 225.47 357.543 226.169 358.172 226.798 358.87 226.798 359.573 226.798 360.218 226.169 360.218 225.47 360.217 224.773 359.573 224.125 358.87 224.125M372.339 231.949C372.676 231.222 373.083 230.384 373.686 230.335L374.433 230.288 374.433 229.609C373.686 229.633 372.919 229.68 372.171 229.68 371.42 229.68 370.653 229.633 369.91 229.609L369.91 230.288 370.898 230.335C371.62 230.354 371.665 231.057 371.014 232.715L370.002 235.265C369.549 236.398 369.015 237.528 368.512 238.634L365.649 231.708C365.241 230.696 365.408 230.355 366.039 230.336L367.212 230.289 367.212 229.61C366.277 229.634 365.365 229.681 364.42 229.681 363.484 229.681 362.544 229.634 361.607 229.61L361.607 230.289 362.425 230.336C362.884 230.355 363.028 230.79 363.173 231.128L367.309 240.826 368.513 240.826C368.852 240.008 369.096 239.09 369.501 238.204ZM380.136 230.162C381.869 230.162 382.687 231.995 382.687 234.234 380.954 234.33 378.933 234.378 376.96 234.159 376.838 231.538 378.286 230.162 380.136 230.162M380.26 229.372C379.437 229.372 378.746 229.635 377.901 230.024 377.369 230.258 376.861 230.622 376.407 230.983 375.298 231.85 374.674 233.248 374.674 235.58 374.674 238.826 376.597 241.141 380.234 241.141 381.868 241.141 383.912 240.08 384.081 239.79L384.564 238.974 384.252 238.734C383.336 239.286 382.426 239.865 381.265 239.865 378.305 239.865 376.912 237.937 376.912 235.125L380.423 235.125C381.868 235.125 383.336 235.029 384.784 234.786 384.83 234.452 384.83 234.111 384.83 233.775 384.83 231.053 382.878 229.372 380.26 229.372M387.348 238.193C387.348 238.843 387.328 239.324 387.226 239.588 387.131 239.804 386.868 239.904 386.46 239.924L385.355 240 385.355 240.729C386.215 240.708 387.183 240.664 388.358 240.664 389.537 240.664 390.5 240.708 391.752 240.729L391.752 240 390.5 239.924C389.947 239.904 389.587 239.804 389.493 239.588 389.399 239.324 389.372 238.843 389.372 238.193L389.372 234.062C389.372 232.525 390.429 231.416 391.488 231.416 392.357 231.416 392.856 231.946 393.125 232.525L393.63 232.525 393.843 229.61C393.654 229.492 393.147 229.371 392.738 229.371 392.117 229.371 391.294 229.66 390.718 230.358L389.417 231.897 389.371 231.897 389.371 229.466 389.153 229.372C388.264 229.757 386.82 230.212 385.4 230.359L385.4 231.032 386.289 231.032C386.797 231.032 387.037 231.105 387.182 231.299 387.302 231.489 387.348 232.017 387.348 232.785ZM394.611 237.215C394.611 238.348 394.584 239.502 394.343 240.564 395.525 240.97 396.559 241.14 397.714 241.14 400.386 241.14 403.033 239.744 403.033 237.097 403.033 235.214 401.688 234.496 398.822 234.019 396.993 233.703 396.2 233.149 396.2 232.113 396.2 231.295 396.511 230.163 398.556 230.163 399.932 230.163 401.35 230.89 401.35 232.137L401.35 232.692 402.025 232.692C402.045 231.729 402.071 230.838 402.143 229.976 401.202 229.635 400.172 229.372 399.037 229.372 396.775 229.372 394.515 230.289 394.515 232.889 394.515 234.354 395.405 235.072 396.558 235.508 397.714 235.942 399.036 236.209 400.097 236.474 400.845 236.663 401.251 237.292 401.251 238.061 401.251 239.357 399.951 240.25 398.436 240.25 397.041 240.25 395.332 239.692 395.332 238.204L395.332 237.215 394.611 237.215ZM407.625 229.467 407.413 229.372C406.522 229.757 405.078 230.212 403.657 230.359L403.657 231.033 404.548 231.033C405.051 231.033 405.292 231.105 405.434 231.298 405.558 231.489 405.607 232.016 405.607 232.786L405.607 238.194C405.607 238.846 405.584 239.323 405.484 239.589 405.39 239.806 405.125 239.903 404.713 239.927L403.606 240 403.606 240.729C404.473 240.709 405.434 240.661 406.616 240.661 407.796 240.661 408.76 240.709 409.621 240.729L409.621 240 408.518 239.927C408.105 239.903 407.846 239.806 407.747 239.589 407.654 239.323 407.625 238.846 407.625 238.194ZM406.497 224.125C405.798 224.125 405.174 224.773 405.174 225.47 405.174 226.169 405.798 226.798 406.497 226.798 407.193 226.798 407.848 226.169 407.848 225.47 407.846 224.773 407.193 224.125 406.497 224.125M411.737 231.465 411.737 238.394C411.737 240.346 412.82 240.947 414.092 240.947 414.598 240.947 415.438 240.898 415.657 240.656L416.814 239.381 416.504 238.974C416.164 239.163 415.706 239.431 415.08 239.431 414.068 239.431 413.756 238.877 413.756 237.769L413.756 231.465 416.839 231.465 417.052 230.161 413.755 230.308 413.755 229.395C413.755 228.387 413.877 227.039 414.024 225.98L413.732 225.714C413.323 225.98 412.555 226.363 411.687 226.627 411.76 227.276 411.782 227.902 411.782 228.528L411.782 230.211 409.906 231.056 409.906 231.559Z" fill="#231F20" fill-rule="evenodd" fill-opacity="1" transform="matrix(1 0 0 1.00557 314.821 142.156)"/><path d="M423.645 238.588 420.879 231.897C420.371 230.599 420.781 230.358 421.459 230.332L422.367 230.285 422.367 229.61C421.428 229.634 420.516 229.683 419.579 229.683 418.638 229.683 417.726 229.634 416.783 229.61L416.783 230.285 417.217 230.332C417.745 230.383 418.086 230.599 418.469 231.512L422.441 241.234 421.884 242.703C421.427 243.81 420.656 245.76 419.265 245.854 418.928 245.877 418.328 245.594 418.038 245.301L417.725 245.301 417.141 247.109C417.41 247.273 417.94 247.467 418.351 247.467 420.37 247.467 421.236 246.261 422.011 244.507L426.89 233.246C427.807 231.126 428.335 230.382 428.917 230.33L429.592 230.283 429.592 229.608C428.815 229.632 428.072 229.681 427.298 229.681 426.531 229.681 425.788 229.632 425.017 229.608L425.017 230.283 425.643 230.33C426.506 230.404 426.87 230.672 426.506 231.561ZM438.831 241.14C442.512 241.14 445.131 238.542 445.131 234.858 445.131 231.777 442.754 229.374 439.67 229.374 435.798 229.374 433.535 231.895 433.535 235.507 433.534 238.825 435.797 241.234 438.831 241.14M439.116 230.161C441.425 230.161 442.894 232.815 442.894 235.917 442.894 238.156 441.958 240.346 439.767 240.346 436.687 240.346 435.774 237.003 435.774 234.475 435.774 232.235 436.562 230.161 439.116 230.161M453.389 223.401C453.049 223.26 452.666 223.138 452.303 223.138 451.628 223.138 450.762 223.429 450.142 224.152L448.741 225.737C448.048 226.529 447.732 227.614 447.732 229.202L447.732 230.212 446.07 230.962 446.07 231.491 447.732 231.391 447.732 238.193C447.732 238.845 447.705 239.324 447.609 239.588 447.515 239.805 447.254 239.902 446.841 239.926L445.734 240 445.734 240.727C446.604 240.708 447.561 240.66 448.741 240.66 449.92 240.66 450.884 240.708 451.748 240.727L451.748 240 450.642 239.926C450.233 239.902 449.97 239.805 449.874 239.588 449.779 239.324 449.753 238.845 449.753 238.193L449.753 231.39 452.735 231.39 452.909 230.117 449.753 230.211 449.753 228.165C449.753 225.423 450.018 224.726 451.51 224.726 452.116 224.726 452.667 224.991 453.098 225.398L453.389 225.257ZM474.872 226.971C474.872 226.058 474.919 225.434 475.086 225.168 475.232 224.929 475.523 224.834 476.097 224.808L477.256 224.737 477.256 224.006C476.004 224.054 474.872 224.075 473.764 224.075 472.587 224.075 471.454 224.054 470.204 224.006L470.204 224.737 471.358 224.808C471.936 224.834 472.227 224.93 472.372 225.168 472.535 225.434 472.587 226.058 472.587 226.971L472.587 231.247C472.298 231.275 471.648 231.295 470.591 231.295L464.96 231.295C463.899 231.295 463.247 231.276 462.961 231.247L462.961 226.971C462.961 226.058 463.009 225.434 463.175 225.168 463.322 224.929 463.61 224.834 464.189 224.808L465.345 224.737 465.345 224.006C464.094 224.054 462.961 224.075 461.852 224.075 460.676 224.075 459.541 224.054 458.294 224.006L458.294 224.737 459.446 224.808C460.027 224.834 460.313 224.93 460.457 225.168 460.628 225.434 460.675 226.058 460.675 226.971L460.675 237.764C460.675 238.674 460.628 239.301 460.457 239.565 460.313 239.804 460.028 239.901 459.446 239.923L458.294 239.997 458.294 240.729C459.541 240.678 460.675 240.659 461.852 240.659 462.961 240.659 464.094 240.678 465.345 240.729L465.345 239.997 464.189 239.923C463.611 239.901 463.322 239.803 463.175 239.565 463.008 239.301 462.961 238.674 462.961 237.764L462.961 232.404C463.247 232.381 463.9 232.351 464.96 232.351L470.591 232.351C471.649 232.351 472.298 232.38 472.587 232.404L472.587 237.764C472.587 238.674 472.535 239.301 472.372 239.565 472.227 239.804 471.936 239.901 471.358 239.923L470.204 239.997 470.204 240.729C471.454 240.678 472.587 240.659 473.764 240.659 474.872 240.659 476.004 240.678 477.256 240.729L477.256 239.997 476.097 239.923C475.523 239.901 475.232 239.803 475.086 239.565 474.918 239.301 474.872 238.674 474.872 237.764ZM483.119 241.14C486.802 241.14 489.426 238.542 489.426 234.858 489.426 231.777 487.045 229.374 483.964 229.374 480.092 229.374 477.829 231.895 477.829 235.507 477.828 238.825 480.092 241.234 483.119 241.14M483.41 230.161C485.72 230.161 487.188 232.815 487.188 235.917 487.188 238.156 486.25 240.346 484.059 240.346 480.981 240.346 480.06 237.003 480.06 234.475 480.06 232.235 480.858 230.161 483.41 230.161M493.613 233.098C493.613 232.116 495.103 230.838 496.575 230.838 498.21 230.838 499.338 231.896 499.338 233.896L499.338 240.729C499.896 240.709 500.589 240.661 501.26 240.661 501.937 240.661 502.638 240.709 503.237 240.729L503.237 240 502.25 239.927C501.844 239.903 501.576 239.806 501.48 239.589 501.383 239.325 501.355 238.846 501.355 238.194L501.355 233.554C501.355 230.939 500.208 229.373 497.39 229.373 496.427 229.373 495.968 229.517 495.44 229.974L493.658 231.514 493.612 231.514 493.612 229.471 493.396 229.374C492.505 229.759 491.058 230.213 489.64 230.361L489.64 231.035 490.532 231.035C491.038 231.035 491.279 231.107 491.423 231.299 491.542 231.49 491.588 232.017 491.588 232.788L491.588 238.195C491.588 238.848 491.567 239.327 491.472 239.591 491.373 239.808 491.106 239.905 490.702 239.929L489.618 240.002 489.618 240.73C490.459 240.711 491.424 240.663 492.606 240.663 493.778 240.663 494.749 240.711 495.586 240.73L495.586 240.002 494.501 239.929C494.095 239.905 493.827 239.808 493.733 239.591 493.636 239.327 493.613 238.848 493.613 238.195ZM515.242 231.563 515.84 230.577 515.746 230.289 512.328 230.384C511.56 229.681 510.454 229.373 509.399 229.373 508.482 229.373 507.012 229.681 505.903 230.407 504.825 231.105 504.075 232.14 504.075 233.677 504.075 236.181 506.145 236.882 506.914 236.9L506.914 236.95 505.061 238.371C504.851 238.661 504.703 239.022 504.703 239.381 504.703 240.08 505.234 240.513 506.291 240.8L504.196 241.936C503.693 242.389 503.523 243.161 503.523 243.859 503.523 246.001 505.789 247.467 508.696 247.467 512.766 247.467 515.219 244.843 515.219 242.293 515.219 241.091 514.542 239.309 512.378 239.309L508.53 239.309C507.805 239.309 506.701 239.26 506.701 238.349 506.701 237.816 507.47 237.335 507.805 237.002 507.975 237.021 508.146 237.046 508.311 237.046 509.416 237.046 510.624 236.638 511.677 235.89 512.642 235.243 513.294 234.206 513.294 232.909 513.294 232.449 513.22 231.991 513.029 231.562L515.242 231.562ZM511.269 233.678C511.269 235.147 510.241 236.23 508.814 236.23 507.28 236.23 506.097 235.147 506.097 233.03 506.097 231.442 506.892 230.189 508.501 230.189 510.501 230.189 511.269 231.919 511.269 233.678M508.865 246.72C506.94 246.72 505.353 245.687 505.353 243.615 505.353 242.1 506.7 241.166 507.372 241.093 508.458 240.995 509.3 240.995 509.925 240.995 512.642 240.995 513.315 241.739 513.315 243.162 513.315 245.085 511.512 246.72 508.865 246.72M525.179 232.833 525.421 232.668 533.793 240.727C534.54 240.708 535.118 240.664 535.699 240.664 536.249 240.664 536.829 240.708 537.288 240.727L537.288 240 536.776 239.949C536.345 239.903 535.889 239.516 535.288 238.965L527.345 231.467 533.747 225.701C534.348 225.147 535.001 224.81 535.629 224.784L536.635 224.737 536.635 224.008C536.06 224.031 535.386 224.076 534.711 224.076 534.012 224.076 533.336 224.031 532.568 224.008L532.568 224.663C532.568 224.832 532.231 225.242 531.868 225.607L525.179 232.116 525.179 226.971C525.179 226.06 525.23 225.436 525.394 225.168 525.544 224.932 525.833 224.832 526.402 224.81L527.563 224.737 527.563 224.008C526.31 224.057 525.179 224.076 524.073 224.076 522.895 224.076 521.762 224.057 520.509 224.008L520.509 224.737 521.665 224.81C522.243 224.832 522.536 224.932 522.676 225.168 522.844 225.436 522.895 226.06 522.895 226.971L522.895 237.764C522.895 238.674 522.843 239.298 522.676 239.567 522.536 239.802 522.243 239.903 521.665 239.925L520.509 239.998 520.509 240.726C521.762 240.68 522.895 240.663 524.073 240.663 525.179 240.663 526.31 240.681 527.563 240.726L527.563 239.998 526.402 239.925C525.833 239.903 525.544 239.801 525.394 239.567 525.229 239.298 525.179 238.674 525.179 237.764Z" fill="#231F20" fill-rule="evenodd" fill-opacity="1" transform="matrix(1 0 0 1.00557 314.821 142.156)"/><path d="M542.212 241.14C545.901 241.14 548.517 238.542 548.517 234.858 548.517 231.777 546.139 229.374 543.052 229.374 539.184 229.374 536.922 231.895 536.922 235.507 536.921 238.825 539.183 241.234 542.212 241.14M542.505 230.161C544.817 230.161 546.28 232.815 546.28 235.917 546.28 238.156 545.348 240.346 543.155 240.346 540.073 240.346 539.157 237.003 539.157 234.475 539.157 232.235 539.949 230.161 542.505 230.161M552.703 233.098C552.703 232.116 554.193 230.838 555.666 230.838 557.307 230.838 558.433 231.896 558.433 233.896L558.433 240.729C558.991 240.709 559.685 240.661 560.356 240.661 561.033 240.661 561.732 240.709 562.333 240.729L562.333 240 561.347 239.927C560.93 239.903 560.67 239.806 560.573 239.589 560.481 239.325 560.459 238.846 560.459 238.194L560.459 233.554C560.459 230.939 559.3 229.373 556.484 229.373 555.52 229.373 555.065 229.517 554.534 229.974L552.752 231.514 552.703 231.514 552.703 229.471 552.487 229.374C551.598 229.759 550.158 230.213 548.739 230.361L548.739 231.035 549.627 231.035C550.131 231.035 550.374 231.107 550.515 231.299 550.64 231.49 550.683 232.017 550.683 232.788L550.683 238.195C550.683 238.848 550.661 239.327 550.558 239.591 550.466 239.808 550.201 239.905 549.795 239.929L548.712 240.002 548.712 240.73C549.556 240.711 550.515 240.663 551.701 240.663 552.871 240.663 553.835 240.711 554.68 240.73L554.68 240.002 553.597 239.929C553.185 239.905 552.925 239.808 552.833 239.591 552.73 239.327 552.703 238.848 552.703 238.195ZM574.335 231.563 574.936 230.577 574.839 230.289 571.421 230.384C570.652 229.681 569.547 229.373 568.491 229.373 567.576 229.373 566.108 229.681 564.992 230.407 563.92 231.105 563.172 232.14 563.172 233.677 563.172 236.181 565.236 236.882 566.01 236.9L566.01 236.95 564.158 238.371C563.942 238.661 563.795 239.022 563.795 239.381 563.795 240.08 564.326 240.513 565.388 240.8L563.292 241.936C562.782 242.389 562.62 243.161 562.62 243.859 562.62 246.001 564.878 247.467 567.792 247.467 571.86 247.467 574.313 244.843 574.313 242.293 574.313 241.091 573.636 239.309 571.47 239.309L567.624 239.309C566.899 239.309 565.794 239.26 565.794 238.349 565.794 237.816 566.563 237.335 566.899 237.002 567.067 237.021 567.24 237.046 567.402 237.046 568.507 237.046 569.715 236.638 570.771 235.89 571.735 235.243 572.385 234.206 572.385 232.909 572.385 232.449 572.315 231.991 572.12 231.562L574.335 231.562ZM570.365 233.678C570.365 235.147 569.331 236.23 567.906 236.23 566.368 236.23 565.187 235.147 565.187 233.03 565.187 231.442 565.983 230.189 567.597 230.189 569.591 230.189 570.365 231.919 570.365 233.678M567.955 246.72C566.032 246.72 564.445 245.687 564.445 243.615 564.445 242.1 565.794 241.166 566.465 241.093 567.543 240.995 568.388 240.995 569.016 240.995 571.735 240.995 572.412 241.739 572.412 243.162 572.407 245.085 570.603 246.72 567.955 246.72" fill="#231F20" fill-rule="evenodd" fill-opacity="1" transform="matrix(1 0 0 1.00557 314.821 142.156)"/><path d="M130.603 242.642C131.405 242.642 135.111 241.318 136.559 240.552 144.314 236.461 151.091 230.91 155.505 223.241 159.049 217.074 159.271 209.473 159.852 202.561 160.599 193.631 160.532 184.688 160.389 175.725 160.381 175.079 147.56 173.669 146.242 173.547 141.046 173.061 134.083 172.738 130.603 172.738 127.126 172.738 120.165 173.061 114.965 173.546 113.646 173.669 100.829 175.079 100.818 175.725 100.677 184.688 100.607 193.631 101.354 202.561 101.939 209.473 102.158 217.074 105.702 223.241 110.118 230.91 116.894 236.461 124.649 240.552 126.097 241.317 129.804 242.642 130.603 242.642" fill="#6E1E6F" fill-rule="nonzero" fill-opacity="1" transform="matrix(1 0 0 1.00557 314.821 142.156)"/><path d="M148.11 209.746C148.139 209.751 148.168 209.756 148.197 209.76 148.167 209.756 148.144 209.746 148.11 209.742ZM146.427 210.824C146.485 210.843 146.534 210.868 146.581 210.889 146.534 210.865 146.488 210.838 146.43 210.817ZM156.449 194.475C156.449 194.475 156.479 194.029 156.498 194.004 156.828 193.896 158.277 193.315 158.55 191.48 158.59 191.193 158.597 190.882 158.575 190.533L158.495 190.607C158.206 190.879 157.332 191.704 156.853 191.597 156.729 191.572 156.639 191.485 156.582 191.339 156.584 189.508 156.438 188.05 156.251 186.165 156.77 185.879 157.866 185.066 157.862 183.335 157.86 183.102 157.833 182.857 157.79 182.594L157.699 182.695C157.416 183.024 156.66 183.892 156.213 183.838 156.105 183.825 156.023 183.762 155.968 183.641L155.94 183.395C155.582 179.507 154.777 177.585 153.187 176.767 153.187 176.767 153.087 176.73 153.087 176.719 153.087 176.748 153.171 176.869 153.247 176.986 153.483 177.333 153.871 177.908 154.017 178.586 154.273 179.745 154.368 180.676 154.368 181.44 154.368 182.321 154.246 182.978 154.11 183.504 153.899 183.889 153.599 184.129 153.219 184.219 152.342 184.429 151.339 183.456 151.009 182.666 150.997 182.642 150.98 182.615 150.957 182.615 150.887 182.615 150.769 182.827 150.702 182.972 150.42 184.013 150.768 185.317 151.474 185.821 151.731 186.007 152.147 186.157 152.643 185.817 152.904 185.647 153.092 185.582 153.228 185.621 153.301 185.642 153.349 185.691 153.384 185.789 153.046 186.733 152.668 187.663 152.252 188.576 152.014 188.789 151.745 188.904 151.455 188.921 150.467 188.981 149.638 187.766 149.446 186.902 149.438 186.864 149.427 186.842 149.405 186.84 149.335 186.824 149.164 187.026 149.068 187.169 148.571 188.197 148.684 189.614 149.313 190.267 149.549 190.51 149.953 190.744 150.544 190.483 150.85 190.346 151.057 190.312 151.175 190.378 151.232 190.406 151.269 190.459 151.279 190.549 150.788 191.471 150.256 192.37 149.684 193.244 149.466 193.384 149.231 193.452 148.961 193.452 147.913 193.445 147.222 192.239 147.143 191.405 147.141 191.373 147.13 191.351 147.113 191.35 147.042 191.324 146.832 191.517 146.707 191.659 146.059 192.634 145.959 193.982 146.498 194.666 146.796 195.047 147.259 195.152 147.792 194.957 148.119 194.836 148.326 194.81 148.413 194.874 148.454 194.894 148.472 194.935 148.465 195.001 147.904 195.761 147.306 196.511 146.676 197.235 146.261 197.512 145.844 197.615 145.409 197.545 144.297 197.374 143.609 195.788 143.609 194.726 143.609 194.676 143.597 194.647 143.58 194.637 143.489 194.599 143.24 194.798 143.103 194.929 142.265 195.987 142.036 197.65 142.597 198.565 142.808 198.904 143.216 199.28 143.967 199.125 144.363 199.042 144.594 199.054 144.668 199.158 144.709 199.219 144.696 199.308 144.629 199.428 144.629 199.428 142.813 201.108 142.808 201.113 142.355 201.398 141.665 201.686 140.936 201.419 139.718 200.985 139.281 199.031 139.511 197.824 139.52 197.766 139.512 197.73 139.487 197.71 139.392 197.649 139.058 197.823 138.876 197.943 137.698 198.964 137.078 200.814 137.523 201.974 137.69 202.407 138.072 202.926 138.962 202.913 139.452 202.908 139.717 202.975 139.769 203.124 139.814 203.249 139.705 203.413 139.434 203.631 139.189 203.77 138.902 203.955 138.675 204.237 138.136 204.894 137.889 205.428 137.829 206.081L137.776 206.747C137.74 207.268 137.704 207.803 137.592 208.318 137.496 208.808 137.34 209.244 137.138 209.614 136.004 211.677 133.357 212.755 130.577 213.156L130.577 209.285C133.959 209.184 135.418 207.71 135.418 204.403 135.418 201.587 134.403 200.362 132.02 200.311 131.545 200.303 131.046 200.381 130.577 200.541L130.577 198.389C132.271 197.62 134.192 196.751 136.192 196.24 140.791 195.071 144.491 192.529 145.783 189.815 145.963 189.424 146.094 189.026 146.17 188.62 145.924 188.78 142.849 190.726 140.556 191.22L140.24 191.27C139.932 191.33 139.606 191.394 139.445 191.254 139.366 191.189 139.328 191.09 139.328 190.949 139.328 189.709 140.01 188.736 141.256 188.208L141.38 188.156C144.166 186.973 146.332 186.05 147.383 184.606 147.654 184.221 147.851 183.801 147.954 183.333 147.72 183.458 144.492 185.163 142.412 185.453L142.302 185.472C142.051 185.515 141.631 185.588 141.435 185.375 141.319 185.252 141.298 185.049 141.365 184.769 141.604 183.826 142.006 183.264 142.754 182.836 143.569 182.368 144.447 181.977 145.299 181.599 146.737 180.958 148.022 180.383 148.667 179.62 148.699 179.576 148.74 179.536 148.767 179.491 148.777 179.481 148.785 179.469 148.79 179.457 148.908 179.282 148.991 179.093 149.037 178.895L146.012 179.848 145.416 180.031C144.552 180.304 143.652 180.587 143.365 180.303 143.261 180.197 143.244 180.025 143.321 179.784 143.471 179.262 143.604 178.967 143.85 178.62 144.982 177.009 147.283 175.297 150.035 175.784 150.493 175.87 150.725 175.836 150.739 175.784 150.75 175.756 150.67 175.664 150.31 175.534 148.233 174.778 146.295 174.85 144.552 175.741 141.364 177.372 138.738 181.768 136.746 188.81 135.607 192.835 133.128 194.285 130.576 195.432L130.576 186.453C131.505 186.081 132.308 185.562 132.999 184.873 134.938 182.934 135.627 180.513 134.839 178.397 134.201 176.687 132.687 175.502 130.986 175.38 130.841 175.371 130.707 175.365 130.576 175.362L130.576 174.068C127.386 174.068 120.776 174.364 115.626 174.844 113.777 175.02 102.111 176.355 102.1 176.915 102.049 179.96 102.013 182.978 102.013 185.985 102.013 191.59 102.152 197.149 102.615 202.72L102.788 204.896C103.26 210.998 103.751 217.311 106.78 222.591 110.611 229.288 116.713 234.885 124.915 239.236 125.423 239.504 127.779 240.715 129.741 241.136 129.747 241.136 129.758 241.14 129.77 241.14 129.856 241.162 129.942 241.176 130.028 241.191 130.214 241.219 130.402 241.249 130.577 241.262L130.577 231.642C133.309 231.684 137.551 231.717 138.681 231.323 139.768 230.945 140.469 230.114 140.651 228.978 140.86 227.661 140.328 226.191 139.389 225.477 139.257 225.378 139.074 225.362 139.027 225.429 138.987 225.472 139.012 225.519 139.075 225.635 139.177 225.816 139.346 226.121 139.346 226.739 139.346 227.31 139.147 227.786 138.756 228.148 137.698 229.138 135.537 229.005 135.517 229.005L133.021 228.977 130.6 228.977C130.632 228.969 130.658 228.958 130.687 228.955L130.597 228.955C132.002 228.627 132.993 227.612 133.419 226.833 134.493 224.881 133.591 223.588 133.308 223.213 133.255 223.162 133.221 223.127 133.221 223.127L133.239 223.127C133.23 223.111 133.221 223.107 133.221 223.107 133.389 223.103 133.552 223.098 133.712 223.088 133.557 223.095 133.403 223.11 133.242 223.107 133.242 223.107 133.251 223.118 133.262 223.127 133.896 223.124 134.475 223.059 135.001 222.938 134.611 223.021 134.193 223.063 133.749 223.087 138.93 222.79 140.024 218.117 140.619 215.567L140.723 215.149C140.906 214.39 141.385 213.061 142.528 212.704 143.255 212.476 143.734 212.201 144.084 211.996L144.504 211.773C144.504 211.773 144.647 211.716 144.66 211.713 145.311 211.735 145.297 212.285 145.286 212.648 145.282 212.802 145.276 212.941 145.33 212.971 145.355 212.988 145.405 212.971 145.48 212.926 146.039 212.581 146.317 211.542 146.394 210.942 146.397 210.899 146.4 210.85 146.4 210.815L146.404 210.817 146.41 210.788C147.12 211.042 147.184 211.459 147.22 211.682 147.231 211.745 147.239 211.797 147.257 211.805 147.277 211.814 147.339 211.78 147.438 211.7 147.956 211.284 148.071 210.327 148.086 209.767L148.086 209.742C148.087 209.736 148.087 209.727 148.087 209.727 148.959 209.78 149.046 210.274 149.085 210.511 149.093 210.561 149.105 210.626 149.121 210.632 149.121 210.632 149.154 210.63 149.262 210.519 149.716 210.04 149.716 209.024 149.698 208.583 149.697 208.562 149.694 208.542 149.69 208.523L149.694 208.523 149.694 208.505C150.259 208.546 150.385 208.972 150.463 209.224 150.486 209.311 150.516 209.4 150.547 209.403 150.559 209.405 150.596 209.396 150.677 209.29 151.195 208.631 151.165 207.639 151.085 207.264 151.077 207.235 151.066 207.2 151.057 207.182L151.062 207.184C151.062 207.176 151.06 207.162 151.06 207.162 151.638 207.19 151.769 207.564 151.843 207.783 151.867 207.861 151.892 207.929 151.918 207.933 151.937 207.935 151.978 207.917 152.068 207.798 152.48 207.272 152.447 206.259 152.336 205.719 153.098 204.821 153.572 204.053 153.706 203.494 153.811 203.075 153.874 203.019 153.924 203.023 154.01 203.031 154.035 203.269 154.044 203.412 153.924 204.776 153.639 206.523 153.23 208.321 153.226 208.331 153.223 208.342 153.221 208.352 153.219 208.364 153.215 208.38 153.212 208.394 153.157 208.644 153.103 208.896 153.042 209.152 153.042 209.152 153.034 209.147 153.032 209.143 153.028 209.153 153.025 209.163 153.025 209.174 152.77 208.933 152.116 208.855 151.975 209.002 151.906 209.07 151.983 209.181 152.057 209.26 152.336 209.549 152.487 210.098 152.508 210.593 152.517 210.667 152.523 210.74 152.526 210.806L152.509 210.801C152.506 210.811 152.509 210.819 152.509 210.819 152.199 210.663 151.689 210.629 151.586 210.768 151.534 210.835 151.606 210.942 151.679 211.014 152.012 211.355 152.119 212.067 152.066 212.595 152.059 212.686 152.053 212.771 152.035 212.846 152.034 212.842 152.03 212.835 152.024 212.834 152.021 212.844 152.021 212.853 152.019 212.866 151.771 212.623 151.114 212.539 150.968 212.69 150.896 212.76 150.975 212.872 151.052 212.951 151.339 213.249 151.409 214.053 151.352 214.586 151.347 214.681 151.338 214.765 151.331 214.838 151.324 214.835 151.32 214.833 151.314 214.827 151.312 214.838 151.312 214.851 151.31 214.859 151.019 214.596 150.519 214.448 150.403 214.547 150.356 214.591 150.383 214.692 150.475 214.825 150.844 215.366 150.725 216.372 150.614 216.752 148.951 220.445 147.098 222.337 145.11 222.375 143.489 222.412 142.625 220.963 142.52 219.924 142.377 218.42 143.809 217.423 144.678 217.069 145.306 216.808 145.699 217.165 145.838 217.33 146.346 217.94 146.28 218.358 146.137 218.607 145.946 218.929 145.513 219.092 145.226 219.043 144.751 218.952 144.366 219.136 144.205 219.52 144.051 219.895 144.15 220.312 144.446 220.523 144.926 220.858 145.544 220.878 146.199 220.587 147.017 220.22 147.718 219.424 147.792 218.764 147.931 218.187 147.71 217.036 147.26 216.562 146.243 215.18 144.963 214.77 143.837 215.469 141.831 216.715 140.705 218.124 140.585 219.563 140.478 220.872 141.187 222.212 142.697 223.538 144.495 225.115 147.4 224.145 148.697 222.753 148.697 222.753 148.851 222.64 148.877 222.638 149.213 222.765 150.806 223.248 152.231 221.856 152.404 221.679 152.578 221.478 152.745 221.235L152.613 221.245C152.19 221.292 151.06 221.407 150.787 221.041 150.717 220.943 150.707 220.817 150.774 220.656 151.597 219.53 152.351 218.101 153.03 216.385 153.378 216.362 154.933 216.163 155.654 214.444 155.763 214.182 155.852 213.882 155.915 213.546L155.792 213.61C155.395 213.838 154.331 214.438 153.994 214.172 153.879 214.087 153.856 213.915 153.922 213.661 154.321 212.28 154.684 210.746 155.017 209.079 155.505 209.003 156.974 208.608 157.43 206.7 157.48 206.468 157.521 206.217 157.538 205.937L157.429 206.012C157.06 206.261 156.08 206.923 155.644 206.739 155.533 206.691 155.465 206.594 155.44 206.442 155.663 204.969 155.854 203.368 156.028 201.67 156.257 201.602 158.177 200.973 158.177 198.514 158.177 198.431 158.17 198.343 158.166 198.254 158.139 198.28 158.104 198.312 158.104 198.312 157.776 198.61 156.911 199.404 156.459 199.288 156.346 199.262 156.269 199.181 156.218 199.037L156.417 195.092ZM130.578 176.708C132.099 177.246 132.929 178.493 132.8 180.088 132.677 181.621 131.68 182.997 130.578 183.165ZM130.578 201.852C130.756 201.832 130.953 201.819 131.171 201.821 132.672 201.821 133.336 202.524 133.336 204.108 133.336 205.243 132.992 206.401 130.578 206.508ZM137.715 214.127 137.715 214.133C136.744 215.751 135.518 216.754 132.418 216.754 132.418 216.754 131.624 216.752 130.578 216.751L130.578 215.053 132.231 215.053C134.764 215.053 136.496 214.713 137.234 214.066 137.575 213.771 137.675 213.784 137.719 213.815 137.812 213.877 137.732 214.089 137.715 214.127M154.635 189.451 154.581 190.192C153.889 200.83 150.591 204.667 147.45 207.023L147.335 207.11C146.346 207.849 145.225 208.688 143.169 209.372L143.104 209.393C142.715 209.518 141.536 209.896 141.223 210.435 140.923 210.951 140.83 210.994 140.778 210.961 140.649 210.894 140.895 210.187 140.985 210.022 141.214 209.587 141.601 209.347 142.345 209 143.754 208.341 143.937 207.499 143.921 207.057 143.897 206.429 143.465 205.83 142.869 205.606 142.412 205.43 141.967 205.525 141.69 205.848 141.812 205.901 142.135 206.044 142.193 206.568 142.262 207.363 141.843 207.698 141.465 207.744 141.016 207.795 140.497 207.49 140.41 206.883 140.252 205.756 140.845 205.032 141.223 204.783 141.685 204.476 141.972 204.373 142.313 204.26 142.313 204.26 142.898 204.04 142.904 204.04 143.842 203.877 144.492 204.39 144.842 204.663 144.97 204.765 145.08 204.854 145.127 204.837L145.176 204.785C145.31 204.509 145.12 203.413 144.888 202.828L144.907 202.772 144.94 202.768C145.798 202.649 146.239 203.23 146.504 203.574 146.59 203.691 146.676 203.802 146.717 203.786 146.738 203.778 146.752 203.757 146.769 203.718 146.88 203.387 146.58 202.188 146.312 201.62 146.302 201.603 146.294 201.588 146.286 201.573L146.287 201.572C146.286 201.563 146.284 201.554 146.279 201.548 147.151 201.288 147.689 201.776 147.979 202.036 148.089 202.133 148.181 202.216 148.219 202.196L148.26 202.133C148.346 201.814 147.954 200.69 147.624 200.14 147.624 200.14 147.791 199.959 147.796 199.953 148.638 199.624 149.179 199.959 149.503 200.163 149.626 200.237 149.723 200.295 149.768 200.271L149.81 200.199C149.885 199.882 149.471 198.861 149.14 198.376 149.14 198.376 149.3 198.171 149.314 198.162 149.988 197.938 150.506 198.107 150.821 198.204 150.951 198.25 151.054 198.284 151.094 198.26 151.113 198.247 151.13 198.223 151.136 198.178 151.176 197.881 150.78 196.966 150.476 196.627 150.476 196.627 150.617 196.426 150.633 196.421 151.256 196.203 151.737 196.358 152.025 196.458L152.272 196.509C152.299 196.492 152.311 196.452 152.311 196.388 152.316 196.021 151.929 195.122 151.696 194.901 151.696 194.901 151.689 194.898 151.685 194.894L151.688 194.894C151.688 194.894 151.674 194.879 151.667 194.876 152.272 194.369 152.845 194.403 153.153 194.419L153.381 194.404C153.396 194.393 153.402 194.373 153.398 194.338 153.386 194.099 152.947 193.452 152.641 193.208 153.368 191.854 153.881 190.594 154.169 189.448 154.536 188.008 154.595 188.017 154.646 188.025 154.726 188.04 154.717 188.333 154.635 189.451M146.31 201.569C146.352 201.557 146.394 201.549 146.434 201.541 146.393 201.547 146.35 201.549 146.308 201.561ZM151.706 194.883C151.788 194.814 151.872 194.757 151.955 194.709 151.87 194.755 151.785 194.81 151.698 194.875ZM151.928 212.76C151.96 212.783 151.989 212.809 152.015 212.839L152.015 212.822C151.989 212.803 151.962 212.781 151.928 212.76M147.968 183.295C147.968 183.295 147.882 183.338 147.748 183.409 147.855 183.361 147.925 183.326 147.961 183.312 147.963 183.308 147.965 183.3 147.968 183.295M149.047 178.872 149.047 178.864C149.047 178.864 149.017 178.873 148.962 178.89 148.999 178.883 149.028 178.876 149.047 178.872M146.185 188.583C146.185 188.583 146.096 188.638 145.955 188.725 146.066 188.663 146.14 188.617 146.178 188.601 146.181 188.597 146.181 188.587 146.185 188.583M131.376 228.71C131.134 228.807 130.878 228.899 130.6 228.954L130.694 228.954C130.933 228.891 131.163 228.805 131.376 228.71M151.298 207.224C151.232 207.203 151.163 207.181 151.078 207.169 151.081 207.174 151.083 207.182 151.083 207.184 151.165 207.195 151.234 207.206 151.298 207.224M151.211 214.744C151.246 214.776 151.273 214.805 151.303 214.832L151.303 214.818C151.273 214.793 151.242 214.769 151.211 214.744M152.399 210.747C152.435 210.768 152.465 210.788 152.494 210.805L152.494 210.791C152.465 210.779 152.435 210.762 152.399 210.747M152.933 209.073C152.966 209.098 152.993 209.119 153.012 209.147 153.018 209.143 153.018 209.142 153.021 209.134 152.993 209.112 152.964 209.092 152.933 209.073M149.717 208.521 149.717 208.528C149.754 208.532 149.79 208.539 149.82 208.546 149.787 208.536 149.756 208.526 149.717 208.521" fill="#E5A823" fill-rule="nonzero" fill-opacity="1" transform="matrix(1 0 0 1.00557 314.821 142.156)"/><path d="M129.647 182.913C129.367 182.63 129.39 181.345 129.394 181.329 129.394 179.678 128.011 179.093 126.832 179.093 125.566 179.093 124.26 179.759 124.26 180.87L124.269 185.075C124.269 185.301 124.194 185.479 124.053 185.601 123.928 185.706 123.755 185.764 123.564 185.764 123.174 185.764 122.776 185.525 122.776 185.121L122.776 182.857C122.776 180.282 119.895 179.898 118.178 179.898 115.721 179.898 113.107 180.997 113.107 183.031L113.11 184.162 113.107 193.427C113.125 193.984 112.768 194.387 112.456 194.563 112.187 194.714 111.91 194.729 111.712 194.606 111.539 194.495 111.349 194.231 111.403 193.591 111.41 193.506 111.37 193.442 111.308 193.427 111.219 193.405 111.082 193.474 110.982 193.728 110.685 194.498 110.704 195.207 111.034 195.837 111.457 196.646 112.301 197.106 112.76 197.218L112.742 198.657 112.728 198.657C111.095 198.629 109.122 197.997 109.122 195.023L109.122 180.697C109.122 178.511 108.213 177.771 107.453 177.535 106.053 177.103 104.221 178.046 103.449 179.169 102.641 180.348 102.88 181.411 103.37 182.018 103.928 182.703 104.856 182.931 105.687 182.585 105.702 182.575 105.85 182.476 105.842 182.377 105.832 182.314 105.77 182.274 105.651 182.256 105.092 182.17 104.756 181.792 104.756 181.246 104.756 180.646 105.279 180.142 105.904 180.142 106.52 180.142 107.022 180.638 107.022 181.246L107.022 183.344 107.032 195.664C105.368 195.633 104.913 196.994 104.913 197.794 104.913 199.055 105.796 199.53 105.832 199.548 105.87 199.572 105.956 199.567 106.012 199.513 106.053 199.476 106.086 199.391 106.012 199.24 105.805 198.822 105.791 198.459 105.988 198.19 106.238 197.838 106.78 197.71 107.179 197.765 107.437 197.803 107.61 197.904 107.661 198.047 108.275 199.781 109.864 200.662 112.524 200.741 112.581 200.741 112.681 200.799 112.778 200.893L112.77 201.68C111.951 202.032 110.138 203.223 110.218 206.643 110.275 209.259 110.79 212.904 111.285 213.268 111.327 213.301 111.37 213.312 111.415 213.301 113.628 212.686 116.915 212.645 118.58 213.635 118.81 213.77 118.936 213.935 118.918 214.087 118.913 214.175 118.858 214.244 118.782 214.27 118.698 214.302 118.611 214.276 118.54 214.205 117.814 213.479 115.761 213.393 115.151 213.381 112.847 213.342 108.129 214.051 106.735 216.998 105.942 218.688 107.553 222.094 108.418 223.175 108.47 223.246 108.587 223.243 108.672 223.209 108.739 223.18 108.776 223.129 108.763 223.075 108.428 221.385 109.096 219.721 110.648 218.388 112.533 216.767 115.289 216.026 117.055 216.663 117.29 216.753 117.449 216.899 117.47 217.058 117.481 217.134 117.461 217.202 117.414 217.242 117.368 217.274 117.313 217.278 117.246 217.249 114.946 216.256 112.595 217.765 112.571 217.779 113.568 223.75 120.837 223.604 126.143 223.494L127.961 223.468C127.965 223.482 129.992 225.484 129.715 227.172 129.603 227.849 129.137 228.392 128.325 228.781 127.515 229.177 124.277 228.974 123.942 228.703 123.761 228.558 123.689 228.13 123.756 227.62 123.866 226.819 124.347 225.728 125.348 225.291 125.456 225.263 125.508 225.218 125.5 225.158 125.474 225.037 125.134 224.947 124.906 224.969 123.058 225.202 121.725 226.133 121.254 227.532 121.15 227.844 121.104 227.991 121.099 228.322 121.047 228.907 120.912 228.92 120.139 229.004L119.724 229.05C118.261 229.23 117.43 229.928 117.251 231.124 117.117 232.067 117.408 233.019 118.055 233.742 118.596 234.34 119.288 234.665 119.965 234.64 120.003 234.64 120.07 234.605 120.082 234.54 120.099 234.485 120.08 234.396 119.91 234.298 119.087 233.824 118.873 233.054 119.027 232.501 119.189 231.893 119.773 231.526 120.543 231.535 120.555 231.535 120.872 231.528 120.883 231.766L120.886 231.994 120.938 232.666C121.25 234.469 122.626 236.043 124.282 236.5 124.347 236.516 124.472 236.468 124.503 236.381 124.53 236.307 124.502 236.2 124.223 236.081 123.345 235.43 123.026 234.142 123.021 233.152 123.016 232.495 123.152 231.948 123.356 231.789 123.723 231.507 125.082 231.325 125.755 232.001 126.425 232.667 126.725 233.282 126.603 233.723 126.523 234.012 126.257 234.227 125.831 234.338 125.775 234.351 125.749 234.442 125.764 234.51 125.769 234.543 125.805 234.657 125.968 234.629 127.743 234.366 128.363 232.975 128.352 231.862 128.348 231.851 128.33 231.79 128.369 231.747 128.403 231.701 128.481 231.675 128.591 231.675L129.899 231.691C130.118 231.691 130.362 231.696 130.606 231.702L130.606 216.699 125.622 216.689C124.464 216.689 124.021 217.194 123.994 217.669 123.952 218.287 124.61 219.035 125.897 219.196 125.975 219.206 126.18 219.327 126.176 219.402 126.176 219.427 126.148 219.486 125.878 219.495 125.021 219.506 123.242 219.53 122.596 218.482 122.201 217.842 122.173 217.013 122.531 216.377 122.985 215.556 124.022 215.107 125.441 215.107L130.606 215.107 130.606 213.105C128.017 213.487 125.302 213.278 123.597 212.722 120.382 211.671 117.7 208.734 118.796 205.148 118.95 204.65 119.296 204.135 119.859 203.568 120.562 202.872 121.263 202.85 121.497 202.843 121.595 202.859 121.655 202.842 121.684 202.796 121.742 202.681 121.541 202.466 121.535 202.454 120.418 201.13 115.768 200.734 114.845 201.124 114.821 201.138 114.793 201.095 114.776 201.066 114.4 200.387 114.263 195.996 115.926 194.837 116.617 194.36 117.346 194.18 117.872 194.365 118.298 194.518 118.601 194.889 118.775 195.479 118.973 196.163 118.775 196.967 118.315 197.265 117.982 197.487 117.553 197.412 117.112 197.048 116.991 196.947 116.939 196.799 116.89 196.671L116.832 196.525C116.785 196.428 116.708 196.322 116.627 196.329 116.603 196.329 116.568 196.342 116.552 196.405 116.487 197.802 117.04 198.818 118.075 199.192 119.858 199.845 121.806 199.159 123.03 197.452 124.166 195.86 124.641 193.177 123.531 192.235 123.454 192.171 123.392 192.154 123.351 192.18 123.252 192.235 123.295 192.482 123.307 192.532 123.314 194.023 122.347 195.098 121.404 195.271 120.595 195.418 119.915 194.926 119.538 193.911 119.538 193.911 119.565 193.691 119.814 193.712 120.633 193.786 121.223 193.488 121.523 192.852 121.897 192.057 121.586 190.943 120.801 190.268 120.772 190.256 120.609 190.212 120.54 190.268 120.522 190.283 120.506 190.307 120.513 190.347 120.627 191.323 120.37 191.945 119.804 192.057 119.288 192.16 118.667 191.781 118.526 191.285 118.378 190.749 118.81 190.255 119.714 189.929 119.763 189.911 119.779 189.88 119.785 189.861 119.802 189.785 119.724 189.696 119.714 189.685 118.526 189.288 117.265 189.715 116.823 190.648 116.534 191.269 116.804 192.37 117.48 192.689 117.48 192.689 117.507 192.729 117.46 192.793 117.33 192.983 116.702 193.225 116.122 193.044 115.698 192.909 115.196 192.512 115.196 191.372L115.196 184.503C115.196 183.8 115.974 183.422 116.739 183.362 117.496 183.295 118.365 183.536 118.475 184.211 118.619 185.069 118.505 185.293 118.231 185.427 117.702 185.675 117.243 185.268 117.243 185.268 117.234 185.274 117.231 185.282 117.229 185.29L117.221 185.285C117.217 185.297 117.217 185.308 117.213 185.316 117.129 185.485 117.141 185.653 117.229 185.816 117.42 186.179 117.923 186.475 118.516 186.578 119.098 186.678 119.541 186.611 119.822 186.373 120.039 186.189 120.155 185.901 120.155 185.544L120.155 184.425C120.155 183.909 120.44 183.661 120.704 183.648 120.941 183.635 121.197 183.811 121.237 184.223L121.254 185.702 121.237 188.142C121.237 189.896 122.607 190.7 123.881 190.7 125.158 190.7 126.451 189.879 126.451 188.316L126.451 184.698C126.451 184.029 126.724 183.605 127.179 183.56 127.637 183.514 128.211 183.901 128.348 184.598 128.5 185.395 128.436 185.521 128.225 185.931L128.104 186.167 128.016 186.349C127.807 186.768 127.717 186.957 127.784 187.054 127.836 187.127 127.973 187.127 128.238 187.094 129.114 186.99 129.895 186.791 130.607 186.507L130.607 183.109C130.594 183.111 130.581 183.115 130.563 183.119 130.247 183.16 129.918 183.182 129.647 182.913M116.18 205.119C116.18 206.177 115.274 207.037 114.166 207.037 113.055 207.037 112.15 206.177 112.15 205.119 112.15 204.067 113.055 203.21 114.166 203.21 115.274 203.21 116.18 204.067 116.18 205.119M117.24 185.301 117.245 185.307C117.245 185.308 117.24 185.306 117.24 185.301M112.878 205.119C112.878 205.794 113.456 206.347 114.166 206.347 114.876 206.347 115.458 205.794 115.458 205.119 115.458 204.447 114.877 203.899 114.166 203.899 113.456 203.899 112.878 204.447 112.878 205.119M126.504 176.922C126.305 177.184 126.139 177.483 126.222 177.559 126.268 177.6 126.353 177.563 126.483 177.452 127.607 176.488 128.932 176.235 130.418 176.702 130.487 176.725 130.541 176.753 130.604 176.777L130.604 175.31C128 175.25 126.815 176.513 126.504 176.922M124.243 199.411C123.689 200.148 123.406 201.872 123.406 204.542 123.406 208.771 126.673 209.353 130.199 209.353 130.337 209.353 130.471 209.348 130.603 209.344L130.603 206.456C130.472 206.46 130.341 206.467 130.199 206.467 127.215 206.467 126.086 206.243 126.086 203.845 126.086 201.008 127.382 199.862 129.327 199.013L130.578 198.454C130.578 198.454 130.596 198.446 130.604 198.441L130.604 195.37C130.285 195.514 129.96 195.653 129.636 195.793 127.688 196.638 125.671 197.51 124.243 199.411M110.183 211.98 110.217 211.98 110.265 211.95 109.79 208.746C109.792 208.577 109.792 208.454 109.71 208.392 109.623 208.328 109.455 208.342 109.128 208.444 104.601 209.927 104.586 211.637 104.955 214.781 104.981 214.99 105.266 215.364 105.373 215.364L105.394 215.366 105.419 215.322C105.478 215.046 105.646 214.662 105.722 214.526 107.043 212.192 109.284 211.968 110.183 211.98M110.211 211.954 110.211 211.956C110.162 211.954 110.102 211.954 110.049 211.954ZM128.103 203.559C128.059 203.747 128.138 203.953 128.277 204.009 128.329 204.028 128.473 204.048 128.615 203.793L128.748 203.479C129.055 202.717 129.323 202.047 130.603 201.907L130.603 200.48C129.372 200.886 128.292 201.88 128.103 203.559" fill="#6E1E6F" fill-rule="nonzero" fill-opacity="1" transform="matrix(1 0 0 1.00557 314.821 142.156)"/><path d="M185.479 248.568C185.264 245.885 182.989 244.007 172.244 246.5 172.196 245.275 172.15 244.187 172.126 243.653 172.033 241.589 169.838 240.457 165.383 240.601 163.186 240.672 162.016 240.759 161.192 240.876 158.203 238.562 157.312 234.888 157.479 231.585L161.804 226.599C162.955 225.704 159.092 221.769 155.343 222.878L147.995 232.557C148.112 232.459 148.224 232.381 148.344 232.297 146.563 234.556 146.693 238.865 149.251 243.138 143.202 244.136 136.313 245.104 131.417 245.104 131.136 245.104 130.845 245.1 130.554 245.091 130.261 245.1 129.971 245.104 129.692 245.104 124.796 245.104 117.91 244.136 111.859 243.138 114.417 238.865 114.548 234.556 112.768 232.297 112.884 232.381 112.999 232.459 113.114 232.557L105.764 222.878C102.016 221.769 98.1563 225.704 99.3072 226.599L103.632 231.585C103.8 234.887 102.905 238.562 99.9165 240.876 99.0944 240.759 97.9245 240.672 95.7315 240.601 91.2752 240.457 89.0741 241.589 88.9837 243.653 88.9598 244.187 88.9116 245.274 88.8656 246.5 78.1228 244.008 75.8459 245.885 75.6331 248.568 75.4587 250.764 75.3791 255.055 75.6304 256.638 75.8817 258.221 78.2452 259.394 80.7908 259.83 86.671 260.836 97.84 259.543 106.429 251.942 111.84 253.201 118.433 254.793 129.693 254.793 129.986 254.793 130.269 254.786 130.555 254.782 130.843 254.786 131.123 254.793 131.417 254.793 142.68 254.793 149.269 253.201 154.682 251.942 163.269 259.543 174.441 260.836 180.322 259.83 182.867 259.394 185.234 258.22 185.484 256.638 185.732 255.055 185.654 250.765 185.479 248.568" fill="#F1DEAE" fill-rule="nonzero" fill-opacity="1" transform="matrix(1 0 0 1.00557 314.821 142.156)"/><path d="M99.8066 244.712C99.5921 245.221 99.0088 248.484 98.94 249.181 99.1133 249.181 99.3836 249.221 99.4101 249.167 100.045 247.669 100.367 246.094 100.5 244.473 100.236 244.473 99.9327 244.403 99.8066 244.712M102.846 244.725C103.029 245.464 102.811 249.152 103.373 250.214 103.505 250.437 103.819 250.161 103.852 249.965 104.099 248.186 103.888 246.517 103.54 244.748 103.533 244.697 103.098 244.725 102.846 244.725M103.868 243.625C103.911 243.615 103.943 243.265 103.852 243.191 102.616 242.129 101.111 242.677 99.7161 242.686 99.3511 242.695 99.4789 243.137 99.4605 243.417 99.6376 243.417 99.8071 243.433 99.9815 243.417 101.328 243.242 102.541 243.915 103.868 243.625M185.953 248.531C185.864 247.364 185.414 246.5 184.589 245.898 182.723 244.539 178.928 244.564 172.688 245.966 172.664 245.329 172.634 244.635 172.599 243.868L172.591 243.633C172.518 241.951 171.21 239.982 165.396 240.171 163.36 240.235 162.193 240.317 161.359 240.424 159.818 239.18 158.959 237.627 158.497 236.213 158.025 234.771 157.867 233.229 157.92 231.76L162.142 226.894C162.361 226.705 162.699 226.234 162.242 225.338 161.476 223.842 158.392 221.535 155.244 222.465 155.158 222.494 155.077 222.548 155.021 222.618L147.668 232.295C147.589 232.404 147.571 232.539 147.601 232.665 147.366 233.075 147.166 233.526 147.023 234.026 146.817 234.752 146.717 235.524 146.717 236.326 146.717 238.378 147.377 240.631 148.593 242.812 142.683 243.776 136.137 244.674 131.42 244.674 131.14 244.674 130.843 244.665 130.555 244.66 130.266 244.665 129.971 244.674 129.693 244.674 124.972 244.674 118.425 243.776 112.517 242.812 113.728 240.632 114.395 238.378 114.395 236.326 114.395 235.524 114.295 234.751 114.086 234.026 113.941 233.525 113.747 233.075 113.509 232.665 113.542 232.539 113.522 232.404 113.442 232.295L106.086 222.618C106.033 222.548 105.953 222.494 105.865 222.465 102.713 221.535 99.6365 223.842 98.8663 225.338 98.4049 226.234 98.7537 226.705 98.9719 226.894L103.186 231.76C103.242 233.23 103.09 234.771 102.615 236.213 102.153 237.627 101.289 239.18 99.7475 240.424 98.9194 240.317 97.7495 240.235 95.7077 240.171 89.9022 239.982 88.5904 241.951 88.519 243.633L88.5081 243.868C88.4713 244.634 88.4453 245.329 88.4204 245.966 82.1838 244.564 78.385 244.54 76.5219 245.898 75.6937 246.5 75.2502 247.364 75.1543 248.531 74.9864 250.698 74.8932 255.057 75.1543 256.707 75.4663 258.684 78.3249 259.853 80.6743 260.257 85.6918 261.117 97.28 260.493 106.525 252.41 106.557 252.417 106.584 252.427 106.618 252.435 111.949 253.677 118.583 255.221 129.692 255.221 129.985 255.221 130.268 255.213 130.554 255.213 130.843 255.213 131.126 255.221 131.418 255.221 142.523 255.221 149.161 253.676 154.49 252.435 154.52 252.426 154.553 252.417 154.585 252.41 163.828 260.493 175.415 261.117 180.436 260.257 182.787 259.853 185.642 258.684 185.952 256.707 186.215 255.057 186.128 250.698 185.953 248.531M165.428 241.03C168.242 240.939 171.629 241.326 171.731 243.673L171.739 243.905C171.886 247.113 171.931 249.042 171.931 250.193 171.931 250.635 171.923 250.94 171.911 251.178 171.143 250.615 170.156 250.455 168.961 250.289 165.234 249.764 162.233 249.991 159.17 250.543L159.123 250.238C159.232 249.997 158.519 246.367 158.625 246.21 158.89 245.815 160.138 246.232 160.12 245.468 160.106 244.796 159.039 245.103 158.529 245.051 158.337 245.036 158.345 245.003 158.312 244.836 158.254 244.547 157.966 243.16 157.729 242.936 157.511 242.727 157.182 242.917 157.115 243.183 156.991 243.615 157.686 245.307 157.413 245.319 156.721 245.352 156.011 245.952 155.964 245.793 155.837 245.457 155.828 244.927 155.581 244.59 155.251 244.122 154.094 244.445 154.078 244.231 154.052 243.718 154.404 243.762 154.614 243.648 154.757 243.574 154.902 243.477 154.928 243.296 154.967 243.088 154.975 242.793 154.853 242.617 155.237 242.547 155.619 242.482 155.988 242.417L156.738 242.281C158.25 242.018 159.059 241.809 159.711 241.638 160.907 241.328 161.564 241.157 165.428 241.03M171.586 253.07C171.113 253.591 169.704 253.488 168.459 253.399 167.222 253.307 166.052 253.229 165.344 253.664 165.337 253.467 165.334 253.263 165.337 253.05 165.37 251.906 165.628 251.109 165.878 250.874 166.821 250.907 167.802 250.997 168.84 251.14 170.349 251.35 171.183 251.503 171.756 252.189 171.806 252.592 171.758 252.883 171.586 253.07M154.806 245.882C154.995 245.908 155.136 245.943 155.136 246.142 155.144 246.378 154.788 246.415 154.729 246.441 154.646 246.476 154.425 246.469 154.391 246.378 154.275 246.058 154.471 245.832 154.806 245.882M154.143 245.213C154.052 245.092 154.087 244.852 154.134 244.836 154.184 244.822 154.471 244.656 154.604 244.747 154.686 244.814 154.77 244.951 154.728 245.051 154.646 245.242 154.293 245.391 154.143 245.213M154.745 246.939C154.806 246.733 155.713 247.021 155.784 246.381 155.803 246.249 155.969 246.498 156.251 246.613 156.52 246.733 157.314 246.326 157.801 246.397 157.833 246.411 158.518 250.095 158.379 250.646L156.836 250.904C156.783 249.05 155.934 247.176 155.497 247.165 155.092 247.156 154.638 247.346 154.745 246.939M153.625 242.991C153.612 242.996 153.605 242.925 153.599 242.835 153.798 242.801 154.002 242.764 154.202 242.729 154.184 242.816 154.173 242.904 154.094 242.958 153.937 243.066 153.714 242.967 153.625 242.991M155.604 223.275C158.226 222.582 160.851 224.506 161.476 225.73 161.559 225.893 161.606 226.041 161.606 226.142 161.606 226.196 161.591 226.234 161.564 226.257 161.544 226.275 161.521 226.293 161.507 226.312 161.507 226.312 155.487 233.258 154.863 233.971 153.683 232.365 152.361 231.382 150.994 231.184 150.496 231.105 150.007 231.149 149.523 231.278 151.152 229.138 155.437 223.498 155.604 223.275M147.596 236.254C147.596 235.519 147.686 234.851 147.851 234.262 148.038 233.615 148.318 233.053 148.682 232.593 149.394 232.112 150.13 231.923 150.873 232.034 152.116 232.211 153.363 233.202 154.486 234.894 154.559 235.004 154.683 235.074 154.82 235.083 154.953 235.092 155.081 235.037 155.171 234.937L157.066 232.755C157.098 234.003 157.282 235.27 157.679 236.486 158.126 237.859 158.917 239.35 160.259 240.619 160.007 240.675 159.765 240.733 159.497 240.804 158.859 240.971 158.07 241.176 156.596 241.436L155.845 241.568C154.986 241.719 154.073 241.877 153.124 242.046 152.979 242.037 152.793 242.062 152.548 242.143L152.548 242.145C151.567 242.312 150.554 242.487 149.51 242.657 148.181 240.358 147.596 238.109 147.596 236.254M152.789 245.177 152.884 245.109C153.004 245.079 153.161 244.92 153.284 245.051 153.417 245.191 153.41 245.443 153.303 245.56 153.161 245.716 152.808 245.632 152.707 245.477 152.642 245.371 152.756 245.249 152.789 245.177M152.369 243.483C152.322 243.457 152.34 243.117 152.219 243.075 152.433 243.039 152.638 243.002 152.844 242.967 152.877 243.143 152.89 243.321 152.81 243.433 152.727 243.56 152.5 243.56 152.369 243.483M152.863 246.239C153.005 246.142 153.377 246.11 153.45 246.292 153.494 246.378 153.554 246.498 153.494 246.584 153.41 246.682 153.127 246.772 152.996 246.74 152.966 246.733 152.493 246.498 152.863 246.239M137.36 247.487C137.56 247.567 137.848 247.567 137.971 247.412 138.17 247.183 137.865 246.551 138.21 246.523 139.241 246.435 139.689 247.008 139.965 247.353 140.038 247.447 138.491 248.711 138.036 249.451 137.517 249.077 136.635 248.913 135.968 248.704 135.968 248.704 135.861 248.279 136.182 247.913 136.589 248.322 137.065 248.821 137.766 248.821 138.491 248.809 139.43 247.437 139.104 247.198 138.589 246.838 138.225 248.575 137.297 247.966 136.966 247.746 136.429 247.063 137.042 246.967 137.255 246.922 137.139 247.394 137.36 247.487M120.752 244.878C121.75 245.002 122.736 245.105 123.699 245.202 123.028 245.886 123.905 247.429 122.883 247.993 122.715 247.591 122.386 247.675 122.104 247.748 121.705 247.842 121.756 248.355 121.886 248.5 122.276 248.898 123.418 248.755 123.115 249.661 122.899 250.289 122.468 250.88 121.886 250.429 120.728 249.526 120.768 247.993 121.176 246.551 121.218 246.415 121.176 245.783 120.828 245.44 120.704 245.31 120.677 245.007 120.752 244.878M120.01 245.758C120.183 245.943 120.398 246.105 120.513 246.327 120.788 246.873 120.273 247.106 120.01 247.434 119.776 247.099 119.444 246.752 119.539 246.327 119.59 246.105 119.837 245.943 120.01 245.758M99.6072 226.313C99.5867 226.294 99.5655 226.275 99.5433 226.257 99.5211 226.235 99.5043 226.197 99.5043 226.142 99.5043 226.042 99.5482 225.893 99.6365 225.731 100.261 224.507 102.88 222.582 105.505 223.276 105.673 223.5 109.96 229.138 111.586 231.28 111.103 231.15 110.611 231.107 110.115 231.185 108.752 231.383 107.43 232.366 106.248 233.973 105.624 233.258 99.6072 226.313 99.6072 226.313M103.43 236.486C103.834 235.271 104.015 234.003 104.047 232.755L105.941 234.937C106.03 235.037 106.159 235.092 106.295 235.083 106.43 235.074 106.551 235.004 106.623 234.894 107.749 233.201 108.997 232.211 110.237 232.034 110.983 231.923 111.715 232.112 112.426 232.593 112.793 233.054 113.074 233.616 113.257 234.262 113.426 234.85 113.514 235.519 113.514 236.254 113.514 238.109 112.927 240.358 111.604 242.658 109.331 242.285 107.166 241.901 105.271 241.568L104.52 241.436C103.046 241.176 102.251 240.97 101.619 240.804 101.35 240.733 101.112 240.675 100.856 240.619 102.199 239.35 102.984 237.859 103.43 236.486M76.0127 248.602C76.0864 247.685 76.4065 247.047 77.0272 246.595 78.6466 245.414 82.4735 245.499 88.3917 246.843 88.3023 249.337 88.3023 250.697 88.3597 251.443 88.4112 252.329 88.5368 253.285 88.8829 253.648 89.6628 254.462 91.2026 254.369 92.7132 254.256 93.7964 254.178 95.0269 254.088 95.3973 254.462 95.4537 254.518 95.5349 254.631 95.5116 254.904 95.484 255.317 95.3356 255.607 95.0529 255.802 93.8402 256.66 90.4541 255.736 87.7293 254.993 86.5058 254.661 85.3511 254.346 84.4103 254.182 81.3221 253.651 77.8851 253.191 76.1839 254.532 76.0674 254.623 75.9737 254.73 75.8752 254.833 75.8123 252.888 75.8887 250.17 76.0127 248.602M89.3557 252.189C89.9271 251.503 90.759 251.35 92.2717 251.14 93.3089 250.997 94.2881 250.907 95.2338 250.874 95.484 251.109 95.7423 251.905 95.7721 253.05 95.7781 253.263 95.7738 253.467 95.7629 253.664 95.0594 253.229 93.8901 253.307 92.6498 253.399 91.4068 253.488 89.9954 253.591 89.522 253.07 89.3541 252.883 89.3032 252.592 89.3557 252.189M80.8157 259.412C78.2111 258.963 76.2489 257.822 76.0154 256.622 76.0664 256.005 76.2944 255.543 76.7157 255.205 78.0773 254.141 81.1477 254.491 84.2636 255.03 85.167 255.184 86.3016 255.497 87.5007 255.821 90.7 256.695 94.0076 257.599 95.5522 256.509 95.5923 256.476 95.6227 256.445 95.6573 256.416 95.6654 256.41 95.679 256.41 95.686 256.403 96.4372 255.875 96.669 254.316 96.6322 253.027 96.6219 252.539 96.5439 251.581 96.2255 250.859 99.4551 250.853 102.285 251.436 105.486 252.172 96.5661 259.652 85.6084 260.229 80.8157 259.412M118.82 253.788C113.839 253.23 110.078 252.353 106.811 251.592 105.054 251.184 103.425 250.804 101.809 250.522 101.791 248.559 102.288 246.441 101.981 244.48 101.971 244.436 101.541 244.473 101.286 244.473 101.387 246.367 100.734 248.428 100.859 250.362 98.1628 249.949 95.4385 249.824 92.1488 250.288 90.9567 250.455 89.9683 250.614 89.2019 251.177 89.1895 250.939 89.1813 250.635 89.1813 250.192 89.1813 249.041 89.2279 247.112 89.3709 243.904L89.379 243.672C89.4819 241.325 92.8664 240.938 95.6828 241.029 99.5482 241.157 100.205 241.327 101.402 241.638 102.045 241.806 102.847 242.014 104.327 242.278 104.409 242.323 104.499 242.367 104.573 242.405 105.273 242.655 105.841 244.063 105.858 244.994 105.908 246.9 104.931 248.865 105.751 250.737 105.784 250.804 106.058 250.757 106.229 250.757 105.812 248.325 107.608 245.705 106.272 243.389 106.176 243.215 106.22 242.765 106.406 242.643 110.313 243.327 115.084 244.148 119.665 244.742 119.403 245.027 118.873 245.726 118.76 246.053 118.405 247.091 119.298 248.11 118.528 249.178 118.194 249.652 118.9 250.378 118.807 250.742 118.619 251.512 117.189 252.136 117.799 252.895 118.288 253.494 118.561 251.876 118.91 252.043 119.462 252.318 119.065 253.487 118.82 253.788M119.797 248.674C120.102 248.562 120.349 249.286 120.466 249.696 120.543 249.942 120.24 250.475 120.036 250.411 119.24 250.178 118.933 249.003 119.797 248.674M136.867 254.18C136.864 254.197 136.881 254.208 136.888 254.226 135.195 254.314 133.375 254.361 131.418 254.361 131.126 254.361 130.843 254.354 130.554 254.354 130.266 254.354 129.984 254.361 129.692 254.361 125.971 254.361 122.767 254.184 119.934 253.906 119.844 253.657 119.69 252.818 120.017 252.789 120.438 252.751 120.996 253.308 121.227 252.954 121.757 252.124 120.688 251.516 120.01 251.068 120.183 250.88 120.438 250.543 120.5 250.58 121.637 251.283 123.618 251.5 123.826 249.935 124.014 248.463 124.924 246.832 124.124 245.334 124.12 245.294 124.113 245.266 124.106 245.239 126.114 245.424 128.019 245.535 129.693 245.535 129.971 245.535 130.266 245.527 130.555 245.521 130.843 245.527 131.14 245.535 131.42 245.535 133.087 245.535 134.982 245.425 136.986 245.241L137 245.365C137 245.552 137.289 246.107 136.523 246.186 134.843 246.343 134.307 250.415 135.21 250.444 135.832 250.475 135.524 249.785 135.664 249.473 135.729 249.33 137.058 249.777 137.552 250.186 137.107 250.998 136.941 251.951 136.876 252.894 136.859 253.239 136.891 254.087 136.867 254.18M137.62 254.18 137.62 253.988C137.732 253.05 137.839 251.619 138.127 251.109 138.491 250.48 139.031 251.618 139.082 251.763 139.272 252.302 139.715 253.676 139.738 254.035 139.052 254.089 138.348 254.14 137.62 254.18M154.299 251.592C150.648 252.445 146.379 253.44 140.466 253.969 140.526 253.906 140.55 253.83 140.516 253.746 140.516 253.746 140.21 251.184 138.747 249.915 139.207 249.38 140.083 248.243 140.438 248.287 140.64 248.305 140.48 249.321 140.665 249.463 140.784 249.556 141.374 249.564 141.393 249.403 141.499 248.321 140.867 245.468 138.072 245.769L138.136 245.266 138.143 245.127C142.526 244.671 147.348 243.909 151.586 243.183 151.457 243.24 151.37 243.32 151.377 243.457 151.396 244.022 151.998 244.271 152.458 244.189 152.594 244.165 152.574 244.486 152.47 244.611 152.29 244.799 151.659 244.92 151.71 245.659 151.858 248.136 153.543 246.933 153.64 247.188 153.824 247.677 152.609 247.412 152.609 247.867 152.619 248.496 154.054 247.818 154.096 247.963 154.311 248.659 152.428 248.202 152.444 248.878 152.458 249.572 154.345 248.843 154.365 248.985 154.533 249.671 153.296 249.207 153.319 249.878 153.337 250.16 153.789 250.129 154.027 250.063 154.542 249.915 155.053 249.751 155.464 249.399 155.648 249.58 155.724 249.825 155.811 250.054 155.928 250.371 155.861 250.715 155.928 251.095 155.922 251.14 155.93 251.177 155.935 251.217 155.401 251.336 154.856 251.465 154.299 251.592M180.292 259.412C175.499 260.229 164.545 259.653 155.628 252.17 158.828 251.434 161.658 250.852 164.888 250.857 164.568 251.579 164.492 252.538 164.478 253.026 164.443 254.315 164.674 255.873 165.425 256.401 165.433 256.408 165.444 256.408 165.456 256.413 165.492 256.443 165.52 256.475 165.556 256.508 167.103 257.598 170.412 256.693 173.612 255.82 174.815 255.496 175.948 255.182 176.848 255.028 179.964 254.489 183.037 254.139 184.391 255.202 184.817 255.541 185.043 256.003 185.094 256.62 184.858 257.821 182.9 258.963 180.292 259.412M185.236 254.831C185.14 254.728 185.041 254.621 184.926 254.53 183.224 253.189 179.785 253.65 176.704 254.179 175.761 254.345 174.604 254.659 173.386 254.992 170.661 255.735 167.27 256.659 166.057 255.8 165.775 255.605 165.63 255.316 165.598 254.902 165.578 254.628 165.652 254.517 165.713 254.459 166.082 254.087 167.313 254.176 168.397 254.255 169.907 254.367 171.446 254.459 172.226 253.646 172.57 253.284 172.695 252.328 172.752 251.441 172.81 250.695 172.809 249.336 172.722 246.841 178.637 245.497 182.462 245.411 184.081 246.594 184.701 247.045 185.024 247.684 185.098 248.6 185.223 250.17 185.298 252.888 185.236 254.831" fill="#6E1E6F" fill-rule="nonzero" fill-opacity="1" transform="matrix(1 0 0 1.00557 314.821 142.156)"/></g></g></g></g></svg>