<svg width="440" height="102" xmlns="http://www.w3.org/2000/svg" xmlns:xlink="http://www.w3.org/1999/xlink" xml:space="preserve" overflow="hidden"><g transform="translate(-420 -304)"><g><g><g><path d="M42.2393 84.5773 32.5677 68.3921C32.5677 68.3921 32.2716 67.9974 32.2716 67.4052L32.2716 67.0105 32.2716 66.2209 32.2716 37.3048 28.6201 37.3048 28.6201 67.4052 28.6201 68.2934C28.9162 68.5895 35.0349 79.0506 35.0349 79.0506L19.8367 79.0506C19.8367 79.0506 25.9555 68.5895 26.2515 68.2934L26.2515 67.4052 26.2515 37.3048 22.6 37.3048 22.6 66.1223 22.6 66.9118 22.6 67.3065C22.6 67.8987 22.3039 68.2934 22.3039 68.2934L12.5336 84.4786 42.2393 84.4786Z" fill="#FFFFFF" fill-rule="nonzero" fill-opacity="1" transform="matrix(1.00635 0 0 1 421.206 317.037)"/><path d="M39.2786 16.2838C39.2786 16.2838 41.1537 8.68472 34.5415 3.75022 34.5415 3.75022 31.9755 1.38166 26.9424 1.38166 22.5013 1.38166 19.9354 3.75022 19.9354 3.75022 13.9153 7.8952 15.4943 16.2838 15.4943 16.2838L39.2786 16.2838Z" fill="#FFFFFF" fill-rule="nonzero" fill-opacity="1" transform="matrix(1.00635 0 0 1 421.206 317.037)"/><path d="M16.1852 18.3563 38.4891 18.3563C38.6865 17.9616 38.7851 17.4681 38.9825 17.0734L15.7904 17.0734C15.8891 17.5668 15.9878 17.9616 16.1852 18.3563Z" fill="#FFFFFF" fill-rule="nonzero" fill-opacity="1" transform="matrix(1.00635 0 0 1 421.206 317.037)"/><path d="M38.193 19.1458 16.5799 19.1458C16.7773 19.6393 17.0734 20.0341 17.3694 20.4288L37.5022 20.4288C37.6996 20.0341 37.9956 19.6393 38.193 19.1458Z" fill="#FFFFFF" fill-rule="nonzero" fill-opacity="1" transform="matrix(1.00635 0 0 1 421.206 317.037)"/><path d="M18.7511 22.3039 35.9231 22.3039C36.2192 22.0079 36.5153 21.6131 36.8113 21.2183L17.8629 21.2183C18.1589 21.6131 18.455 22.0079 18.7511 22.3039Z" fill="#FFFFFF" fill-rule="nonzero" fill-opacity="1" transform="matrix(1.00635 0 0 1 421.206 317.037)"/><path d="M20.6262 23.883 34.1467 23.883C34.5415 23.6856 34.8376 23.3895 35.1336 23.0934L19.6393 23.0934C19.9354 23.3895 20.2314 23.5869 20.6262 23.883Z" fill="#FFFFFF" fill-rule="nonzero" fill-opacity="1" transform="matrix(1.00635 0 0 1 421.206 317.037)"/><path d="M22.5013 24.9686C23.9817 25.6594 25.6594 26.0541 27.3371 26.0541 29.1135 26.0541 30.6926 25.6594 32.1729 24.9686L22.5013 24.9686Z" fill="#FFFFFF" fill-rule="nonzero" fill-opacity="1" transform="matrix(1.00635 0 0 1 421.206 317.037)"/><path d="M50.5293 26.5476 32.2716 26.5476C32.2716 26.5476 30.5939 26.5476 29.2122 27.4358 28.1266 28.1266 27.4358 29.8044 27.3371 29.9031 27.3371 29.8044 26.5476 28.1266 25.462 27.4358 24.0803 26.5476 22.4026 26.5476 22.4026 26.5476L4.24367 26.5476 0.59214 32.3703 17.3694 32.3703C17.3694 32.3703 17.8629 32.3703 18.1589 32.469 18.6524 32.5677 19.5406 32.7651 20.4288 33.4559 21.7118 34.3441 22.0079 34.8376 22.3039 35.1336 22.5013 35.331 22.8961 35.8244 22.8961 35.8244L27.041 35.8244 27.5345 35.8244 28.9162 35.8244 32.0742 35.8244C32.0742 35.8244 32.469 35.331 32.6664 35.1336 32.9624 34.8376 33.3572 34.3441 34.5415 33.4559 35.4297 32.7651 36.3179 32.5677 36.8113 32.469 37.1074 32.3703 37.6009 32.3703 37.6009 32.3703L54.3782 32.3703 50.5293 26.5476Z" fill="#FFFFFF" fill-rule="nonzero" fill-opacity="1" transform="matrix(1.00635 0 0 1 421.206 317.037)"/><path d="M2.36856 34.1467 2.36856 61.5825C2.36856 61.5825 2.36856 61.8786 2.36856 61.9773 2.36856 62.2734 2.36856 62.5694 2.36856 62.7668 2.66463 65.7275 3.55284 67.8987 5.32926 70.7607 7.99389 75.2017 12.9284 78.3598 12.9284 78.3598L15.1983 74.7083C15.1983 74.7083 12.0402 73.0306 9.57292 69.2803 9.07947 68.4908 8.58603 67.8 8.19127 67.1092 7.8952 66.4183 7.59913 65.9249 7.40175 65.3327 7.30306 64.938 7.10568 64.5432 7.10568 64.1485 7.00699 63.655 6.9083 63.2603 6.9083 62.7668 6.9083 62.5694 6.9083 61.8786 6.9083 61.8786L6.9083 61.7799 6.9083 34.1467 2.36856 34.1467Z" fill="#FFFFFF" fill-rule="nonzero" fill-opacity="1" transform="matrix(1.00635 0 0 1 421.206 317.037)"/><path d="M9.37554 34.1467 9.37554 61.8786C9.37554 61.8786 9.37554 61.9773 9.37554 62.076 9.37554 62.1747 9.37554 62.372 9.37554 62.5694 9.37554 62.6681 9.37554 62.7668 9.37554 62.8655 9.47423 63.2603 9.57292 63.655 9.7703 64.2472 10.0664 65.1354 10.6585 66.3196 11.448 67.6026 13.5205 70.9581 16.4812 72.4384 16.4812 72.4384L18.7511 68.8856C18.7511 68.8856 17.9616 68.4908 17.0734 67.6026 16.4812 67.0105 15.6917 66.2209 15.0996 65.3327 14.5074 64.3458 14.1127 63.4576 13.9153 62.7668 13.8166 62.076 13.8166 61.5825 13.8166 61.2865 13.8166 60.9904 13.8166 60.8917 13.8166 60.8917L13.8166 34.1467 9.37554 34.1467Z" fill="#FFFFFF" fill-rule="nonzero" fill-opacity="1" transform="matrix(1.00635 0 0 1 421.206 317.037)"/><path d="M52.4044 34.1467 52.4044 61.5825C52.4044 61.5825 52.4044 61.8786 52.4044 61.9773 52.4044 62.2734 52.4044 62.5694 52.4044 62.7668 52.1083 65.7275 51.2201 67.8987 49.4437 70.7607 46.779 75.2017 41.8445 78.3598 41.8445 78.3598L39.5747 74.7083C39.5747 74.7083 42.7327 73.0306 45.2 69.2803 45.6934 68.4908 46.1869 67.8 46.5817 67.1092 46.8777 66.4183 47.1738 65.9249 47.3712 65.3327 47.4699 64.938 47.6672 64.5432 47.6672 64.1485 47.7659 63.655 47.8646 63.2603 47.8646 62.7668 47.8646 62.5694 47.8646 61.8786 47.8646 61.8786L47.8646 61.7799 47.8646 34.1467 52.4044 34.1467Z" fill="#FFFFFF" fill-rule="nonzero" fill-opacity="1" transform="matrix(1.00635 0 0 1 421.206 317.037)"/><path d="M45.3974 34.1467 45.3974 61.8786C45.3974 61.8786 45.3974 61.9773 45.3974 62.076 45.3974 62.1747 45.3974 62.372 45.3974 62.5694 45.3974 62.6681 45.3974 62.7668 45.3974 62.8655 45.2987 63.2603 45.2 63.655 45.0026 64.2472 44.7065 65.1354 44.1144 66.3196 43.3249 67.6026 41.2524 70.9581 38.2917 72.4384 38.2917 72.4384L36.0218 68.8856C36.0218 68.8856 36.8113 68.4908 37.6996 67.6026 38.2917 67.0105 39.0812 66.2209 39.6734 65.3327 40.2655 64.3458 40.6603 63.4576 40.8576 62.7668 41.055 62.1747 41.055 61.6812 41.055 61.3851 41.055 61.0891 41.055 60.9904 41.055 60.9904L41.055 34.1467 45.3974 34.1467Z" fill="#FFFFFF" fill-rule="nonzero" fill-opacity="1" transform="matrix(1.00635 0 0 1 421.206 317.037)"/><path d="M74.1161 83.8865 71.6489 83.8865 71.6489 66.4183 67.0105 66.4183 67.0105 64.1485 78.7546 64.1485 78.7546 66.4183 74.1161 66.4183 74.1161 83.8865Z" fill="#FFFFFF" fill-rule="nonzero" fill-opacity="1" transform="matrix(1.00635 0 0 1 421.206 317.037)"/><path d="M80.9258 64.2472 91.4856 64.2472 91.4856 66.517 83.393 66.517 83.393 72.0437 91.2882 72.0437 91.2882 74.3135 83.393 74.3135 83.393 81.7153 91.4856 81.7153 91.4856 83.8865 80.9258 83.8865 80.9258 64.2472Z" fill="#FFFFFF" fill-rule="nonzero" fill-opacity="1" transform="matrix(1.00635 0 0 1 421.206 317.037)"/><path d="M109.151 67.9974C107.769 66.7144 105.796 66.0236 103.921 66.0236 99.4795 66.0236 96.124 69.6751 96.124 74.0175 96.124 78.3598 99.4795 82.0113 103.822 82.0113 105.796 82.0113 107.572 81.3205 109.052 79.9389L109.052 82.8996C107.572 83.7878 105.598 84.2812 103.921 84.2812 98.2952 84.2812 93.6568 79.8402 93.6568 74.1161 93.6568 68.2934 98.2952 63.7537 104.118 63.7537 105.796 63.7537 107.572 64.1485 109.052 65.0367L109.052 67.9974Z" fill="#FFFFFF" fill-rule="nonzero" fill-opacity="1" transform="matrix(1.00635 0 0 1 421.206 317.037)"/><path d="M123.856 72.1423 123.856 64.2472 126.323 64.2472 126.323 83.8865 123.856 83.8865 123.856 74.4122 114.48 74.4122 114.48 83.8865 112.013 83.8865 112.013 64.2472 114.48 64.2472 114.48 72.1423 123.856 72.1423Z" fill="#FFFFFF" fill-rule="nonzero" fill-opacity="1" transform="matrix(1.00635 0 0 1 421.206 317.037)"/><path d="M129.876 63.2603 144.581 78.7546 144.581 64.2472 147.048 64.2472 147.048 84.676 132.343 69.1816 132.343 83.8865 129.876 83.8865 129.876 63.2603Z" fill="#FFFFFF" fill-rule="nonzero" fill-opacity="1" transform="matrix(1.00635 0 0 1 421.206 317.037)"/><path d="M170.043 74.0175C170.043 79.8402 165.404 84.2812 159.779 84.2812 154.055 84.2812 149.515 79.8402 149.515 74.0175 149.515 68.3921 154.154 63.7537 159.779 63.7537 165.404 63.7537 170.043 68.3921 170.043 74.0175ZM167.576 74.0175C167.576 69.6751 164.319 66.0236 159.779 66.0236 155.141 66.0236 151.983 69.6751 151.983 74.0175 151.983 78.4585 155.535 82.0113 159.779 82.0113 164.023 82.0113 167.576 78.5572 167.576 74.0175Z" fill="#FFFFFF" fill-rule="nonzero" fill-opacity="1" transform="matrix(1.00635 0 0 1 421.206 317.037)"/><path d="M175.076 81.6166 180.997 81.6166 180.997 83.8865 172.707 83.8865 172.707 64.2472 175.175 64.2472 175.175 81.6166Z" fill="#FFFFFF" fill-rule="nonzero" fill-opacity="1" transform="matrix(1.00635 0 0 1 421.206 317.037)"/><path d="M202.117 74.0175C202.117 79.8402 197.479 84.2812 191.853 84.2812 186.129 84.2812 181.589 79.8402 181.589 74.0175 181.589 68.3921 186.228 63.7537 191.853 63.7537 197.479 63.7537 202.117 68.3921 202.117 74.0175ZM199.748 74.0175C199.748 69.6751 196.492 66.0236 191.952 66.0236 187.314 66.0236 184.155 69.6751 184.155 74.0175 184.155 78.4585 187.708 82.0113 191.952 82.0113 196.097 82.0113 199.748 78.5572 199.748 74.0175Z" fill="#FFFFFF" fill-rule="nonzero" fill-opacity="1" transform="matrix(1.00635 0 0 1 421.206 317.037)"/><path d="M222.645 73.9188 222.645 74.7083C222.645 80.1362 218.796 84.2812 213.368 84.2812 207.841 84.2812 203.4 79.5441 203.4 74.1161 203.4 68.4908 207.94 63.8524 213.565 63.8524 216.624 63.8524 219.684 65.2341 221.559 67.7013L219.881 69.379C218.5 67.4052 216.131 66.2209 213.664 66.2209 209.223 66.2209 205.867 69.7738 205.867 74.2148 205.867 78.3598 209.223 82.2087 213.466 82.2087 216.526 82.2087 219.783 79.5441 219.881 76.386L214.848 76.386 214.848 74.1161 222.645 74.1161Z" fill="#FFFFFF" fill-rule="nonzero" fill-opacity="1" transform="matrix(1.00635 0 0 1 421.206 317.037)"/><path d="M223.335 64.2472 226.197 64.2472 231.033 72.6358 235.869 64.2472 238.731 64.2472 232.316 75.3004 232.316 83.8865 229.849 83.8865 229.849 75.3004 223.335 64.2472Z" fill="#FFFFFF" fill-rule="nonzero" fill-opacity="1" transform="matrix(1.00635 0 0 1 421.206 317.037)"/><path d="M72.4384 21.317 69.9712 21.317 69.9712 3.9476 65.3327 3.9476 65.3327 1.67773 77.0768 1.67773 77.0768 3.9476 72.4384 3.9476 72.4384 21.317Z" fill="#FFFFFF" fill-rule="nonzero" fill-opacity="1" transform="matrix(1.00635 0 0 1 421.206 317.037)"/><path d="M90.8934 9.67161 90.8934 1.77642 93.3607 1.77642 93.3607 21.4157 90.8934 21.4157 90.8934 11.9415 81.5179 11.9415 81.5179 21.4157 79.0506 21.4157 79.0506 1.67773 81.5179 1.67773 81.5179 9.57292 90.8934 9.57292Z" fill="#FFFFFF" fill-rule="nonzero" fill-opacity="1" transform="matrix(1.00635 0 0 1 421.206 317.037)"/><path d="M97.1109 1.67773 107.671 1.67773 107.671 3.9476 99.5782 3.9476 99.5782 9.47423 107.473 9.47423 107.473 11.7441 99.5782 11.7441 99.5782 19.1458 107.671 19.1458 107.671 21.4157 97.1109 21.4157 97.1109 1.67773Z" fill="#FFFFFF" fill-rule="nonzero" fill-opacity="1" transform="matrix(1.00635 0 0 1 421.206 317.037)"/><path d="M130.369 9.67161 130.369 1.77642 132.837 1.77642 132.837 21.4157 130.369 21.4157 130.369 11.9415 120.994 11.9415 120.994 21.4157 118.527 21.4157 118.527 1.67773 120.994 1.67773 120.994 9.57292 130.369 9.57292Z" fill="#FFFFFF" fill-rule="nonzero" fill-opacity="1" transform="matrix(1.00635 0 0 1 421.206 317.037)"/><path d="M155.831 11.5467C155.831 17.3694 151.193 21.8105 145.568 21.8105 139.844 21.8105 135.304 17.3694 135.304 11.5467 135.304 5.9214 139.942 1.28297 145.568 1.28297 151.094 1.28297 155.831 5.9214 155.831 11.5467ZM153.364 11.5467C153.364 7.20437 150.107 3.55284 145.568 3.55284 140.929 3.55284 137.771 7.20437 137.771 11.5467 137.771 15.9878 141.324 19.5406 145.568 19.5406 149.713 19.4419 153.364 15.9878 153.364 11.5467Z" fill="#FFFFFF" fill-rule="nonzero" fill-opacity="1" transform="matrix(1.00635 0 0 1 421.206 317.037)"/><path d="M158.2 0.78952 172.905 16.2838 172.905 1.67773 175.372 1.67773 175.372 22.1065 160.667 6.71092 160.667 21.317 158.2 21.317 158.2 0.78952Z" fill="#FFFFFF" fill-rule="nonzero" fill-opacity="1" transform="matrix(1.00635 0 0 1 421.206 317.037)"/><path d="M197.084 11.448 197.084 12.2376C197.084 17.6655 193.235 21.8105 187.807 21.8105 182.28 21.8105 177.839 17.0734 177.839 11.6454 177.839 6.02009 182.379 1.38166 188.004 1.38166 191.064 1.38166 194.123 2.76332 195.998 5.23057L194.32 6.9083C192.939 4.9345 190.57 3.75022 188.103 3.75022 183.662 3.75022 180.307 7.30306 180.307 11.7441 180.307 15.8891 183.662 19.738 187.906 19.738 190.965 19.738 194.222 17.0734 194.32 13.9153L189.287 13.9153 189.287 11.6454 197.084 11.6454Z" fill="#FFFFFF" fill-rule="nonzero" fill-opacity="1" transform="matrix(1.00635 0 0 1 421.206 317.037)"/><path d="M218.302 1.67773 221.46 1.67773 212.677 10.4611 221.658 21.317 218.302 21.317 210.9 12.1389 209.914 13.1258 209.914 21.317 207.446 21.317 207.446 1.67773 209.914 1.67773 209.914 10.1651 218.302 1.67773Z" fill="#FFFFFF" fill-rule="nonzero" fill-opacity="1" transform="matrix(1.00635 0 0 1 421.206 317.037)"/><path d="M242.58 11.5467C242.58 17.3694 237.941 21.8105 232.316 21.8105 226.592 21.8105 222.052 17.3694 222.052 11.5467 222.052 5.9214 226.691 1.28297 232.316 1.28297 237.941 1.28297 242.58 5.9214 242.58 11.5467ZM240.113 11.5467C240.113 7.20437 236.856 3.55284 232.316 3.55284 227.678 3.55284 224.52 7.20437 224.52 11.5467 224.52 15.9878 228.072 19.5406 232.316 19.5406 236.56 19.4419 240.113 15.9878 240.113 11.5467Z" fill="#FFFFFF" fill-rule="nonzero" fill-opacity="1" transform="matrix(1.00635 0 0 1 421.206 317.037)"/><path d="M244.948 0.78952 259.653 16.2838 259.653 1.67773 262.12 1.67773 262.12 22.1065 247.416 6.71092 247.416 21.317 244.948 21.317 244.948 0.78952Z" fill="#FFFFFF" fill-rule="nonzero" fill-opacity="1" transform="matrix(1.00635 0 0 1 421.206 317.037)"/><path d="M283.832 11.448 283.832 12.2376C283.832 17.6655 279.983 21.8105 274.555 21.8105 269.029 21.8105 264.588 17.0734 264.588 11.6454 264.588 6.02009 269.128 1.38166 274.753 1.38166 277.812 1.38166 280.872 2.76332 282.747 5.23057L281.069 6.9083C279.687 4.9345 277.319 3.75022 274.852 3.75022 270.41 3.75022 267.055 7.30306 267.055 11.7441 267.055 15.8891 270.41 19.738 274.654 19.738 277.714 19.738 280.97 17.0734 281.069 13.9153L276.036 13.9153 276.036 11.6454 283.832 11.6454Z" fill="#FFFFFF" fill-rule="nonzero" fill-opacity="1" transform="matrix(1.00635 0 0 1 421.206 317.037)"/><path d="M69.2803 32.9624 69.2803 44.5092C69.2803 47.6672 70.2672 50.7266 74.0175 50.7266 77.7677 50.7266 78.7546 47.7659 78.7546 44.5092L78.7546 32.9624 81.2218 32.9624 81.2218 45.3974C81.2218 49.7397 78.5572 52.9965 74.0175 52.9965 69.4777 52.9965 66.8131 49.641 66.8131 45.3974L66.8131 32.9624 69.2803 32.9624Z" fill="#FFFFFF" fill-rule="nonzero" fill-opacity="1" transform="matrix(1.00635 0 0 1 421.206 317.037)"/><path d="M84.972 32.0742 99.6768 47.4699 99.6768 32.9624 102.144 32.9624 102.144 53.3913 87.4393 37.9956 87.4393 52.6017 84.972 52.6017 84.972 32.0742Z" fill="#FFFFFF" fill-rule="nonzero" fill-opacity="1" transform="matrix(1.00635 0 0 1 421.206 317.037)"/><path d="M109.348 52.6017 106.881 52.6017 106.881 32.9624 109.348 32.9624 109.348 52.6017Z" fill="#FFFFFF" fill-rule="nonzero" fill-opacity="1" transform="matrix(1.00635 0 0 1 421.206 317.037)"/><path d="M119.81 47.4699 125.632 32.9624 128.297 32.9624 119.81 53.6873 111.224 32.9624 113.888 32.9624 119.81 47.4699Z" fill="#FFFFFF" fill-rule="nonzero" fill-opacity="1" transform="matrix(1.00635 0 0 1 421.206 317.037)"/><path d="M130.271 32.9624 140.831 32.9624 140.831 35.2323 132.738 35.2323 132.738 40.7589 140.633 40.7589 140.633 43.0288 132.738 43.0288 132.738 50.3319 140.831 50.3319 140.831 52.6017 130.271 52.6017 130.271 32.9624Z" fill="#FFFFFF" fill-rule="nonzero" fill-opacity="1" transform="matrix(1.00635 0 0 1 421.206 317.037)"/><path d="M156.325 52.6017 153.364 52.6017 147.541 44.3118 146.555 44.3118 146.555 52.6017 144.087 52.6017 144.087 32.9624 147.048 32.9624C148.824 32.9624 150.7 32.9624 152.279 33.8507 153.956 34.8376 154.845 36.7127 154.845 38.4891 154.845 41.3511 152.969 43.621 150.107 44.0157L156.325 52.6017ZM146.555 42.2393 147.344 42.2393C149.811 42.2393 152.575 41.7458 152.575 38.6865 152.575 35.6271 149.614 35.1336 147.245 35.1336L146.555 35.1336 146.555 42.2393Z" fill="#FFFFFF" fill-rule="nonzero" fill-opacity="1" transform="matrix(1.00635 0 0 1 421.206 317.037)"/><path d="M167.576 36.7127C166.885 35.5284 165.898 34.8376 164.417 34.8376 162.838 34.8376 161.161 35.9231 161.161 37.6009 161.161 39.1799 162.641 39.9694 163.924 40.4629L165.306 41.055C168.069 42.1406 170.141 43.7196 170.141 46.9764 170.141 50.5293 167.378 53.0952 163.825 53.0952 160.667 53.0952 158.2 50.7266 157.707 47.5686L160.174 47.0751C160.174 49.2463 161.852 50.8253 164.023 50.8253 166.095 50.8253 167.674 49.0489 167.674 46.9764 167.674 44.9039 165.996 43.917 164.319 43.2262L162.937 42.6341C160.667 41.6472 158.693 40.3642 158.693 37.6996 158.693 34.5415 161.555 32.6664 164.516 32.6664 166.687 32.6664 168.464 33.752 169.549 35.6271L167.576 36.7127Z" fill="#FFFFFF" fill-rule="nonzero" fill-opacity="1" transform="matrix(1.00635 0 0 1 421.206 317.037)"/><path d="M175.865 52.6017 173.398 52.6017 173.398 32.9624 175.865 32.9624 175.865 52.6017Z" fill="#FFFFFF" fill-rule="nonzero" fill-opacity="1" transform="matrix(1.00635 0 0 1 421.206 317.037)"/><path d="M185.636 52.6017 183.169 52.6017 183.169 35.2323 178.53 35.2323 178.53 32.9624 190.274 32.9624 190.274 35.2323 185.636 35.2323 185.636 52.6017Z" fill="#FFFFFF" fill-rule="nonzero" fill-opacity="1" transform="matrix(1.00635 0 0 1 421.206 317.037)"/><path d="M191.162 32.9624 194.024 32.9624 198.86 41.3511 203.696 32.9624 206.558 32.9624 200.143 44.0157 200.143 52.6017 197.676 52.6017 197.676 44.0157 191.162 32.9624Z" fill="#FFFFFF" fill-rule="nonzero" fill-opacity="1" transform="matrix(1.00635 0 0 1 421.206 317.037)"/><path d="M235.869 42.8314C235.869 48.6541 231.231 53.0952 225.605 53.0952 219.881 53.0952 215.341 48.6541 215.341 42.8314 215.341 37.2061 219.98 32.5677 225.605 32.5677 231.132 32.5677 235.869 37.2061 235.869 42.8314ZM233.402 42.8314C233.402 38.4891 230.145 34.8376 225.605 34.8376 220.967 34.8376 217.809 38.4891 217.809 42.8314 217.809 47.2725 221.362 50.8253 225.605 50.8253 229.75 50.7266 233.402 47.2725 233.402 42.8314Z" fill="#FFFFFF" fill-rule="nonzero" fill-opacity="1" transform="matrix(1.00635 0 0 1 421.206 317.037)"/><path d="M241.297 35.2323 241.297 40.7589 248.107 40.7589 248.107 43.0288 241.297 43.0288 241.297 52.7004 238.83 52.7004 238.83 32.9624 248.304 32.9624 248.304 35.2323 241.297 35.2323Z" fill="#FFFFFF" fill-rule="nonzero" fill-opacity="1" transform="matrix(1.00635 0 0 1 421.206 317.037)"/><path d="M269.128 36.7127C268.437 35.5284 267.45 34.8376 265.969 34.8376 264.39 34.8376 262.713 35.9231 262.713 37.6009 262.713 39.1799 264.193 39.9694 265.476 40.4629L266.858 41.055C269.621 42.1406 271.693 43.7196 271.693 46.9764 271.693 50.5293 268.93 53.0952 265.377 53.0952 262.219 53.0952 259.752 50.7266 259.258 47.5686L261.726 47.0751C261.726 49.2463 263.403 50.8253 265.575 50.8253 267.647 50.8253 269.226 49.0489 269.226 46.9764 269.226 44.9039 267.548 43.917 265.871 43.2262L264.489 42.6341C262.219 41.6472 260.245 40.3642 260.245 37.6996 260.245 34.5415 263.107 32.6664 266.068 32.6664 268.239 32.6664 270.016 33.752 271.101 35.6271L269.128 36.7127Z" fill="#FFFFFF" fill-rule="nonzero" fill-opacity="1" transform="matrix(1.00635 0 0 1 421.206 317.037)"/><path d="M289.458 36.7127C288.076 35.4297 286.102 34.7389 284.227 34.7389 279.786 34.7389 276.431 38.3904 276.431 42.7327 276.431 47.0751 279.786 50.7266 284.128 50.7266 286.102 50.7266 287.879 50.0358 289.359 48.6541L289.359 51.5162C287.879 52.4044 285.905 52.8978 284.227 52.8978 278.602 52.8978 273.963 48.4568 273.963 42.7327 273.963 36.91 278.602 32.3703 284.424 32.3703 286.102 32.3703 287.879 32.7651 289.359 33.6533L289.359 36.7127Z" fill="#FFFFFF" fill-rule="nonzero" fill-opacity="1" transform="matrix(1.00635 0 0 1 421.206 317.037)"/><path d="M295.971 52.6017 293.504 52.6017 293.504 32.9624 295.971 32.9624 295.971 52.6017Z" fill="#FFFFFF" fill-rule="nonzero" fill-opacity="1" transform="matrix(1.00635 0 0 1 421.206 317.037)"/><path d="M300.807 32.9624 311.367 32.9624 311.367 35.2323 303.274 35.2323 303.274 40.7589 311.169 40.7589 311.169 43.0288 303.274 43.0288 303.274 50.3319 311.367 50.3319 311.367 52.6017 300.807 52.6017 300.807 32.9624Z" fill="#FFFFFF" fill-rule="nonzero" fill-opacity="1" transform="matrix(1.00635 0 0 1 421.206 317.037)"/><path d="M315.314 32.0742 330.019 47.5686 330.019 32.9624 332.486 32.9624 332.486 53.3913 317.782 37.9956 317.782 52.6017 315.314 52.6017 315.314 32.0742Z" fill="#FFFFFF" fill-rule="nonzero" fill-opacity="1" transform="matrix(1.00635 0 0 1 421.206 317.037)"/><path d="M350.744 36.7127C349.362 35.4297 347.389 34.7389 345.513 34.7389 341.072 34.7389 337.717 38.3904 337.717 42.7327 337.717 47.0751 341.072 50.7266 345.415 50.7266 347.389 50.7266 349.165 50.0358 350.645 48.6541L350.645 51.5162C349.165 52.4044 347.191 52.8978 345.513 52.8978 339.888 52.8978 335.25 48.4568 335.25 42.7327 335.25 36.91 339.888 32.3703 345.711 32.3703 347.389 32.3703 349.165 32.7651 350.645 33.6533L350.645 36.7127Z" fill="#FFFFFF" fill-rule="nonzero" fill-opacity="1" transform="matrix(1.00635 0 0 1 421.206 317.037)"/><path d="M354.297 32.9624 364.857 32.9624 364.857 35.2323 356.764 35.2323 356.764 40.7589 364.659 40.7589 364.659 43.0288 356.764 43.0288 356.764 50.3319 364.857 50.3319 364.857 52.6017 354.297 52.6017 354.297 32.9624Z" fill="#FFFFFF" fill-rule="nonzero" fill-opacity="1" transform="matrix(1.00635 0 0 1 421.206 317.037)"/><path d="M381.042 47.7659 378.772 52.7004 376.107 52.7004 385.483 32.2716 394.858 52.7004 392.194 52.7004 389.924 47.7659 381.042 47.7659ZM385.582 37.6009 382.127 45.5948 389.134 45.5948 385.582 37.6009Z" fill="#FFFFFF" fill-rule="nonzero" fill-opacity="1" transform="matrix(1.00635 0 0 1 421.206 317.037)"/><path d="M397.227 32.0742 411.932 47.5686 411.932 33.0611 414.399 33.0611 414.399 53.4899 399.694 37.9956 399.694 52.6017 397.227 52.6017 397.227 32.0742Z" fill="#FFFFFF" fill-rule="nonzero" fill-opacity="1" transform="matrix(1.00635 0 0 1 421.206 317.037)"/><path d="M418.149 33.0611 422.196 33.0611C428.216 33.0611 433.249 36.2192 433.249 42.7327 433.249 49.4437 428.314 52.7004 422.196 52.7004L418.248 52.7004 418.248 33.0611ZM420.518 50.4306 421.406 50.4306C426.439 50.4306 430.782 48.5555 430.782 42.8314 430.782 37.1074 426.439 35.2323 421.406 35.2323L420.518 35.2323 420.518 50.4306Z" fill="#FFFFFF" fill-rule="nonzero" fill-opacity="1" transform="matrix(1.00635 0 0 1 421.206 317.037)"/><path d="M274.95 74.0175 274.95 74.807C274.95 80.2349 271.101 84.3799 265.673 84.3799 260.147 84.3799 255.706 79.6428 255.706 74.2148 255.706 68.5895 260.245 63.9511 265.871 63.9511 268.93 63.9511 271.99 65.3327 273.865 67.8L272.187 69.4777C270.805 67.5039 268.437 66.2209 265.969 66.2209 261.528 66.2209 258.074 69.7738 258.074 74.2148 258.074 78.3598 261.43 82.2087 265.673 82.2087 268.733 82.2087 271.99 79.5441 272.088 76.386L266.956 76.386 266.956 74.0175 274.95 74.0175Z" fill="#FFFFFF" fill-rule="nonzero" fill-opacity="1" transform="matrix(1.00635 0 0 1 421.206 317.037)"/><path d="M279.786 64.2472 279.786 75.8926C279.786 79.1493 280.773 82.11 284.523 82.11 288.273 82.11 289.26 79.1493 289.26 75.8926L289.26 64.2472 291.727 64.2472 291.727 76.6821C291.727 81.0244 289.063 84.2812 284.523 84.2812 279.983 84.2812 277.319 80.9258 277.319 76.6821L277.319 64.2472 279.786 64.2472Z" fill="#FFFFFF" fill-rule="nonzero" fill-opacity="1" transform="matrix(1.00635 0 0 1 421.206 317.037)"/><path d="M298.142 78.952 295.872 83.8865 293.208 83.8865 302.583 63.3589 311.959 83.8865 309.294 83.8865 307.024 78.952 298.142 78.952ZM302.682 68.7869 299.228 76.7808 306.235 76.7808 302.682 68.7869Z" fill="#FFFFFF" fill-rule="nonzero" fill-opacity="1" transform="matrix(1.00635 0 0 1 421.206 317.037)"/><path d="M313.735 63.2603 328.539 78.7546 328.539 64.2472 331.006 64.2472 331.006 84.7747 316.203 69.2803 316.203 83.8865 313.735 83.8865 313.735 63.2603Z" fill="#FFFFFF" fill-rule="nonzero" fill-opacity="1" transform="matrix(1.00635 0 0 1 421.206 317.037)"/><path d="M352.619 74.0175 352.619 74.807C352.619 80.2349 348.77 84.3799 343.342 84.3799 337.816 84.3799 333.375 79.6428 333.375 74.2148 333.375 68.5895 337.914 63.9511 343.54 63.9511 346.599 63.9511 349.658 65.3327 351.534 67.8L349.856 69.4777C348.474 67.5039 346.106 66.2209 343.638 66.2209 339.197 66.2209 335.743 69.7738 335.743 74.2148 335.743 78.3598 339.099 82.2087 343.342 82.2087 346.402 82.2087 349.658 79.5441 349.757 76.386L344.625 76.386 344.625 74.0175 352.619 74.0175Z" fill="#FFFFFF" fill-rule="nonzero" fill-opacity="1" transform="matrix(1.00635 0 0 1 421.206 317.037)"/><path d="M367.62 81.6166 367.62 83.8865 353.606 83.8865 363.574 66.4183 354.988 66.4183 354.988 64.1485 367.521 64.1485 357.554 81.6166 367.62 81.6166Z" fill="#FFFFFF" fill-rule="nonzero" fill-opacity="1" transform="matrix(1.00635 0 0 1 421.206 317.037)"/><path d="M381.535 72.1423 381.535 64.2472 384.003 64.2472 384.003 83.8865 381.535 83.8865 381.535 74.4122 372.16 74.4122 372.16 83.8865 369.693 83.8865 369.693 64.2472 372.16 64.2472 372.16 72.1423 381.535 72.1423Z" fill="#FFFFFF" fill-rule="nonzero" fill-opacity="1" transform="matrix(1.00635 0 0 1 421.206 317.037)"/><path d="M406.997 74.0175C406.997 79.8402 402.359 84.2812 396.734 84.2812 391.01 84.2812 386.47 79.8402 386.47 74.0175 386.47 68.3921 391.108 63.7537 396.734 63.7537 402.359 63.7537 406.997 68.3921 406.997 74.0175ZM404.53 74.0175C404.53 69.6751 401.273 66.0236 396.635 66.0236 391.996 66.0236 388.74 69.6751 388.74 74.0175 388.74 78.4585 392.391 82.0113 396.635 82.0113 400.977 82.0113 404.53 78.5572 404.53 74.0175Z" fill="#FFFFFF" fill-rule="nonzero" fill-opacity="1" transform="matrix(1.00635 0 0 1 421.206 317.037)"/><path d="M411.734 64.2472 411.734 75.8926C411.734 79.1493 412.721 82.11 416.472 82.11 420.222 82.11 421.209 79.1493 421.209 75.8926L421.209 64.2472 423.676 64.2472 423.676 76.6821C423.676 81.0244 421.011 84.2812 416.472 84.2812 411.932 84.2812 409.267 80.9258 409.267 76.6821L409.267 64.2472 411.734 64.2472Z" fill="#FFFFFF" fill-rule="nonzero" fill-opacity="1" transform="matrix(1.00635 0 0 1 421.206 317.037)"/><path d="M252.548 62.372C251.462 64.3458 250.771 66.0236 250.278 67.3065 249.587 69.4777 249.192 71.6489 249.192 74.0175 249.192 77.7677 250.278 81.6166 252.548 85.5642L250.771 85.5642C249.587 83.8865 248.6 82.11 247.712 80.0375 246.922 77.9651 246.527 75.8926 246.527 73.9188 246.527 71.1554 247.218 68.4908 248.6 65.7275 249.389 64.3458 250.08 63.1616 250.672 62.2734L252.548 62.2734Z" fill="#FFFFFF" fill-rule="nonzero" fill-opacity="1" transform="matrix(1.00635 0 0 1 421.206 317.037)"/><path d="M434.137 74.0175C434.137 76.7808 433.446 79.4454 432.065 82.2087 431.374 83.4917 430.683 84.676 429.992 85.6629L428.216 85.6629C429.301 83.6891 429.992 82.0113 430.486 80.7284 431.176 78.5572 431.571 76.386 431.571 74.0175 431.571 70.2672 430.486 66.4183 428.216 62.4707L429.992 62.4707C431.176 64.0498 432.163 65.9249 432.953 67.9974 433.742 70.0699 434.137 72.1423 434.137 74.0175Z" fill="#FFFFFF" fill-rule="nonzero" fill-opacity="1" transform="matrix(1.00635 0 0 1 421.206 317.037)"/></g></g></g></g></svg>