<?xml version="1.0" encoding="utf-8"?>
<!-- Generator: Adobe Illustrator 25.0.1, SVG Export Plug-In . SVG Version: 6.00 Build 0)  -->
<svg version="1.1" id="Layer_1" xmlns="http://www.w3.org/2000/svg" xmlns:xlink="http://www.w3.org/1999/xlink" x="0px" y="0px"
	 viewBox="0 0 558.6 86.2" style="enable-background:new 0 0 558.6 86.2;" xml:space="preserve">
<style type="text/css">
	.st0{fill:#996600;}
	.st1{fill:#003366;}
</style>
<g>
	<g>
		<g>
			<path class="st0" d="M43.1,85.5l-9.9-16.6c0,0-0.3-0.4-0.3-1l0-0.4v-0.8V37.2H29v30.8v0.9c0.3,0.3,6.6,11,6.6,11H20.1
				c0,0,6.3-10.7,6.6-11v-0.9V37.2h-3.8v29.5v0.8l0,0.4c0,0.6-0.3,1-0.3,1l-9.9,16.6H43.1z"/>
		</g>
		<g>
			<path class="st0" d="M40,15.7c0,0,1.9-7.7-4.8-12.8c0,0-2.7-2.4-7.7-2.4c-4.5,0-7.2,2.4-7.2,2.4c-6.1,4.3-4.5,12.8-4.5,12.8H40z"
				/>
			<path class="st0" d="M16.4,17.8h22.9c0.2-0.4,0.3-0.9,0.5-1.3H16C16.1,16.9,16.2,17.4,16.4,17.8z"/>
			<path class="st0" d="M38.9,18.6H16.8c0.2,0.5,0.5,0.9,0.8,1.3h20.6C38.4,19.5,38.7,19.1,38.9,18.6z"/>
			<path class="st0" d="M19,21.8h17.6c0.3-0.3,0.6-0.7,0.9-1.1H18.1C18.4,21.1,18.7,21.5,19,21.8z"/>
			<path class="st0" d="M20.9,23.4h13.8c0.4-0.2,0.7-0.5,1-0.8H19.9C20.2,22.9,20.6,23.2,20.9,23.4z"/>
			<path class="st0" d="M22.8,24.5c1.5,0.7,3.2,1.1,5,1.1c1.8,0,3.5-0.4,5-1.1H22.8z"/>
		</g>
		<path class="st1" d="M51.5,26.1H32.8c0,0-1.7,0-3.1,0.9c-1.1,0.7-1.8,2.4-1.9,2.5h0c0-0.1-0.8-1.8-1.9-2.5
			c-1.4-0.9-3.1-0.9-3.1-0.9H4.2l-3.7,6h17.1c0,0,0.5,0,0.8,0.1c0.5,0.1,1.4,0.4,2.3,1c1.3,0.9,1.6,1.4,1.9,1.7
			c0.2,0.2,0.6,0.7,0.6,0.7h4.2h0.5h0h1.4h3.2c0,0,0.4-0.5,0.6-0.7c0.3-0.3,0.7-0.8,1.9-1.7c0.9-0.7,1.8-0.9,2.3-1
			c0.3-0.1,0.8-0.1,0.8-0.1h17.1L51.5,26.1z"/>
		<g>
			<g>
				<path class="st1" d="M2.3,33.9V62c0,0,0,0.3,0,0.4c0,0.3,0,0.6,0,0.8c0.3,3,1.2,5.2,3,8.1c2.7,4.6,7.7,7.8,7.7,7.8l2.3-3.7
					c0,0-3.2-1.7-5.7-5.6c-0.5-0.8-1-1.5-1.4-2.2c-0.3-0.7-0.6-1.2-0.8-1.8c-0.1-0.4-0.3-0.8-0.4-1.2C7.1,64.1,7,63.7,7,63.2
					c0-0.2,0-0.9,0-0.9v-0.1V33.9H2.3z"/>
				<path class="st1" d="M9.4,33.9v28.3c0,0,0,0.1,0,0.2c0,0.1,0,0.3,0,0.5c0,0.1,0,0.2,0,0.3c0.1,0.4,0.2,0.8,0.4,1.4
					c0.3,1,0.9,2.1,1.7,3.4c2.1,3.4,5.1,4.9,5.1,4.9l2.3-3.7c0,0-0.8-0.4-1.7-1.3c-0.6-0.6-1.4-1.4-2-2.3c-0.6-1-1-1.9-1.2-2.7
					c-0.2-0.6-0.2-1.1-0.2-1.4c0-0.3,0-0.4,0-0.4V33.9H9.4z"/>
			</g>
			<g>
				<path class="st1" d="M53.4,33.9V62c0,0,0,0.3,0,0.4c0,0.3,0,0.6,0,0.8c-0.3,3-1.2,5.2-3,8.1c-2.7,4.6-7.7,7.8-7.7,7.8l-2.3-3.7
					c0,0,3.2-1.7,5.7-5.6c0.5-0.8,1-1.5,1.4-2.2c0.3-0.7,0.6-1.2,0.8-1.8c0.1-0.4,0.3-0.8,0.4-1.2c0.1-0.5,0.2-0.9,0.2-1.4
					c0-0.2,0-0.9,0-0.9v-0.1V33.9H53.4z"/>
				<path class="st1" d="M46.3,33.9v28.3c0,0,0,0.1,0,0.2c0,0.1,0,0.3,0,0.5c0,0.1,0,0.2,0,0.3c-0.1,0.4-0.2,0.8-0.4,1.4
					c-0.3,1-0.9,2.1-1.7,3.4c-2.1,3.4-5.1,4.9-5.1,4.9l-2.3-3.7c0,0,0.8-0.4,1.7-1.3c0.6-0.6,1.4-1.4,2-2.3c0.6-1,1-1.9,1.2-2.7
					c0.2-0.6,0.2-1.1,0.2-1.4c0-0.3,0-0.4,0-0.4V33.9H46.3z"/>
			</g>
		</g>
	</g>
	<g>
		<g>
			<g>
				<path class="st1" d="M70.1,79.1L68,83.8h-2.5l8.9-19.5l8.9,19.5h-2.5l-2.1-4.7H70.1z M74.4,69.5L71.1,77h6.6L74.4,69.5z"/>
				<path class="st1" d="M84.9,64.3l14,14.7V65.1h2.3v19.5l-14-14.7v13.9h-2.3V64.3z"/>
				<path class="st1" d="M104.6,65.1h3.9c5.7,0,10.5,3,10.5,9.2c0,6.4-4.7,9.4-10.6,9.4h-3.8V65.1z M107,81.7h0.8
					c4.8,0,8.9-1.8,8.9-7.2c0-5.5-4.1-7.2-8.9-7.2H107V81.7z"/>
				<path class="st1" d="M134,83.8h-2.3V67.3h-4.4v-2.1h11.2v2.1H134V83.8z"/>
				<path class="st1" d="M140.5,65.1h10v2.1h-7.7v5.2h7.5v2.1h-7.5v7.1h7.7v2.1h-10V65.1z"/>
				<path class="st1" d="M167.3,68.7c-1.3-1.2-3.2-1.8-4.9-1.8c-4.2,0-7.4,3.5-7.4,7.6c0,4.1,3.2,7.6,7.3,7.6c1.8,0,3.6-0.7,5-1.9
					v2.8c-1.4,0.8-3.3,1.3-4.9,1.3c-5.3,0-9.7-4.2-9.7-9.6c0-5.5,4.4-9.8,9.9-9.8c1.6,0,3.3,0.4,4.7,1.3V68.7z"/>
				<path class="st1" d="M181.3,72.7v-7.5h2.3v18.7h-2.3v-9h-8.9v9h-2.3V65.1h2.3v7.5H181.3z"/>
				<path class="st1" d="M187.1,64.3l14,14.7V65.1h2.3v19.5l-14-14.7v13.9h-2.3V64.3z"/>
				<path class="st1" d="M225.2,74.5c0,5.6-4.4,9.7-9.8,9.7c-5.4,0-9.8-4.2-9.8-9.7c0-5.4,4.4-9.7,9.8-9.7
					C220.8,64.7,225.2,69.1,225.2,74.5z M222.9,74.5c0-4.1-3.1-7.6-7.5-7.6c-4.4,0-7.5,3.4-7.5,7.6c0,4.3,3.4,7.6,7.5,7.6
					C219.5,82,222.9,78.7,222.9,74.5z"/>
				<path class="st1" d="M230.1,81.7h5.7v2.1h-8V65.1h2.3V81.7z"/>
				<path class="st1" d="M255.8,74.5c0,5.6-4.4,9.7-9.8,9.7c-5.4,0-9.8-4.2-9.8-9.7c0-5.4,4.4-9.7,9.8-9.7
					C251.3,64.7,255.8,69.1,255.8,74.5z M253.5,74.5c0-4.1-3.1-7.6-7.5-7.6c-4.4,0-7.5,3.4-7.5,7.6c0,4.3,3.4,7.6,7.5,7.6
					C250,82,253.5,78.7,253.5,74.5z"/>
				<path class="st1" d="M275.3,74.4v0.7c0,5.1-3.6,9.1-8.8,9.1c-5.2,0-9.4-4.5-9.4-9.7c0-5.4,4.3-9.8,9.7-9.8
					c2.9,0,5.8,1.3,7.6,3.6l-1.6,1.6c-1.3-1.8-3.6-3-5.9-3c-4.2,0-7.5,3.4-7.5,7.6c0,3.9,3.2,7.6,7.3,7.6c2.9,0,6-2.5,6.1-5.5h-4.8
					v-2.1H275.3z"/>
				<path class="st1" d="M275.9,65.1h2.7l4.6,8l4.6-8h2.7l-6.1,10.6v8.1H282v-8.1L275.9,65.1z"/>
			</g>
			<g>
				<g>
					<g>
						<path class="st1" d="M325.1,74.4v0.7c0,5.1-3.6,9.1-8.9,9.1c-5.2,0-9.5-4.5-9.5-9.7c0-5.4,4.3-9.8,9.7-9.8
							c2.9,0,5.8,1.3,7.6,3.6l-1.6,1.6c-1.3-1.8-3.6-3.1-5.9-3.1c-4.2,0-7.5,3.4-7.5,7.6c0,3.9,3.2,7.7,7.3,7.7c2.9,0,6-2.5,6.1-5.6
							h-4.8v-2.1H325.1z"/>
						<path class="st1" d="M329.6,65.1v11.1c0,3.1,0.9,5.9,4.5,5.9c3.6,0,4.5-2.8,4.5-5.9V65.1h2.3v11.9c0,4.1-2.6,7.3-6.9,7.3
							c-4.3,0-6.9-3.2-6.9-7.3V65.1H329.6z"/>
						<path class="st1" d="M347.1,79.1l-2.1,4.7h-2.5l8.9-19.5l8.9,19.5h-2.5l-2.1-4.7H347.1z M351.4,69.4l-3.3,7.6h6.7L351.4,69.4z
							"/>
						<path class="st1" d="M362,64.2L376,78.9V65.1h2.3v19.5l-14.1-14.7v14H362V64.2z"/>
						<path class="st1" d="M399,74.4v0.7c0,5.1-3.6,9.1-8.9,9.1c-5.2,0-9.5-4.5-9.5-9.7c0-5.4,4.3-9.8,9.7-9.8
							c2.9,0,5.8,1.3,7.6,3.6l-1.6,1.6c-1.3-1.8-3.6-3.1-5.9-3.1c-4.2,0-7.5,3.4-7.5,7.6c0,3.9,3.2,7.7,7.3,7.7c2.9,0,6-2.5,6.1-5.6
							h-4.8v-2.1H399z"/>
						<path class="st1" d="M413.3,81.7v2.1H400l9.5-16.6h-8.2v-2.1h12l-9.5,16.6H413.3z"/>
						<path class="st1" d="M426.6,72.6v-7.6h2.3v18.7h-2.3v-9h-8.9v9h-2.3V65.1h2.3v7.6H426.6z"/>
						<path class="st1" d="M450.8,74.5c0,5.6-4.4,9.8-9.8,9.8c-5.4,0-9.8-4.2-9.8-9.8c0-5.4,4.4-9.8,9.8-9.8
							C446.4,64.7,450.8,69.1,450.8,74.5z M448.5,74.5c0-4.1-3.1-7.6-7.5-7.6c-4.4,0-7.5,3.5-7.5,7.6c0,4.3,3.4,7.6,7.5,7.6
							C445.1,82,448.5,78.7,448.5,74.5z"/>
						<path class="st1" d="M455.3,65.1v11.1c0,3.1,0.9,5.9,4.5,5.9c3.6,0,4.5-2.8,4.5-5.9V65.1h2.3v11.9c0,4.1-2.6,7.3-6.9,7.3
							s-6.9-3.2-6.9-7.3V65.1H455.3z"/>
					</g>
				</g>
				<path class="st1" d="M303.7,63.4c-1,1.9-1.7,3.5-2.2,4.7c-0.7,2-1,4.2-1,6.4c0,3.5,1.1,7.2,3.2,11H302c-1.2-1.6-2.1-3.3-2.9-5.3
					c-0.7-2-1.1-3.9-1.1-5.8c0-2.6,0.7-5.2,2-7.8c0.7-1.4,1.4-2.4,2-3.2H303.7z"/>
				<path class="st1" d="M476.7,74.5c0,2.6-0.7,5.2-2,7.8c-0.7,1.3-1.3,2.3-2,3.2H471c1-1.9,1.7-3.5,2.2-4.7c0.7-2,1-4.2,1-6.4
					c0-3.5-1.1-7.2-3.2-11h1.7c1.2,1.5,2.1,3.3,2.9,5.3C476.3,70.7,476.7,72.6,476.7,74.5z"/>
			</g>
		</g>
		<g>
			<g>
				<path class="st1" d="M72.3,54.1h-2.3V37.6h-4.4v-2.1h11.2v2.1h-4.4V54.1z"/>
				<path class="st1" d="M89.8,43v-7.5h2.3v18.7h-2.3v-9h-8.9v9h-2.3V35.4h2.3V43H89.8z"/>
				<path class="st1" d="M95.8,35.4h10v2.1h-7.7v5.2h7.5v2.1h-7.5V52h7.7v2.1h-10V35.4z"/>
				<path class="st1" d="M127.3,43v-7.5h2.3v18.7h-2.3v-9h-8.9v9h-2.3V35.4h2.3V43H127.3z"/>
				<path class="st1" d="M151.6,44.8c0,5.6-4.4,9.7-9.8,9.7s-9.8-4.2-9.8-9.7c0-5.4,4.4-9.7,9.8-9.7C147.1,35,151.6,39.4,151.6,44.8
					z M149.2,44.8c0-4.1-3.1-7.6-7.5-7.6c-4.4,0-7.5,3.4-7.5,7.6c0,4.3,3.4,7.6,7.5,7.6C145.8,52.3,149.2,49,149.2,44.8z"/>
				<path class="st1" d="M153.8,34.5l14,14.7V35.4h2.3v19.5l-14-14.7v13.9h-2.3V34.5z"/>
				<path class="st1" d="M190.8,44.7v0.7c0,5.1-3.6,9.1-8.8,9.1s-9.4-4.5-9.4-9.7c0-5.4,4.3-9.8,9.7-9.8c2.9,0,5.8,1.3,7.6,3.6
					l-1.6,1.6c-1.3-1.8-3.6-3-5.9-3c-4.2,0-7.5,3.4-7.5,7.6c0,3.9,3.2,7.6,7.3,7.6c2.9,0,6-2.5,6.1-5.5h-4.8v-2.1H190.8z"/>
				<path class="st1" d="M211,35.4h3l-8.4,8.4l8.5,10.3H211l-7-8.7l-0.9,0.9v7.8h-2.3V35.4h2.3v8.1L211,35.4z"/>
				<path class="st1" d="M234.1,44.8c0,5.6-4.4,9.7-9.8,9.7c-5.4,0-9.8-4.2-9.8-9.7c0-5.4,4.4-9.7,9.8-9.7
					C229.7,35,234.1,39.4,234.1,44.8z M231.8,44.8c0-4.1-3.1-7.6-7.5-7.6c-4.4,0-7.5,3.4-7.5,7.6c0,4.3,3.4,7.6,7.5,7.6
					C228.4,52.3,231.8,49,231.8,44.8z"/>
				<path class="st1" d="M236.4,34.5l14,14.7V35.4h2.3v19.5l-14-14.7v13.9h-2.3V34.5z"/>
				<path class="st1" d="M273.3,44.7v0.7c0,5.1-3.6,9.1-8.8,9.1c-5.2,0-9.4-4.5-9.4-9.7c0-5.4,4.3-9.8,9.7-9.8
					c2.9,0,5.8,1.3,7.6,3.6l-1.6,1.6c-1.3-1.8-3.6-3-5.9-3c-4.2,0-7.5,3.4-7.5,7.6c0,3.9,3.2,7.6,7.3,7.6c2.9,0,6-2.5,6.1-5.5h-4.8
					v-2.1H273.3z"/>
				<path class="st1" d="M285.3,35.4v11c0,3,0.9,5.9,4.5,5.9c3.6,0,4.5-2.8,4.5-5.9v-11h2.3v11.8c0,4.1-2.6,7.3-6.8,7.3
					c-4.3,0-6.8-3.1-6.8-7.3V35.4H285.3z"/>
				<path class="st1" d="M299.9,34.5l14,14.7V35.4h2.3v19.5l-14-14.7v13.9h-2.3V34.5z"/>
				<path class="st1" d="M322.1,54.1h-2.3V35.4h2.3V54.1z"/>
				<path class="st1" d="M332,49.2l5.5-13.8h2.6L332,55.1l-8.1-19.7h2.5L332,49.2z"/>
				<path class="st1" d="M341.9,35.4h10v2.1h-7.7v5.2h7.5v2.1h-7.5V52h7.7v2.1h-10V35.4z"/>
				<path class="st1" d="M366.7,54.1h-2.8l-5.5-7.9h-1v7.9h-2.3V35.4h2.8c1.7,0,3.4,0,4.9,0.9c1.6,0.9,2.5,2.7,2.5,4.5
					c0,2.7-1.8,4.9-4.5,5.2L366.7,54.1z M357.4,44.3h0.7c2.4,0,5-0.4,5-3.4c0-2.9-2.8-3.3-5.1-3.3h-0.6V44.3z"/>
				<path class="st1" d="M377.1,39c-0.7-1.2-1.6-1.8-3-1.8c-1.5,0-3.1,1-3.1,2.7c0,1.5,1.4,2.2,2.6,2.7l1.3,0.5
					c2.7,1,4.6,2.5,4.6,5.6c0,3.4-2.6,5.8-6,5.8c-3,0-5.4-2.2-5.8-5.2l2.4-0.5c0,2.1,1.6,3.5,3.6,3.5c2,0,3.4-1.7,3.4-3.6
					c0-2-1.6-2.9-3.2-3.5l-1.3-0.5c-2.1-0.9-4.1-2.1-4.1-4.7c0-3,2.7-4.8,5.5-4.8c2.1,0,3.8,1,4.8,2.8L377.1,39z"/>
				<path class="st1" d="M384.6,54.1h-2.3V35.4h2.3V54.1z"/>
				<path class="st1" d="M393.3,54.1H391V37.6h-4.4v-2.1h11.2v2.1h-4.4V54.1z"/>
				<path class="st1" d="M397.9,35.4h2.7l4.6,8l4.6-8h2.7L406.4,46v8.1H404V46L397.9,35.4z"/>
				<path class="st1" d="M440,44.8c0,5.6-4.4,9.7-9.8,9.7c-5.4,0-9.8-4.2-9.8-9.7c0-5.4,4.4-9.7,9.8-9.7C435.5,35,440,39.4,440,44.8
					z M437.6,44.8c0-4.1-3.1-7.6-7.5-7.6c-4.4,0-7.5,3.4-7.5,7.6c0,4.3,3.4,7.6,7.5,7.6C434.2,52.3,437.6,49,437.6,44.8z"/>
				<path class="st1" d="M444.8,37.6v5.3h6.5v2.1h-6.5v9.2h-2.3V35.4h9v2.1H444.8z"/>
			</g>
			<g>
				<path class="st1" d="M470.4,39c-0.7-1.2-1.6-1.8-3-1.8c-1.5,0-3.1,1-3.1,2.7c0,1.5,1.4,2.2,2.6,2.7l1.3,0.5
					c2.7,1,4.6,2.5,4.6,5.6c0,3.4-2.6,5.8-6,5.8c-3,0-5.4-2.2-5.8-5.2l2.4-0.5c0,2.1,1.6,3.5,3.6,3.5c2,0,3.4-1.7,3.4-3.6
					c0-2-1.6-2.9-3.2-3.5l-1.3-0.5c-2.1-0.9-4.1-2.1-4.1-4.7c0-3,2.7-4.8,5.5-4.8c2.1,0,3.8,1,4.8,2.8L470.4,39z"/>
				<path class="st1" d="M489.3,39c-1.3-1.2-3.2-1.8-4.9-1.8c-4.2,0-7.4,3.5-7.4,7.6c0,4.1,3.2,7.6,7.3,7.6c1.8,0,3.6-0.7,5-1.9v2.8
					c-1.4,0.8-3.3,1.3-4.9,1.3c-5.3,0-9.7-4.2-9.7-9.6c0-5.5,4.4-9.8,9.9-9.8c1.6,0,3.3,0.4,4.7,1.3V39z"/>
				<path class="st1" d="M494.6,54.1h-2.3V35.4h2.3V54.1z"/>
				<path class="st1" d="M498.3,35.4h10v2.1h-7.7v5.2h7.5v2.1h-7.5V52h7.7v2.1h-10V35.4z"/>
				<path class="st1" d="M511.2,34.5l14,14.7V35.4h2.3v19.5l-14-14.7v13.9h-2.3V34.5z"/>
				<path class="st1" d="M544.8,39c-1.3-1.2-3.2-1.8-4.9-1.8c-4.2,0-7.4,3.5-7.4,7.6c0,4.1,3.2,7.6,7.3,7.6c1.8,0,3.6-0.7,5-1.9v2.8
					c-1.4,0.8-3.3,1.3-4.9,1.3c-5.3,0-9.7-4.2-9.7-9.6c0-5.5,4.4-9.8,9.9-9.8c1.6,0,3.3,0.4,4.7,1.3V39z"/>
				<path class="st1" d="M547.8,35.4h10v2.1h-7.7v5.2h7.5v2.1h-7.5V52h7.7v2.1h-10V35.4z"/>
			</g>
		</g>
		<g>
			<g>
				<g>
					<path class="st1" d="M86.1,14v11h-2.4v-1.2H71.2V25h-2.4V14.1c-0.4,0.2-1.1,0.4-2.2,0.8l-1.2-2.3c3.1-0.7,5.8-2.1,8.1-4h-7.8
						V6.5h10.4V4.5c-3.8,0.1-6.5,0.2-8.2,0.2l-0.8-2.3c1,0,2.2,0.1,3.6,0.1c6.8,0,11.9-0.4,15.3-1.2l1.1,2.1
						c-2.3,0.5-5.2,0.9-8.6,1.1v2.1h10.7v2.1h-8.2c1.9,1.9,4.7,3.2,8.4,3.9l-1.1,2.3c-0.3-0.2-0.7-0.3-1.1-0.4
						C86.8,14.3,86.4,14.2,86.1,14z M70.3,13.4h5.8V8.7C74.7,10.8,72.7,12.4,70.3,13.4z M83.7,15.5H71.2v1.9h12.5V15.5z M71.2,21.7
						h12.5v-2.2H71.2V21.7z M78.5,8.7v4.7h6.3C82.2,12.4,80.1,10.8,78.5,8.7z"/>
					<path class="st1" d="M103.4,17.1c-0.7,2.7-1.8,5.3-3.2,7.6l-2-2.1c1.5-2.1,2.5-4.4,3.1-6.8L103.4,17.1z M101.8,13
						c-1.4-1.2-2.6-2.1-3.6-2.7l1.5-1.9c1.2,0.6,2.5,1.5,3.8,2.5L101.8,13z M104.3,3.9h3.4V1.3h2.3v2.6h4.6V1.3h2.3v2.6h4.2v2H117
						v2.6h4.6v2.1h-4.9c0.7,1.4,2.4,2.7,5.1,4.1l-1.1,2.3c-1.6-0.9-2.8-1.9-3.9-2.8v5.2h-8.2v1.6c0,0.6,0.3,0.9,0.9,0.9h7.5
						c0.7,0,1.1-0.3,1.3-0.8c0.1-0.5,0.3-1.5,0.4-2.8l2.4,0.9c-0.3,2.4-0.6,3.8-1.1,4.2c-0.4,0.5-1.3,0.7-2.6,0.7h-8.2
						c-1.1,0-1.8-0.2-2.3-0.6c-0.4-0.4-0.6-1.2-0.6-2.4v-5.7c-0.4,0.4-1.2,0.9-2.3,1.6l-1.4-2.1c2.8-1.3,4.6-2.7,5.3-4.3h-4.1V8.6
						h3.9V6h-3.4V4.7l-1.6,1.9c-1.4-1.3-2.7-2.3-3.8-3l1.7-1.9c1.4,0.9,2.7,1.8,3.7,2.5V3.9z M108.7,15v2.5h5.8V15H108.7z
						 M110.6,10.7c-0.4,0.9-0.9,1.6-1.5,2.3h6.5c-0.6-0.6-1.1-1.4-1.6-2.3H110.6z M110,6.1v2.5h4.6V6.1H110z"/>
					<path class="st1" d="M135.5,4.7c-0.9,0.2-2.2,0.3-3.9,0.4L131,3c3.8-0.2,7.1-0.8,9.8-1.8l0.9,2.1c-1.2,0.4-2.5,0.8-3.8,1v3.6
						h3.9v2.2h-3.9v0.2c1.9,1.8,3.3,3.2,4.3,4.2l-1.4,2.2c-0.5-0.7-1-1.4-1.5-1.9c-0.4-0.5-0.9-1.1-1.3-1.7v11.8l-2.3,0.1V14.5
						c-0.6,1.6-1.8,3.5-3.5,5.7l-1.4-2.3c2.1-2.4,3.7-5,4.8-7.9h-4.7V7.9h4.7V4.7z M141.3,19.3v-2.4l8.5-1.3V1h2.4v14.3l2.3-0.4v2.3
						l-2.3,0.4V25h-2.4v-7L141.3,19.3z M146.9,14.1c-1.7-1.5-3.3-2.6-4.6-3.4l1.5-1.7c1.3,0.7,2.8,1.7,4.7,3.1L146.9,14.1z M147.3,8
						c-1.9-1.5-3.4-2.6-4.6-3.3l1.5-1.7c1.1,0.6,2.7,1.6,4.7,3.1L147.3,8z"/>
					<path class="st1" d="M172.6,8.6h-3v4.5c1.4-0.4,2.3-0.8,3-1.1v2.5c-0.5,0.3-1.5,0.7-3,1.2v6.2c0,1.2-0.2,2-0.5,2.4
						c-0.4,0.4-1.2,0.6-2.4,0.6h-2l-0.6-2.6l2.2,0.1c0.6,0,0.8-0.3,0.8-0.8v-5.2c-1.4,0.4-2.6,0.7-3.4,0.9l-0.6-2.7
						c1.5-0.2,2.8-0.4,4-0.8V8.6h-3.8V6.2h3.8V1h2.5v5.2h3V4.6h5.5V1h2.5v3.6h6v2.3h-6v3.4h5.1v2.1c-0.2,0.9-0.8,2.1-1.7,3.6
						c-0.9,1.5-1.8,2.6-2.8,3.5c1.7,1.4,3.6,2.4,5.7,3l-1.3,2.4c-2.2-0.7-4.3-2-6.3-3.8c-2.7,2-5.2,3.3-7.7,3.8l-1.4-2.3
						c2.4-0.5,4.9-1.6,7.3-3.3c-1.3-1.3-2.6-3.1-3.8-5.4l2.1-0.8c1.2,2.1,2.3,3.7,3.5,4.9c1.7-1.4,3-3.1,3.7-5.3h-10.1v-2.3h5V6.9
						h-5.5L172.6,8.6z"/>
					<path class="st1" d="M210.9,10.1c0.4,2.1,1.3,4.2,2.7,6.5c1.4,2.3,3.4,4.2,5.9,5.9l-2,2.3c-4.6-3-7.7-7.9-9.4-14.7h-0.4
						c-1.1,6.1-4.6,11-10.2,14.8l-1.9-2.4c2.4-1.4,4.5-3.2,6.2-5.4c1.7-2.2,2.8-4.5,3.2-6.9h-8.8V7.5h9.2c0.2-1.5,0.3-3.7,0.3-6.4
						h2.7c0,2.9-0.1,5-0.2,6.4H219v2.7L210.9,10.1z"/>
					<path class="st1" d="M247.2,14.9v1.9c-1.5,0.8-3.3,1.5-5.5,2.2h10.5V21h-10.5v1c0,1.8-0.8,2.7-2.3,2.7h-3.7l-0.6-2.1l3.5,0.1
						c0.5,0,0.8-0.3,0.8-0.8v-1h-11v-2.1h11v-1.1c1.2-0.2,2.7-0.6,4.4-1.1H233v-1.9H247.2z M249.4,13.8H231v3.7h-2.3v-5.7h1.3
						L229.8,2c2.2-0.1,4.1-0.3,5.6-0.7l1.1,1.9c-0.9,0.3-2.5,0.6-4.5,0.7l0.1,1.3h4v1.7h-3.9l0,1.4h3.9v1.8h-3.8l0.1,1.7h15.9l0-1.7
						h-3.6V8.3h3.6l0.1-1.4h-3.7V5.1h3.7l0-1.4h-4v-2h6.3l-0.3,10h1.3v5.7h-2.3V13.8z M240.6,4.6c-0.8,0.5-1.8,1.1-3,1.6l-1.3-1.7
						c1.4-0.4,2.4-0.7,2.8-1c-0.4-0.3-1-0.7-1.7-1.2l1.4-1.2c0.7,0.4,1.3,0.9,2,1.4c0.7-0.5,1.2-0.9,1.6-1.4l1.3,1.1
						c-0.4,0.5-0.9,1-1.5,1.4c0.3,0.3,0.8,0.8,1.3,1.3l-1.6,1.1C241.2,5.1,240.8,4.6,240.6,4.6z M240.7,9.8c-0.8,0.5-1.8,1-3,1.4
						l-1.1-1.7c1.2-0.3,2-0.6,2.6-0.9c-0.3-0.3-0.9-0.7-1.7-1.2l1.3-1.1c0.3,0.2,0.6,0.4,0.9,0.6c0.3,0.2,0.7,0.5,1.1,0.8
						c0.5-0.3,1.1-0.8,1.8-1.6l1.3,1.1c-0.6,0.6-1.2,1.1-1.7,1.5c0.5,0.4,1,0.9,1.4,1.3l-1.6,1.2C241.3,10.3,240.9,9.8,240.7,9.8z"
						/>
				</g>
			</g>
			<g>
				<g>
					<g>
						<path class="st1" d="M270.2,0.7c-1.1,2.1-1.9,3.9-2.4,5.2c-0.8,2.3-1.2,4.7-1.2,7.1c0,4,1.2,8.1,3.5,12.3h-1.9
							c-1.3-1.7-2.4-3.7-3.2-5.9c-0.8-2.2-1.2-4.4-1.2-6.5c0-2.9,0.7-5.8,2.2-8.7c0.8-1.5,1.5-2.7,2.2-3.6H270.2z"/>
						<path class="st1" d="M280.4,4.1v4.7c0,7.2-0.8,12.6-2.5,15.9l-1.8-2c1.3-3.1,2-7.9,2-14.4V2.2h10.7c-0.1-0.2-0.3-0.7-0.7-1.5
							l2.4-0.3c0.3,0.4,0.6,1.1,0.9,1.8h8.9v1.9H280.4z M287.5,21.3l1.4,1.6c-1.8,0.9-4.4,1.6-7.6,2l-1.1-2
							C283.4,22.7,285.8,22.2,287.5,21.3z M292.9,21.3h-10.4v-8.5h7v-1.2h-8.3V9.9h18.9v1.7h-8.4v1.2h7v8.5H292.9
							c3.3,0.8,5.6,1.4,7,1.7l-1.2,1.9c-1-0.3-2.1-0.6-3.2-1c-1.3-0.4-2.5-0.7-3.7-1.1L292.9,21.3z M289.5,16.3v-1.7h-4.8v1.7H289.5
							z M289.5,19.6v-1.8h-4.8v1.8H289.5z M296.5,16.3v-1.7h-4.8v1.7H296.5z M296.5,19.6v-1.8h-4.8v1.8H296.5z"/>
						<path class="st1" d="M312.7,7c-0.2,2.6-0.7,5.2-1.5,7.9l-2.4-1c0.9-2.1,1.5-4.6,1.6-7.5L312.7,7z M311.3,24.5l-2.2-2.1
							c1.6-1.1,2.8-2.5,3.6-4.2c0.8-1.7,1.3-4.4,1.3-8V1.1h2.5V12C316.5,17.4,314.8,21.5,311.3,24.5z M318.7,14.9
							c-0.5-3.3-1.2-5.7-2-7.4l2.3-0.9c0.9,2.5,1.7,5,2.2,7.6L318.7,14.9z M321.7,1.3h2.5v22.9h-2.5V1.3z M326.9,14.7
							c-0.3-2.3-1-4.7-2.2-7.4l2.2-0.9c1.1,2.7,2,5.2,2.6,7.5L326.9,14.7z M329.8,0.8h2.6V25h-2.6V0.8z"/>
						<path class="st1" d="M345.8,13.1c0,2.9-0.7,5.8-2.2,8.7c-0.7,1.4-1.5,2.6-2.2,3.6h-1.9c1.1-2.1,1.9-3.9,2.4-5.2
							c0.8-2.3,1.2-4.7,1.2-7.1c0-4-1.2-8.1-3.5-12.3h1.9c1.3,1.7,2.3,3.7,3.2,5.9C345.4,8.9,345.8,11,345.8,13.1z"/>
					</g>
					<path class="st1" d="M287.7,10.7V8.3h5.9v2.4l2.3,0V8.3h3.3V6.5h-3.3V4.8h-2.3v1.7h-5.9V4.8h-2.3v1.7h-3.6v1.8h3.6v2.4
						L287.7,10.7z"/>
				</g>
			</g>
		</g>
	</g>
</g>
</svg>
