<svg width="573" height="116" xmlns="http://www.w3.org/2000/svg" xmlns:xlink="http://www.w3.org/1999/xlink" xml:space="preserve" overflow="hidden"><g transform="translate(-352 -300)"><g><g><g><g><path d="M42.3899 84.0914 32.653 67.7649C32.653 67.7649 32.358 67.3714 32.358 66.7813L32.358 66.3879 32.358 65.6011 32.358 36.5871 28.5222 36.5871 28.5222 66.8797 28.5222 67.7649C28.8173 68.0599 35.0135 78.5836 35.0135 78.5836L19.7688 78.5836C19.7688 78.5836 25.9651 68.0599 26.2601 67.7649L26.2601 66.8797 26.2601 36.5871 22.5227 36.5871 22.5227 65.6011 22.5227 66.3879 22.5227 66.7813C22.5227 67.3714 22.2277 67.7649 22.2277 67.7649L12.4908 84.0914 42.3899 84.0914Z" fill="#996600" fill-rule="nonzero" fill-opacity="1" transform="matrix(1.01359 0 0 1 361.65 317.543)"/><path d="M39.341 15.4413C39.341 15.4413 41.2097 7.8682 34.6201 2.85222 34.6201 2.85222 31.9646 0.491762 27.0469 0.491762 22.6211 0.491762 19.9655 2.85222 19.9655 2.85222 13.9661 7.08138 15.5397 15.4413 15.5397 15.4413L39.341 15.4413Z" fill="#996600" fill-rule="nonzero" fill-opacity="1" transform="matrix(1.01359 0 0 1 361.65 317.543)"/><path d="M16.1298 17.5067 38.6525 17.5067C38.8492 17.1133 38.9476 16.6216 39.1443 16.2282L15.7364 16.2282C15.8347 16.6216 15.9331 17.1133 16.1298 17.5067Z" fill="#996600" fill-rule="nonzero" fill-opacity="1" transform="matrix(1.01359 0 0 1 361.65 317.543)"/><path d="M38.2591 18.2936 16.5232 18.2936C16.7199 18.7853 17.015 19.1787 17.31 19.5721L37.5706 19.5721C37.7673 19.1787 38.0624 18.7853 38.2591 18.2936Z" fill="#996600" fill-rule="nonzero" fill-opacity="1" transform="matrix(1.01359 0 0 1 361.65 317.543)"/><path d="M18.687 21.4408 35.997 21.4408C36.2921 21.1458 36.5871 20.7524 36.8822 20.359L17.8018 20.359C18.0969 20.7524 18.3919 21.1458 18.687 21.4408Z" fill="#996600" fill-rule="nonzero" fill-opacity="1" transform="matrix(1.01359 0 0 1 361.65 317.543)"/><path d="M20.5557 23.0145 34.1283 23.0145C34.5217 22.8178 34.8168 22.5227 35.1118 22.2277L19.5721 22.2277C19.8672 22.5227 20.2606 22.8178 20.5557 23.0145Z" fill="#996600" fill-rule="nonzero" fill-opacity="1" transform="matrix(1.01359 0 0 1 361.65 317.543)"/><path d="M22.4244 24.0964C23.8996 24.7848 25.5716 25.1782 27.342 25.1782 29.1123 25.1782 30.7843 24.7848 32.2596 24.0964L22.4244 24.0964Z" fill="#996600" fill-rule="nonzero" fill-opacity="1" transform="matrix(1.01359 0 0 1 361.65 317.543)"/><path d="M50.6515 25.67 32.2596 25.67C32.2596 25.67 30.5876 25.67 29.2107 26.5552 28.1288 27.2436 27.4403 28.9156 27.342 29.014 27.342 28.9156 26.5552 27.2436 25.4733 26.5552 24.0964 25.67 22.4244 25.67 22.4244 25.67L4.1308 25.67 0.491762 31.5711 17.31 31.5711C17.31 31.5711 17.8018 31.5711 18.0969 31.6695 18.5886 31.7678 19.4738 32.0629 20.359 32.653 21.6375 33.5382 21.9326 34.03 22.2277 34.325 22.4244 34.5217 22.8178 35.0135 22.8178 35.0135L26.9486 35.0135 27.4403 35.0135 28.8173 35.0135 31.9646 35.0135C31.9646 35.0135 32.358 34.5217 32.5547 34.325 32.8497 34.03 33.2431 33.5382 34.4234 32.653 35.3085 31.9646 36.1937 31.7678 36.6855 31.6695 36.9805 31.5711 37.4723 31.5711 37.4723 31.5711L54.2906 31.5711 50.6515 25.67Z" fill="#003366" fill-rule="nonzero" fill-opacity="1" transform="matrix(1.01359 0 0 1 361.65 317.543)"/><path d="M2.26211 33.3415 2.26211 60.9785C2.26211 60.9785 2.26211 61.2736 2.26211 61.3719 2.26211 61.667 2.26211 61.9621 2.26211 62.1588 2.55716 65.1093 3.44234 67.2731 5.21268 70.1253 7.8682 74.6495 12.7858 77.7968 12.7858 77.7968L15.0479 74.1578C15.0479 74.1578 11.9006 72.4858 9.44184 68.65 8.95008 67.8632 8.45831 67.1747 8.0649 66.4863 7.76985 65.7978 7.47479 65.306 7.27808 64.7159 7.17973 64.3225 6.98303 63.9291 6.88467 63.5357 6.98303 63.0439 6.88467 62.6505 6.88467 62.1588 6.88467 61.9621 6.88467 61.2736 6.88467 61.2736L6.88467 61.1752 6.88467 33.3415 2.26211 33.3415Z" fill="#003366" fill-rule="nonzero" fill-opacity="1" transform="matrix(1.01359 0 0 1 361.65 317.543)"/><path d="M9.24513 33.3415 9.24513 61.1752C9.24513 61.1752 9.24513 61.2736 9.24513 61.3719 9.24513 61.4703 9.24513 61.667 9.24513 61.8637 9.24513 61.9621 9.24513 62.0604 9.24513 62.1588 9.34348 62.5522 9.44184 62.9456 9.63854 63.5357 9.9336 64.5192 10.5237 65.6011 11.3105 66.8797 13.3759 70.2237 16.3265 71.699 16.3265 71.699L18.5886 68.0599C18.5886 68.0599 17.8018 67.6665 16.9166 66.7813 16.3265 66.1912 15.5397 65.4044 14.9496 64.5192 14.3595 63.5357 13.9661 62.6505 13.7693 61.8637 13.5726 61.2736 13.5726 60.7818 13.5726 60.4868 13.5726 60.1917 13.5726 60.0934 13.5726 60.0934L13.5726 33.3415 9.24513 33.3415Z" fill="#003366" fill-rule="nonzero" fill-opacity="1" transform="matrix(1.01359 0 0 1 361.65 317.543)"/><path d="M52.5202 33.3415 52.5202 60.9785C52.5202 60.9785 52.5202 61.2736 52.5202 61.3719 52.5202 61.667 52.5202 61.9621 52.5202 62.1588 52.2252 65.1093 51.34 67.2731 49.5696 70.1253 46.9141 74.6495 41.9965 77.7968 41.9965 77.7968L39.7344 74.1578C39.7344 74.1578 42.8817 72.4858 45.3405 68.65 45.8322 67.8632 46.324 67.1747 46.7174 66.4863 47.0125 65.7978 47.3075 65.306 47.5042 64.7159 47.6026 64.3225 47.7993 63.9291 47.8977 63.5357 47.996 63.0439 48.0944 62.6505 48.0944 62.1588 48.0944 61.9621 48.0944 61.2736 48.0944 61.2736L48.0944 61.1752 48.0944 33.3415 52.5202 33.3415Z" fill="#003366" fill-rule="nonzero" fill-opacity="1" transform="matrix(1.01359 0 0 1 361.65 317.543)"/><path d="M45.5372 33.3415 45.5372 61.1752C45.5372 61.1752 45.5372 61.2736 45.5372 61.3719 45.5372 61.4703 45.5372 61.667 45.5372 61.8637 45.5372 61.9621 45.5372 62.0604 45.5372 62.1588 45.4388 62.5522 45.3405 62.9456 45.1438 63.5357 44.8487 64.5192 44.2586 65.6011 43.4718 66.8797 41.4064 70.2237 38.4558 71.699 38.4558 71.699L36.1937 68.0599C36.1937 68.0599 36.9805 67.6665 37.8657 66.7813 38.4558 66.1912 39.2426 65.4044 39.8327 64.5192 40.4229 63.5357 40.8163 62.6505 41.013 61.8637 41.2097 61.2736 41.2097 60.7818 41.2097 60.4868 41.2097 60.1917 41.2097 60.0934 41.2097 60.0934L41.2097 33.3415 45.5372 33.3415Z" fill="#003366" fill-rule="nonzero" fill-opacity="1" transform="matrix(1.01359 0 0 1 361.65 317.543)"/><path d="M68.9451 77.7968 66.8797 82.4194 64.4209 82.4194 73.1742 63.2406 81.9276 82.4194 79.4688 82.4194 77.4034 77.7968 68.9451 77.7968ZM73.1742 68.355 69.9286 75.7314 76.4199 75.7314 73.1742 68.355Z" fill="#003366" fill-rule="nonzero" fill-opacity="1" transform="matrix(1.01359 0 0 1 361.65 317.543)"/><path d="M83.5012 63.2406 97.2706 77.6984 97.2706 64.0275 99.5327 64.0275 99.5327 83.2062 85.7634 68.7484 85.7634 82.4194 83.5012 82.4194 83.5012 63.2406Z" fill="#003366" fill-rule="nonzero" fill-opacity="1" transform="matrix(1.01359 0 0 1 361.65 317.543)"/><path d="M102.877 64.0275 106.712 64.0275C112.319 64.0275 117.039 66.978 117.039 73.0759 117.039 79.3704 112.417 82.321 106.614 82.321L102.877 82.321 102.877 64.0275ZM105.237 80.354 106.024 80.354C110.745 80.354 114.777 78.5836 114.777 73.2726 114.777 67.8632 110.745 66.1912 106.024 66.1912L105.237 66.1912 105.237 80.354Z" fill="#003366" fill-rule="nonzero" fill-opacity="1" transform="matrix(1.01359 0 0 1 361.65 317.543)"/><path d="M131.792 82.4194 129.53 82.4194 129.53 66.1912 125.203 66.1912 125.203 64.1258 136.218 64.1258 136.218 66.1912 131.792 66.1912 131.792 82.4194Z" fill="#003366" fill-rule="nonzero" fill-opacity="1" transform="matrix(1.01359 0 0 1 361.65 317.543)"/><path d="M138.185 64.0275 148.02 64.0275 148.02 66.0929 140.447 66.0929 140.447 71.2072 147.824 71.2072 147.824 73.2726 140.447 73.2726 140.447 80.2556 148.02 80.2556 148.02 82.321 138.185 82.321 138.185 64.0275Z" fill="#003366" fill-rule="nonzero" fill-opacity="1" transform="matrix(1.01359 0 0 1 361.65 317.543)"/><path d="M164.544 67.5681C163.265 66.3879 161.396 65.7978 159.724 65.7978 155.594 65.7978 152.446 69.2401 152.446 73.2726 152.446 77.305 155.594 80.7474 159.626 80.7474 161.396 80.7474 163.167 80.0589 164.544 78.8787L164.544 81.6325C163.167 82.4194 161.298 82.9111 159.724 82.9111 154.512 82.9111 150.184 78.7803 150.184 73.4693 150.184 68.0599 154.512 63.8308 159.921 63.8308 161.495 63.8308 163.167 64.2242 164.544 65.1093L164.544 67.5681Z" fill="#003366" fill-rule="nonzero" fill-opacity="1" transform="matrix(1.01359 0 0 1 361.65 317.543)"/><path d="M178.313 71.5022 178.313 64.1258 180.575 64.1258 180.575 82.5177 178.313 82.5177 178.313 73.666 169.56 73.666 169.56 82.5177 167.298 82.5177 167.298 64.0275 169.56 64.0275 169.56 71.4039 178.313 71.4039Z" fill="#003366" fill-rule="nonzero" fill-opacity="1" transform="matrix(1.01359 0 0 1 361.65 317.543)"/><path d="M184.017 63.2406 197.787 77.6984 197.787 64.0275 200.049 64.0275 200.049 83.2062 186.28 68.7484 186.28 82.4194 184.017 82.4194 184.017 63.2406Z" fill="#003366" fill-rule="nonzero" fill-opacity="1" transform="matrix(1.01359 0 0 1 361.65 317.543)"/><path d="M221.49 73.2726C221.49 78.7803 217.162 82.8128 211.851 82.8128 206.54 82.8128 202.213 78.682 202.213 73.2726 202.213 67.9616 206.54 63.7324 211.851 63.7324 217.162 63.634 221.49 67.9616 221.49 73.2726ZM219.228 73.2726C219.228 69.2401 216.179 65.7978 211.851 65.7978 207.524 65.7978 204.475 69.1418 204.475 73.2726 204.475 77.5017 207.819 80.7474 211.851 80.7474 215.884 80.649 219.228 77.4034 219.228 73.2726Z" fill="#003366" fill-rule="nonzero" fill-opacity="1" transform="matrix(1.01359 0 0 1 361.65 317.543)"/><path d="M226.309 80.354 231.915 80.354 231.915 82.4194 224.047 82.4194 224.047 64.0275 226.309 64.0275 226.309 80.354Z" fill="#003366" fill-rule="nonzero" fill-opacity="1" transform="matrix(1.01359 0 0 1 361.65 317.543)"/><path d="M251.586 73.2726C251.586 78.7803 247.258 82.8128 241.947 82.8128 236.636 82.8128 232.309 78.682 232.309 73.2726 232.309 67.9616 236.636 63.7324 241.947 63.7324 247.16 63.634 251.586 67.9616 251.586 73.2726ZM249.324 73.2726C249.324 69.2401 246.275 65.7978 241.947 65.7978 237.62 65.7978 234.571 69.1418 234.571 73.2726 234.571 77.5017 237.915 80.7474 241.947 80.7474 245.881 80.649 249.324 77.4034 249.324 73.2726Z" fill="#003366" fill-rule="nonzero" fill-opacity="1" transform="matrix(1.01359 0 0 1 361.65 317.543)"/><path d="M270.764 73.1742 270.764 73.8627C270.764 78.8787 267.224 82.8128 262.109 82.8128 256.995 82.8128 252.864 78.3869 252.864 73.2726 252.864 67.9616 257.093 63.634 262.404 63.634 265.257 63.634 268.109 64.9126 269.879 67.1747L268.306 68.7484C267.027 66.978 264.765 65.7978 262.503 65.7978 258.372 65.7978 255.126 69.1418 255.126 73.2726 255.126 77.1083 258.274 80.7474 262.306 80.7474 265.158 80.7474 268.207 78.2886 268.306 75.338L263.585 75.338 263.585 73.2726 270.764 73.2726Z" fill="#003366" fill-rule="nonzero" fill-opacity="1" transform="matrix(1.01359 0 0 1 361.65 317.543)"/><path d="M271.354 64.0275 274.01 64.0275 278.534 71.8957 283.058 64.0275 285.714 64.0275 279.714 74.4528 279.714 82.4194 277.354 82.4194 277.354 74.4528 271.354 64.0275Z" fill="#003366" fill-rule="nonzero" fill-opacity="1" transform="matrix(1.01359 0 0 1 361.65 317.543)"/><path d="M319.744 73.1742 319.744 73.8627C319.744 78.8787 316.203 82.8128 310.991 82.8128 305.876 82.8128 301.647 78.3869 301.647 73.2726 301.647 67.9616 305.876 63.634 311.187 63.634 314.039 63.634 316.892 64.9126 318.662 67.1747L317.088 68.7484C315.81 66.978 313.548 65.6995 311.286 65.6995 307.155 65.6995 303.909 69.0434 303.909 73.1742 303.909 77.01 307.056 80.7474 311.089 80.7474 313.941 80.7474 316.99 78.2886 317.088 75.2396L312.367 75.2396 312.367 73.1742 319.744 73.1742Z" fill="#003366" fill-rule="nonzero" fill-opacity="1" transform="matrix(1.01359 0 0 1 361.65 317.543)"/><path d="M324.17 64.0275 324.17 74.9446C324.17 77.9935 325.055 80.7474 328.596 80.7474 332.136 80.7474 333.021 77.9935 333.021 74.9446L333.021 64.0275 335.284 64.0275 335.284 75.7314C335.284 79.7638 332.726 82.9111 328.497 82.9111 324.268 82.9111 321.711 79.7638 321.711 75.7314L321.711 64.0275 324.17 64.0275Z" fill="#003366" fill-rule="nonzero" fill-opacity="1" transform="matrix(1.01359 0 0 1 361.65 317.543)"/><path d="M341.381 77.7968 339.316 82.4194 336.857 82.4194 345.611 63.2406 354.364 82.4194 351.905 82.4194 349.84 77.7968 341.381 77.7968ZM345.611 68.2566 342.365 75.7314 348.955 75.7314 345.611 68.2566Z" fill="#003366" fill-rule="nonzero" fill-opacity="1" transform="matrix(1.01359 0 0 1 361.65 317.543)"/><path d="M356.036 63.1423 369.805 77.6001 369.805 64.0275 372.067 64.0275 372.067 83.2062 358.2 68.7484 358.2 82.5177 356.036 82.5177 356.036 63.1423Z" fill="#003366" fill-rule="nonzero" fill-opacity="1" transform="matrix(1.01359 0 0 1 361.65 317.543)"/><path d="M392.426 73.1742 392.426 73.8627C392.426 78.8787 388.886 82.8128 383.673 82.8128 378.559 82.8128 374.329 78.3869 374.329 73.2726 374.329 67.9616 378.559 63.634 383.87 63.634 386.722 63.634 389.574 64.9126 391.344 67.1747L389.771 68.7484C388.492 66.978 386.23 65.6995 383.968 65.6995 379.837 65.6995 376.592 69.0434 376.592 73.1742 376.592 77.01 379.739 80.7474 383.771 80.7474 386.624 80.7474 389.672 78.2886 389.771 75.2396L385.05 75.2396 385.05 73.1742 392.426 73.1742Z" fill="#003366" fill-rule="nonzero" fill-opacity="1" transform="matrix(1.01359 0 0 1 361.65 317.543)"/><path d="M406.491 80.354 406.491 82.4194 393.41 82.4194 402.753 66.0929 394.688 66.0929 394.688 64.0275 406.491 64.0275 397.147 80.354 406.491 80.354Z" fill="#003366" fill-rule="nonzero" fill-opacity="1" transform="matrix(1.01359 0 0 1 361.65 317.543)"/><path d="M419.572 71.4039 419.572 63.9291 421.834 63.9291 421.834 82.321 419.572 82.321 419.572 73.4693 410.818 73.4693 410.818 82.321 408.556 82.321 408.556 64.0275 410.818 64.0275 410.818 71.5022 419.572 71.5022Z" fill="#003366" fill-rule="nonzero" fill-opacity="1" transform="matrix(1.01359 0 0 1 361.65 317.543)"/><path d="M443.373 73.2726C443.373 78.7803 439.045 82.9111 433.734 82.9111 428.423 82.9111 424.096 78.7803 424.096 73.2726 424.096 67.9616 428.423 63.634 433.734 63.634 439.045 63.634 443.373 67.9616 443.373 73.2726ZM441.111 73.2726C441.111 69.2401 438.062 65.7978 433.734 65.7978 429.407 65.7978 426.358 69.2401 426.358 73.2726 426.358 77.5017 429.702 80.7474 433.734 80.7474 437.767 80.649 441.111 77.4034 441.111 73.2726Z" fill="#003366" fill-rule="nonzero" fill-opacity="1" transform="matrix(1.01359 0 0 1 361.65 317.543)"/><path d="M447.799 64.0275 447.799 74.9446C447.799 77.9935 448.684 80.7474 452.225 80.7474 455.765 80.7474 456.65 77.9935 456.65 74.9446L456.65 64.0275 458.913 64.0275 458.913 75.7314C458.913 79.7638 456.355 82.9111 452.126 82.9111 447.897 82.9111 445.34 79.7638 445.34 75.7314L445.34 64.0275 447.799 64.0275Z" fill="#003366" fill-rule="nonzero" fill-opacity="1" transform="matrix(1.01359 0 0 1 361.65 317.543)"/><path d="M298.696 62.3555C297.713 64.2242 297.024 65.7978 296.533 66.978 295.844 68.9451 295.549 71.1088 295.549 73.2726 295.549 76.7149 296.631 80.354 298.696 84.0914L297.024 84.0914C295.844 82.5177 294.959 80.8457 294.172 78.8787 293.484 76.9116 293.09 75.0429 293.09 73.1742 293.09 70.6171 293.779 68.0599 295.057 65.5027 295.746 64.1258 296.434 63.1423 297.024 62.3555L298.696 62.3555Z" fill="#003366" fill-rule="nonzero" fill-opacity="1" transform="matrix(1.01359 0 0 1 361.65 317.543)"/><path d="M468.846 73.2726C468.846 75.8298 468.158 78.3869 466.879 80.9441 466.191 82.2227 465.601 83.2062 464.912 84.0914L463.24 84.0914C464.224 82.2227 464.912 80.649 465.404 79.4688 466.092 77.5017 466.387 75.338 466.387 73.1742 466.387 69.7319 465.306 66.0929 463.24 62.3555L464.912 62.3555C466.092 63.8308 466.978 65.6011 467.764 67.5681 468.453 69.5352 468.846 71.4039 468.846 73.2726Z" fill="#003366" fill-rule="nonzero" fill-opacity="1" transform="matrix(1.01359 0 0 1 361.65 317.543)"/><path d="M71.1088 53.2087 68.8467 53.2087 68.8467 36.9805 64.5192 36.9805 64.5192 34.9151 75.5347 34.9151 75.5347 36.9805 71.2072 36.9805 71.2072 53.2087Z" fill="#003366" fill-rule="nonzero" fill-opacity="1" transform="matrix(1.01359 0 0 1 361.65 317.543)"/><path d="M88.3205 42.2916 88.3205 34.9151 90.5826 34.9151 90.5826 53.307 88.3205 53.307 88.3205 44.4553 79.5671 44.4553 79.5671 53.307 77.305 53.307 77.305 34.8168 79.5671 34.8168 79.5671 42.2916 88.3205 42.2916Z" fill="#003366" fill-rule="nonzero" fill-opacity="1" transform="matrix(1.01359 0 0 1 361.65 317.543)"/><path d="M94.2217 34.8168 104.057 34.8168 104.057 36.8822 96.4838 36.8822 96.4838 41.9965 103.86 41.9965 103.86 44.0619 96.4838 44.0619 96.4838 51.1433 104.057 51.1433 104.057 53.2087 94.2217 53.2087 94.2217 34.8168Z" fill="#003366" fill-rule="nonzero" fill-opacity="1" transform="matrix(1.01359 0 0 1 361.65 317.543)"/><path d="M125.203 42.2916 125.203 34.9151 127.465 34.9151 127.465 53.307 125.203 53.307 125.203 44.4553 116.449 44.4553 116.449 53.307 114.187 53.307 114.187 34.8168 116.449 34.8168 116.449 42.2916 125.203 42.2916Z" fill="#003366" fill-rule="nonzero" fill-opacity="1" transform="matrix(1.01359 0 0 1 361.65 317.543)"/><path d="M149.102 44.0619C149.102 49.5696 144.775 53.6021 139.464 53.6021 134.153 53.6021 129.825 49.4713 129.825 44.0619 129.825 38.7509 134.153 34.5217 139.464 34.5217 144.676 34.4234 149.102 38.7509 149.102 44.0619ZM146.742 44.0619C146.742 40.0295 143.693 36.5871 139.365 36.5871 135.038 36.5871 131.989 39.9311 131.989 44.0619 131.989 48.2911 135.333 51.5367 139.365 51.5367 143.398 51.4383 146.742 48.1927 146.742 44.0619Z" fill="#003366" fill-rule="nonzero" fill-opacity="1" transform="matrix(1.01359 0 0 1 361.65 317.543)"/><path d="M151.266 33.9316 165.035 48.3894 165.035 34.8168 167.298 34.8168 167.298 53.9955 153.528 39.5377 153.528 53.2087 151.266 53.2087 151.266 33.9316Z" fill="#003366" fill-rule="nonzero" fill-opacity="1" transform="matrix(1.01359 0 0 1 361.65 317.543)"/><path d="M187.657 43.9636 187.657 44.652C187.657 49.668 184.116 53.6021 179.001 53.6021 173.887 53.6021 169.756 49.1762 169.756 44.0619 169.756 38.7509 173.986 34.4234 179.297 34.4234 182.149 34.4234 185.001 35.7019 186.771 37.9641L185.198 39.5377C183.919 37.7673 181.657 36.5871 179.395 36.5871 175.264 36.5871 172.018 39.9311 172.018 44.0619 172.018 47.8977 175.166 51.5367 179.198 51.5367 182.05 51.5367 185.099 49.0779 185.198 46.1273L180.477 46.1273 180.477 44.0619 187.657 44.0619Z" fill="#003366" fill-rule="nonzero" fill-opacity="1" transform="matrix(1.01359 0 0 1 361.65 317.543)"/><path d="M207.524 34.8168 210.474 34.8168 202.213 43.0784 210.573 53.2087 207.524 53.2087 200.639 44.652 199.754 45.5372 199.754 53.2087 197.492 53.2087 197.492 34.8168 199.754 34.8168 199.754 42.7833 207.524 34.8168Z" fill="#003366" fill-rule="nonzero" fill-opacity="1" transform="matrix(1.01359 0 0 1 361.65 317.543)"/><path d="M230.243 44.0619C230.243 49.5696 225.916 53.6021 220.605 53.6021 215.294 53.6021 210.966 49.4713 210.966 44.0619 210.966 38.7509 215.294 34.5217 220.605 34.5217 225.916 34.4234 230.243 38.7509 230.243 44.0619ZM227.981 44.0619C227.981 40.0295 224.932 36.5871 220.605 36.5871 216.277 36.5871 213.228 39.9311 213.228 44.0619 213.228 48.2911 216.572 51.5367 220.605 51.5367 224.637 51.4383 227.981 48.1927 227.981 44.0619Z" fill="#003366" fill-rule="nonzero" fill-opacity="1" transform="matrix(1.01359 0 0 1 361.65 317.543)"/><path d="M232.505 33.9316 246.275 48.3894 246.275 34.8168 248.537 34.8168 248.537 53.9955 234.767 39.5377 234.767 53.2087 232.505 53.2087 232.505 33.9316Z" fill="#003366" fill-rule="nonzero" fill-opacity="1" transform="matrix(1.01359 0 0 1 361.65 317.543)"/><path d="M268.797 43.9636 268.797 44.652C268.797 49.668 265.257 53.6021 260.142 53.6021 255.028 53.6021 250.897 49.1762 250.897 44.0619 250.897 38.7509 255.126 34.4234 260.437 34.4234 263.29 34.4234 266.142 35.7019 267.912 37.9641L266.338 39.5377C265.06 37.7673 262.798 36.5871 260.536 36.5871 256.405 36.5871 253.159 39.9311 253.159 44.0619 253.159 47.8977 256.307 51.5367 260.339 51.5367 263.191 51.5367 266.24 49.0779 266.338 46.1273L261.618 46.1273 261.618 44.0619 268.797 44.0619Z" fill="#003366" fill-rule="nonzero" fill-opacity="1" transform="matrix(1.01359 0 0 1 361.65 317.543)"/><path d="M280.6 34.8168 280.6 45.6355C280.6 48.5861 281.485 51.4383 285.025 51.4383 288.566 51.4383 289.451 48.6845 289.451 45.6355L289.451 34.8168 291.713 34.8168 291.713 46.4224C291.713 50.4548 289.156 53.6021 285.025 53.6021 280.796 53.6021 278.337 50.5532 278.337 46.4224L278.337 34.8168 280.6 34.8168Z" fill="#003366" fill-rule="nonzero" fill-opacity="1" transform="matrix(1.01359 0 0 1 361.65 317.543)"/><path d="M294.959 33.9316 308.728 48.3894 308.728 34.8168 310.991 34.8168 310.991 53.9955 297.221 39.5377 297.221 53.2087 294.959 53.2087 294.959 33.9316Z" fill="#003366" fill-rule="nonzero" fill-opacity="1" transform="matrix(1.01359 0 0 1 361.65 317.543)"/><path d="M316.793 53.2087 314.531 53.2087 314.531 34.8168 316.793 34.8168 316.793 53.2087Z" fill="#003366" fill-rule="nonzero" fill-opacity="1" transform="matrix(1.01359 0 0 1 361.65 317.543)"/><path d="M326.53 48.3894 331.94 34.8168 334.497 34.8168 326.53 54.1922 318.564 34.8168 321.022 34.8168 326.53 48.3894Z" fill="#003366" fill-rule="nonzero" fill-opacity="1" transform="matrix(1.01359 0 0 1 361.65 317.543)"/><path d="M336.267 34.8168 346.102 34.8168 346.102 36.8822 338.529 36.8822 338.529 41.9965 345.906 41.9965 345.906 44.0619 338.529 44.0619 338.529 51.1433 346.102 51.1433 346.102 53.2087 336.267 53.2087 336.267 34.8168Z" fill="#003366" fill-rule="nonzero" fill-opacity="1" transform="matrix(1.01359 0 0 1 361.65 317.543)"/><path d="M360.659 53.2087 357.905 53.2087 352.495 45.4388 351.512 45.4388 351.512 53.2087 349.25 53.2087 349.25 34.8168 352.003 34.8168C353.675 34.8168 355.347 34.8168 356.823 35.7019 358.396 36.5871 359.282 38.3575 359.282 40.1278 359.282 42.7833 357.511 44.9471 354.856 45.2421L360.659 53.2087ZM351.512 43.5701 352.2 43.5701C354.561 43.5701 357.118 43.1767 357.118 40.2262 357.118 37.3739 354.364 36.9805 352.102 36.9805L351.512 36.9805 351.512 43.5701Z" fill="#003366" fill-rule="nonzero" fill-opacity="1" transform="matrix(1.01359 0 0 1 361.65 317.543)"/><path d="M370.887 38.3575C370.199 37.1772 369.314 36.5871 367.937 36.5871 366.461 36.5871 364.888 37.5706 364.888 39.2426 364.888 40.7179 366.265 41.4064 367.445 41.8982L368.723 42.3899C371.379 43.3734 373.248 44.8487 373.248 47.8977 373.248 51.2416 370.69 53.6021 367.346 53.6021 364.396 53.6021 362.035 51.4383 361.642 48.4878L364.003 47.996C364.003 50.0614 365.576 51.4383 367.543 51.4383 369.51 51.4383 370.887 49.7663 370.887 47.8977 370.887 45.9306 369.314 45.0454 367.74 44.4553L366.461 43.9636C364.396 43.0784 362.429 41.8982 362.429 39.341 362.429 36.3904 365.084 34.6201 367.838 34.6201 369.904 34.6201 371.576 35.6036 372.559 37.3739L370.887 38.3575Z" fill="#003366" fill-rule="nonzero" fill-opacity="1" transform="matrix(1.01359 0 0 1 361.65 317.543)"/><path d="M378.264 53.2087 376.001 53.2087 376.001 34.8168 378.264 34.8168 378.264 53.2087Z" fill="#003366" fill-rule="nonzero" fill-opacity="1" transform="matrix(1.01359 0 0 1 361.65 317.543)"/><path d="M386.82 53.2087 384.558 53.2087 384.558 36.9805 380.231 36.9805 380.231 34.9151 391.246 34.9151 391.246 36.9805 386.919 36.9805 386.919 53.2087Z" fill="#003366" fill-rule="nonzero" fill-opacity="1" transform="matrix(1.01359 0 0 1 361.65 317.543)"/><path d="M391.344 34.8168 394 34.8168 398.524 42.685 403.048 34.8168 405.704 34.8168 399.704 45.2421 399.704 53.2087 397.344 53.2087 397.344 45.2421 391.344 34.8168Z" fill="#003366" fill-rule="nonzero" fill-opacity="1" transform="matrix(1.01359 0 0 1 361.65 317.543)"/><path d="M432.751 44.0619C432.751 49.5696 428.423 53.6021 423.112 53.6021 417.801 53.6021 413.474 49.4713 413.474 44.0619 413.474 38.7509 417.801 34.5217 423.112 34.5217 428.325 34.4234 432.751 38.7509 432.751 44.0619ZM430.39 44.0619C430.39 40.0295 427.341 36.5871 423.014 36.5871 418.686 36.5871 415.638 39.9311 415.638 44.0619 415.638 48.2911 418.982 51.5367 423.014 51.5367 427.046 51.4383 430.39 48.1927 430.39 44.0619Z" fill="#003366" fill-rule="nonzero" fill-opacity="1" transform="matrix(1.01359 0 0 1 361.65 317.543)"/><path d="M437.472 36.9805 437.472 42.1932 443.865 42.1932 443.865 44.2586 437.472 44.2586 437.472 53.307 435.21 53.307 435.21 34.8168 444.061 34.8168 444.061 36.8822 437.472 36.8822Z" fill="#003366" fill-rule="nonzero" fill-opacity="1" transform="matrix(1.01359 0 0 1 361.65 317.543)"/><path d="M462.65 38.3575C461.962 37.1772 461.076 36.5871 459.699 36.5871 458.224 36.5871 456.65 37.5706 456.65 39.2426 456.65 40.7179 458.027 41.4064 459.208 41.8982L460.486 42.3899C463.142 43.3734 465.01 44.8487 465.01 47.8977 465.01 51.2416 462.453 53.6021 459.109 53.6021 456.159 53.6021 453.798 51.4383 453.405 48.4878L455.765 47.996C455.765 50.0614 457.339 51.4383 459.306 51.4383 461.273 51.4383 462.65 49.7663 462.65 47.8977 462.65 45.9306 461.076 45.0454 459.503 44.4553L458.224 43.9636C456.159 43.0784 454.192 41.8982 454.192 39.341 454.192 36.3904 456.847 34.6201 459.601 34.6201 461.666 34.6201 463.338 35.6036 464.322 37.3739L462.65 38.3575Z" fill="#003366" fill-rule="nonzero" fill-opacity="1" transform="matrix(1.01359 0 0 1 361.65 317.543)"/><path d="M481.239 38.3575C479.96 37.1772 478.091 36.5871 476.419 36.5871 472.289 36.5871 469.141 40.0295 469.141 44.0619 469.141 48.0944 472.289 51.5367 476.321 51.5367 478.091 51.5367 479.862 50.8482 481.239 49.668L481.239 52.4219C479.862 53.2087 477.993 53.7004 476.419 53.7004 471.207 53.7004 466.879 49.5696 466.879 44.2586 466.879 38.8492 471.207 34.6201 476.616 34.6201 478.19 34.6201 479.862 35.0135 481.239 35.8987L481.239 38.3575Z" fill="#003366" fill-rule="nonzero" fill-opacity="1" transform="matrix(1.01359 0 0 1 361.65 317.543)"/><path d="M486.451 53.2087 484.189 53.2087 484.189 34.8168 486.451 34.8168 486.451 53.2087Z" fill="#003366" fill-rule="nonzero" fill-opacity="1" transform="matrix(1.01359 0 0 1 361.65 317.543)"/><path d="M490.09 34.8168 499.926 34.8168 499.926 36.8822 492.352 36.8822 492.352 41.9965 499.729 41.9965 499.729 44.0619 492.352 44.0619 492.352 51.1433 499.926 51.1433 499.926 53.2087 490.09 53.2087 490.09 34.8168Z" fill="#003366" fill-rule="nonzero" fill-opacity="1" transform="matrix(1.01359 0 0 1 361.65 317.543)"/><path d="M502.778 33.9316 516.547 48.3894 516.547 34.8168 518.809 34.8168 518.809 53.9955 505.04 39.5377 505.04 53.2087 502.778 53.2087 502.778 33.9316Z" fill="#003366" fill-rule="nonzero" fill-opacity="1" transform="matrix(1.01359 0 0 1 361.65 317.543)"/><path d="M535.824 38.3575C534.546 37.1772 532.677 36.5871 531.005 36.5871 526.874 36.5871 523.727 40.0295 523.727 44.0619 523.727 48.0944 526.874 51.5367 530.907 51.5367 532.677 51.5367 534.447 50.8482 535.824 49.668L535.824 52.4219C534.447 53.2087 532.579 53.7004 531.005 53.7004 525.792 53.7004 521.465 49.5696 521.465 44.2586 521.465 38.8492 525.792 34.6201 531.202 34.6201 532.775 34.6201 534.447 35.0135 535.824 35.8987L535.824 38.3575Z" fill="#003366" fill-rule="nonzero" fill-opacity="1" transform="matrix(1.01359 0 0 1 361.65 317.543)"/><path d="M538.775 34.8168 548.61 34.8168 548.61 36.8822 541.037 36.8822 541.037 41.9965 548.413 41.9965 548.413 44.0619 541.037 44.0619 541.037 51.1433 548.61 51.1433 548.61 53.2087 538.775 53.2087 538.775 34.8168Z" fill="#003366" fill-rule="nonzero" fill-opacity="1" transform="matrix(1.01359 0 0 1 361.65 317.543)"/><path d="M84.6815 13.7693 84.6815 24.5881 82.321 24.5881 82.321 23.4079 70.027 23.4079 70.027 24.5881 67.6665 24.5881 67.6665 13.8677C67.2731 14.0644 66.5846 14.2611 65.5027 14.6545L64.3225 12.3924C67.3714 11.7039 70.027 10.327 72.2891 8.45831L64.6176 8.45831 64.6176 6.39291 74.8462 6.39291 74.8462 4.42586C71.1088 4.52421 68.4533 4.62257 66.7813 4.62257L65.9945 2.36046C66.978 2.36046 68.1583 2.45881 69.5352 2.45881 76.2232 2.45881 81.2391 2.0654 84.5831 1.27858L85.665 3.34398C83.4029 3.83575 80.5507 4.22916 77.2067 4.42586L77.2067 6.49126 87.7304 6.49126 87.7304 8.55666 79.6655 8.55666C81.5342 10.4254 84.2881 11.7039 87.9271 12.3924L86.8452 14.6545C86.5502 14.4578 86.1568 14.3595 85.7634 14.2611 85.3699 14.0644 84.9765 13.9661 84.6815 13.7693ZM69.1418 13.1792 74.8462 13.1792 74.8462 8.55666C73.4693 10.6221 71.5022 12.1957 69.1418 13.1792ZM82.321 15.2446 70.027 15.2446 70.027 17.1133 82.321 17.1133 82.321 15.2446ZM70.027 21.3425 82.321 21.3425 82.321 19.1787 70.027 19.1787 70.027 21.3425ZM77.2067 8.55666 77.2067 13.1792 83.4029 13.1792C80.8457 12.1957 78.7803 10.6221 77.2067 8.55666Z" fill="#003366" fill-rule="nonzero" fill-opacity="1" transform="matrix(1.01359 0 0 1 361.65 317.543)"/><path d="M101.696 16.8183C101.008 19.4738 99.9261 22.031 98.5492 24.2931L96.5821 22.2277C98.0574 20.1623 99.0409 17.9002 99.6311 15.5397L101.696 16.8183ZM100.123 12.7858C98.7459 11.6056 97.5656 10.7204 96.5821 10.1303L98.0574 8.26161C99.2376 8.85172 100.516 9.73689 101.795 10.7204L100.123 12.7858ZM102.582 3.83575 105.926 3.83575 105.926 1.27858 108.188 1.27858 108.188 3.83575 112.712 3.83575 112.712 1.27858 114.974 1.27858 114.974 3.83575 119.105 3.83575 119.105 5.8028 115.072 5.8028 115.072 8.35996 119.597 8.35996 119.597 10.4254 114.777 10.4254C115.466 11.8023 117.138 13.0809 119.793 14.4578L118.711 16.7199C117.138 15.8347 115.958 14.8512 114.876 13.9661L114.876 19.0804 106.811 19.0804 106.811 20.654C106.811 21.2441 107.106 21.5392 107.696 21.5392L115.072 21.5392C115.761 21.5392 116.154 21.2441 116.351 20.7524 116.449 20.2606 116.646 19.2771 116.744 17.9985L119.105 18.8837C118.81 21.2441 118.515 22.6211 118.023 23.0145 117.63 23.5062 116.744 23.7029 115.466 23.7029L107.401 23.7029C106.319 23.7029 105.631 23.5062 105.139 23.1128 104.745 22.7194 104.549 21.9326 104.549 20.7524L104.549 15.1463C104.155 15.5397 103.368 16.0315 102.287 16.7199L100.91 14.6545C103.664 13.3759 105.434 11.999 106.122 10.4254L102.09 10.4254 102.09 8.45831 105.926 8.45831 105.926 5.90115 102.582 5.90115 102.582 4.62257 101.008 6.49126C99.6311 5.21268 98.3525 4.22916 97.2706 3.54069L98.9426 1.67199C100.32 2.55716 101.598 3.44234 102.582 4.1308L102.582 3.83575ZM106.909 14.7529 106.909 17.2117 112.614 17.2117 112.614 14.7529 106.909 14.7529ZM108.778 10.5237C108.384 11.4089 107.893 12.0974 107.303 12.7858L113.695 12.7858C113.105 12.1957 112.614 11.4089 112.122 10.5237L108.778 10.5237ZM108.188 5.9995 108.188 8.45831 112.712 8.45831 112.712 5.9995 108.188 5.9995Z" fill="#003366" fill-rule="nonzero" fill-opacity="1" transform="matrix(1.01359 0 0 1 361.65 317.543)"/><path d="M133.268 4.62257C132.382 4.81927 131.104 4.91762 129.432 5.01598L128.842 2.95057C132.579 2.75387 135.825 2.16375 138.48 1.18023L139.365 3.24563C138.185 3.63904 136.907 4.03245 135.628 4.22916L135.628 7.76985 139.464 7.76985 139.464 9.9336 135.628 9.9336 135.628 10.1303C137.497 11.9006 138.874 13.2776 139.857 14.2611L138.48 16.4249C137.989 15.7364 137.497 15.0479 137.005 14.5562 136.612 14.0644 136.12 13.4743 135.726 12.8842L135.726 24.4898 133.464 24.5881 133.464 14.2611C132.874 15.8347 131.694 17.7034 130.022 19.8672L128.645 17.6051C130.71 15.2446 132.284 12.6875 133.366 9.83525L128.743 9.83525 128.743 7.76985 133.366 7.76985 133.366 4.62257ZM138.972 18.982 138.972 16.6216 147.332 15.343 147.332 0.983525 149.692 0.983525 149.692 15.0479 151.955 14.6545 151.955 16.9166 149.692 17.31 149.692 24.5881 147.332 24.5881 147.332 17.7034 138.972 18.982ZM144.48 13.8677C142.808 12.3924 141.234 11.3105 139.956 10.5237L141.431 8.85172C142.709 9.54019 144.185 10.5237 146.053 11.9006L144.48 13.8677ZM144.873 7.8682C143.004 6.39291 141.529 5.31103 140.349 4.62257L141.824 2.95057C142.906 3.54069 144.48 4.52421 146.447 5.9995L144.873 7.8682Z" fill="#003366" fill-rule="nonzero" fill-opacity="1" transform="matrix(1.01359 0 0 1 361.65 317.543)"/><path d="M169.756 8.45831 166.806 8.45831 166.806 12.8842C168.183 12.4908 169.068 12.0974 169.756 11.8023L169.756 14.2611C169.265 14.5562 168.281 14.9496 166.806 15.4413L166.806 21.5392C166.806 22.7194 166.609 23.5062 166.314 23.8996 165.921 24.2931 165.134 24.4898 163.954 24.4898L161.987 24.4898 161.396 21.9326 163.56 22.031C164.15 22.031 164.347 21.7359 164.347 21.2441L164.347 16.1298C162.97 16.5232 161.79 16.8183 161.003 17.015L160.413 14.3595C161.888 14.1628 163.167 13.9661 164.347 13.5726L164.347 8.45831 160.61 8.45831 160.61 6.09785 164.347 6.09785 164.347 0.983525 166.806 0.983525 166.806 6.09785 169.756 6.09785 169.756 4.52421 175.166 4.52421 175.166 0.983525 177.625 0.983525 177.625 4.52421 183.526 4.52421 183.526 6.78632 177.625 6.78632 177.625 10.1303 182.641 10.1303 182.641 12.1957C182.444 13.0809 181.854 14.2611 180.969 15.7364 180.083 17.2117 179.198 18.2936 178.215 19.1787 179.887 20.5557 181.755 21.5392 183.821 22.1293L182.542 24.4898C180.378 23.8013 178.313 22.5227 176.346 20.7524 173.69 22.7194 171.232 23.998 168.773 24.4898L167.396 22.2277C169.756 21.7359 172.215 20.654 174.576 18.982 173.297 17.7034 172.018 15.9331 170.838 13.671L172.904 12.8842C174.084 14.9496 175.166 16.5232 176.346 17.7034 178.018 16.3265 179.297 14.6545 179.985 12.4908L170.051 12.4908 170.051 10.2287 174.969 10.2287 174.969 6.78632 169.56 6.78632 169.756 8.45831Z" fill="#003366" fill-rule="nonzero" fill-opacity="1" transform="matrix(1.01359 0 0 1 361.65 317.543)"/><path d="M207.425 9.9336C207.819 11.999 208.704 14.0644 210.081 16.3265 211.458 18.5886 213.425 20.4573 215.884 22.1293L213.917 24.3914C209.392 21.4408 206.343 16.6216 204.671 9.9336L204.278 9.9336C203.196 15.9331 199.754 20.7524 194.246 24.4898L192.377 22.1293C194.738 20.7524 196.803 18.982 198.475 16.8183 200.147 14.6545 201.229 12.3924 201.623 10.032L192.968 10.032 192.968 7.37644 202.016 7.37644C202.213 5.90115 202.311 3.73739 202.311 1.08188L204.967 1.08188C204.967 3.9341 204.868 5.9995 204.77 7.37644L215.392 7.37644 215.392 10.032 207.425 9.9336Z" fill="#003366" fill-rule="nonzero" fill-opacity="1" transform="matrix(1.01359 0 0 1 361.65 317.543)"/><path d="M243.127 14.6545 243.127 16.5232C241.652 17.31 239.882 17.9985 237.718 18.687L248.045 18.687 248.045 20.654 237.718 20.654 237.718 21.6375C237.718 23.4079 236.931 24.2931 235.456 24.2931L231.817 24.2931 231.227 22.2277 234.669 22.326C235.161 22.326 235.456 22.031 235.456 21.5392L235.456 20.5557 224.637 20.5557 224.637 18.4903 235.456 18.4903 235.456 17.4084C236.636 17.2117 238.111 16.8183 239.783 16.3265L229.161 16.3265 229.161 14.4578 243.127 14.4578ZM245.291 13.5726 227.194 13.5726 227.194 17.2117 224.932 17.2117 224.932 11.6056 226.211 11.6056 226.014 1.96705C228.178 1.8687 230.046 1.67199 231.522 1.27858L232.604 3.14728C231.718 3.44234 230.145 3.73739 228.178 3.83575L228.276 5.11433 232.21 5.11433 232.21 6.78632 228.374 6.78632 228.374 8.16325 232.21 8.16325 232.21 9.9336 228.473 9.9336 228.571 11.6056 244.209 11.6056 244.209 9.9336 240.668 9.9336 240.668 8.16325 244.209 8.16325 244.308 6.78632 240.668 6.78632 240.668 5.01598 244.308 5.01598 244.308 3.63904 240.373 3.63904 240.373 1.67199 246.57 1.67199 246.275 11.5072 247.553 11.5072 247.553 17.1133 245.291 17.1133 245.291 13.5726ZM236.636 4.52421C235.849 5.01598 234.866 5.60609 233.685 6.09785L232.407 4.42586C233.784 4.03245 234.767 3.73739 235.161 3.44234 234.767 3.14728 234.177 2.75387 233.489 2.26211L234.866 1.08188C235.554 1.47529 236.144 1.96705 236.833 2.45881 237.521 1.96705 238.013 1.57364 238.406 1.08188L239.685 2.16375C239.292 2.65552 238.8 3.14728 238.21 3.54069 238.505 3.83575 238.996 4.32751 239.488 4.81927L237.915 5.90115C237.226 5.01598 236.833 4.52421 236.636 4.52421ZM236.734 9.63854C235.948 10.1303 234.964 10.6221 233.784 11.0155L232.702 9.34348C233.882 9.04843 234.669 8.75337 235.259 8.45831 234.964 8.16325 234.374 7.76985 233.587 7.27808L234.866 6.19621C235.161 6.39291 235.456 6.58962 235.751 6.78632 236.046 6.98303 236.439 7.27808 236.833 7.57314 237.325 7.27808 237.915 6.78632 238.603 5.9995L239.882 7.08138C239.292 7.67149 238.701 8.16325 238.21 8.55666 238.701 8.95008 239.193 9.44184 239.587 9.83525L238.013 11.0155C237.325 10.1303 236.931 9.63854 236.734 9.63854Z" fill="#003366" fill-rule="nonzero" fill-opacity="1" transform="matrix(1.01359 0 0 1 361.65 317.543)"/><path d="M265.748 0.688467C264.667 2.75387 263.88 4.52421 263.388 5.8028 262.601 8.0649 262.208 10.4254 262.208 12.7858 262.208 16.7199 263.388 20.7524 265.65 24.8832L263.781 24.8832C262.503 23.2112 261.421 21.2441 260.634 19.0804 259.847 16.9166 259.454 14.7529 259.454 12.6875 259.454 9.83525 260.142 6.98303 261.618 4.1308 262.404 2.65552 263.093 1.47529 263.781 0.590115L265.748 0.590115Z" fill="#003366" fill-rule="nonzero" fill-opacity="1" transform="matrix(1.01359 0 0 1 361.65 317.543)"/><path d="M275.78 4.03245 275.78 8.65502C275.78 15.7364 274.993 21.0474 273.322 24.2931L271.551 22.326C272.83 19.2771 273.518 14.5562 273.518 8.16325L273.518 2.16375 284.042 2.16375C283.944 1.96705 283.747 1.47529 283.353 0.688467L285.714 0.39341C286.009 0.78682 286.304 1.47529 286.599 2.16375L295.352 2.16375 295.352 4.03245 275.78 4.03245ZM282.763 20.9491 284.14 22.5227C282.37 23.4079 279.813 24.0964 276.665 24.4898L275.584 22.5227C278.731 22.326 281.091 21.8342 282.763 20.9491ZM288.074 20.9491 277.846 20.9491 277.846 12.5891 284.73 12.5891 284.73 11.4089 276.567 11.4089 276.567 9.73689 295.156 9.73689 295.156 11.4089 286.894 11.4089 286.894 12.5891 293.779 12.5891 293.779 20.9491 288.074 20.9491C291.32 21.7359 293.582 22.326 294.959 22.6211L293.779 24.4898C292.795 24.1947 291.713 23.8996 290.632 23.5062 289.353 23.1128 288.173 22.8178 286.992 22.4244L288.074 20.9491ZM284.73 16.0315 284.73 14.3595 280.009 14.3595 280.009 16.0315 284.73 16.0315ZM284.73 19.2771 284.73 17.5067 280.009 17.5067 280.009 19.2771 284.73 19.2771ZM291.615 16.0315 291.615 14.3595 286.894 14.3595 286.894 16.0315 291.615 16.0315ZM291.615 19.2771 291.615 17.5067 286.894 17.5067 286.894 19.2771 291.615 19.2771Z" fill="#003366" fill-rule="nonzero" fill-opacity="1" transform="matrix(1.01359 0 0 1 361.65 317.543)"/><path d="M307.548 6.88467C307.351 9.44184 306.86 11.999 306.073 14.6545L303.712 13.671C304.598 11.6056 305.188 9.14678 305.286 6.29456L307.548 6.88467ZM306.171 24.0964 304.007 22.031C305.581 20.9491 306.761 19.5721 307.548 17.9002 308.335 16.2282 308.827 13.5726 308.827 10.032L308.827 1.08188 311.286 1.08188 311.286 11.8023C311.286 17.1133 309.614 21.1458 306.171 24.0964ZM313.449 14.6545C312.958 11.4089 312.269 9.04843 311.482 7.37644L313.744 6.49126C314.63 8.95008 315.416 11.4089 315.908 13.9661L313.449 14.6545ZM316.4 1.27858 318.859 1.27858 318.859 23.8013 316.4 23.8013 316.4 1.27858ZM321.514 14.4578C321.219 12.1957 320.531 9.83525 319.35 7.17973L321.514 6.29456C322.596 8.95008 323.481 11.4089 324.071 13.671L321.514 14.4578ZM324.366 0.78682 326.924 0.78682 326.924 24.5881 324.366 24.5881 324.366 0.78682Z" fill="#003366" fill-rule="nonzero" fill-opacity="1" transform="matrix(1.01359 0 0 1 361.65 317.543)"/><path d="M340.103 12.8842C340.103 15.7364 339.414 18.5886 337.939 21.4408 337.251 22.8178 336.464 23.998 335.775 24.9815L333.907 24.9815C334.989 22.9161 335.775 21.1458 336.267 19.8672 337.054 17.6051 337.447 15.2446 337.447 12.8842 337.447 8.95008 336.267 4.91762 334.005 0.78682L335.874 0.78682C337.152 2.45881 338.136 4.42586 339.021 6.58962 339.709 8.75337 340.103 10.8188 340.103 12.8842Z" fill="#003366" fill-rule="nonzero" fill-opacity="1" transform="matrix(1.01359 0 0 1 361.65 317.543)"/><path d="M282.96 10.5237 282.96 8.16325 288.763 8.16325 288.763 10.5237 291.025 10.5237 291.025 8.16325 294.271 8.16325 294.271 6.39291 291.025 6.39291 291.025 4.72092 288.763 4.72092 288.763 6.39291 282.96 6.39291 282.96 4.72092 280.698 4.72092 280.698 6.39291 277.157 6.39291 277.157 8.16325 280.698 8.16325 280.698 10.5237 282.96 10.5237Z" fill="#003366" fill-rule="nonzero" fill-opacity="1" transform="matrix(1.01359 0 0 1 361.65 317.543)"/></g></g></g></g></g></svg>