<svg width="472" height="216" xmlns="http://www.w3.org/2000/svg" xmlns:xlink="http://www.w3.org/1999/xlink" xml:space="preserve" overflow="hidden"><defs><clipPath id="clip0"><path d="M-283.673 913.349 949.743 913.349 949.743-840.645" fill-rule="nonzero" clip-rule="nonzero"/></clipPath><clipPath id="clip1"><path d="M-283.673 913.349 949.743 913.349 949.743-840.645" fill-rule="nonzero" clip-rule="nonzero"/></clipPath><clipPath id="clip2"><path d="M-283.673 913.349 949.743 913.349 949.743-840.645" fill-rule="nonzero" clip-rule="nonzero"/></clipPath><clipPath id="clip3"><path d="M-283.673 913.349 949.743 913.349 949.743-840.645" fill-rule="nonzero" clip-rule="nonzero"/></clipPath><clipPath id="clip4"><path d="M-283.673 913.349 949.743 913.349 949.743-840.645" fill-rule="nonzero" clip-rule="nonzero"/></clipPath><clipPath id="clip5"><path d="M-283.673 913.349 949.743 913.349 949.743-840.645" fill-rule="nonzero" clip-rule="nonzero"/></clipPath><clipPath id="clip6"><path d="M-283.673 913.349 949.743 913.349 949.743-840.645" fill-rule="nonzero" clip-rule="nonzero"/></clipPath><clipPath id="clip7"><path d="M-283.673 913.349 949.743 913.349 949.743-840.645" fill-rule="nonzero" clip-rule="nonzero"/></clipPath><clipPath id="clip8"><path d="M-283.673 913.349 949.743 913.349 949.743-840.645" fill-rule="nonzero" clip-rule="nonzero"/></clipPath><clipPath id="clip9"><path d="M-283.673 913.349 949.743 913.349 949.743-840.645" fill-rule="nonzero" clip-rule="nonzero"/></clipPath><clipPath id="clip10"><path d="M-283.673 913.349 949.743 913.349 949.743-840.645" fill-rule="nonzero" clip-rule="nonzero"/></clipPath><clipPath id="clip11"><path d="M-283.673 913.349 949.743 913.349 949.743-840.645" fill-rule="nonzero" clip-rule="nonzero"/></clipPath><clipPath id="clip12"><path d="M-283.673 913.349 949.743 913.349 949.743-840.645" fill-rule="nonzero" clip-rule="nonzero"/></clipPath><clipPath id="clip13"><path d="M-283.673 913.349 949.743 913.349 949.743-840.645" fill-rule="nonzero" clip-rule="nonzero"/></clipPath><clipPath id="clip14"><path d="M-283.673 913.349 949.743 913.349 949.743-840.645" fill-rule="nonzero" clip-rule="nonzero"/></clipPath><clipPath id="clip15"><path d="M-283.673 913.349 949.743 913.349 949.743-840.645" fill-rule="nonzero" clip-rule="nonzero"/></clipPath><clipPath id="clip16"><path d="M-283.673 913.349 949.743 913.349 949.743-840.645" fill-rule="nonzero" clip-rule="nonzero"/></clipPath><clipPath id="clip17"><path d="M-283.673 913.349 949.743 913.349 949.743-840.645" fill-rule="nonzero" clip-rule="nonzero"/></clipPath><clipPath id="clip18"><path d="M-283.673 913.349 949.743 913.349 949.743-840.645" fill-rule="nonzero" clip-rule="nonzero"/></clipPath><clipPath id="clip19"><path d="M-283.673 913.349 949.743 913.349 949.743-840.645" fill-rule="nonzero" clip-rule="nonzero"/></clipPath><clipPath id="clip20"><path d="M-283.673 913.349 949.743 913.349 949.743-840.645" fill-rule="nonzero" clip-rule="nonzero"/></clipPath><clipPath id="clip21"><path d="M-283.673 913.349 949.743 913.349 949.743-840.645" fill-rule="nonzero" clip-rule="nonzero"/></clipPath><clipPath id="clip22"><path d="M-283.673 913.349 949.743 913.349 949.743-840.645" fill-rule="nonzero" clip-rule="nonzero"/></clipPath><clipPath id="clip23"><path d="M-283.673 913.349 949.743 913.349 949.743-840.645" fill-rule="nonzero" clip-rule="nonzero"/></clipPath><clipPath id="clip24"><path d="M-283.673 913.349 949.743 913.349 949.743-840.645" fill-rule="nonzero" clip-rule="nonzero"/></clipPath><clipPath id="clip25"><path d="M-283.673 913.349 949.743 913.349 949.743-840.645" fill-rule="nonzero" clip-rule="nonzero"/></clipPath><clipPath id="clip26"><path d="M-283.673 913.349 949.743 913.349 949.743-840.645" fill-rule="nonzero" clip-rule="nonzero"/></clipPath><clipPath id="clip27"><path d="M-283.673 913.349 949.743 913.349 949.743-840.645" fill-rule="nonzero" clip-rule="nonzero"/></clipPath><clipPath id="clip28"><path d="M-283.673 913.349 949.743 913.349 949.743-840.645" fill-rule="nonzero" clip-rule="nonzero"/></clipPath><clipPath id="clip29"><path d="M-283.673 913.349 949.743 913.349 949.743-840.645" fill-rule="nonzero" clip-rule="nonzero"/></clipPath><clipPath id="clip30"><path d="M-283.673 913.349 949.743 913.349 949.743-840.645" fill-rule="nonzero" clip-rule="nonzero"/></clipPath><clipPath id="clip31"><path d="M-283.673 913.349 949.743 913.349 949.743-840.645" fill-rule="nonzero" clip-rule="nonzero"/></clipPath><clipPath id="clip32"><path d="M-283.673 913.349 949.743 913.349 949.743-840.645" fill-rule="nonzero" clip-rule="nonzero"/></clipPath><clipPath id="clip33"><path d="M-283.673 913.349 949.743 913.349 949.743-840.645" fill-rule="nonzero" clip-rule="nonzero"/></clipPath><clipPath id="clip34"><path d="M-283.673 913.349 949.743 913.349 949.743-840.645" fill-rule="nonzero" clip-rule="nonzero"/></clipPath><clipPath id="clip35"><path d="M-283.673 913.349 949.743 913.349 949.743-840.645" fill-rule="nonzero" clip-rule="nonzero"/></clipPath><clipPath id="clip36"><path d="M-283.673 913.349 949.743 913.349 949.743-840.645" fill-rule="nonzero" clip-rule="nonzero"/></clipPath><clipPath id="clip37"><path d="M-283.673 913.349 949.743 913.349 949.743-840.645" fill-rule="nonzero" clip-rule="nonzero"/></clipPath><clipPath id="clip38"><path d="M-283.673 913.349 949.743 913.349 949.743-840.645" fill-rule="nonzero" clip-rule="nonzero"/></clipPath><clipPath id="clip39"><path d="M-283.673 913.349 949.743 913.349 949.743-840.645" fill-rule="nonzero" clip-rule="nonzero"/></clipPath><clipPath id="clip40"><path d="M-283.673 913.349 949.743 913.349 949.743-840.645" fill-rule="nonzero" clip-rule="nonzero"/></clipPath><clipPath id="clip41"><path d="M-283.673 913.349 949.743 913.349 949.743-840.645" fill-rule="nonzero" clip-rule="nonzero"/></clipPath><clipPath id="clip42"><path d="M-283.673 913.349 949.743 913.349 949.743-840.645" fill-rule="nonzero" clip-rule="nonzero"/></clipPath><clipPath id="clip43"><path d="M-283.673 913.349 949.743 913.349 949.743-840.645" fill-rule="nonzero" clip-rule="nonzero"/></clipPath><clipPath id="clip44"><path d="M-283.673 913.349 949.743 913.349 949.743-840.645" fill-rule="nonzero" clip-rule="nonzero"/></clipPath><clipPath id="clip45"><path d="M-283.673 913.349 949.743 913.349 949.743-840.645" fill-rule="nonzero" clip-rule="nonzero"/></clipPath><clipPath id="clip46"><path d="M-283.673 913.349 949.743 913.349 949.743-840.645" fill-rule="nonzero" clip-rule="nonzero"/></clipPath><clipPath id="clip47"><path d="M-283.673 913.349 949.743 913.349 949.743-840.645" fill-rule="nonzero" clip-rule="nonzero"/></clipPath><clipPath id="clip48"><path d="M-283.673 913.349 949.743 913.349 949.743-840.645" fill-rule="nonzero" clip-rule="nonzero"/></clipPath><clipPath id="clip49"><path d="M-283.673 913.349 949.743 913.349 949.743-840.645" fill-rule="nonzero" clip-rule="nonzero"/></clipPath><clipPath id="clip50"><path d="M-283.673 913.349 949.743 913.349 949.743-840.645" fill-rule="nonzero" clip-rule="nonzero"/></clipPath><clipPath id="clip51"><path d="M-283.673 913.349 949.743 913.349 949.743-840.645" fill-rule="nonzero" clip-rule="nonzero"/></clipPath><clipPath id="clip52"><path d="M-283.673 913.349 949.743 913.349 949.743-840.645" fill-rule="nonzero" clip-rule="nonzero"/></clipPath><clipPath id="clip53"><path d="M-283.673 913.349 949.743 913.349 949.743-840.645" fill-rule="nonzero" clip-rule="nonzero"/></clipPath><clipPath id="clip54"><path d="M-283.673 913.349 949.743 913.349 949.743-840.645" fill-rule="nonzero" clip-rule="nonzero"/></clipPath><clipPath id="clip55"><path d="M-283.673 913.349 949.743 913.349 949.743-840.645" fill-rule="nonzero" clip-rule="nonzero"/></clipPath></defs><g transform="translate(-404 -261)"><g><g><g><g><g><g><g clip-path="url(#clip0)"><path d="" stroke="#FFFFFF" stroke-width="15.3572" stroke-linecap="butt" stroke-linejoin="miter" stroke-miterlimit="10" stroke-opacity="1" fill="none" fill-rule="nonzero" transform="matrix(1 0 0 1.00729 405.995 263.104)"/></g><g clip-path="url(#clip1)"><path d="" stroke="#9B0000" stroke-width="2.56465" stroke-linecap="butt" stroke-linejoin="miter" stroke-miterlimit="10" stroke-opacity="1" fill="none" fill-rule="nonzero" transform="matrix(1 0 0 1.00729 405.995 263.104)"/></g><g clip-path="url(#clip2)"><path d="" stroke="#9B0000" stroke-width="7.67861" stroke-linecap="butt" stroke-linejoin="miter" stroke-miterlimit="10" stroke-opacity="1" fill="none" fill-rule="nonzero" transform="matrix(1 0 0 1.00729 405.995 263.104)"/></g><g clip-path="url(#clip3)"><path d="" stroke="#9B0000" stroke-width="7.67861" stroke-linecap="butt" stroke-linejoin="miter" stroke-miterlimit="10" stroke-opacity="1" fill="none" fill-rule="nonzero" transform="matrix(1 0 0 1.00729 405.995 263.104)"/></g><g clip-path="url(#clip4)"><path d="" stroke="#9B0000" stroke-width="2.56465" stroke-linecap="butt" stroke-linejoin="miter" stroke-miterlimit="10" stroke-opacity="1" fill="none" fill-rule="nonzero" transform="matrix(1 0 0 1.00729 405.995 263.104)"/></g><g clip-path="url(#clip5)"><path d="M35.1169 86.6148 35.0657 86.6404C34.7329 86.4612 34.2978 86.2565 33.8115 86.0261 33.3252 85.7958 32.8133 85.591 32.2502 85.3606L32.2246 85.3094 32.3269 85.0791 32.3781 85.0534C32.5061 85.1046 32.6341 85.1303 32.7621 85.1815 32.9924 85.2582 33.1204 85.3094 33.1972 85.3094 33.2484 85.3094 33.2995 85.2839 33.3764 85.207 33.4788 85.1046 33.7091 84.6439 34.0931 83.8248L34.5026 82.9034C34.6305 82.6219 34.7841 82.2636 34.9633 81.8284L35.0912 81.5469C35.1424 81.4189 35.1424 81.3421 35.0912 81.3165 35.0657 81.3165 34.9889 81.2909 34.8353 81.2909 34.4258 81.2909 34.0674 81.2909 33.7859 81.3165L33.7603 81.2653C33.8115 81.1117 33.8627 80.9582 33.8883 80.7534L33.9138 80.7278C34.6817 80.8558 35.5776 80.9326 36.5758 80.9838L36.627 81.0862C36.5502 81.2397 36.4478 81.4445 36.2943 81.726 36.2431 81.8284 36.0895 82.11 35.8591 82.5963L35.1936 84.0553C34.7329 85.1046 34.4769 85.6677 34.4769 85.7701 34.4769 85.8213 34.5026 85.8981 34.5538 85.9237 34.6305 86.0005 34.8353 86.1284 35.2193 86.3077L35.2448 86.3589 35.1169 86.6148Z" fill="#9B0000" fill-rule="nonzero" fill-opacity="1" transform="matrix(1 0 0 1.00729 405.995 263.104)"/></g><g clip-path="url(#clip6)"><path d="M45.6878 84.7975C45.7133 84.5415 45.6621 84.3112 45.5086 84.132 45.355 83.9529 45.1247 83.8248 44.8175 83.7993 44.5359 83.7737 44.3312 83.7993 44.1521 83.9272 43.9728 84.0553 43.8961 84.2088 43.8449 84.4136 43.8193 84.6184 43.8961 84.8231 44.0497 85.0279 44.1521 85.1303 44.28 85.2327 44.4592 85.3606 44.5104 85.4118 44.6383 85.463 44.7664 85.5398L44.9967 85.6677C45.4062 85.5142 45.6366 85.207 45.6878 84.7975M45.3038 87.7922C45.355 87.4082 45.2014 87.0755 44.8431 86.8196 44.6128 86.666 44.3568 86.5124 44.0752 86.3589L43.9473 86.3077C43.4866 86.538 43.205 86.8708 43.1538 87.3315 43.1282 87.5874 43.1538 87.7922 43.2306 87.9713 43.4097 88.3553 43.7169 88.5856 44.1521 88.6368 44.4592 88.688 44.7152 88.6112 44.9199 88.4577 45.1502 88.3297 45.2783 88.0993 45.3038 87.7922M46.3788 87.4594C46.3276 87.7666 46.2253 88.0482 46.0717 88.2785 45.7645 88.7136 45.3295 88.9695 44.7664 89.0719 44.5359 89.1231 44.2544 89.1231 43.9473 89.0719 43.2562 88.9695 42.7699 88.688 42.4628 88.1761 42.3347 87.9458 42.2835 87.6642 42.3347 87.3315 42.3859 86.922 42.5907 86.6148 42.9235 86.3844 43.0259 86.3077 43.2562 86.2053 43.6145 86.1029 43.0514 85.7189 42.7954 85.2327 42.8723 84.6696 42.949 84.0296 43.333 83.6201 44.024 83.4153 44.3312 83.3386 44.6383 83.3129 44.9967 83.3641 45.5086 83.441 45.9181 83.5945 46.1741 83.876 46.43 84.132 46.5324 84.4391 46.4812 84.7975 46.4045 85.2839 46.0717 85.6422 45.4574 85.8725 45.8669 86.0773 46.1229 86.3332 46.2764 86.5892 46.4045 86.8196 46.43 87.1267 46.3788 87.4594" fill="#9B0000" fill-rule="nonzero" fill-opacity="1" transform="matrix(1 0 0 1.00729 405.995 263.104)"/></g><g clip-path="url(#clip7)"><path d="M54.7485 85.1303C54.6718 84.6184 54.5438 84.26 54.339 84.0553 54.1342 83.8248 53.9039 83.7481 53.6223 83.7737 53.264 83.8248 53.0592 84.0296 52.9825 84.3879 52.9313 84.5927 52.9313 84.7975 52.9825 85.0534 53.0337 85.463 53.1616 85.7958 53.3664 85.9749 53.5711 86.1541 53.8015 86.2308 54.0575 86.2053 54.4158 86.1541 54.6461 85.9749 54.723 85.6934 54.7742 85.5398 54.7742 85.3606 54.7485 85.1303M56.0026 85.3862C56.1051 86.1029 56.0283 86.7172 55.8235 87.2291 55.5932 87.7666 55.2349 88.2273 54.7997 88.5856 54.339 88.9695 53.7759 89.1999 53.1616 89.2766L52.7777 89.0719 52.8544 88.8928C52.9568 88.9184 53.0592 88.9184 53.1872 88.8928 53.648 88.8416 54.0575 88.6112 54.3646 88.2529 54.4926 88.0993 54.5949 87.9201 54.6973 87.6898 54.8509 87.3315 54.9021 86.8196 54.9021 86.1541 54.5182 86.5892 54.2878 86.8196 54.2366 86.8196 54.0575 86.922 53.8271 86.9732 53.5968 86.9987 53.1872 87.0499 52.8544 86.9732 52.5729 86.7427 52.2658 86.4868 52.061 86.1284 52.0098 85.6422 51.8818 84.8487 52.1378 84.2088 52.7009 83.7481 52.9825 83.5177 53.3152 83.3898 53.7503 83.3386 54.5694 83.2362 55.1837 83.4922 55.6188 84.1065 55.7723 84.4136 55.9259 84.8487 56.0026 85.3862" fill="#9B0000" fill-rule="nonzero" fill-opacity="1" transform="matrix(1 0 0 1.00729 405.995 263.104)"/></g><g clip-path="url(#clip8)"><path d="M64.8587 84.5415C64.7051 84.1832 64.398 83.9784 63.9629 83.9529 63.6813 83.9272 63.3742 83.9272 63.067 83.9529L62.9391 83.9529C62.6575 84.3879 62.6063 84.8231 62.7855 85.2327 62.8879 85.463 63.0158 85.6422 63.195 85.7446 63.5534 85.9749 63.9373 86.0005 64.3212 85.847 64.6027 85.7189 64.7819 85.5398 64.8843 85.2839 64.9866 85.0534 64.9611 84.7975 64.8587 84.5415M63.6301 81.7772C63.5277 81.5213 63.3486 81.3677 63.1182 81.2909 62.8879 81.2141 62.6319 81.2397 62.3503 81.3677 62.0944 81.4701 61.9408 81.6236 61.8384 81.8284 61.7617 82.0076 61.7617 82.2124 61.8384 82.3915 61.9153 82.5963 62.0944 82.7243 62.3248 82.801 62.4527 82.8267 62.6319 82.8522 62.8367 82.8522 62.9134 82.8522 63.0415 82.8522 63.195 82.8522L63.451 82.8267C63.7325 82.5195 63.7837 82.1612 63.6301 81.7772M65.6009 83.6969C65.729 83.9784 65.7801 84.2856 65.7545 84.5415 65.729 85.0791 65.4985 85.5142 65.0635 85.8981 64.8843 86.0517 64.6539 86.2053 64.3468 86.3332 63.7325 86.6148 63.1439 86.6148 62.6319 86.3332 62.4015 86.2053 62.1968 86.0005 62.0688 85.6934 61.9153 85.3094 61.9153 84.9255 62.0688 84.5927 62.12 84.4903 62.2736 84.2856 62.5039 84.0041 61.8129 83.9784 61.3777 83.6713 61.1474 83.1594 60.8914 82.5707 60.9938 82.0076 61.4801 81.4701 61.6849 81.2397 61.9408 81.0605 62.2736 80.907 62.7599 80.7022 63.1694 80.6255 63.5534 80.7278 63.9117 80.8302 64.142 81.035 64.2956 81.3677 64.5004 81.8284 64.398 82.3148 63.9885 82.8267 64.4492 82.801 64.8075 82.8522 65.0635 83.0058 65.2682 83.1338 65.4473 83.3641 65.6009 83.6969" fill="#9B0000" fill-rule="nonzero" fill-opacity="1" transform="matrix(1 0 0 1.00729 405.995 263.104)"/></g><g clip-path="url(#clip9)"><path d="M33.6579 88.0993C28.8972 86.0773 24.6227 83.2106 20.9626 79.5249 17.2768 75.8647 14.4102 71.5903 12.3881 66.8295 10.2893 61.8896 9.23993 56.6681 9.23993 51.2675 9.23993 45.8669 10.2893 40.6454 12.3881 35.7055 14.4102 30.9449 17.2768 26.6704 20.9626 23.0102 24.6227 19.3501 28.9228 16.4578 33.6579 14.4358 38.5979 12.3626 43.8193 11.2876 49.2199 11.2876 54.6206 11.2876 59.842 12.337 64.7819 14.4358 69.5426 16.4578 73.817 19.3501 77.4773 23.0102 81.1629 26.6704 84.0296 30.9449 86.0517 35.7055 88.1505 40.6454 89.1999 45.8669 89.1999 51.2675 89.1999 56.6681 88.1505 61.8896 86.0517 66.8295 84.0296 71.5903 81.1629 75.8647 77.4773 79.5249 73.817 83.185 69.5426 86.0773 64.7819 88.0993 59.842 90.1981 54.6206 91.2476 49.2199 91.2476 43.8193 91.2476 38.5979 90.1981 33.6579 88.0993M33.146 13.156C28.2061 15.2293 23.7781 18.2239 19.99 22.0121 16.2018 25.8001 13.2072 30.2282 11.134 35.1681 8.98398 40.2615 7.88338 45.6878 7.88338 51.2675 7.88338 56.8474 8.98398 62.2736 11.134 67.3671 13.2072 72.2814 16.2018 76.7094 19.99 80.4975 23.7781 84.2856 28.2061 87.2803 33.146 89.3535 38.2395 91.5035 43.6657 92.6041 49.2455 92.6041 54.8254 92.6041 60.2515 91.5035 65.345 89.3535 70.2593 87.2803 74.6873 84.2856 78.5011 80.4975 82.2891 76.7094 85.2839 72.2814 87.357 67.3671 89.5071 62.2736 90.6076 56.8474 90.6076 51.2675 90.6076 45.6878 89.5071 40.2615 87.357 35.1681 85.2839 30.2537 82.2891 25.8258 78.5011 22.0121 74.7129 18.2239 70.285 15.2293 65.345 13.156 60.2515 11.006 54.8254 9.90541 49.2455 9.90541 43.6657 9.90541 38.2395 11.006 33.146 13.156" fill="#9B0000" fill-rule="nonzero" fill-opacity="1" transform="matrix(1 0 0 1.00729 405.995 263.104)"/></g><g clip-path="url(#clip10)"><path d="M37.6764 78.5778C34.1443 77.0933 30.9704 74.9432 28.2573 72.2302 25.5442 69.5171 23.3942 66.3432 21.9097 62.8111 20.374 59.1509 19.5804 55.2861 19.5804 51.2675 19.5804 47.2747 20.374 43.3842 21.9097 39.7241 23.3942 36.1919 25.5442 33.018 28.2573 30.3049 30.9704 27.5662 34.1443 25.4418 37.6764 23.9572 41.3366 22.3959 45.2014 21.6281 49.2199 21.6281 53.2384 21.6281 57.1033 22.3959 60.7634 23.9572 64.2956 25.4418 67.4695 27.5918 70.1826 30.3049 72.8956 33.018 75.0456 36.1919 76.5302 39.7241 78.0659 43.3842 78.8594 47.2747 78.8594 51.2675 78.8594 55.2861 78.0659 59.1509 76.5302 62.8111 75.0456 66.3432 72.8956 69.5171 70.1826 72.2302 67.4695 74.9432 64.2956 77.0933 60.7634 78.5778 57.1033 80.1391 53.2128 80.907 49.2199 80.907 45.2271 80.907 41.3366 80.1391 37.6764 78.5778M37.3181 23.0871C33.6835 24.6227 30.4073 26.8239 27.5918 29.6394 24.7763 32.4549 22.5752 35.7312 21.0394 39.3657 19.4525 43.1282 18.6335 47.1467 18.6335 51.2675 18.6335 55.3885 19.4525 59.4069 21.0394 63.1694 22.5752 66.804 24.7763 70.0802 27.5918 72.8956 30.3818 75.7111 33.6579 77.9123 37.3181 79.4481 41.0806 81.0605 45.099 81.854 49.2199 81.854 53.3408 81.854 57.3593 81.0605 61.1218 79.4481 64.7563 77.9123 68.0326 75.7111 70.8481 72.8956 73.6635 70.0802 75.8647 66.8295 77.4004 63.1694 78.9874 59.4069 79.8064 55.3885 79.8064 51.2675 79.8064 47.1467 78.9874 43.1282 77.4004 39.3657 75.8647 35.7312 73.6635 32.4549 70.8481 29.6394 68.0326 26.8239 64.7563 24.6227 61.1218 23.0871 57.3593 21.5002 53.3408 20.6811 49.2199 20.6811 45.099 20.6811 41.1061 21.4745 37.3181 23.0871" fill="#9B0000" fill-rule="nonzero" fill-opacity="1" transform="matrix(1 0 0 1.00729 405.995 263.104)"/></g><g clip-path="url(#clip11)"><path d="M14.871 63.1694C14.487 63.323 14.231 63.5022 14.1031 63.7325 13.9751 63.9629 14.0007 64.2701 14.1286 64.6539L14.2567 64.9611 16.4834 64.1164 16.4322 63.9629C16.2787 63.5789 16.0739 63.323 15.8179 63.1694 15.562 63.0158 15.2293 63.0158 14.871 63.1694M14.1543 61.8384C14.4358 61.736 14.7174 61.6849 14.9733 61.736 15.2293 61.7617 15.4596 61.8641 15.6644 62.0177 15.8691 62.1712 16.0739 62.4015 16.2275 62.6319 16.4066 62.8879 16.5346 63.1694 16.6625 63.5277L16.8161 63.9373 18.2495 63.3998C18.3263 63.3742 18.403 63.323 18.4542 63.2718 18.5054 63.2206 18.5311 63.1439 18.5311 63.0158 18.5311 62.9646 18.5311 62.8623 18.5054 62.7599 18.4799 62.6319 18.4799 62.5296 18.4542 62.4527L18.7358 62.3503 19.8109 65.1402 19.5037 65.2682C19.4781 65.1914 19.4269 65.1147 19.3757 65.0123 19.3245 64.9099 19.2733 64.8331 19.2477 64.7819 19.1709 64.7051 19.0942 64.6539 19.043 64.6539 18.9661 64.6539 18.8894 64.6539 18.787 64.7051L15.2037 66.0873C15.1269 66.1128 15.0501 66.164 14.9989 66.2152 14.9477 66.2664 14.9222 66.3432 14.9222 66.4712 14.9222 66.548 14.9222 66.6504 14.9477 66.7783 14.9733 66.9063 14.9733 66.9831 14.9989 67.0343L14.7174 67.1367 13.6424 64.3212C13.3864 63.6558 13.3096 63.1439 13.3864 62.7343 13.4632 62.2992 13.7191 62.0177 14.1543 61.8384" fill="#9B0000" fill-rule="nonzero" fill-opacity="1" transform="matrix(1 0 0 1.00729 405.995 263.104)"/></g><g clip-path="url(#clip12)"><path d="M12.7209 53.2896 12.7465 53.5968C12.5417 53.6991 12.3626 53.8527 12.1578 54.0575 11.9786 54.2622 11.8762 54.4414 11.8507 54.6461 11.8507 54.723 11.8507 54.8254 11.8507 54.9533 11.8507 55.0813 11.8762 55.2092 11.8762 55.2861L11.9786 56.0795 14.0774 55.8235 14.0007 55.2604C13.9751 55.1325 13.9495 55.0045 13.8983 54.8765 13.8471 54.7742 13.7703 54.6718 13.6679 54.5949 13.6167 54.5438 13.4888 54.4926 13.3352 54.4414 13.1817 54.4158 13.0536 54.3902 12.9512 54.3646L12.9257 54.0575 15.1781 53.8015 15.2037 54.1087C15.1013 54.1342 14.9733 54.1854 14.8198 54.2622 14.6662 54.339 14.5638 54.4158 14.5126 54.467 14.4358 54.5694 14.3846 54.6718 14.359 54.7742 14.3334 54.9021 14.3334 55.0301 14.359 55.1837L14.4102 55.7468 15.9715 55.5676C16.1251 55.542 16.253 55.5164 16.3554 55.4908 16.4578 55.4652 16.509 55.3885 16.5602 55.3373 16.5858 55.2861 16.6114 55.1837 16.6114 55.0557 16.6114 54.9533 16.6114 54.7997 16.5858 54.5949 16.5858 54.4926 16.5602 54.3902 16.5346 54.2622 16.509 54.1342 16.509 54.0318 16.4834 53.9295 16.4578 53.8271 16.4322 53.7247 16.381 53.648 16.3554 53.5456 16.3042 53.4944 16.253 53.4432 16.1251 53.3408 15.9203 53.2128 15.6388 53.0849 15.3572 52.9568 15.1781 52.8801 15.0245 52.8544L14.9989 52.5729 16.6882 52.4706 17.2768 57.5384 16.9697 57.564C16.9441 57.4872 16.9441 57.3848 16.9185 57.2824 16.893 57.1545 16.8673 57.0777 16.8418 57.0265 16.7906 56.9241 16.7394 56.8729 16.6625 56.8474 16.6114 56.8217 16.509 56.8217 16.4066 56.8217L12.5929 57.2569C12.4905 57.2824 12.4138 57.2824 12.3626 57.3336 12.3114 57.3593 12.2602 57.436 12.2346 57.564 12.209 57.6408 12.1834 57.7431 12.1834 57.8455 12.1834 57.9736 12.1578 58.0503 12.1578 58.1271L11.8507 58.1527 11.2876 53.3408 12.7209 53.2896Z" fill="#9B0000" fill-rule="nonzero" fill-opacity="1" transform="matrix(1 0 0 1.00729 405.995 263.104)"/></g><g clip-path="url(#clip13)"><path d="M17.6096 43.205 17.3025 45.3295C16.7649 45.5854 16.3042 45.8157 15.946 46.0205 15.5876 46.2253 15.1013 46.5069 14.5382 46.8395L14.5126 47.0443 16.2018 47.3003C16.3042 47.3003 16.381 47.3003 16.4322 47.2747 16.509 47.2491 16.5602 47.1979 16.6114 47.0955 16.637 47.0443 16.6625 46.9931 16.7137 46.9164 16.7394 46.8395 16.7649 46.7372 16.7906 46.6604L17.0977 46.7116 16.6882 49.5782 16.381 49.527C16.381 49.4503 16.381 49.3479 16.4066 49.2455 16.4066 49.1175 16.4066 49.0408 16.4066 48.9639 16.381 48.8615 16.3554 48.7848 16.2787 48.7592 16.2275 48.6824 16.1506 48.6568 16.0484 48.6312L12.2346 48.0938C12.1578 48.0938 12.0555 48.0938 12.0043 48.0938 11.9274 48.1193 11.8762 48.1705 11.825 48.2729 11.7738 48.3496 11.7227 48.452 11.6971 48.5544 11.6459 48.6568 11.6203 48.7592 11.6203 48.8103L11.3131 48.7592 11.7483 45.7902 12.0555 45.8414C12.0555 45.9181 12.0555 46.0205 12.0555 46.1229 12.0555 46.2253 12.0555 46.3276 12.081 46.4045 12.1066 46.5069 12.1322 46.5836 12.209 46.6348 12.2858 46.686 12.337 46.7116 12.4393 46.7116L14.2567 46.9676 14.2822 46.814C14.1286 46.5836 13.9495 46.3276 13.7191 46.0461 13.4888 45.7645 13.3096 45.5086 13.1817 45.355 12.9769 45.1247 12.8233 44.9455 12.7209 44.8431 12.5929 44.7407 12.4905 44.664 12.3881 44.664 12.337 44.664 12.3114 44.6895 12.2602 44.7919 12.209 44.8687 12.1834 45.0223 12.1578 45.2014L11.8507 45.1502 12.1834 42.7954 12.4905 42.8466C12.4905 43.1282 12.5162 43.3842 12.5417 43.589 12.5929 43.7937 12.6697 43.9985 12.8233 44.2033 13.0281 44.5104 13.2072 44.7664 13.3608 44.9455 13.5143 45.1502 13.7191 45.4062 13.9495 45.7133 14.2822 45.5086 14.6917 45.2783 15.1781 44.9967 15.6644 44.7152 16.1251 44.4336 16.5858 44.1521 16.7137 44.0752 16.8161 43.9985 16.9185 43.8961 17.0209 43.7937 17.1233 43.6913 17.2001 43.5633 17.2513 43.5121 17.2768 43.4354 17.3025 43.3586 17.328 43.2818 17.3537 43.205 17.3537 43.1538L17.6096 43.205Z" fill="#9B0000" fill-rule="nonzero" fill-opacity="1" transform="matrix(1 0 0 1.00729 405.995 263.104)"/></g><g clip-path="url(#clip14)"><path d="M19.6573 37.8044 18.5311 40.6199 18.2495 40.5175C18.2751 40.4407 18.3007 40.3639 18.3519 40.236 18.3775 40.108 18.403 40.0056 18.403 39.9544 18.403 39.852 18.3775 39.7753 18.3263 39.7241 18.2751 39.6729 18.2239 39.6217 18.1215 39.5705L14.5382 38.1372C14.4614 38.1115 14.3846 38.086 14.3079 38.1115 14.231 38.1115 14.1543 38.1627 14.0774 38.2395 14.0263 38.2907 13.9751 38.3675 13.8983 38.4699 13.8215 38.5722 13.7703 38.6491 13.7448 38.7258L13.4632 38.6234 14.5894 35.8079 14.871 35.9103C14.8453 35.9871 14.8198 36.0895 14.7941 36.1919 14.7686 36.2943 14.7429 36.3967 14.7429 36.4734 14.7429 36.5758 14.7686 36.6526 14.8198 36.7294 14.871 36.7805 14.9477 36.8317 15.0245 36.8574L18.6078 38.2907C18.6846 38.3163 18.7614 38.3419 18.8382 38.3419 18.915 38.3419 18.9918 38.2907 19.0685 38.2139 19.1197 38.1627 19.1709 38.1115 19.2221 37.9836 19.2733 37.8812 19.3501 37.7788 19.3757 37.702L19.6573 37.8044Z" fill="#9B0000" fill-rule="nonzero" fill-opacity="1" transform="matrix(1 0 0 1.00729 405.995 263.104)"/></g><g clip-path="url(#clip15)"><path d="M20.5275 26.7472C20.5019 26.7984 20.4507 26.9008 20.374 27.0287 20.3228 27.1567 20.2971 27.2591 20.2971 27.4127 20.2971 27.5406 20.3483 27.6686 20.4763 27.7966 20.5787 27.9246 20.7835 28.0782 21.0394 28.2829L24.2132 30.5609 23.8293 31.124 18.4287 31.3544 20.5019 32.8388C20.7578 33.018 20.9626 33.146 21.1162 33.2228 21.2697 33.274 21.4233 33.2995 21.5257 33.274 21.6025 33.2484 21.7305 33.1972 21.8328 33.0948 21.9609 32.9924 22.0633 32.9157 22.1144 32.8388L22.3704 33.018 21.0138 34.9121 20.7578 34.7329C20.809 34.6562 20.8602 34.5538 20.9114 34.4258 20.9626 34.2978 20.9882 34.1954 20.9882 34.0931 20.9882 33.965 20.9371 33.8371 20.8347 33.7347 20.7323 33.6067 20.5531 33.4531 20.2459 33.2484L18.1471 31.7383C18.0447 31.6615 17.9423 31.6103 17.8144 31.5847 17.6864 31.5592 17.584 31.5335 17.4561 31.5592 17.328 31.5847 17.2257 31.6359 17.0977 31.6871 16.9953 31.7639 16.893 31.8407 16.7649 31.943L16.509 31.7639 17.712 30.1002 22.4471 29.8442 20.7578 28.6413C20.5019 28.462 20.2716 28.3341 20.118 28.2573 19.9644 28.2061 19.8364 28.1805 19.7085 28.2061 19.6061 28.2317 19.5037 28.2829 19.4013 28.3853 19.2733 28.4877 19.1966 28.5644 19.1197 28.6156L18.9406 28.462 20.2971 26.568 20.5275 26.7472Z" fill="#9B0000" fill-rule="nonzero" fill-opacity="1" transform="matrix(1 0 0 1.00729 405.995 263.104)"/></g><g clip-path="url(#clip16)"><path d="M29.9722 22.2424C29.921 22.2936 29.8698 22.3448 29.8187 22.3959 29.7675 22.4471 29.7418 22.4983 29.6906 22.5752 29.6394 22.6775 29.6139 22.7543 29.6394 22.8311 29.6651 22.9079 29.6906 22.9847 29.7418 23.0614L30.1258 23.5478C30.2025 23.6502 30.2794 23.7269 30.3306 23.7781 30.3818 23.8293 30.4329 23.9061 30.5097 24.0085 30.4073 24.29 30.2025 24.6484 29.8954 25.0579 29.5882 25.4674 29.2811 25.8258 28.9484 26.0817 28.6413 26.3377 28.3085 26.5168 27.9758 26.6448 27.6174 26.7727 27.2846 26.8239 26.9263 26.7984 26.568 26.7727 26.2353 26.6704 25.9025 26.4912 25.5698 26.312 25.2627 26.0561 24.9811 25.6977 24.7251 25.3394 24.5203 25.0067 24.4179 24.6227 24.29 24.2644 24.2644 23.9061 24.29 23.5222 24.3412 23.1638 24.4691 22.8055 24.6484 22.4728 24.8531 22.1144 25.1346 21.8073 25.493 21.5257 25.7489 21.3466 25.9793 21.1674 26.2353 21.065 26.4912 20.9626 26.696 20.8859 26.9008 20.8602L26.952 20.5531 27.2079 20.3483 28.4877 21.884 28.2317 22.0888C27.6942 21.7305 27.2591 21.5513 26.8496 21.4745 26.4656 21.4233 26.1073 21.5257 25.7746 21.7817 25.3906 22.0888 25.237 22.4728 25.2882 22.9847 25.3394 23.4966 25.621 24.0341 26.0817 24.6227 26.5936 25.237 27.0799 25.6465 27.5662 25.8513 28.0525 26.0561 28.4877 25.9793 28.846 25.6722 29.0251 25.5186 29.1532 25.365 29.2556 25.2115 29.3579 25.0579 29.4091 24.9043 29.4347 24.7763L28.7436 23.9061C28.6925 23.8293 28.6156 23.7781 28.5644 23.7526 28.4877 23.7269 28.4109 23.7269 28.3085 23.7526 28.2317 23.7781 28.1294 23.8038 28.027 23.8549 27.9246 23.9061 27.8222 23.9572 27.771 23.9829L27.5918 23.8038 29.793 22.0121 29.9722 22.2424Z" fill="#9B0000" fill-rule="nonzero" fill-opacity="1" transform="matrix(1 0 0 1.00729 405.995 263.104)"/></g><g clip-path="url(#clip17)"><path d="M42.6931 14.0774C42.6163 14.1031 42.5139 14.1543 42.3859 14.2055 42.258 14.2567 42.1556 14.3334 42.0788 14.4358 42.002 14.5126 41.9508 14.6405 41.9764 14.8198 41.9764 14.9733 42.0276 15.2293 42.1044 15.562L42.6163 17.5073C42.7699 18.0704 42.6931 18.6078 42.4116 19.043 42.1044 19.5037 41.6437 19.8109 41.0038 19.99 40.2615 20.1947 39.6217 20.1692 39.1098 19.9388 38.5979 19.7085 38.2651 19.2989 38.1115 18.6846L37.3948 15.9972C37.3693 15.9203 37.3436 15.8436 37.2925 15.7924 37.2413 15.7412 37.1645 15.69 37.0621 15.6644 36.9853 15.6388 36.9086 15.6388 36.8062 15.6388 36.7038 15.6388 36.627 15.6644 36.5758 15.6644L36.499 15.3829 39.2634 14.6405 39.3401 14.9222C39.2634 14.9477 39.1865 14.9733 39.1098 15.0245 39.033 15.0501 38.9562 15.1013 38.8794 15.1525 38.777 15.2037 38.7515 15.2805 38.7258 15.3572 38.7003 15.4341 38.7258 15.5108 38.7515 15.6132L39.4681 18.2751C39.6217 18.787 39.8265 19.1454 40.108 19.3245 40.4151 19.5037 40.7734 19.5292 41.2085 19.4269 41.6437 19.2989 41.9508 19.0942 42.13 18.7614 42.3092 18.4287 42.3347 18.0192 42.1812 17.5073L41.7204 15.7156C41.6437 15.4084 41.5413 15.1781 41.4645 15.0245 41.3877 14.871 41.2854 14.7941 41.183 14.7429 41.1061 14.7174 40.9782 14.6917 40.799 14.6917 40.6199 14.6917 40.5175 14.6917 40.4407 14.6917L40.3639 14.3846 42.6675 13.7703 42.6931 14.0774Z" fill="#9B0000" fill-rule="nonzero" fill-opacity="1" transform="matrix(1 0 0 1.00729 405.995 263.104)"/></g><g clip-path="url(#clip18)"><path d="M52.9825 13.6936C52.9056 13.6936 52.8033 13.7191 52.6753 13.7191 52.5473 13.7448 52.4194 13.7959 52.317 13.8727 52.2146 13.9495 52.1634 14.0519 52.1122 14.231 52.061 14.3846 52.061 14.6405 52.0354 14.9733L51.9842 18.8894 51.2932 18.8894 47.9657 14.615 47.9402 17.1745C47.9402 17.4816 47.9657 17.7376 47.9914 17.8911 48.0426 18.0704 48.0938 18.1727 48.1961 18.2495 48.2729 18.3007 48.3753 18.3519 48.5288 18.403 48.6824 18.4542 48.7848 18.4799 48.8872 18.5054L48.8872 18.8126 46.5324 18.787 46.5324 18.4799C46.6348 18.4542 46.7372 18.4542 46.8652 18.4287 46.9931 18.403 47.0955 18.3519 47.1979 18.3007 47.3003 18.2239 47.3771 18.1215 47.4026 17.968 47.4538 17.8144 47.4538 17.5584 47.4538 17.2257L47.4795 14.6405C47.4795 14.5126 47.4538 14.3846 47.4283 14.2822 47.3771 14.1798 47.3259 14.0774 47.2491 13.9751 47.1723 13.8983 47.07 13.8215 46.9419 13.7703 46.8395 13.7191 46.686 13.6679 46.558 13.6424L46.558 13.3096 48.6312 13.3352 51.5491 17.0721 51.5747 14.9989C51.5747 14.6662 51.5747 14.4358 51.5235 14.2567 51.4723 14.1031 51.4211 13.9751 51.3187 13.8983 51.242 13.8471 51.1396 13.7959 50.986 13.7448 50.8324 13.6936 50.7301 13.6679 50.6277 13.6424L50.6277 13.3608 52.9568 13.3864 52.9825 13.6936Z" fill="#9B0000" fill-rule="nonzero" fill-opacity="1" transform="matrix(1 0 0 1.00729 405.995 263.104)"/></g><g clip-path="url(#clip19)"><path d="M58.8438 20.2204 55.9004 19.4781 55.9771 19.1966C56.0538 19.1966 56.1563 19.2221 56.2842 19.2477 56.4123 19.2733 56.5146 19.2733 56.5658 19.2733 56.6681 19.2477 56.745 19.2221 56.7962 19.1709 56.8474 19.1197 56.8729 19.043 56.8985 18.9661L57.8712 15.2293C57.8967 15.1525 57.8967 15.0757 57.8712 14.9989 57.8455 14.9222 57.7943 14.8453 57.7176 14.7941 57.6664 14.7429 57.5896 14.7174 57.4616 14.6405 57.3593 14.5894 57.2569 14.5382 57.18 14.5126L57.2569 14.231 60.2003 14.9989 60.1491 15.2293C60.0724 15.2293 59.97 15.2037 59.8676 15.1781 59.7396 15.1525 59.6629 15.1525 59.5605 15.1525 59.4581 15.1525 59.3813 15.2037 59.3301 15.2548 59.2789 15.306 59.2533 15.3829 59.2277 15.4853L58.2551 19.2221C58.2295 19.3245 58.2295 19.4013 58.2551 19.4525 58.2807 19.5292 58.3319 19.5804 58.4086 19.6573 58.4598 19.6828 58.5367 19.734 58.639 19.7852 58.7414 19.8364 58.8438 19.862 58.9205 19.8876L58.8438 20.2204Z" fill="#9B0000" fill-rule="nonzero" fill-opacity="1" transform="matrix(1 0 0 1.00729 405.995 263.104)"/></g><g clip-path="url(#clip20)"><path d="M69.5938 19.4781C69.5171 19.4525 69.4403 19.4269 69.3635 19.4013 69.2867 19.3757 69.1843 19.3757 69.1076 19.3757 68.9795 19.3757 68.8772 19.4013 68.7748 19.4269 68.698 19.4781 68.5957 19.5292 68.4676 19.6061 68.314 19.734 68.1093 19.9132 67.8021 20.1435 67.5206 20.374 67.1879 20.6299 66.8295 20.9371 66.4968 21.193 66.1385 21.5002 65.7545 21.8328 65.3706 22.14 64.9866 22.4728 64.6539 22.7543L63.9885 22.4216C64.0908 21.4745 64.1677 20.5275 64.2701 19.5549 64.3723 18.5823 64.4235 17.8911 64.4492 17.5073 64.4492 17.3792 64.4492 17.2513 64.4492 17.1745 64.4235 17.0977 64.3723 16.9953 64.3212 16.8673 64.2701 16.7906 64.2189 16.7137 64.1677 16.6625 64.1164 16.6114 64.0396 16.5602 63.9629 16.4834L64.1164 16.2275 66.7271 17.6096 66.548 17.8656C66.2921 17.7632 66.0873 17.6864 65.9849 17.6864 65.8825 17.6608 65.8057 17.6864 65.7801 17.7376 65.7801 17.7632 65.7545 17.7888 65.7545 17.8144 65.7545 17.8399 65.729 17.8911 65.729 17.9423 65.7033 18.1727 65.6521 18.5823 65.6009 19.1197 65.5497 19.6828 65.473 20.5275 65.345 21.6537 65.8825 21.193 66.3176 20.8347 66.7016 20.5019 67.0599 20.1947 67.3926 19.9132 67.6486 19.6828 67.7766 19.5549 67.9045 19.4525 68.0069 19.3501 68.1093 19.2477 68.1861 19.1709 68.2117 19.0942 68.2629 19.0173 68.2373 18.9406 68.1605 18.8382 68.0837 18.7358 67.9045 18.5823 67.623 18.4287L67.751 18.1727 69.6962 19.1966 69.5938 19.4781Z" fill="#9B0000" fill-rule="nonzero" fill-opacity="1" transform="matrix(1 0 0 1.00729 405.995 263.104)"/></g><g clip-path="url(#clip21)"><path d="M75.5063 25.8258 75.276 25.621C75.3784 25.4162 75.404 25.1858 75.4296 24.9043 75.4296 24.6227 75.404 24.4179 75.3016 24.2644 75.2504 24.1876 75.1737 24.1108 75.0968 24.0341 74.9944 23.9317 74.9177 23.8549 74.8665 23.8038L74.2778 23.2662 72.8701 24.8275 73.2796 25.2115C73.382 25.2882 73.4844 25.365 73.5867 25.4162 73.6891 25.4674 73.817 25.493 73.9451 25.493 74.0218 25.493 74.1498 25.4418 74.2778 25.3906 74.4058 25.3138 74.5337 25.2627 74.6361 25.1858L74.8409 25.3906 73.3051 27.0543 73.0748 26.8496C73.126 26.7727 73.2028 26.6448 73.2539 26.4656 73.3051 26.2865 73.3563 26.1841 73.3563 26.0817 73.3563 25.9537 73.3308 25.8513 73.2796 25.7489 73.2284 25.6465 73.126 25.5442 73.0236 25.4418L72.6141 25.0834 71.5646 26.2353C71.4624 26.3632 71.3855 26.4656 71.3343 26.5424 71.2831 26.6192 71.2831 26.7215 71.2831 26.7984 71.2831 26.8751 71.3343 26.952 71.4112 27.0543 71.4879 27.1311 71.5903 27.2591 71.7439 27.387 71.8206 27.4382 71.8974 27.5151 71.9743 27.5918 72.0765 27.6686 72.1534 27.7454 72.2302 27.7966 72.307 27.8477 72.4093 27.9246 72.4862 27.9501 72.5886 28.0013 72.6396 28.0013 72.7165 28.0013 72.8956 28.0013 73.126 27.9501 73.4075 27.8477 73.6891 27.7454 73.8939 27.6942 74.0218 27.6174L74.2266 27.7966 72.9981 28.974 69.2355 25.5186 69.4403 25.2882C69.4914 25.3394 69.5683 25.3906 69.6707 25.4674 69.773 25.5442 69.8498 25.5698 69.901 25.5953 70.0034 25.621 70.0802 25.6465 70.1569 25.621 70.2338 25.5953 70.285 25.5442 70.3617 25.4674L72.9468 22.6264C72.9981 22.5495 73.0493 22.4983 73.0748 22.4216 73.1004 22.3448 73.0748 22.268 73.0236 22.1656 72.9981 22.0888 72.9468 22.0121 72.8701 21.9097 72.7933 21.8073 72.7421 21.7305 72.6909 21.6793L72.8956 21.449 76.4534 24.6995 75.5063 25.8258Z" fill="#9B0000" fill-rule="nonzero" fill-opacity="1" transform="matrix(1 0 0 1.00729 405.995 263.104)"/></g><g clip-path="url(#clip22)"><path d="M80.3439 32.1478C80.651 31.943 80.8046 31.7127 80.8558 31.4568 80.8814 31.2008 80.8046 30.9192 80.5998 30.5865L80.4207 30.3306 78.5011 31.5592 78.6546 31.8151C78.8594 32.1223 79.0897 32.3269 79.3713 32.3781 79.6528 32.4549 79.9856 32.3781 80.3439 32.1478M78.3475 36.5246 77.2213 34.7585C77.5028 34.1698 77.7076 33.6579 77.8356 33.2995 77.9892 32.9157 78.1427 32.4549 78.2963 31.943L78.1939 31.7639 76.8118 32.6597C76.7349 32.7109 76.6837 32.7621 76.6326 32.8388 76.607 32.89 76.5814 32.9924 76.607 33.0948 76.607 33.146 76.6326 33.2228 76.6837 33.3252 76.7349 33.4276 76.7606 33.5043 76.7861 33.5812L76.5302 33.7347 74.9432 31.2776 75.1992 31.124C75.2504 31.1752 75.3016 31.252 75.3784 31.3544 75.4552 31.4568 75.5063 31.508 75.5575 31.5335 75.6344 31.5847 75.7368 31.6103 75.788 31.6103 75.8647 31.6103 75.9415 31.5847 76.0183 31.5335L79.2433 29.4603C79.3201 29.4091 79.3713 29.3579 79.4225 29.3067 79.4737 29.2556 79.4737 29.1532 79.4481 29.0508 79.4225 28.974 79.3969 28.8716 79.3457 28.7436 79.2945 28.6413 79.2689 28.5644 79.2433 28.4877L79.4993 28.3341 81.1629 30.8937C81.5469 31.4823 81.726 31.9687 81.7517 32.3781 81.7517 32.7876 81.5724 33.1204 81.2141 33.3507 80.8814 33.5555 80.5743 33.6323 80.2671 33.5812 79.96 33.53 79.6273 33.3252 79.2689 33.0436 79.1666 33.2995 79.0642 33.6323 78.9362 33.9907 78.8082 34.349 78.6802 34.7074 78.5523 35.0912 78.5011 35.2193 78.4754 35.3728 78.4242 35.552 78.3731 35.7567 78.3731 35.8848 78.3987 36.0127 78.4242 36.0639 78.4499 36.1407 78.4754 36.2174 78.5011 36.2943 78.5266 36.371 78.5523 36.3967L78.3475 36.5246Z" fill="#9B0000" fill-rule="nonzero" fill-opacity="1" transform="matrix(1 0 0 1.00729 405.995 263.104)"/></g><g clip-path="url(#clip23)"><path d="M79.8832 41.0038C79.7809 40.6966 79.704 40.3895 79.704 40.0824 79.6785 39.7753 79.704 39.5193 79.7552 39.2889L79.4225 39.1098 79.3201 38.8026 81.1886 38.1372 81.2909 38.4443C81.1374 38.5722 80.9838 38.7258 80.8302 38.905 80.6766 39.0841 80.5486 39.2634 80.4462 39.4681 80.3439 39.6729 80.2671 39.8777 80.2159 40.108 80.1647 40.3127 80.1904 40.543 80.2671 40.799 80.3695 41.1318 80.5486 41.3621 80.7534 41.4645 80.9582 41.5925 81.2141 41.6181 81.4445 41.5157 81.6493 41.4389 81.7772 41.3109 81.8796 41.1318 81.9564 40.927 82.0076 40.6711 82.0076 40.3127 82.0076 40.0824 82.0076 39.8777 82.0076 39.6729 82.0076 39.4937 82.0076 39.3146 82.0076 39.1353 82.0332 38.7515 82.1356 38.4187 82.3403 38.1627 82.5451 37.9067 82.801 37.7276 83.1338 37.6252 83.3386 37.5484 83.5434 37.5229 83.7481 37.5484 83.9529 37.5741 84.1832 37.6508 84.3879 37.7532 84.5927 37.8556 84.7719 38.0348 84.9255 38.2651 85.1046 38.4955 85.2327 38.7515 85.335 39.033 85.4374 39.3146 85.4886 39.5961 85.4886 39.8777 85.4886 40.1592 85.4886 40.3895 85.463 40.543L85.7446 40.6966 85.847 41.0038 84.1065 41.6181 84.0041 41.3109C84.1576 41.183 84.3368 41.0294 84.4903 40.8502 84.6439 40.6966 84.7719 40.5175 84.8743 40.3639 84.9767 40.1847 85.0279 40.0312 85.0791 39.852 85.1046 39.6729 85.1046 39.4681 85.0279 39.2634 84.951 39.0074 84.7975 38.8026 84.5927 38.7003 84.3879 38.5722 84.1832 38.5722 83.9529 38.6234 83.7481 38.7003 83.5945 38.8282 83.5177 39.0074 83.441 39.1865 83.3898 39.4681 83.3898 39.8008 83.3898 40.0056 83.3898 40.2103 83.3898 40.4151 83.3898 40.6199 83.3898 40.799 83.3898 40.9782 83.3641 41.3877 83.2874 41.7204 83.1082 41.9764 82.9291 42.2323 82.6731 42.4371 82.3148 42.5395 82.0844 42.6163 81.854 42.6419 81.6236 42.5907 81.3677 42.5651 81.1629 42.4628 80.9582 42.3347 80.7278 42.1812 80.5486 42.002 80.3695 41.7716 80.1391 41.6437 79.9856 41.3366 79.8832 41.0038" fill="#9B0000" fill-rule="nonzero" fill-opacity="1" transform="matrix(1 0 0 1.00729 405.995 263.104)"/></g><g clip-path="url(#clip24)"><path d="M81.6493 49.3991 81.3421 46.3788 81.6493 46.3533C81.6748 46.43 81.6748 46.5324 81.7005 46.6604 81.726 46.7884 81.7517 46.8907 81.7772 46.9164 81.8284 47.0188 81.8796 47.07 81.9564 47.0955 82.0076 47.1211 82.11 47.1211 82.2124 47.1211L86.0517 46.7372C86.1541 46.7372 86.2053 46.7116 86.282 46.6604 86.3332 46.6092 86.3844 46.558 86.4101 46.4557 86.4356 46.4045 86.4356 46.3021 86.4612 46.1741 86.4868 46.0461 86.4868 45.9437 86.4868 45.8669L86.7939 45.8414 87.1011 48.8615 86.7939 48.8872C86.7684 48.8103 86.7427 48.708 86.7172 48.6056 86.6916 48.5032 86.666 48.4008 86.6148 48.3241 86.5636 48.2217 86.5124 48.1705 86.4356 48.1449 86.3589 48.1193 86.282 48.1193 86.1796 48.1193L82.3403 48.5032C82.2379 48.5032 82.1612 48.5288 82.11 48.58 82.0588 48.6312 82.0076 48.6824 81.982 48.7848 81.9564 48.836 81.9564 48.9384 81.9308 49.0663 81.9308 49.1943 81.9308 49.2967 81.9308 49.3735L81.6493 49.3991Z" fill="#9B0000" fill-rule="nonzero" fill-opacity="1" transform="matrix(1 0 0 1.00729 405.995 263.104)"/></g><g clip-path="url(#clip25)"><path d="M85.0022 58.2039 85.0279 57.8967C85.2582 57.8455 85.5398 57.7431 85.8213 57.6152 86.1029 57.4616 86.2565 57.3336 86.3077 57.18 86.3332 57.1033 86.3589 57.0009 86.3589 56.8729 86.3844 56.745 86.3844 56.6426 86.4101 56.5658L86.4356 56.3866 82.1867 55.8747C82.0844 55.8747 82.0076 55.8747 81.9308 55.9004 81.854 55.9259 81.8028 55.9771 81.7517 56.0795 81.726 56.1307 81.7005 56.2331 81.6493 56.3354 81.5981 56.4634 81.5724 56.5658 81.5724 56.6426L81.2653 56.6169 81.6236 53.5968 81.9052 53.6223C81.9052 53.6991 81.9052 53.8015 81.9052 53.9295 81.9052 54.0575 81.9052 54.1599 81.9308 54.2111 81.9564 54.3134 82.0076 54.3902 82.0588 54.4414 82.11 54.4926 82.2124 54.5182 82.2891 54.5182L86.5636 55.0301 86.5892 54.8509C86.6148 54.7742 86.6148 54.6718 86.6148 54.5438 86.6148 54.4158 86.6148 54.339 86.6148 54.2366 86.6148 54.083 86.4868 53.9039 86.2308 53.6991 85.9749 53.4944 85.7701 53.3408 85.5398 53.2384L85.5653 52.9313 87.1267 53.1104 86.5124 58.3574 85.0022 58.2039Z" fill="#9B0000" fill-rule="nonzero" fill-opacity="1" transform="matrix(1 0 0 1.00729 405.995 263.104)"/></g><g clip-path="url(#clip26)"><path d="M83.2362 67.6486C83.2618 67.5718 83.2618 67.4695 83.2874 67.3926 83.2874 67.3159 83.2874 67.239 83.2618 67.1623 83.2362 67.0343 83.2106 66.9063 83.1594 66.804 83.1082 66.7016 83.0314 66.5736 82.9546 66.4456 82.7755 66.2152 82.5963 65.9593 82.3915 65.6778 82.1867 65.3962 81.9564 65.1147 81.726 64.7819 81.5724 64.5771 81.4445 64.4235 81.3421 64.3468 81.2397 64.2701 81.0605 64.1932 80.8046 64.0908L80.088 63.8093C80.0112 63.7837 79.9088 63.7581 79.832 63.7837 79.7552 63.7837 79.6785 63.8349 79.6016 63.9117 79.5761 63.9373 79.5249 64.0141 79.4225 64.142 79.3457 64.2701 79.2945 64.3468 79.2689 64.4235L78.9874 64.3212 80.088 61.4801 80.3695 61.5825C80.3439 61.6593 80.3183 61.7617 80.2928 61.8896 80.2671 62.0177 80.2416 62.12 80.2416 62.1712 80.2416 62.2736 80.2671 62.3503 80.3183 62.4015 80.3695 62.4527 80.4462 62.5039 80.5231 62.5296L81.4189 62.8623C81.4957 62.8879 81.5724 62.9134 81.6236 62.9391 81.6748 62.9646 81.726 62.9646 81.7772 62.9646 81.8284 62.9646 81.9052 62.9646 81.982 62.9391 82.0588 62.9134 82.1867 62.9134 82.3148 62.8879 82.6987 62.8367 83.0826 62.7855 83.441 62.7087 83.7993 62.6575 84.132 62.5808 84.4391 62.5296 84.5927 62.5039 84.7463 62.4527 84.8487 62.4015 84.951 62.3503 85.0534 62.2992 85.1303 62.2224 85.1815 62.1712 85.2582 62.0944 85.3094 62.0177 85.3606 61.9408 85.4118 61.8641 85.4374 61.7872L85.7189 61.8896 84.5927 64.8075 84.3112 64.7051C84.4136 64.4235 84.4648 64.2444 84.4648 64.142 84.4648 64.0396 84.4391 63.9629 84.3879 63.9629 84.3624 63.9629 84.3112 63.9629 84.2088 63.9629 84.1065 63.9629 83.9784 63.9885 83.7737 64.0141 83.5945 64.0396 83.3386 64.0653 83.0058 64.1164 82.6731 64.1677 82.2891 64.2444 81.8284 64.3212 82.366 65.0635 82.7498 65.5497 82.9802 65.8313 83.2106 66.1128 83.3386 66.2664 83.4153 66.2921 83.4922 66.3176 83.5689 66.2921 83.6713 66.2152 83.7481 66.1385 83.8505 65.9849 83.9272 65.7545L84.2088 65.8569 83.4922 67.751 83.2362 67.6486Z" fill="#9B0000" fill-rule="nonzero" fill-opacity="1" transform="matrix(1 0 0 1.00729 405.995 263.104)"/></g><g clip-path="url(#clip27)"><path d="M66.7016 65.5497C65.7801 63.3742 64.7051 61.3777 63.5534 59.586 62.3248 57.7176 61.0194 56.0795 59.6117 54.7485 58.1015 53.3152 56.489 52.189 54.8254 51.4211 53.7247 50.9092 52.5985 50.5508 51.4467 50.3717L51.4467 49.0663C51.4467 47.8378 50.4485 46.8395 49.2199 46.8395 47.9914 46.8395 46.9931 47.8378 46.9931 49.0663L46.9931 50.3717C45.8414 50.5765 44.7152 50.9348 43.6402 51.4211 41.9764 52.189 40.3639 53.3152 38.8538 54.7485 37.446 56.0795 36.1151 57.7176 34.9121 59.586 33.7603 61.3522 32.6853 63.3742 31.7639 65.5497 31.3032 66.6504 31.7895 67.9045 32.89 68.3652 33.9907 68.826 35.2448 68.314 35.7055 67.239 37.3948 63.2974 39.4937 60.0467 41.8228 57.8455 43.4866 56.2586 45.2271 55.2092 47.0188 54.7485L47.0188 58.2551C47.0188 59.4581 46.1229 59.9188 45.7133 60.1748 45.5854 60.2515 45.3038 60.4307 45.1759 60.5075 44.3568 61.045 43.4097 61.8641 42.5139 63.0158 40.927 65.0635 39.6729 67.8533 39.0074 70.8736 38.7515 72.0254 39.4937 73.1772 40.6454 73.4332 41.7973 73.6891 42.949 72.9468 43.205 71.795 43.7169 69.3891 44.6895 67.2135 45.8926 65.6521 46.5069 64.8587 47.761 63.5277 49.2199 63.5277 50.6789 63.5277 51.933 64.8587 52.5473 65.6521 53.7503 67.2135 54.723 69.3891 55.2349 71.795 55.4908 72.9468 56.6426 73.6891 57.7943 73.4332 58.9462 73.1772 59.6884 72.051 59.4324 70.8736 58.767 67.8533 57.5384 65.0635 55.9259 63.0158 55.0301 61.8896 54.083 61.045 53.264 60.5075 53.136 60.4307 52.8544 60.2515 52.7265 60.1748 52.317 59.9188 51.4467 59.4581 51.4467 58.2551L51.4467 54.7485C53.2384 55.2092 54.9533 56.2586 56.6426 57.8455 58.9717 60.0467 61.0706 63.2974 62.7599 67.239 63.2206 68.3397 64.5004 68.826 65.5754 68.3652 66.6759 67.9045 67.1879 66.6504 66.7016 65.5497M51.1396 29.8954 51.1396 29.9722 51.1396 42.6675 51.1396 43.7937C51.1396 44.5359 51.677 45.5854 52.8289 45.8414 55.414 46.3788 58.3574 47.8889 61.0194 50.0901 63.6301 52.2402 66.0873 55.0813 68.314 58.511 68.954 59.5093 70.285 59.7908 71.2831 59.1509 71.9231 58.7414 72.2558 58.0503 72.2558 57.3336 72.2558 56.9241 72.1534 56.5146 71.8974 56.1563 69.4403 52.3682 66.6759 49.2199 63.7325 46.7628 61.1218 44.5871 58.3831 43.0514 55.5932 42.1556L55.5932 37.2157C59.6117 38.3163 63.8093 40.6199 67.4438 43.7169 68.3397 44.4848 69.6962 44.3824 70.4641 43.4866 71.2319 42.5907 71.1296 41.2342 70.2338 40.4663 67.9302 38.4955 65.2938 36.7294 62.6319 35.3728 60.2772 34.1954 57.9224 33.3252 55.5932 32.7876L55.5932 29.921C55.5932 28.6925 54.5949 27.6942 53.3664 27.6942 52.1378 27.6686 51.1396 28.6668 51.1396 29.8954M45.099 27.6686C43.8705 27.6686 42.8723 28.6668 42.8723 29.8954L42.8723 32.7621C40.543 33.2995 38.1884 34.1698 35.8336 35.3472 33.1716 36.7038 30.5353 38.4443 28.2317 40.4407 27.3358 41.2085 27.2335 42.5651 28.0013 43.4609 28.7692 44.3568 30.1258 44.4592 31.0216 43.6913 34.6305 40.5942 38.8282 38.2907 42.8723 37.1901L42.8723 42.13C40.0824 43.0514 37.3436 44.5871 34.7074 46.7372 31.7639 49.1687 29.0251 52.317 26.5424 56.1307 26.312 56.489 26.1841 56.8985 26.1841 57.3081 26.1841 58.0247 26.5424 58.6902 27.1567 59.1253 28.1549 59.7652 29.4859 59.4836 30.1258 58.4855 32.3526 55.0557 34.8097 52.2146 37.4205 50.0646 40.0824 47.8634 43.0259 46.3533 45.611 45.8157 46.7628 45.5598 47.2747 44.5104 47.2747 43.7681L47.2747 42.6419 47.2747 29.9466 47.2747 29.8698C47.3259 28.6668 46.3276 27.6686 45.099 27.6686M77.3492 51.2675C77.3492 66.804 64.7563 79.3969 49.2199 79.3969 33.6835 79.3969 21.0906 66.804 21.0906 51.2675 21.0906 35.7312 33.6835 23.1383 49.2199 23.1383 64.7563 23.1383 77.3492 35.7312 77.3492 51.2675" fill="#9B0000" fill-rule="nonzero" fill-opacity="1" transform="matrix(1 0 0 1.00729 405.995 263.104)"/></g><g clip-path="url(#clip28)"><path d="M114.744 82.0332C114.948 81.726 115.102 81.4189 115.154 81.1117 115.231 80.8046 115.256 80.4975 115.256 80.2416 115.256 79.8832 115.205 79.5249 115.128 79.1666 115.051 78.8082 114.898 78.4754 114.693 78.2195 114.488 77.938 114.181 77.7076 113.848 77.554 113.49 77.4004 113.054 77.3237 112.543 77.3237L111.237 77.3237 111.237 83.1338 112.184 83.1338C112.85 83.1338 113.388 83.0314 113.797 82.8267 114.207 82.6219 114.513 82.366 114.744 82.0332M117.56 79.8064C117.56 80.4975 117.431 81.1117 117.15 81.6236 116.894 82.1612 116.51 82.5963 116.024 82.9546 115.563 83.3129 115.025 83.5689 114.462 83.7225 113.9 83.876 113.311 83.9529 112.671 83.9529L111.186 83.9529 111.186 87.9458C111.186 88.1761 111.212 88.3553 111.289 88.5089 111.365 88.6624 111.494 88.7904 111.724 88.8928 111.826 88.944 112.031 88.9695 112.313 89.0207 112.594 89.0719 112.85 89.0719 113.106 89.0975L113.106 89.763 107.5 89.763 107.5 89.0719C107.654 89.0719 107.859 89.0463 108.141 88.9952 108.422 88.9695 108.601 88.9184 108.73 88.8672 108.908 88.7904 109.036 88.6624 109.113 88.5089 109.19 88.3553 109.242 88.1505 109.242 87.9201L109.242 78.3987C109.242 78.1939 109.216 77.9892 109.139 77.81 109.088 77.6308 108.934 77.5028 108.704 77.4261 108.473 77.3492 108.243 77.298 108.012 77.2468 107.782 77.2213 107.577 77.1957 107.423 77.1701L107.423 76.5046 113.439 76.5046C114.667 76.5046 115.666 76.8118 116.407 77.4004 117.176 78.0147 117.56 78.8082 117.56 79.8064" fill="#000000" fill-rule="nonzero" fill-opacity="1" transform="matrix(1 0 0 1.00729 405.995 263.104)"/></g><g clip-path="url(#clip29)"><path d="M130.178 85.847 129.923 89.7374 118.993 89.7374 118.993 89.0719C119.172 89.0719 119.428 89.0463 119.735 88.9952 120.043 88.944 120.247 88.9184 120.35 88.8672 120.555 88.7648 120.682 88.6624 120.759 88.5089 120.836 88.3553 120.862 88.1761 120.862 87.9458L120.862 78.4499C120.862 78.2451 120.836 78.0659 120.759 77.9123 120.682 77.7588 120.555 77.6308 120.324 77.5284 120.144 77.4516 119.94 77.3749 119.658 77.3237 119.377 77.2725 119.146 77.2213 118.993 77.2213L118.993 76.5558 129.18 76.5558 129.18 79.7297 128.489 79.7297C128.361 79.2689 128.104 78.7826 127.695 78.2707 127.286 77.7588 126.902 77.4773 126.518 77.4261 126.313 77.4004 126.083 77.3749 125.827 77.3749 125.571 77.3749 125.263 77.3492 124.905 77.3492L122.833 77.3492 122.833 82.5451 124.316 82.5451C124.803 82.5451 125.136 82.4939 125.366 82.4171 125.571 82.3403 125.775 82.1867 125.955 81.9564 126.083 81.7772 126.21 81.5469 126.287 81.2397 126.39 80.9326 126.441 80.651 126.467 80.3951L127.157 80.3951 127.157 85.5653 126.467 85.5653C126.441 85.2582 126.364 84.951 126.262 84.6184 126.16 84.2856 126.032 84.0553 125.929 83.9017 125.725 83.6457 125.52 83.5177 125.263 83.4153 125.008 83.3386 124.701 83.3129 124.292 83.3129L122.807 83.3129 122.807 87.2547C122.807 87.6386 122.833 87.9713 122.884 88.1761 122.934 88.4065 123.037 88.5856 123.216 88.688 123.37 88.816 123.6 88.8928 123.881 88.9184 124.163 88.944 124.547 88.9695 125.059 88.9695L125.852 88.9695C126.186 88.9695 126.467 88.9695 126.697 88.944 126.928 88.9184 127.183 88.8672 127.414 88.816 127.669 88.7648 127.849 88.6624 127.952 88.56 128.233 88.2529 128.541 87.8178 128.847 87.2035 129.154 86.5892 129.359 86.1541 129.436 85.8725L130.178 85.8725Z" fill="#000000" fill-rule="nonzero" fill-opacity="1" transform="matrix(1 0 0 1.00729 405.995 263.104)"/></g><g clip-path="url(#clip30)"><path d="M143.743 89.7374 140.032 89.7374C139.316 88.6368 138.522 87.5363 137.652 86.4612 136.782 85.3862 135.86 84.3112 134.913 83.2874L134.682 83.2874 134.682 87.8689C134.682 88.0737 134.734 88.2529 134.785 88.4065 134.862 88.56 134.99 88.688 135.194 88.7904 135.297 88.8416 135.477 88.8928 135.732 88.944 135.989 88.9952 136.218 89.0463 136.398 89.0463L136.398 89.7118 130.946 89.7118 130.946 89.0719C131.099 89.0719 131.305 89.0463 131.56 89.0207 131.841 88.9952 132.021 88.9695 132.149 88.9184 132.328 88.8416 132.482 88.7136 132.559 88.56 132.635 88.4065 132.687 88.2017 132.687 87.997L132.687 78.4754C132.687 78.2707 132.661 78.0915 132.584 77.938 132.507 77.7844 132.379 77.6564 132.149 77.554 131.97 77.4773 131.791 77.4004 131.56 77.3492 131.33 77.298 131.125 77.2468 130.946 77.2468L130.946 76.5302 136.398 76.5302 136.398 77.1957C136.218 77.1957 136.014 77.2213 135.758 77.2725 135.502 77.3237 135.323 77.3749 135.194 77.4261 134.99 77.5028 134.836 77.6308 134.785 77.7844 134.708 77.9635 134.682 78.1427 134.682 78.3475L134.682 82.9034 134.862 82.9034C135.425 82.4427 135.963 81.9308 136.501 81.4189 137.037 80.907 137.524 80.3951 137.959 79.8832 138.445 79.3201 138.804 78.8594 139.034 78.5266 139.265 78.1939 139.366 77.8868 139.366 77.6308 139.366 77.5284 139.316 77.4516 139.188 77.4004 139.085 77.3492 138.931 77.298 138.804 77.2468 138.625 77.2213 138.471 77.1957 138.343 77.1701 138.215 77.1701 138.087 77.1445 138.01 77.1445L138.01 76.5302 142.95 76.5302 142.95 77.1957C142.925 77.1957 142.899 77.1957 142.822 77.1957 142.771 77.1957 142.694 77.1957 142.618 77.2213 142.541 77.2213 142.438 77.2468 142.361 77.2468 142.284 77.2725 142.157 77.2725 142.029 77.298 141.824 77.3492 141.594 77.4261 141.363 77.5284 141.133 77.6308 140.928 77.7844 140.8 77.938 140.161 78.6546 139.495 79.4225 138.804 80.1904 138.113 80.9582 137.422 81.6748 136.73 82.3148 137.677 83.3898 138.445 84.2856 139.06 85.0534 139.674 85.8213 140.339 86.6404 141.031 87.5106 141.286 87.8434 141.568 88.1249 141.824 88.3041 142.08 88.5089 142.31 88.6624 142.515 88.7648 142.668 88.8416 142.873 88.9184 143.104 88.944 143.334 88.9952 143.539 89.0207 143.718 89.0207L143.718 89.7374Z" fill="#000000" fill-rule="nonzero" fill-opacity="1" transform="matrix(1 0 0 1.00729 405.995 263.104)"/></g><g clip-path="url(#clip31)"><path d="M150.373 89.7374 144.409 89.7374 144.409 89.0719C144.588 89.0719 144.819 89.0463 145.126 89.0207 145.433 88.9952 145.663 88.9695 145.791 88.9184 145.996 88.8416 146.15 88.7392 146.227 88.5856 146.329 88.4577 146.355 88.2529 146.355 87.997L146.355 78.4499C146.355 78.2195 146.329 78.0659 146.252 77.9123 146.175 77.7588 146.021 77.6564 145.766 77.554 145.586 77.4773 145.356 77.4004 145.074 77.3492 144.793 77.2725 144.562 77.2468 144.384 77.2213L144.384 76.5302 150.347 76.5302 150.347 77.1957C150.143 77.1957 149.912 77.2213 149.657 77.2725 149.4 77.298 149.145 77.3492 148.965 77.4261 148.735 77.5028 148.581 77.6308 148.479 77.7844 148.402 77.9635 148.35 78.1427 148.35 78.3475L148.35 87.8946C148.35 88.0993 148.402 88.2785 148.479 88.4321 148.581 88.5856 148.735 88.7136 148.939 88.816 149.068 88.8672 149.272 88.9184 149.58 88.9695 149.886 89.0207 150.117 89.0719 150.322 89.0719L150.322 89.7374Z" fill="#000000" fill-rule="nonzero" fill-opacity="1" transform="matrix(1 0 0 1.00729 405.995 263.104)"/></g><g clip-path="url(#clip32)"><path d="M165.142 77.1957C164.962 77.1957 164.707 77.2468 164.348 77.3492 163.99 77.4516 163.734 77.554 163.58 77.6308 163.349 77.7844 163.196 78.0915 163.119 78.5266 163.042 78.9618 162.991 79.5249 162.991 80.1904L162.991 89.8654 162.172 89.8654 154.161 79.0642 154.161 85.8725C154.161 86.6404 154.212 87.2291 154.315 87.6386 154.416 88.0482 154.545 88.3297 154.75 88.5089 154.903 88.6368 155.185 88.7648 155.62 88.8928 156.081 89.0207 156.362 89.0719 156.516 89.0719L156.516 89.7374 151.115 89.7374 151.115 89.0719C151.294 89.0719 151.551 88.9952 151.96 88.8928 152.344 88.7904 152.599 88.688 152.702 88.5856 152.907 88.4065 153.06 88.1505 153.137 87.7922 153.214 87.4339 153.265 86.8196 153.265 85.9749L153.265 79.4737C153.265 79.1921 153.214 78.9106 153.111 78.6035 153.009 78.3219 152.881 78.0915 152.728 77.938 152.498 77.7332 152.216 77.554 151.832 77.4004 151.448 77.2468 151.14 77.1701 150.91 77.1701L150.91 76.5302 154.673 76.5302 162.095 86.5892 162.095 80.3183C162.095 79.5505 162.044 78.9618 161.942 78.5523 161.84 78.1427 161.712 77.8611 161.506 77.7332 161.328 77.6052 161.046 77.5028 160.662 77.4004 160.278 77.298 159.972 77.2213 159.766 77.2213L159.766 76.5302 165.142 76.5302 165.142 77.1957Z" fill="#000000" fill-rule="nonzero" fill-opacity="1" transform="matrix(1 0 0 1.00729 405.995 263.104)"/></g><g clip-path="url(#clip33)"><path d="M178.988 84.4391C178.835 84.4648 178.63 84.4903 178.374 84.516 178.118 84.5672 177.913 84.6184 177.76 84.6951 177.581 84.7975 177.452 84.9255 177.376 85.0791 177.299 85.2327 177.274 85.4374 177.274 85.6677L177.274 86.6916C177.274 87.4339 177.274 87.9458 177.274 88.2017 177.274 88.4577 177.299 88.6624 177.299 88.8416 176.481 89.2255 175.661 89.5071 174.842 89.7118 174.023 89.9166 173.229 90.019 172.436 90.019 171.592 90.019 170.773 89.8654 170.004 89.5326 169.237 89.2255 168.545 88.7648 167.957 88.1761 167.368 87.5874 166.908 86.8708 166.55 86.0261 166.19 85.1815 166.038 84.2344 166.038 83.185 166.038 82.1867 166.19 81.2397 166.524 80.3951 166.856 79.5505 167.317 78.7826 167.932 78.1683 168.52 77.554 169.211 77.0677 170.03 76.7094 170.849 76.3511 171.72 76.1975 172.641 76.1975 173.383 76.1975 174.023 76.2999 174.587 76.479 175.123 76.6582 175.61 76.8885 176.045 77.1445L176.429 76.5046 177.171 76.5046 177.248 81.1117 176.481 81.1117C176.352 80.5998 176.199 80.088 175.994 79.6016 175.815 79.1154 175.558 78.6546 175.251 78.2707 174.945 77.8868 174.587 77.5796 174.151 77.3237 173.715 77.0933 173.203 76.9653 172.59 76.9653 171.924 76.9653 171.335 77.0933 170.824 77.3749 170.312 77.6308 169.851 78.0404 169.467 78.5778 169.083 79.0897 168.802 79.7297 168.597 80.4975 168.392 81.2653 168.29 82.1356 168.29 83.0826 168.29 83.9272 168.392 84.7207 168.597 85.463 168.802 86.2053 169.083 86.8451 169.467 87.3827 169.851 87.9458 170.338 88.3809 170.9 88.688 171.489 88.9952 172.129 89.1743 172.871 89.1743 173.409 89.1743 173.921 89.0975 174.356 88.9184 174.791 88.7648 175.123 88.5856 175.303 88.3809 175.354 88.0482 175.38 87.741 175.38 87.4082 175.38 87.0755 175.38 86.7939 175.38 86.5636L175.38 85.847C175.38 85.591 175.354 85.3606 175.277 85.1558 175.2 84.951 175.073 84.7975 174.842 84.7207 174.637 84.6184 174.356 84.5672 173.998 84.516 173.64 84.4648 173.383 84.4391 173.179 84.4391L173.179 83.7737 178.963 83.7737 178.963 84.4391Z" fill="#000000" fill-rule="nonzero" fill-opacity="1" transform="matrix(1 0 0 1.00729 405.995 263.104)"/></g><g clip-path="url(#clip34)"><path d="M197.955 77.1957C197.775 77.1957 197.52 77.2468 197.186 77.298 196.854 77.3749 196.573 77.4773 196.368 77.6052 196.163 77.7332 196.009 78.0404 195.933 78.4754 195.856 78.9362 195.804 79.4737 195.804 80.1135L195.804 85.847C195.804 86.5892 195.651 87.2035 195.344 87.741 195.037 88.2785 194.627 88.7136 194.141 89.0719 193.655 89.4047 193.143 89.6606 192.579 89.7886 192.042 89.9421 191.531 90.019 191.019 90.019 190.225 90.019 189.508 89.9166 188.894 89.7118 188.279 89.5071 187.743 89.2255 187.332 88.8672 186.923 88.5089 186.59 88.0993 186.385 87.6642 186.181 87.2035 186.078 86.7427 186.078 86.2308L186.078 78.4242C186.078 78.2195 186.053 78.0404 185.976 77.8868 185.899 77.7332 185.772 77.6052 185.541 77.4773 185.388 77.4004 185.183 77.3237 184.952 77.2725 184.722 77.2213 184.517 77.1957 184.364 77.1701L184.364 76.5302 189.815 76.5302 189.815 77.1957C189.637 77.1957 189.431 77.2213 189.176 77.2725 188.919 77.3237 188.714 77.3749 188.613 77.4004 188.407 77.4773 188.254 77.6052 188.203 77.7588 188.126 77.938 188.101 78.1171 188.101 78.3219L188.101 85.591C188.101 85.9493 188.126 86.3077 188.229 86.6916 188.305 87.0755 188.459 87.4339 188.69 87.7666 188.945 88.0993 189.252 88.3809 189.687 88.6112 190.097 88.816 190.685 88.944 191.403 88.944 192.093 88.944 192.656 88.8416 193.117 88.6112 193.578 88.3809 193.936 88.0993 194.218 87.741 194.473 87.4082 194.653 87.0499 194.756 86.6916 194.857 86.3332 194.909 85.9493 194.909 85.591L194.909 80.1904C194.909 79.4993 194.857 78.9362 194.756 78.5011 194.653 78.0659 194.499 77.7844 194.321 77.6308 194.115 77.4773 193.809 77.3492 193.424 77.2725 193.04 77.1957 192.759 77.1445 192.554 77.1189L192.554 76.5302 197.955 76.5302 197.955 77.1957Z" fill="#000000" fill-rule="nonzero" fill-opacity="1" transform="matrix(1 0 0 1.00729 405.995 263.104)"/></g><g clip-path="url(#clip35)"><path d="M212.8 77.1957C212.621 77.1957 212.365 77.2468 212.007 77.3492 211.649 77.4516 211.392 77.554 211.239 77.6308 211.008 77.7844 210.854 78.0915 210.778 78.5266 210.701 78.9618 210.65 79.5249 210.65 80.1904L210.65 89.8654 209.831 89.8654 201.82 79.0642 201.82 85.8725C201.82 86.6404 201.87 87.2291 201.973 87.6386 202.075 88.0482 202.229 88.3297 202.408 88.5089 202.536 88.6368 202.843 88.7648 203.279 88.8928 203.714 89.0207 204.021 89.0719 204.149 89.0719L204.149 89.7374 198.748 89.7374 198.748 89.0719C198.928 89.0719 199.183 88.9952 199.592 88.8928 199.977 88.7904 200.233 88.688 200.335 88.5856 200.539 88.4065 200.693 88.1505 200.77 87.7922 200.847 87.4339 200.899 86.8196 200.899 85.9749L200.899 79.4737C200.899 79.1921 200.847 78.9106 200.745 78.6035 200.642 78.3219 200.514 78.0915 200.361 77.938 200.13 77.7332 199.849 77.554 199.465 77.4004 199.08 77.2468 198.774 77.1701 198.544 77.1701L198.544 76.5302 202.306 76.5302 209.729 86.5892 209.729 80.3183C209.729 79.5505 209.677 78.9618 209.575 78.5523 209.472 78.1427 209.345 77.8611 209.14 77.7332 208.96 77.6052 208.679 77.5028 208.295 77.4004 207.912 77.298 207.604 77.2213 207.4 77.2213L207.4 76.5302 212.774 76.5302 212.774 77.1957Z" fill="#000000" fill-rule="nonzero" fill-opacity="1" transform="matrix(1 0 0 1.00729 405.995 263.104)"/></g><g clip-path="url(#clip36)"><path d="M219.275 89.7374 213.312 89.7374 213.312 89.0719C213.491 89.0719 213.721 89.0463 214.029 89.0207 214.336 88.9952 214.566 88.9695 214.694 88.9184 214.899 88.8416 215.052 88.7392 215.155 88.5856 215.257 88.4577 215.283 88.2529 215.283 87.997L215.283 78.4499C215.283 78.2195 215.257 78.0659 215.18 77.9123 215.103 77.7588 214.95 77.6564 214.694 77.554 214.515 77.4773 214.284 77.4004 214.003 77.3492 213.721 77.2725 213.491 77.2468 213.312 77.2213L213.312 76.5302 219.275 76.5302 219.275 77.1957C219.071 77.1957 218.84 77.2213 218.585 77.2725 218.304 77.298 218.073 77.3492 217.893 77.4261 217.663 77.5028 217.509 77.6308 217.407 77.7844 217.331 77.9635 217.28 78.1427 217.28 78.3475L217.28 87.8946C217.28 88.0993 217.331 88.2785 217.407 88.4321 217.509 88.5856 217.663 88.7136 217.867 88.816 217.996 88.8672 218.201 88.9184 218.508 88.9695 218.814 89.0207 219.045 89.0719 219.251 89.0719L219.251 89.7374Z" fill="#000000" fill-rule="nonzero" fill-opacity="1" transform="matrix(1 0 0 1.00729 405.995 263.104)"/></g><g clip-path="url(#clip37)"><path d="M233.2 77.1957C233.046 77.1957 232.842 77.2468 232.611 77.298 232.381 77.3492 232.201 77.4261 232.047 77.5284 231.843 77.6564 231.664 77.8356 231.535 78.0404 231.408 78.2451 231.28 78.5011 231.152 78.7826 230.742 79.7552 230.102 81.3165 229.283 83.3898 228.439 85.4886 227.594 87.6386 226.724 89.9166L225.956 89.9166C225.06 87.5106 224.216 85.207 223.371 82.9802 222.551 80.7534 221.989 79.2433 221.681 78.4754 221.605 78.2963 221.503 78.1171 221.374 77.9635 221.246 77.81 221.093 77.682 220.888 77.554 220.734 77.4516 220.53 77.3749 220.325 77.3237 220.121 77.2725 219.941 77.2468 219.762 77.2213L219.762 76.5302 225.214 76.5302 225.214 77.1957C224.753 77.2213 224.37 77.2725 224.036 77.3237 223.729 77.4004 223.55 77.5028 223.55 77.682 223.55 77.7588 223.55 77.8356 223.575 77.938 223.601 78.0404 223.627 78.1171 223.627 78.1683 223.858 78.7826 224.216 79.7552 224.753 81.1374 225.265 82.5195 226.007 84.4648 226.954 86.9987 227.415 85.847 227.978 84.4903 228.593 82.9291 229.206 81.3677 229.616 80.2928 229.821 79.704 230.026 79.1409 230.153 78.757 230.179 78.5266 230.205 78.3219 230.23 78.1427 230.23 77.9892 230.23 77.8356 230.179 77.7332 230.052 77.6308 229.924 77.5284 229.744 77.4516 229.54 77.4004 229.335 77.3237 229.13 77.298 228.925 77.2468 228.72 77.2213 228.49 77.1957 228.285 77.1701L228.285 76.5302 233.2 76.5302 233.2 77.1957Z" fill="#000000" fill-rule="nonzero" fill-opacity="1" transform="matrix(1 0 0 1.00729 405.995 263.104)"/></g><g clip-path="url(#clip38)"><path d="M244.794 85.847 244.539 89.7374 233.609 89.7374 233.609 89.0719C233.789 89.0719 234.044 89.0463 234.351 88.9952 234.659 88.944 234.863 88.9184 234.966 88.8672 235.171 88.7648 235.298 88.6624 235.375 88.5089 235.452 88.3553 235.503 88.1761 235.503 87.9458L235.503 78.4499C235.503 78.2451 235.478 78.0659 235.401 77.9123 235.324 77.7588 235.196 77.6308 234.966 77.5284 234.786 77.4516 234.582 77.3749 234.3 77.3237 234.018 77.2725 233.789 77.2213 233.635 77.2213L233.635 76.5558 243.821 76.5558 243.821 79.7297 243.131 79.7297C243.003 79.2689 242.747 78.7826 242.337 78.2707 241.927 77.7588 241.518 77.4773 241.16 77.4261 240.98 77.4004 240.75 77.3749 240.468 77.3749 240.213 77.3749 239.906 77.3492 239.573 77.3492L237.5 77.3492 237.5 82.5451 238.985 82.5451C239.47 82.5451 239.803 82.4939 240.033 82.4171 240.238 82.3403 240.443 82.1867 240.622 81.9564 240.75 81.7772 240.879 81.5469 240.955 81.2397 241.057 80.9326 241.108 80.651 241.16 80.3951L241.85 80.3951 241.85 85.5653 241.108 85.5653C241.083 85.2582 241.006 84.951 240.903 84.6184 240.802 84.2856 240.673 84.0553 240.571 83.9017 240.367 83.6457 240.161 83.5177 239.906 83.4153 239.649 83.3386 239.343 83.3129 238.933 83.3129L237.449 83.3129 237.449 87.2547C237.449 87.6386 237.474 87.9713 237.526 88.1761 237.577 88.4065 237.678 88.5856 237.858 88.688 238.012 88.816 238.242 88.8928 238.524 88.9184 238.805 88.944 239.189 88.9695 239.701 88.9695L240.494 88.9695C240.827 88.9695 241.108 88.9695 241.339 88.944 241.569 88.9184 241.825 88.8672 242.056 88.816 242.311 88.7648 242.491 88.6624 242.593 88.56 242.874 88.2529 243.182 87.8178 243.489 87.2035 243.796 86.5892 244.001 86.1541 244.078 85.8725L244.794 85.8725Z" fill="#000000" fill-rule="nonzero" fill-opacity="1" transform="matrix(1 0 0 1.00729 405.995 263.104)"/></g><g clip-path="url(#clip39)"><path d="M254.136 79.9088C254.136 79.1154 253.906 78.4754 253.446 78.0147 252.985 77.554 252.319 77.3237 251.475 77.3237L249.887 77.3237 249.887 82.9802 251.117 82.9802C251.987 82.9802 252.703 82.6987 253.266 82.1612 253.855 81.5981 254.136 80.8558 254.136 79.9088M259.025 89.7374 255.442 89.7374C254.648 88.5089 253.958 87.4594 253.317 86.5636 252.677 85.6677 251.987 84.7463 251.244 83.7993L249.887 83.7993 249.887 87.9713C249.887 88.1761 249.913 88.3809 249.99 88.5344 250.067 88.688 250.195 88.816 250.425 88.9184 250.528 88.9695 250.733 88.9952 251.014 89.0463 251.295 89.0719 251.526 89.0975 251.705 89.1231L251.705 89.7886 246.176 89.7886 246.176 89.0719C246.33 89.0719 246.534 89.0463 246.816 88.9952 247.098 88.9695 247.277 88.9184 247.405 88.8672 247.584 88.7904 247.712 88.6624 247.789 88.5089 247.866 88.3553 247.917 88.1505 247.917 87.9201L247.917 78.3731C247.917 78.1683 247.892 77.9635 247.815 77.7844 247.763 77.6052 247.61 77.4773 247.38 77.4004 247.226 77.3492 247.021 77.298 246.791 77.2468 246.534 77.1957 246.33 77.1701 246.176 77.1701L246.176 76.5302 252.268 76.5302C252.831 76.5302 253.343 76.5814 253.829 76.7094 254.316 76.8118 254.777 77.0165 255.16 77.2725 255.544 77.5284 255.852 77.8356 256.082 78.2451 256.313 78.6546 256.414 79.1409 256.414 79.704 256.414 80.2159 256.338 80.651 256.184 81.0605 256.03 81.4445 255.801 81.8028 255.493 82.0844 255.212 82.366 254.879 82.5963 254.495 82.7755 254.111 82.9802 253.676 83.1338 253.189 83.2874 253.829 84.1576 254.393 84.8743 254.828 85.463 255.263 86.0517 255.801 86.7684 256.414 87.613 256.696 87.9713 256.926 88.2529 257.157 88.4321 257.387 88.6112 257.592 88.7392 257.822 88.8672 257.976 88.944 258.181 89.0207 258.436 89.0463 258.693 89.0975 258.871 89.1231 259.051 89.1231L259.051 89.7374Z" fill="#000000" fill-rule="nonzero" fill-opacity="1" transform="matrix(1 0 0 1.00729 405.995 263.104)"/></g><g clip-path="url(#clip40)"><path d="M267.727 83.6969C268.009 84.0041 268.214 84.3368 268.342 84.7207 268.47 85.0791 268.547 85.5142 268.547 86.0005 268.547 87.1779 268.112 88.1249 267.267 88.8928 266.397 89.6606 265.347 90.0445 264.067 90.0445 263.478 90.0445 262.891 89.9421 262.302 89.7374 261.713 89.5326 261.201 89.3023 260.791 89.0463L260.382 89.7374 259.64 89.7374 259.512 85.2327 260.254 85.2327C260.407 85.7958 260.587 86.3077 260.791 86.7427 260.996 87.2035 261.278 87.613 261.61 87.997 261.943 88.3809 262.302 88.6624 262.737 88.8928 263.172 89.1231 263.658 89.2255 264.247 89.2255 264.682 89.2255 265.066 89.1743 265.373 89.0463 265.706 88.944 265.961 88.7904 266.141 88.5856 266.345 88.3809 266.473 88.1249 266.576 87.8689 266.679 87.5874 266.729 87.2803 266.729 86.922 266.729 86.3844 266.576 85.8981 266.294 85.4374 266.013 84.9767 265.552 84.6439 264.963 84.3879 264.554 84.2344 264.093 84.0553 263.581 83.8505 263.069 83.6457 262.608 83.4665 262.225 83.3129 261.483 82.9802 260.894 82.5451 260.484 82.0076 260.075 81.4701 259.87 80.7534 259.87 79.8832 259.87 79.3713 259.972 78.9106 260.177 78.4754 260.382 78.0404 260.663 77.6564 261.048 77.3237 261.406 76.9909 261.815 76.7606 262.327 76.5558 262.814 76.3766 263.326 76.2742 263.863 76.2742 264.477 76.2742 265.014 76.3766 265.501 76.5558 265.987 76.7349 266.422 76.9653 266.806 77.2213L267.191 76.5814 267.933 76.5814 268.009 80.9582 267.267 80.9582C267.139 80.4462 266.985 79.9856 266.806 79.5249 266.627 79.0642 266.422 78.6546 266.141 78.2707 265.859 77.9123 265.552 77.6308 265.168 77.4004 264.785 77.1957 264.298 77.0677 263.761 77.0677 263.172 77.0677 262.66 77.2468 262.25 77.6308 261.841 78.0147 261.636 78.4754 261.636 79.013 261.636 79.5761 261.764 80.0624 262.045 80.4207 262.302 80.8046 262.685 81.1117 263.197 81.3421 263.658 81.5724 264.093 81.7517 264.528 81.9052 264.963 82.0588 265.398 82.2379 265.808 82.4171 266.167 82.5707 266.525 82.7498 266.883 82.9546 267.191 83.185 267.472 83.4153 267.727 83.6969" fill="#000000" fill-rule="nonzero" fill-opacity="1" transform="matrix(1 0 0 1.00729 405.995 263.104)"/></g><g clip-path="url(#clip41)"><path d="M275.944 89.7374 270.006 89.7374 270.006 89.0719C270.159 89.0719 270.416 89.0463 270.722 89.0207 271.029 88.9952 271.26 88.9695 271.388 88.9184 271.592 88.8416 271.746 88.7392 271.849 88.5856 271.951 88.4577 271.976 88.2529 271.976 87.997L271.976 78.4499C271.976 78.2195 271.951 78.0659 271.875 77.9123 271.798 77.7588 271.644 77.6564 271.388 77.554 271.209 77.4773 270.978 77.4004 270.697 77.3492 270.416 77.2725 270.185 77.2468 270.006 77.2213L270.006 76.5302 275.944 76.5302 275.944 77.1957C275.739 77.1957 275.535 77.2213 275.252 77.2725 274.997 77.298 274.74 77.3492 274.562 77.4261 274.331 77.5028 274.178 77.6308 274.076 77.7844 273.999 77.9635 273.947 78.1427 273.947 78.3475L273.947 87.8946C273.947 88.0993 273.999 88.2785 274.076 88.4321 274.178 88.5856 274.331 88.7136 274.536 88.816 274.664 88.8672 274.869 88.9184 275.176 88.9695 275.458 89.0207 275.713 89.0719 275.918 89.0719L275.918 89.7374Z" fill="#000000" fill-rule="nonzero" fill-opacity="1" transform="matrix(1 0 0 1.00729 405.995 263.104)"/></g><g clip-path="url(#clip42)"><path d="M288.357 80.1135 287.718 80.1135C287.667 79.8832 287.564 79.6273 287.41 79.3201 287.257 79.013 287.103 78.7314 286.925 78.4499 286.745 78.1683 286.54 77.9123 286.31 77.7076 286.079 77.5028 285.875 77.3749 285.67 77.3492 285.466 77.3237 285.235 77.298 284.928 77.298 284.646 77.298 284.365 77.2725 284.109 77.2725L283.572 77.2725 283.572 87.8434C283.572 88.0482 283.623 88.2273 283.699 88.4065 283.801 88.5856 283.93 88.7136 284.16 88.7904 284.262 88.8416 284.519 88.8928 284.851 88.9695 285.209 89.0463 285.491 89.0719 285.67 89.0975L285.67 89.763 279.45 89.763 279.45 89.0719C279.63 89.0719 279.885 89.0463 280.244 88.9952 280.602 88.9695 280.832 88.9184 280.986 88.8672 281.191 88.7904 281.344 88.6624 281.447 88.5089 281.549 88.3553 281.601 88.1505 281.601 87.8946L281.601 77.2468 281.063 77.2468C280.883 77.2468 280.628 77.2468 280.347 77.2468 280.065 77.2725 279.783 77.2725 279.527 77.298 279.323 77.3237 279.118 77.4516 278.888 77.6564 278.682 77.8868 278.453 78.1171 278.273 78.3987 278.094 78.6802 277.915 78.9874 277.787 79.2945 277.633 79.6016 277.556 79.8576 277.48 80.0624L276.814 80.0624 276.814 76.479 288.332 76.479 288.332 80.1135Z" fill="#000000" fill-rule="nonzero" fill-opacity="1" transform="matrix(1 0 0 1.00729 405.995 263.104)"/></g><g clip-path="url(#clip43)"><path d="M301.847 77.1957C301.744 77.1957 301.564 77.2468 301.335 77.3237 301.104 77.4004 300.951 77.4773 300.848 77.554 300.592 77.7076 300.439 77.81 300.362 77.8868 300.285 77.9635 300.105 78.1683 299.85 78.5266 299.364 79.2178 298.928 79.9088 298.519 80.5998 298.11 81.2909 297.598 82.1867 296.983 83.2618 296.753 83.6457 296.599 83.9784 296.522 84.2088 296.445 84.4391 296.42 84.7975 296.42 85.2582L296.42 87.7666C296.42 87.997 296.471 88.1761 296.548 88.3553 296.651 88.5089 296.805 88.6624 297.009 88.7392 297.137 88.7904 297.367 88.8416 297.7 88.9184 298.033 88.9952 298.314 89.0207 298.519 89.0207L298.519 89.6862 292.35 89.6862 292.35 89.0719C292.53 89.0719 292.786 89.0463 293.118 88.9952 293.477 88.9695 293.707 88.9184 293.835 88.8672 294.065 88.7648 294.219 88.6624 294.296 88.4832 294.373 88.3297 294.424 88.1249 294.424 87.8946L294.424 84.6951C294.424 84.5927 294.373 84.4136 294.245 84.1576 294.116 83.9017 293.989 83.5945 293.81 83.2874 293.426 82.5707 293.016 81.8028 292.581 80.9582 292.12 80.1135 291.736 79.3969 291.403 78.8082 291.198 78.4499 291.02 78.1939 290.866 78.0147 290.712 77.8356 290.533 77.682 290.328 77.5284 290.175 77.4516 289.996 77.3749 289.791 77.3237 289.586 77.2725 289.407 77.2468 289.228 77.2213L289.228 76.5302 294.859 76.5302 294.859 77.1957C294.219 77.2213 293.784 77.2468 293.527 77.3237 293.272 77.4004 293.144 77.5028 293.144 77.6308 293.144 77.6564 293.169 77.7332 293.195 77.8356 293.221 77.938 293.298 78.0404 293.349 78.1939 293.426 78.3475 293.527 78.5523 293.63 78.757 293.733 78.9618 293.835 79.1666 293.938 79.3713 294.219 79.9088 294.526 80.4719 294.834 81.035 295.14 81.5724 295.524 82.2891 296.01 83.185 296.983 81.6236 297.726 80.3951 298.237 79.5249 298.749 78.6546 299.005 78.1171 299.005 77.9635 299.005 77.81 298.954 77.7076 298.852 77.6052 298.749 77.5284 298.622 77.4516 298.442 77.4004 298.263 77.3492 298.058 77.3237 297.853 77.298 297.649 77.2725 297.444 77.2725 297.265 77.2468L297.265 76.5302 301.847 76.5302 301.847 77.1957Z" fill="#000000" fill-rule="nonzero" fill-opacity="1" transform="matrix(1 0 0 1.00729 405.995 263.104)"/></g><g clip-path="url(#clip44)"><path d="M151.371 49.9877C150.987 50.0389 150.604 50.0646 150.245 50.0901 149.196 50.3973 148.044 50.8324 146.841 51.2163 145.612 51.6259 143.846 52.2913 142.541 51.3187 142.438 51.2163 142.49 51.2932 142.413 51.0884 143.59 49.8342 143.565 49.0919 145.356 48.2473 145.382 47.0188 145.868 45.5342 145.254 44.7407 145.382 42.8723 147.583 43.7937 149.222 43.3842 150.219 43.1282 151.474 42.7699 152.293 42.258 153.265 41.6437 154.238 40.3127 154.673 39.1865 154.853 38.7258 154.647 37.7788 154.903 37.3693L154.903 36.4478C154.827 36.2686 152.011 35.3472 151.627 35.0912 151.346 34.8865 150.604 34.2978 150.501 33.965 150.398 33.6579 150.527 33.3764 150.398 33.1716 150.27 32.89 150.143 32.9157 149.938 32.7109 149.374 32.7621 149.196 32.9669 148.965 33.1716 148.888 33.2484 148.76 33.2995 148.71 33.3764 148.658 33.4531 148.71 33.5555 148.71 33.6579L148.71 36.4222C148.427 37.0365 147.199 37.3948 146.662 37.7788 146.201 38.2651 145.74 38.7515 145.305 39.2634 144.639 39.2122 144.588 38.9562 144.179 38.7003 143.206 34.1186 142.771 30.2794 139.649 27.9246 138.906 27.3615 138.318 26.2353 137.371 25.8769 137.037 26.7727 136.602 27.7198 136.347 28.6413 136.295 28.846 136.372 29.0508 136.321 29.2556 135.758 31.3544 135.323 33.5043 134.759 35.7312 134.632 36.2686 133.966 39.1098 134.069 39.5961 134.555 41.8485 135.194 44.7407 135.758 46.8395 136.04 47.8122 135.809 48.5288 136.09 49.4503 136.602 51.0884 138.061 55.3373 139.265 56.1307 140.621 57.0265 142.848 57.436 144.588 56.6938 145.126 56.4634 145.586 55.6956 145.944 55.5676L147.634 55.5676C149.298 55.1068 150.962 54.6718 152.625 54.2111 153.214 53.9551 154.699 53.1616 155.108 52.7265 155.723 52.1122 155.748 50.9092 156.464 50.2437 156.49 49.4246 156.388 49.0919 156.132 48.6568 154.033 48.7848 152.805 49.4503 151.371 49.9877" fill="#9B0000" fill-rule="nonzero" fill-opacity="1" transform="matrix(1 0 0 1.00729 405.995 263.104)"/></g><g clip-path="url(#clip45)"><path d="M120.427 51.5747 120.427 53.0337C120.221 53.4944 119.172 53.8783 118.737 54.1599 118.353 54.4158 117.918 54.8765 117.483 55.0557 116.69 55.414 115.998 55.414 115.333 55.8492 114.719 56.2331 114.027 56.7962 113.413 57.2057 112.953 57.5128 111.314 58.1527 110.572 57.6664 110.47 57.6152 110.341 57.5896 110.239 57.564 110.316 56.3354 111.212 55.798 111.724 54.9533 112.722 53.3408 114.027 51.9842 115 50.4229 115.077 50.167 115.154 49.8854 115.231 49.6294 115.589 49.0663 116.331 48.6056 116.587 47.9402 118.584 47.9914 119.608 46.9676 119.991 45.4318 120.273 45.4574 120.375 45.483 120.555 45.5598 120.579 46.814 120.605 48.2985 120.555 49.527 120.503 50.1413 120.682 51.1651 120.427 51.5747M126.313 35.1424C126.287 33.6323 126.339 31.9175 126.083 30.7145 125.878 29.7418 126.313 28.462 125.981 27.6686 124.931 25.2115 120.503 23.0359 118.046 21.7817 117.099 21.2954 117.099 20.3483 115.768 20.0924 115.46 20.0412 114.847 20.7066 114.872 20.8859 114.796 22.4216 115.998 23.0359 116.792 24.0341 117.278 24.6484 117.585 25.3394 118.046 25.9537 118.762 26.9263 119.991 27.7454 120.427 28.9996 121.117 31.0216 121.143 36.1407 120.656 38.4187L120.656 40.6966C120.579 41.5669 120.503 42.4371 120.427 43.3074 119.786 43.077 119.377 42.4371 118.737 42.1812 118.25 42.1044 117.764 42.0276 117.253 41.9508 116.792 41.6692 116.51 41.1318 115.895 40.927 115.205 40.6966 114.59 40.9526 113.848 40.6966 113.054 40.4151 112.825 39.8008 111.571 39.8008 111.314 39.8265 110.853 40.2103 110.879 40.3639 111.059 41.3109 111.852 41.7973 112.133 42.6419L112.133 43.5378C112.313 44.2544 112.518 45.2271 112.696 46.0205 112.978 47.3259 112.159 48.0681 111.903 48.8615 110.905 52.1122 110.316 55.3885 107.782 57.0521 107.68 57.1033 107.603 57.18 107.552 57.3081 107.5 57.3848 107.5 57.6664 107.5 57.7431 107.449 59.6117 107.142 63.2462 108.857 63.8093 108.908 63.8605 109.036 63.9117 109.036 63.9117 109.216 63.9885 110.751 63.9885 111.033 63.9117 111.647 63.6046 112.722 62.0177 113.413 61.5313 114.437 60.7891 115.563 60.3283 116.587 59.6117 116.767 59.3813 116.971 59.1509 117.15 58.9462 118.2 58.1783 119.197 57.3593 120.093 56.4634 120.196 56.4123 120.375 56.3866 120.427 56.4634 120.503 56.8474 120.682 57.692 120.427 58.0503 120.401 59.9956 120.196 61.3777 120.99 62.5808 121.425 62.6063 122.09 62.6319 122.346 62.4784 123.242 62.1456 123.677 60.6355 124.035 59.7652 125.008 57.4872 125.239 54.7742 125.852 52.061 125.878 51.1139 125.929 50.167 125.955 49.2199 126.518 46.6604 126.416 43.5378 126.416 40.5942 126.467 39.4169 126.493 38.2395 126.518 37.0877 126.416 36.499 126.313 35.8079 126.313 35.1424" fill="#9B0000" fill-rule="nonzero" fill-opacity="1" transform="matrix(1 0 0 1.00729 405.995 263.104)"/></g><g clip-path="url(#clip46)"><path d="M271.26 30.2794C271.618 30.7656 272.258 31.1496 272.616 31.6359 273.793 33.2995 274.127 36.7294 274.766 38.8794 276.814 38.8538 277.658 37.0877 278.631 35.9359 278.631 33.1204 275.739 28.7948 274.101 27.6686 273.154 27.0031 272.002 26.7215 271.029 26.0817 270.006 25.3906 269.443 24.4179 268.188 23.9317 268.009 23.8805 267.651 24.2644 267.626 24.3924L267.626 26.2096C268.035 26.5424 268.47 26.9008 268.88 27.2335 269.673 28.2829 270.467 29.2044 271.26 30.2794" fill="#9B0000" fill-rule="nonzero" fill-opacity="1" transform="matrix(1 0 0 1.00729 405.995 263.104)"/></g><g clip-path="url(#clip47)"><path d="M291.89 31.9687C291.455 32.5573 291.122 33.2484 290.763 33.8883 290.456 33.8627 290.379 33.8371 290.201 33.7859 289.867 32.1223 289.74 30.8425 289.177 29.5882 288.793 29.5115 288.588 29.4603 288.255 29.6906 287.59 30.2537 288.076 31.7383 287.232 32.4038 286.899 32.7364 286.028 31.4568 285.772 31.2776 285.978 28.846 288.307 27.0543 289.509 25.493 291.685 25.5442 293.246 26.6192 295.294 26.7472 295.217 29.4347 293.067 30.3818 291.89 31.9687M295.498 33.4531C297.265 31.1752 299.62 29.0763 300.72 26.2096 301.028 25.3906 302.384 23.3942 301.513 22.2424 301.129 21.6537 300.029 22.0121 299.235 21.7817 298.877 21.6793 298.622 21.2954 298.34 21.2186 297.828 21.065 297.29 21.4745 296.983 21.5513 295.55 22.0121 294.322 22.1656 293.016 22.6775 292.427 22.9079 290.789 23.9061 290.073 23.471 289.97 23.4454 289.842 23.3942 289.74 23.3686 289.867 21.193 291.403 19.9132 292.12 18.1471 292.325 17.6352 292.991 16.2787 292.581 15.6644 292.53 14.6405 291.455 13.9495 290.891 13.3864 290.712 13.2328 289.867 13.5143 289.867 13.8471 289.919 16.7394 288.691 19.862 287.026 20.9882 286.489 21.3466 286.028 21.193 285.337 21.449 284.211 21.8328 283.034 22.9847 281.703 22.0121 281.012 22.0121 280.935 22.1144 280.577 22.3448 280.705 23.471 281.37 24.4179 282.265 24.7251 282.496 24.8531 283.315 24.7507 283.853 24.7251 283.827 25.621 283.137 26.3632 282.599 26.7727 282.599 27.1567 282.625 27.4382 282.701 27.6686 283.93 27.8989 284.16 27.2591 285.312 27.2079 285.132 28.4877 284.084 29.102 283.495 30.049 282.726 30.2025 281.601 30.3049 280.883 30.3818 280.832 30.3818 280.756 30.4841 280.782 30.5097 280.807 31.3799 281.14 31.6615 281.678 31.9687 281.37 33.146 280.423 33.9907 279.758 34.9121 279.501 35.2705 278.734 35.7824 279.194 36.499 279.348 36.755 279.527 36.7805 279.885 36.8317 281.037 35.7312 282.957 35.2193 283.52 33.5555 285.312 33.6579 285.312 34.0931 286.361 34.8097 286.31 35.4496 286.002 36.1151 285.67 36.499 285.67 36.9341 285.696 37.3436 285.798 37.6252 287.155 37.5741 289.177 35.7824 290.098 36.371L290.328 36.371C290.175 37.1389 289.304 37.1645 288.742 37.4972 287.538 38.2395 286.105 38.7258 284.774 39.4169 282.983 40.3639 280.986 41.4133 279.348 42.4883 278.862 42.6419 278.376 42.7954 277.864 42.949 275.176 44.5359 272.616 46.5324 269.827 48.0426 269.75 48.2473 269.801 48.1449 269.724 48.2729 269.724 48.6312 269.775 48.8615 269.827 49.0663 273.282 49.783 276.047 48.1961 278.453 47.2491 281.678 45.9693 284.748 43.8705 287.41 41.9252 288.281 41.2854 288.895 40.236 289.791 39.6472 290.482 39.1865 291.097 39.0074 291.71 38.521L292.274 38.521C292.069 39.2122 291.583 39.4937 291.25 40.0056 291.122 40.3127 291.02 40.6199 290.917 40.9014 290.303 41.4645 289.715 42.0276 289.1 42.5907 288.819 42.9747 288.562 43.5633 288.179 43.8449 287.283 44.5359 286.259 45.2014 285.567 46.1229 285.466 46.2764 285.619 46.8907 285.67 47.2491 287.487 47.0955 288.537 45.9181 289.867 45.3295 290.687 44.9455 291.583 44.8687 292.35 44.4336 292.888 44.1264 293.144 43.5121 293.604 43.1794 295.806 41.5413 297.802 40.2615 297.341 36.2686 296.779 36.0639 295.959 36.0383 295.524 35.7055L293.144 35.7055C293.503 34.3746 294.808 34.3746 295.498 33.4531" fill="#9B0000" fill-rule="nonzero" fill-opacity="1" transform="matrix(1 0 0 1.00729 405.995 263.104)"/></g><g clip-path="url(#clip48)"><path d="M267.626 42.3859C267.907 43.0514 268.649 43.8193 268.88 44.5359 269.366 44.6383 269.596 44.5871 270.133 44.5359 271.004 43.6145 271.567 42.7954 271.823 41.2342 272.053 39.9032 269.315 36.5502 268.419 36.2431 268.188 36.0895 267.676 36.1151 267.292 36.1407 267.114 36.9086 267.549 39.2634 267.626 40.108L267.626 42.3859Z" fill="#9B0000" fill-rule="nonzero" fill-opacity="1" transform="matrix(1 0 0 1.00729 405.995 263.104)"/></g><g clip-path="url(#clip49)"><path d="M287.461 48.9639C286.591 50.0901 282.983 50.0389 281.447 50.6532 279.348 51.5235 277.121 52.2146 274.997 53.136 273.589 53.7503 272.104 54.5949 270.697 55.1837 270.313 55.2604 269.929 55.3373 269.57 55.414 268.957 55.67 268.291 56.3098 267.753 56.5402 267.215 56.5658 266.704 56.6169 266.167 56.6426 265.603 56.8985 265.321 57.4616 264.912 57.8967 264.937 59.9188 265.987 60.5075 266.499 61.6593 266.602 61.8896 266.499 62.12 266.729 62.4272 266.909 62.6063 267.421 62.8111 267.753 62.8879 268.547 63.0415 269.698 62.3248 270.236 62.0944 272.361 61.1729 273.947 59.6117 275.79 58.4598 276.456 58.0503 277.48 57.564 278.17 57.3336 278.989 57.0521 279.604 57.3081 280.321 57.0009 281.626 56.4634 281.089 55.5676 283.034 56.2074 283.111 56.5146 283.315 56.7705 283.366 57.0009 283.597 57.7943 283.111 58.767 283.264 59.3813 283.418 60.0467 283.648 60.2003 283.597 61.0706 283.341 61.3522 283.238 61.8641 282.906 62.0944 281.933 62.8111 280.371 63.1182 279.066 63.451 278.17 63.6813 277.045 63.067 276.353 63.5534L276.122 63.5534C276.148 63.9373 276.174 64.142 276.353 64.3468 276.686 65.3706 277.326 65.0123 278.401 65.3706 279.45 65.7033 280.577 67.1879 282.368 66.164 282.752 65.9593 282.88 65.3962 283.392 65.2682 284.288 65.0123 285.107 65.4218 285.67 64.9354 286.208 64.6539 286.31 63.9885 286.566 63.451 286.822 62.9903 287.206 62.2736 287.36 61.7617 287.564 60.9938 287.155 60.2772 287.026 59.842 286.949 59.3813 286.873 58.9462 286.796 58.4855 286.361 57.436 285.696 56.8474 285.67 55.3116 285.644 55.1325 285.849 54.9277 286.002 54.8509 287.257 54.5438 288.511 54.2622 290.201 54.2878 290.738 53.7503 291.48 53.3664 291.89 52.7009 292.171 52.2658 292.171 51.6515 292.453 51.2163 292.453 50.1158 292.069 50.0134 291.659 49.3991 290.021 49.3991 289.023 48.9639 287.461 48.9639" fill="#9B0000" fill-rule="nonzero" fill-opacity="1" transform="matrix(1 0 0 1.00729 405.995 263.104)"/></g><g clip-path="url(#clip50)"><path d="M246.433 34.6817C246.765 34.1954 246.765 33.7603 247.226 33.4276 247.584 33.1972 247.123 31.9175 246.893 31.8407 242.644 30.8937 242.286 34.0162 240.085 35.7055 239.086 36.4734 237.935 36.9853 236.911 37.7532L236.68 37.7532C236.271 35.5008 236.553 32.5061 236.553 30.049L236.553 27.1055C236.63 26.9008 237.014 26.6448 237.115 26.4144 237.5 25.5186 237.32 24.0853 236.885 23.3686 236.271 22.3704 234.991 22.1144 234.044 21.449 233.558 21.0906 233.174 20.4507 232.585 20.1947 231.664 19.8109 230.64 20.1692 229.872 19.6316 229.36 19.7085 229.206 19.8876 228.848 20.0924 227.85 22.7031 230.307 26.3632 230.999 28.2573 231.612 29.8954 231.638 34.9889 231.229 36.8574 230.922 38.2907 231.408 40.4151 230.665 41.3877 230.23 41.9764 226.519 43.2306 225.572 43.6657 224.779 44.024 223.832 44.5104 222.962 44.7919 221.989 45.1247 221.068 45.2014 220.248 45.7133 218.994 46.4812 216.972 47.8378 215.59 48.3241 215.18 48.3496 214.771 48.4008 214.336 48.4265 213.747 48.6056 213.005 48.9384 212.416 49.0919 212.058 49.1943 211.597 49.2199 211.495 49.2199 211.085 48.8103 210.548 48.2217 210.241 47.7354 210.087 47.5307 209.882 47.4026 209.754 47.4795 209.677 47.4795 209.575 47.5819 209.549 47.8378 209.447 51.3699 209.191 52.1122 210.803 54.5182 214.105 55.2092 216.485 53.5968 218.61 52.1378 219.557 51.4979 220.479 51.1139 221.451 50.4485 222.168 49.9622 222.705 49.0663 223.498 48.6312 223.832 48.5544 224.19 48.4777 224.522 48.4008 226.007 47.8122 227.543 46.9164 229.514 46.814 229.488 50.5508 226.289 54.3646 223.96 55.8747 223.601 56.1051 223.243 56.361 222.808 56.5402 222.347 56.7193 221.938 56.9241 221.58 57.1033 221.272 57.1289 220.965 57.18 220.683 57.2057 220.121 57.4872 219.378 57.9479 218.866 58.3319 218.098 58.895 218.201 59.4324 217.74 60.1491L217.74 60.3795C223.781 60.3539 227.543 57.692 230.896 54.9277 232.15 53.9039 233.712 52.9825 234.402 51.4211 235.247 49.527 235.554 47.2235 236.092 45.2014 236.219 44.408 236.322 43.6145 236.425 42.8211 236.757 42.2323 238.421 41.3366 239.035 40.9014 239.624 40.4663 240.136 39.7496 240.725 39.3146 241.927 38.4187 243.156 37.6252 244.359 36.7038 245.051 36.2431 245.998 35.3728 246.433 34.6817" fill="#9B0000" fill-rule="nonzero" fill-opacity="1" transform="matrix(1 0 0 1.00729 405.995 263.104)"/></g><g clip-path="url(#clip51)"><path d="M246.663 51.8051C245.537 50.9348 245.076 49.6294 243.028 49.6551 242.926 49.7574 242.823 49.8086 242.696 49.8854 242.644 52.5473 242.977 52.9313 243.719 54.8765 243.796 55.2092 243.873 55.542 243.95 55.9004 244.205 56.4123 245.28 57.6152 244.616 58.6134 244.743 59.6372 246.484 60.0212 247.687 59.6372 248.966 59.2277 250.297 58.3319 251.091 57.3593 251.065 54.4158 248.378 53.136 246.663 51.8051" fill="#9B0000" fill-rule="nonzero" fill-opacity="1" transform="matrix(1 0 0 1.00729 405.995 263.104)"/></g><g clip-path="url(#clip52)"><path d="M182.648 16.6625C182.802 16.7906 182.956 16.893 183.109 16.9953 183.519 17.584 184.03 18.5823 184.236 19.2733 184.696 20.7066 184.824 23.1126 183.775 23.8038 183.621 23.8805 183.749 24.9555 184.107 24.9299 185.899 24.6995 187.717 23.4454 188.407 22.0888 191.531 22.1912 193.271 21.2697 193.066 18.1215 192.759 17.7888 192.631 17.2513 192.273 16.9953 191.351 16.2787 190.276 15.562 189.329 14.9477 188.894 14.6662 188.305 14.6662 187.844 14.3846 186.232 13.412 184.927 12.4138 182.29 12.465 180.985 14.0007 181.804 13.9751 182.393 15.306 182.495 15.7668 182.572 16.2018 182.648 16.6625" fill="#9B0000" fill-rule="nonzero" fill-opacity="1" transform="matrix(1 0 0 1.00729 405.995 263.104)"/></g><g clip-path="url(#clip53)"><path d="M180.141 37.4205C180.985 37.6508 182.982 37.1901 183.647 36.9598 185.541 36.3198 187.563 32.9412 189.201 31.7383 190.302 30.9449 191.531 29.7675 192.836 29.2556 193.322 29.1787 193.809 29.102 194.321 29.0251 194.807 28.4877 195.292 27.9758 195.804 27.4382 195.779 26.7984 195.626 26.2865 195.344 26.312L193.987 26.312C193.399 26.696 192.298 26.5424 191.607 26.7727 190.327 27.1567 188.971 27.7454 187.743 28.1294 187.409 28.1549 187.051 28.2061 186.719 28.2317 182.982 29.6394 179.065 31.252 175.508 32.7621 175.277 33.3252 174.765 34.1698 175.277 34.8097 175.661 35.9359 178.86 37.0877 180.141 37.4205" fill="#9B0000" fill-rule="nonzero" fill-opacity="1" transform="matrix(1 0 0 1.00729 405.995 263.104)"/></g><g clip-path="url(#clip54)"><path d="M191.479 47.505C190.097 47.505 188.843 47.2235 187.614 47.6331 187.025 47.8122 186.77 48.2985 186.13 48.4265 186.258 47.6842 187.691 46.814 188.178 46.2764 188.561 45.8414 188.945 45.2783 189.431 44.9199 189.815 44.6128 190.379 44.408 190.685 44.024 190.891 43.7681 191.019 43.333 191.249 43.1282 191.428 43.1026 191.632 43.0514 191.812 43.0259 192.093 42.7699 192.17 42.258 192.502 42.002 193.449 41.2854 194.371 41.1318 194.985 40.0824 195.114 39.852 194.883 39.3913 194.653 39.1865 193.91 38.5979 190.199 38.086 188.868 38.4955 188.203 38.7003 187.256 39.1098 186.719 39.5193 186.539 39.7753 186.335 40.0568 186.155 40.3127 185.592 40.3895 185.029 40.4663 184.466 40.543 183.775 40.9526 183.212 41.7716 182.547 42.2323 181.165 43.205 179.706 43.9985 178.246 44.8431 177.606 45.2014 176.864 43.6657 176.429 43.3842 176.147 43.1794 175.789 43.1538 175.534 42.9235 175.277 42.949 175.226 42.949 175.073 43.0259 174.816 43.1026 174.816 43.1538 174.611 43.2562 174.561 44.0497 174.919 45.0223 174.714 45.8669 174.279 47.7354 173.46 51.1651 174.151 53.3408 174.253 53.6991 174.688 54.1342 174.842 54.467 175.022 54.9021 174.945 55.3116 175.175 55.7211 175.508 56.3098 176.275 56.489 176.531 57.2057 177.529 57.0009 179.245 53.8783 180.012 52.6753 180.012 52.6753 180.012 52.6753 180.012 52.6497 180.192 52.3682 180.166 52.1634 180.166 51.9842L180.166 51.9586 180.166 49.1687C180.55 49.0663 181.292 48.9384 181.651 48.708 182.188 48.708 182.367 48.7592 182.674 48.9384 182.648 49.2967 181.369 52.3682 181.189 52.5729 181.292 53.3664 181.804 53.648 182.444 53.8271 182.239 55.3628 180.524 55.6956 179.5 56.4378 178.272 57.3081 176.941 58.2551 175.635 59.0486 175.123 59.3557 174.561 59.4069 174.049 59.7396 173.741 59.9444 173.46 60.3539 173.153 60.5331 172.616 60.8658 172.052 60.8658 171.566 61.2241 171.335 61.4034 171.233 61.8129 170.9 61.9153 170.439 62.0432 170.056 61.6337 169.774 61.5825 169.083 61.4289 168.571 61.9153 168.085 62.0432 167.957 64.8331 169.16 67.6742 172.282 67.6998 173.844 66.0361 175.534 64.6795 176.916 62.8367 177.402 62.4272 177.888 62.0177 178.399 61.5825 178.733 61.0962 178.81 60.661 179.194 60.226 179.321 60.0724 179.577 60.1236 179.757 59.9956 180.166 59.5348 180.576 59.0998 181.011 58.639 181.394 58.3574 181.753 58.3319 182.035 57.9479 182.265 57.9991 182.265 57.9736 182.367 58.0503 182.674 58.4343 182.648 59.0998 182.93 59.5093 182.956 60.5331 183.033 61.6849 182.367 62.0177 182.035 62.0944 181.701 62.1712 181.343 62.248 181.062 62.4527 180.959 62.9391 180.678 63.1439L180.678 63.8349C180.754 63.9885 182.751 64.6539 183.059 64.8587 183.289 65.0123 183.749 65.6009 183.852 65.8825L183.852 66.9063C183.98 67.2135 184.542 67.5974 184.773 67.9302 185.131 68.0069 185.899 68.1605 186.258 67.9302 186.359 67.9045 186.488 67.8533 186.59 67.8278 186.539 64.3468 186.335 61.1729 185.336 58.5367 185.003 57.6408 183.749 56.0026 184.542 54.7997 184.542 53.1104 185.695 53.5968 186.693 52.9825 188.075 52.1378 189.585 51.3444 190.891 50.3717 191.403 50.0134 191.607 49.3735 192.016 48.8872 191.838 48.1961 191.607 47.9657 191.479 47.505" fill="#9B0000" fill-rule="nonzero" fill-opacity="1" transform="matrix(1 0 0 1.00729 405.995 263.104)"/></g><g clip-path="url(#clip55)"><path d="M198.057 55.0813C196.88 53.4687 195.626 51.9586 192.733 52.0354 192.528 52.1634 192.093 52.1634 191.709 52.1378 191.146 54.4926 191.197 56.3866 192.375 58.1527 192.682 58.4086 192.989 58.6902 193.271 58.9462 193.936 59.9444 194.321 60.917 195.549 61.3265 196.777 62.12 198.262 60.5843 198.825 60.2003 199.005 59.5348 199.541 57.3848 199.157 56.7962 199.132 55.8235 198.467 55.67 198.057 55.0813" fill="#9B0000" fill-rule="nonzero" fill-opacity="1" transform="matrix(1 0 0 1.00729 405.995 263.104)"/></g><path d="" stroke="#00A0E9" stroke-width="0.156132" stroke-linecap="butt" stroke-linejoin="miter" stroke-miterlimit="4" stroke-opacity="1" fill="none" fill-rule="nonzero" transform="matrix(1 0 0 1.00729 405.995 263.104)"/></g></g></g></g></g></g></g></svg>