<svg width="471" height="196" xmlns="http://www.w3.org/2000/svg" xmlns:xlink="http://www.w3.org/1999/xlink" xml:space="preserve" overflow="hidden"><defs><clipPath id="clip0"><rect x="170" y="165" width="470" height="195"/></clipPath><clipPath id="clip1"><rect x="170" y="165" width="311" height="104"/></clipPath><clipPath id="clip2"><path d="M-521.138 816.577 714.902 816.577 714.902-940.729" fill-rule="nonzero" clip-rule="nonzero"/></clipPath><clipPath id="clip3"><path d="M-521.138 816.577 714.902 816.577 714.902-940.729" fill-rule="nonzero" clip-rule="nonzero"/></clipPath><clipPath id="clip4"><path d="M-521.138 816.577 714.902 816.577 714.902-940.729" fill-rule="nonzero" clip-rule="nonzero"/></clipPath><clipPath id="clip5"><path d="M-521.138 816.577 714.902 816.577 714.902-940.729" fill-rule="nonzero" clip-rule="nonzero"/></clipPath><clipPath id="clip6"><path d="M-521.138 816.577 714.902 816.577 714.902-940.729" fill-rule="nonzero" clip-rule="nonzero"/></clipPath><clipPath id="clip7"><path d="M-521.138 816.577 714.902 816.577 714.902-940.729" fill-rule="nonzero" clip-rule="nonzero"/></clipPath><clipPath id="clip8"><path d="M-521.138 816.577 714.902 816.577 714.902-940.729" fill-rule="nonzero" clip-rule="nonzero"/></clipPath><clipPath id="clip9"><path d="M-521.138 816.577 714.902 816.577 714.902-940.729" fill-rule="nonzero" clip-rule="nonzero"/></clipPath><clipPath id="clip10"><path d="M-521.138 816.577 714.902 816.577 714.902-940.729" fill-rule="nonzero" clip-rule="nonzero"/></clipPath><clipPath id="clip11"><path d="M-521.138 816.577 714.902 816.577 714.902-940.729" fill-rule="nonzero" clip-rule="nonzero"/></clipPath><clipPath id="clip12"><path d="M-521.138 816.577 714.902 816.577 714.902-940.729" fill-rule="nonzero" clip-rule="nonzero"/></clipPath><clipPath id="clip13"><path d="M-521.138 816.577 714.902 816.577 714.902-940.729" fill-rule="nonzero" clip-rule="nonzero"/></clipPath><clipPath id="clip14"><path d="M-521.138 816.577 714.902 816.577 714.902-940.729" fill-rule="nonzero" clip-rule="nonzero"/></clipPath><clipPath id="clip15"><path d="M-521.138 816.577 714.902 816.577 714.902-940.729" fill-rule="nonzero" clip-rule="nonzero"/></clipPath><clipPath id="clip16"><path d="M-521.138 816.577 714.902 816.577 714.902-940.729" fill-rule="nonzero" clip-rule="nonzero"/></clipPath><clipPath id="clip17"><path d="M-521.138 816.577 714.902 816.577 714.902-940.729" fill-rule="nonzero" clip-rule="nonzero"/></clipPath><clipPath id="clip18"><path d="M-521.138 816.577 714.902 816.577 714.902-940.729" fill-rule="nonzero" clip-rule="nonzero"/></clipPath><clipPath id="clip19"><path d="M-521.138 816.577 714.902 816.577 714.902-940.729" fill-rule="nonzero" clip-rule="nonzero"/></clipPath><clipPath id="clip20"><path d="M-521.138 816.577 714.902 816.577 714.902-940.729" fill-rule="nonzero" clip-rule="nonzero"/></clipPath><clipPath id="clip21"><path d="M-521.138 816.577 714.902 816.577 714.902-940.729" fill-rule="nonzero" clip-rule="nonzero"/></clipPath><clipPath id="clip22"><path d="M-521.138 816.577 714.902 816.577 714.902-940.729" fill-rule="nonzero" clip-rule="nonzero"/></clipPath><clipPath id="clip23"><path d="M-521.138 816.577 714.902 816.577 714.902-940.729" fill-rule="nonzero" clip-rule="nonzero"/></clipPath><clipPath id="clip24"><path d="M-521.138 816.577 714.902 816.577 714.902-940.729" fill-rule="nonzero" clip-rule="nonzero"/></clipPath><clipPath id="clip25"><path d="M-521.138 816.577 714.902 816.577 714.902-940.729" fill-rule="nonzero" clip-rule="nonzero"/></clipPath><clipPath id="clip26"><path d="M-521.138 816.577 714.902 816.577 714.902-940.729" fill-rule="nonzero" clip-rule="nonzero"/></clipPath><clipPath id="clip27"><path d="M-521.138 816.577 714.902 816.577 714.902-940.729" fill-rule="nonzero" clip-rule="nonzero"/></clipPath><clipPath id="clip28"><path d="M-521.138 816.577 714.902 816.577 714.902-940.729" fill-rule="nonzero" clip-rule="nonzero"/></clipPath><clipPath id="clip29"><path d="M-521.138 816.577 714.902 816.577 714.902-940.729" fill-rule="nonzero" clip-rule="nonzero"/></clipPath><clipPath id="clip30"><path d="M-521.138 816.577 714.902 816.577 714.902-940.729" fill-rule="nonzero" clip-rule="nonzero"/></clipPath><clipPath id="clip31"><path d="M-521.138 816.577 714.902 816.577 714.902-940.729" fill-rule="nonzero" clip-rule="nonzero"/></clipPath><clipPath id="clip32"><path d="M-521.138 816.577 714.902 816.577 714.902-940.729" fill-rule="nonzero" clip-rule="nonzero"/></clipPath><clipPath id="clip33"><path d="M-521.138 816.577 714.902 816.577 714.902-940.729" fill-rule="nonzero" clip-rule="nonzero"/></clipPath><clipPath id="clip34"><path d="M-521.138 816.577 714.902 816.577 714.902-940.729" fill-rule="nonzero" clip-rule="nonzero"/></clipPath><clipPath id="clip35"><path d="M-521.138 816.577 714.902 816.577 714.902-940.729" fill-rule="nonzero" clip-rule="nonzero"/></clipPath><clipPath id="clip36"><path d="M-521.138 816.577 714.902 816.577 714.902-940.729" fill-rule="nonzero" clip-rule="nonzero"/></clipPath><clipPath id="clip37"><path d="M-521.138 816.577 714.902 816.577 714.902-940.729" fill-rule="nonzero" clip-rule="nonzero"/></clipPath><clipPath id="clip38"><path d="M-521.138 816.577 714.902 816.577 714.902-940.729" fill-rule="nonzero" clip-rule="nonzero"/></clipPath><clipPath id="clip39"><path d="M-521.138 816.577 714.902 816.577 714.902-940.729" fill-rule="nonzero" clip-rule="nonzero"/></clipPath><clipPath id="clip40"><path d="M-521.138 816.577 714.902 816.577 714.902-940.729" fill-rule="nonzero" clip-rule="nonzero"/></clipPath><clipPath id="clip41"><path d="M-521.138 816.577 714.902 816.577 714.902-940.729" fill-rule="nonzero" clip-rule="nonzero"/></clipPath><clipPath id="clip42"><path d="M-521.138 816.577 714.902 816.577 714.902-940.729" fill-rule="nonzero" clip-rule="nonzero"/></clipPath><clipPath id="clip43"><path d="M-521.138 816.577 714.902 816.577 714.902-940.729" fill-rule="nonzero" clip-rule="nonzero"/></clipPath><clipPath id="clip44"><path d="M-521.138 816.577 714.902 816.577 714.902-940.729" fill-rule="nonzero" clip-rule="nonzero"/></clipPath><clipPath id="clip45"><path d="M-521.138 816.577 714.902 816.577 714.902-940.729" fill-rule="nonzero" clip-rule="nonzero"/></clipPath><clipPath id="clip46"><path d="M-521.138 816.577 714.902 816.577 714.902-940.729" fill-rule="nonzero" clip-rule="nonzero"/></clipPath><clipPath id="clip47"><path d="M-521.138 816.577 714.902 816.577 714.902-940.729" fill-rule="nonzero" clip-rule="nonzero"/></clipPath><clipPath id="clip48"><path d="M-521.138 816.577 714.902 816.577 714.902-940.729" fill-rule="nonzero" clip-rule="nonzero"/></clipPath><clipPath id="clip49"><path d="M-521.138 816.577 714.902 816.577 714.902-940.729" fill-rule="nonzero" clip-rule="nonzero"/></clipPath><clipPath id="clip50"><path d="M-521.138 816.577 714.902 816.577 714.902-940.729" fill-rule="nonzero" clip-rule="nonzero"/></clipPath><clipPath id="clip51"><path d="M-521.138 816.577 714.902 816.577 714.902-940.729" fill-rule="nonzero" clip-rule="nonzero"/></clipPath><clipPath id="clip52"><path d="M-521.138 816.577 714.902 816.577 714.902-940.729" fill-rule="nonzero" clip-rule="nonzero"/></clipPath><clipPath id="clip53"><path d="M-521.138 816.577 714.902 816.577 714.902-940.729" fill-rule="nonzero" clip-rule="nonzero"/></clipPath><clipPath id="clip54"><path d="M-521.138 816.577 714.902 816.577 714.902-940.729" fill-rule="nonzero" clip-rule="nonzero"/></clipPath><clipPath id="clip55"><path d="M-521.138 816.577 714.902 816.577 714.902-940.729" fill-rule="nonzero" clip-rule="nonzero"/></clipPath><clipPath id="clip56"><path d="M-521.138 816.577 714.902 816.577 714.902-940.729" fill-rule="nonzero" clip-rule="nonzero"/></clipPath><clipPath id="clip57"><path d="M-521.138 816.577 714.902 816.577 714.902-940.729" fill-rule="nonzero" clip-rule="nonzero"/></clipPath></defs><g transform="translate(-169 -164)"><g><g clip-path="url(#clip0)"><g clip-path="url(#clip1)"><g><g clip-path="url(#clip2)"><path d="" stroke="#FFFFFF" stroke-width="15.3899" stroke-linecap="butt" stroke-linejoin="miter" stroke-miterlimit="10" stroke-opacity="1" fill="none" fill-rule="nonzero" transform="matrix(1 0 0 1.00705 169.997 165.104)"/></g><g clip-path="url(#clip3)"><path d="" stroke="#9B0000" stroke-width="2.57011" stroke-linecap="butt" stroke-linejoin="miter" stroke-miterlimit="10" stroke-opacity="1" fill="none" fill-rule="nonzero" transform="matrix(1 0 0 1.00705 169.997 165.104)"/></g><g clip-path="url(#clip4)"><path d="" stroke="#9B0000" stroke-width="7.69495" stroke-linecap="butt" stroke-linejoin="miter" stroke-miterlimit="10" stroke-opacity="1" fill="none" fill-rule="nonzero" transform="matrix(1 0 0 1.00705 169.997 165.104)"/></g><g clip-path="url(#clip5)"><path d="" stroke="#9B0000" stroke-width="7.69495" stroke-linecap="butt" stroke-linejoin="miter" stroke-miterlimit="10" stroke-opacity="1" fill="none" fill-rule="nonzero" transform="matrix(1 0 0 1.00705 169.997 165.104)"/></g><g clip-path="url(#clip6)"><path d="" stroke="#9B0000" stroke-width="2.57011" stroke-linecap="butt" stroke-linejoin="miter" stroke-miterlimit="10" stroke-opacity="1" fill="none" fill-rule="nonzero" transform="matrix(1 0 0 1.00705 169.997 165.104)"/></g><g clip-path="url(#clip7)"><path d="M35.1916 86.7991 35.1403 86.8247C34.8068 86.6452 34.3708 86.44 33.8834 86.2091 33.3961 85.9783 32.8831 85.7731 32.3188 85.5422L32.2932 85.4909 32.3957 85.2601 32.447 85.2344C32.5753 85.2857 32.7035 85.3114 32.8318 85.3627 33.0626 85.4396 33.1909 85.4909 33.2678 85.4909 33.3191 85.4909 33.3704 85.4653 33.4474 85.3883 33.55 85.2857 33.7808 84.824 34.1656 84.0032L34.576 83.0798C34.7042 82.7977 34.8581 82.4386 35.0377 82.0025L35.1659 81.7204C35.2172 81.5921 35.2172 81.5152 35.1659 81.4895 35.1403 81.4895 35.0633 81.4639 34.9094 81.4639 34.499 81.4639 34.1399 81.4639 33.8578 81.4895L33.8321 81.4382C33.8834 81.2843 33.9347 81.1304 33.9604 80.9252L33.986 80.8996C34.7555 81.0278 35.6533 81.1048 36.6536 81.1561L36.7049 81.2587C36.628 81.4126 36.5254 81.6178 36.3715 81.8999 36.3202 82.0025 36.1663 82.2847 35.9354 82.772L35.2685 84.2341C34.8068 85.2857 34.5503 85.85 34.5503 85.9526 34.5503 86.0039 34.576 86.0809 34.6273 86.1065 34.7042 86.1835 34.9094 86.3117 35.2942 86.4913L35.3198 86.5426 35.1916 86.7991Z" fill="#9B0000" fill-rule="nonzero" fill-opacity="1" transform="matrix(1 0 0 1.00705 169.997 165.104)"/></g><g clip-path="url(#clip8)"><path d="M45.785 84.9779C45.8106 84.7214 45.7593 84.4906 45.6054 84.311 45.4515 84.1315 45.2207 84.0032 44.9129 83.9776 44.6307 83.9519 44.4255 83.9776 44.246 84.1058 44.0664 84.2341 43.9895 84.388 43.9382 84.5932 43.9125 84.7984 43.9895 85.0036 44.1434 85.2088 44.246 85.3114 44.3742 85.414 44.5538 85.5422 44.6051 85.5935 44.7333 85.6448 44.8616 85.7218L45.0924 85.85C45.5028 85.6961 45.7337 85.3883 45.785 84.9779M45.4002 87.979C45.4515 87.5942 45.2976 87.2608 44.9385 87.0043 44.7077 86.8504 44.4512 86.6965 44.169 86.5426L44.0408 86.4913C43.5791 86.7221 43.2969 87.0556 43.2456 87.5173 43.22 87.7738 43.2456 87.979 43.3226 88.1585 43.5021 88.5433 43.8099 88.7741 44.246 88.8254 44.5538 88.8767 44.8103 88.7997 45.0155 88.6459 45.2463 88.5176 45.3746 88.2868 45.4002 87.979M46.4775 87.6455C46.4262 87.9533 46.3236 88.2355 46.1697 88.4663 45.8619 88.9024 45.4259 89.1588 44.8616 89.2614 44.6307 89.3127 44.3486 89.3127 44.0408 89.2614 43.3482 89.1588 42.8609 88.8767 42.5531 88.3637 42.4248 88.1329 42.3735 87.8507 42.4248 87.5173 42.4761 87.1069 42.6813 86.7991 43.0148 86.5682 43.1174 86.4913 43.3482 86.3887 43.7073 86.2861 43.143 85.9013 42.8865 85.414 42.9635 84.8497 43.0404 84.2084 43.4252 83.798 44.1177 83.5928 44.4255 83.5159 44.7333 83.4902 45.0924 83.5415 45.6054 83.6185 46.0158 83.7724 46.2723 84.0545 46.5288 84.311 46.6314 84.6188 46.5801 84.9779 46.5032 85.4653 46.1697 85.8244 45.5541 86.0552 45.9645 86.2604 46.221 86.5169 46.3749 86.7734 46.5032 87.0043 46.5288 87.3121 46.4775 87.6455" fill="#9B0000" fill-rule="nonzero" fill-opacity="1" transform="matrix(1 0 0 1.00705 169.997 165.104)"/></g><g clip-path="url(#clip9)"><path d="M54.865 85.3114C54.7881 84.7984 54.6598 84.4393 54.4546 84.2341 54.2494 84.0032 54.0186 83.9263 53.7364 83.9519 53.3773 84.0032 53.1721 84.2084 53.0952 84.5675 53.0439 84.7727 53.0439 84.9779 53.0952 85.2344 53.1465 85.6448 53.2747 85.9783 53.4799 86.1578 53.6851 86.3374 53.916 86.4143 54.1725 86.3887 54.5316 86.3374 54.7624 86.1578 54.8394 85.8757 54.8907 85.7218 54.8907 85.5422 54.865 85.3114M56.1218 85.5679C56.2245 86.2861 56.1475 86.9017 55.9423 87.4147 55.7115 87.9533 55.3524 88.415 54.9163 88.7741 54.4546 89.1588 53.8903 89.3897 53.2747 89.4666L52.89 89.2614 52.9669 89.0819C53.0695 89.1076 53.1721 89.1076 53.3004 89.0819 53.7621 89.0306 54.1725 88.7997 54.4803 88.4407 54.6085 88.2868 54.7111 88.1072 54.8137 87.8764 54.9676 87.5173 55.0189 87.0043 55.0189 86.3374 54.6342 86.7734 54.4033 87.0043 54.352 87.0043 54.1725 87.1069 53.9416 87.1582 53.7108 87.1838 53.3004 87.2351 52.9669 87.1582 52.6848 86.9273 52.377 86.6708 52.1718 86.3117 52.1205 85.8244 51.9922 85.0292 52.2487 84.388 52.813 83.9263 53.0952 83.6954 53.4286 83.5672 53.8647 83.5159 54.6855 83.4133 55.3011 83.6698 55.7371 84.2854 55.891 84.5932 56.0449 85.0292 56.1218 85.5679" fill="#9B0000" fill-rule="nonzero" fill-opacity="1" transform="matrix(1 0 0 1.00705 169.997 165.104)"/></g><g clip-path="url(#clip10)"><path d="M64.9967 84.7214C64.8428 84.3623 64.535 84.1571 64.099 84.1315 63.8168 84.1058 63.509 84.1058 63.2012 84.1315L63.073 84.1315C62.7908 84.5675 62.7395 85.0036 62.9191 85.414 63.0217 85.6448 63.1499 85.8244 63.3295 85.927 63.6886 86.1578 64.0733 86.1835 64.458 86.0296 64.7402 85.9013 64.9197 85.7218 65.0223 85.4653 65.1249 85.2344 65.0993 84.9779 64.9967 84.7214M63.7655 81.9512C63.6629 81.6947 63.4834 81.5408 63.2525 81.4639 63.0217 81.3869 62.7652 81.4126 62.483 81.5408 62.2265 81.6434 62.0726 81.7973 61.97 82.0025 61.8931 82.1821 61.8931 82.3873 61.97 82.5668 62.047 82.772 62.2265 82.9003 62.4574 82.9772 62.5856 83.0029 62.7652 83.0285 62.9704 83.0285 63.0473 83.0285 63.1756 83.0285 63.3295 83.0285L63.586 83.0029C63.8681 82.6951 63.9194 82.336 63.7655 81.9512M65.7405 83.875C65.8688 84.1571 65.9201 84.4649 65.8944 84.7214 65.8688 85.2601 65.6379 85.6961 65.2019 86.0809 65.0223 86.2348 64.7915 86.3887 64.4837 86.5169 63.8681 86.7991 63.2782 86.7991 62.7652 86.5169 62.5343 86.3887 62.3291 86.1835 62.2009 85.8757 62.047 85.4909 62.047 85.1062 62.2009 84.7727 62.2522 84.6701 62.4061 84.4649 62.6369 84.1828 61.9444 84.1571 61.5083 83.8493 61.2775 83.3363 61.021 82.7464 61.1236 82.1821 61.6109 81.6434 61.8161 81.4126 62.0726 81.233 62.4061 81.0791 62.8934 80.8739 63.3038 80.797 63.6886 80.8996 64.0477 81.0022 64.2785 81.2074 64.4324 81.5408 64.6376 82.0025 64.535 82.4899 64.1246 83.0029 64.5863 82.9772 64.9454 83.0285 65.2019 83.1824 65.4071 83.3107 65.5866 83.5415 65.7405 83.875" fill="#9B0000" fill-rule="nonzero" fill-opacity="1" transform="matrix(1 0 0 1.00705 169.997 165.104)"/></g><g clip-path="url(#clip11)"><path d="M33.7295 88.2868C28.9587 86.2604 24.6751 83.3876 21.0072 79.6941 17.3136 76.0261 14.4409 71.7426 12.4145 66.9717 10.3112 62.0213 9.25959 56.7887 9.25959 51.3766 9.25959 45.9645 10.3112 40.7319 12.4145 35.7815 14.4409 31.0107 17.3136 26.7271 21.0072 23.0592 24.6751 19.3913 28.9843 16.4928 33.7295 14.4665 38.68 12.3889 43.9125 11.3116 49.3246 11.3116 54.7368 11.3116 59.9693 12.3632 64.9197 14.4665 69.6906 16.4928 73.9741 19.3913 77.6421 23.0592 81.3356 26.7271 84.2084 31.0107 86.2348 35.7815 88.3381 40.7319 89.3897 45.9645 89.3897 51.3766 89.3897 56.7887 88.3381 62.0213 86.2348 66.9717 84.2084 71.7426 81.3356 76.0261 77.6421 79.6941 73.9741 83.362 69.6906 86.2604 64.9197 88.2868 59.9693 90.39 54.7368 91.4417 49.3246 91.4417 43.9125 91.4417 38.68 90.39 33.7295 88.2868M33.2165 13.184C28.2661 15.2617 23.8287 18.2627 20.0325 22.0589 16.2363 25.855 13.2353 30.2925 11.1577 35.2429 9.00309 40.3472 7.90015 45.785 7.90015 51.3766 7.90015 56.9683 9.00309 62.4061 11.1577 67.5104 13.2353 72.4352 16.2363 76.8726 20.0325 80.6688 23.8287 84.4649 28.2661 87.466 33.2165 89.5436 38.3209 91.6982 43.7586 92.8011 49.3503 92.8011 54.942 92.8011 60.3797 91.6982 65.484 89.5436 70.4088 87.466 74.8462 84.4649 78.6681 80.6688 82.4642 76.8726 85.4653 72.4352 87.5429 67.5104 89.6975 62.4061 90.8004 56.9683 90.8004 51.3766 90.8004 45.785 89.6975 40.3472 87.5429 35.2429 85.4653 30.3181 82.4642 25.8807 78.6681 22.0589 74.8719 18.2627 70.4345 15.2617 65.484 13.184 60.3797 11.0294 54.942 9.92649 49.3503 9.92649 43.7586 9.92649 38.3209 11.0294 33.2165 13.184" fill="#9B0000" fill-rule="nonzero" fill-opacity="1" transform="matrix(1 0 0 1.00705 169.997 165.104)"/></g><g clip-path="url(#clip12)"><path d="M37.7566 78.745C34.2169 77.2573 31.0363 75.1027 28.3174 72.3839 25.5985 69.665 23.444 66.4844 21.9563 62.9447 20.4173 59.2768 19.6221 55.4037 19.6221 51.3766 19.6221 47.3753 20.4173 43.4765 21.9563 39.8086 23.444 36.2689 25.5985 33.0883 28.3174 30.3694 31.0363 27.6249 34.2169 25.4959 37.7566 24.0082 41.4245 22.4436 45.2976 21.6741 49.3246 21.6741 53.3517 21.6741 57.2248 22.4436 60.8927 24.0082 64.4324 25.4959 67.613 27.6505 70.3319 30.3694 73.0507 33.0883 75.2053 36.2689 76.693 39.8086 78.232 43.4765 79.0272 47.3753 79.0272 51.3766 79.0272 55.4037 78.232 59.2768 76.693 62.9447 75.2053 66.4844 73.0507 69.665 70.3319 72.3839 67.613 75.1027 64.4324 77.2573 60.8927 78.745 57.2248 80.3096 53.326 81.0791 49.3246 81.0791 45.3233 81.0791 41.4245 80.3096 37.7566 78.745M37.3975 23.1362C33.7552 24.6751 30.472 26.881 27.6505 29.7025 24.829 32.524 22.6232 35.8072 21.0842 39.4495 19.4939 43.22 18.6731 47.247 18.6731 51.3766 18.6731 55.5063 19.4939 59.5333 21.0842 63.3038 22.6232 66.9461 24.829 70.2293 27.6505 73.0507 30.4464 75.8722 33.7295 78.0781 37.3975 79.6171 41.168 81.233 45.195 82.0282 49.3246 82.0282 53.4543 82.0282 57.4813 81.233 61.2518 79.6171 64.8941 78.0781 68.1773 75.8722 70.9988 73.0507 73.8202 70.2293 76.0261 66.9717 77.5651 63.3038 79.1554 59.5333 79.9762 55.5063 79.9762 51.3766 79.9762 47.247 79.1554 43.22 77.5651 39.4495 76.0261 35.8072 73.8202 32.524 70.9988 29.7025 68.1773 26.881 64.8941 24.6751 61.2518 23.1362 57.4813 21.5459 53.4543 20.7251 49.3246 20.7251 45.195 20.7251 41.1936 21.5202 37.3975 23.1362" fill="#9B0000" fill-rule="nonzero" fill-opacity="1" transform="matrix(1 0 0 1.00705 169.997 165.104)"/></g><g clip-path="url(#clip13)"><path d="M14.9026 63.3038C14.5178 63.4577 14.2613 63.6373 14.1331 63.8681 14.0048 64.099 14.0305 64.4068 14.1587 64.7915L14.287 65.0993 16.5185 64.2528 16.4672 64.099C16.3133 63.7142 16.1081 63.4577 15.8516 63.3038 15.5951 63.1499 15.2617 63.1499 14.9026 63.3038M14.1844 61.97C14.4665 61.8674 14.7487 61.8161 15.0052 61.8674 15.2617 61.8931 15.4925 61.9957 15.6977 62.1496 15.9029 62.3035 16.1081 62.5343 16.262 62.7652 16.4415 63.0217 16.5698 63.3038 16.698 63.6629L16.8519 64.0733 18.2883 63.5347C18.3653 63.509 18.4422 63.4577 18.4935 63.4064 18.5448 63.3551 18.5705 63.2782 18.5705 63.1499 18.5705 63.0986 18.5705 62.996 18.5448 62.8934 18.5192 62.7652 18.5192 62.6626 18.4935 62.5856L18.7757 62.483 19.853 65.2788 19.5452 65.4071C19.5195 65.3301 19.4682 65.2532 19.4169 65.1506 19.3656 65.048 19.3143 64.971 19.2887 64.9197 19.2117 64.8428 19.1348 64.7915 19.0835 64.7915 19.0065 64.7915 18.9296 64.7915 18.827 64.8428L15.236 66.2279C15.1591 66.2535 15.0821 66.3048 15.0308 66.3561 14.9795 66.4074 14.9539 66.4844 14.9539 66.6126 14.9539 66.6896 14.9539 66.7922 14.9795 66.9204 15.0052 67.0487 15.0052 67.1256 15.0308 67.1769L14.7487 67.2795 13.6714 64.458C13.4149 63.7912 13.3379 63.2782 13.4149 62.8678 13.4918 62.4317 13.7483 62.1496 14.1844 61.97" fill="#9B0000" fill-rule="nonzero" fill-opacity="1" transform="matrix(1 0 0 1.00705 169.997 165.104)"/></g><g clip-path="url(#clip14)"><path d="M12.748 53.403 12.7736 53.7108C12.5684 53.8134 12.3889 53.9673 12.1837 54.1725 12.0041 54.3777 11.9015 54.5572 11.8759 54.7624 11.8759 54.8394 11.8759 54.942 11.8759 55.0702 11.8759 55.1985 11.9015 55.3267 11.9015 55.4037L12.0041 56.1988 14.1074 55.9423 14.0305 55.378C14.0048 55.2498 13.9792 55.1215 13.9279 54.9933 13.8766 54.8907 13.7996 54.7881 13.697 54.7111 13.6457 54.6598 13.5175 54.6085 13.3636 54.5572 13.2097 54.5316 13.0814 54.5059 12.9788 54.4803L12.9532 54.1725 15.2104 53.916 15.236 54.2238C15.1334 54.2494 15.0052 54.3007 14.8513 54.3777 14.6974 54.4546 14.5948 54.5316 14.5435 54.5829 14.4665 54.6855 14.4152 54.7881 14.3896 54.8907 14.3639 55.0189 14.3639 55.1472 14.3896 55.3011L14.4409 55.8654 16.0055 55.6858C16.1594 55.6602 16.2876 55.6345 16.3902 55.6089 16.4928 55.5832 16.5441 55.5063 16.5954 55.455 16.6211 55.4037 16.6467 55.3011 16.6467 55.1728 16.6467 55.0702 16.6467 54.9163 16.6211 54.7111 16.6211 54.6085 16.5954 54.5059 16.5698 54.3777 16.5441 54.2494 16.5441 54.1468 16.5185 54.0442 16.4928 53.9416 16.4672 53.839 16.4159 53.7621 16.3902 53.6595 16.3389 53.6082 16.2876 53.5569 16.1594 53.4543 15.9542 53.326 15.6721 53.1978 15.3899 53.0695 15.2104 52.9926 15.0565 52.9669L15.0308 52.6848 16.7237 52.5822 17.3136 57.6608 17.0058 57.6865C16.9802 57.6095 16.9802 57.5069 16.9545 57.4043 16.9289 57.2761 16.9032 57.1991 16.8776 57.1478 16.8263 57.0452 16.775 56.9939 16.698 56.9683 16.6467 56.9426 16.5441 56.9426 16.4415 56.9426L12.6197 57.3787C12.5171 57.4043 12.4402 57.4043 12.3889 57.4556 12.3376 57.4813 12.2863 57.5582 12.2606 57.6865 12.235 57.7634 12.2093 57.866 12.2093 57.9686 12.2093 58.0969 12.1837 58.1738 12.1837 58.2508L11.8759 58.2764 11.3116 53.4543 12.748 53.403Z" fill="#9B0000" fill-rule="nonzero" fill-opacity="1" transform="matrix(1 0 0 1.00705 169.997 165.104)"/></g><g clip-path="url(#clip15)"><path d="M17.6471 43.2969 17.3393 45.4259C16.8006 45.6824 16.3389 45.9132 15.9799 46.1184 15.6208 46.3236 15.1334 46.6058 14.5691 46.9392L14.5435 47.1444 16.2363 47.4009C16.3389 47.4009 16.4159 47.4009 16.4672 47.3753 16.5441 47.3496 16.5954 47.2983 16.6467 47.1957 16.6724 47.1444 16.698 47.0931 16.7493 47.0162 16.775 46.9392 16.8006 46.8366 16.8263 46.7597L17.1341 46.811 16.7237 49.6837 16.4159 49.6324C16.4159 49.5555 16.4159 49.4529 16.4415 49.3503 16.4415 49.222 16.4415 49.1451 16.4415 49.0681 16.4159 48.9655 16.3902 48.8886 16.3133 48.8629 16.262 48.786 16.185 48.7603 16.0825 48.7347L12.2606 48.1961C12.1837 48.1961 12.0811 48.1961 12.0298 48.1961 11.9528 48.2217 11.9015 48.273 11.8502 48.3756 11.7989 48.4525 11.7476 48.5551 11.722 48.6577 11.6707 48.7603 11.645 48.8629 11.645 48.9142L11.3372 48.8629 11.7733 45.8876 12.0811 45.9389C12.0811 46.0158 12.0811 46.1184 12.0811 46.221 12.0811 46.3236 12.0811 46.4262 12.1067 46.5032 12.1324 46.6058 12.158 46.6827 12.235 46.734 12.3119 46.7853 12.3632 46.811 12.4658 46.811L14.287 47.0675 14.3126 46.9136C14.1587 46.6827 13.9792 46.4262 13.7483 46.1441 13.5175 45.8619 13.3379 45.6054 13.2097 45.4515 13.0045 45.2207 12.8506 45.0411 12.748 44.9385 12.6197 44.8359 12.5171 44.759 12.4145 44.759 12.3632 44.759 12.3376 44.7846 12.2863 44.8872 12.235 44.9642 12.2093 45.1181 12.1837 45.2976L11.8759 45.2463 12.2093 42.8865 12.5171 42.9378C12.5171 43.22 12.5428 43.4765 12.5684 43.6817 12.6197 43.8869 12.6967 44.0921 12.8506 44.2973 13.0558 44.6051 13.2353 44.8616 13.3892 45.0411 13.5431 45.2463 13.7483 45.5028 13.9792 45.8106 14.3126 45.6054 14.723 45.3746 15.2104 45.0924 15.6977 44.8103 16.1594 44.5281 16.6211 44.246 16.7493 44.169 16.8519 44.0921 16.9545 43.9895 17.0571 43.8869 17.1597 43.7843 17.2367 43.656 17.288 43.6047 17.3136 43.5278 17.3393 43.4508 17.3649 43.3739 17.3906 43.2969 17.3906 43.2456L17.6471 43.2969Z" fill="#9B0000" fill-rule="nonzero" fill-opacity="1" transform="matrix(1 0 0 1.00705 169.997 165.104)"/></g><g clip-path="url(#clip16)"><path d="M19.6991 37.8848 18.5705 40.7063 18.2883 40.6037C18.314 40.5267 18.3396 40.4498 18.3909 40.3216 18.4166 40.1933 18.4422 40.0907 18.4422 40.0394 18.4422 39.9368 18.4166 39.8599 18.3653 39.8086 18.314 39.7573 18.2627 39.706 18.1601 39.6547L14.5691 38.2183C14.4922 38.1926 14.4152 38.167 14.3383 38.1926 14.2613 38.1926 14.1844 38.2439 14.1074 38.3209 14.0561 38.3722 14.0048 38.4491 13.9279 38.5517 13.8509 38.6543 13.7996 38.7313 13.774 38.8082L13.4918 38.7056 14.6204 35.8841 14.9026 35.9867C14.8769 36.0637 14.8513 36.1663 14.8256 36.2689 14.8 36.3715 14.7743 36.4741 14.7743 36.551 14.7743 36.6536 14.8 36.7306 14.8513 36.8075 14.9026 36.8588 14.9795 36.9101 15.0565 36.9358L18.6474 38.3722C18.7244 38.3978 18.8013 38.4235 18.8783 38.4235 18.9552 38.4235 19.0322 38.3722 19.1091 38.2952 19.1604 38.2439 19.2117 38.1926 19.263 38.0644 19.3143 37.9618 19.3913 37.8592 19.4169 37.7822L19.6991 37.8848Z" fill="#9B0000" fill-rule="nonzero" fill-opacity="1" transform="matrix(1 0 0 1.00705 169.997 165.104)"/></g><g clip-path="url(#clip17)"><path d="M20.5712 26.8041C20.5455 26.8554 20.4942 26.958 20.4173 27.0862 20.366 27.2145 20.3403 27.3171 20.3403 27.471 20.3403 27.5992 20.3916 27.7275 20.5199 27.8557 20.6225 27.984 20.8277 28.1379 21.0842 28.3431L24.2647 30.6259 23.88 31.1902 18.4679 31.4211 20.5455 32.9087C20.802 33.0883 21.0072 33.2165 21.1611 33.2935 21.315 33.3448 21.4689 33.3704 21.5715 33.3448 21.6485 33.3191 21.7767 33.2678 21.8793 33.1652 22.0076 33.0626 22.1102 32.9857 22.1615 32.9087L22.418 33.0883 21.0585 34.9864 20.802 34.8068C20.8533 34.7299 20.9046 34.6273 20.9559 34.499 21.0072 34.3708 21.0329 34.2682 21.0329 34.1656 21.0329 34.0373 20.9816 33.9091 20.879 33.8065 20.7764 33.6782 20.5968 33.5243 20.289 33.3191L18.1857 31.8058C18.0831 31.7289 17.9805 31.6776 17.8523 31.6519 17.724 31.6263 17.6214 31.6006 17.4932 31.6263 17.3649 31.6519 17.2623 31.7032 17.1341 31.7545 17.0315 31.8315 16.9289 31.9084 16.8006 32.011L16.5441 31.8315 17.7497 30.1642 22.4949 29.9077 20.802 28.7022C20.5455 28.5226 20.3147 28.3944 20.1608 28.3174 20.0069 28.2661 19.8786 28.2405 19.7504 28.2661 19.6478 28.2918 19.5452 28.3431 19.4426 28.4457 19.3143 28.5483 19.2374 28.6252 19.1604 28.6765L18.9809 28.5226 20.3403 26.6245 20.5712 26.8041Z" fill="#9B0000" fill-rule="nonzero" fill-opacity="1" transform="matrix(1 0 0 1.00705 169.997 165.104)"/></g><g clip-path="url(#clip18)"><path d="M30.036 22.2897C29.9847 22.341 29.9334 22.3923 29.8821 22.4436 29.8308 22.4949 29.8051 22.5462 29.7538 22.6232 29.7025 22.7258 29.6769 22.8027 29.7025 22.8797 29.7282 22.9566 29.7538 23.0336 29.8051 23.1105L30.1899 23.5979C30.2668 23.7005 30.3438 23.7774 30.3951 23.8287 30.4464 23.88 30.4977 23.957 30.5746 24.0596 30.472 24.3417 30.2668 24.7008 29.959 25.1112 29.6512 25.5216 29.3434 25.8807 29.01 26.1372 28.7022 26.3937 28.3687 26.5732 28.0353 26.7015 27.6762 26.8297 27.3427 26.881 26.9836 26.8554 26.6245 26.8297 26.2911 26.7271 25.9576 26.5476 25.6242 26.368 25.3164 26.1115 25.0342 25.7524 24.7777 25.3933 24.5725 25.0599 24.4699 24.6751 24.3417 24.316 24.316 23.957 24.3417 23.5722 24.393 23.2131 24.5212 22.854 24.7008 22.5206 24.906 22.1615 25.1881 21.8537 25.5472 21.5715 25.8037 21.392 26.0346 21.2124 26.2911 21.1098 26.5476 21.0072 26.7528 20.9303 26.958 20.9046L27.0093 20.5968 27.2658 20.3916 28.5483 21.9306 28.2918 22.1358C27.7531 21.7767 27.3171 21.5972 26.9067 21.5202 26.5219 21.4689 26.1628 21.5715 25.8294 21.828 25.4446 22.1358 25.2907 22.5206 25.342 23.0336 25.3933 23.5466 25.6755 24.0852 26.1372 24.6751 26.6502 25.2907 27.1375 25.7011 27.6249 25.9063 28.1122 26.1115 28.5483 26.0346 28.9074 25.7268 29.0869 25.5729 29.2152 25.419 29.3178 25.2651 29.4204 25.1112 29.4717 24.9573 29.4973 24.829L28.8048 23.957C28.7535 23.88 28.6765 23.8287 28.6252 23.8031 28.5483 23.7774 28.4713 23.7774 28.3687 23.8031 28.2918 23.8287 28.1892 23.8544 28.0866 23.9057 27.984 23.957 27.8814 24.0082 27.8301 24.0339L27.6505 23.8544 29.8564 22.0589 30.036 22.2897Z" fill="#9B0000" fill-rule="nonzero" fill-opacity="1" transform="matrix(1 0 0 1.00705 169.997 165.104)"/></g><g clip-path="url(#clip19)"><path d="M42.7839 14.1074C42.707 14.1331 42.6044 14.1844 42.4761 14.2357 42.3479 14.287 42.2453 14.3639 42.1683 14.4665 42.0914 14.5435 42.0401 14.6717 42.0657 14.8513 42.0657 15.0052 42.117 15.2617 42.194 15.5951L42.707 17.5445C42.8609 18.1088 42.7839 18.6474 42.5018 19.0835 42.194 19.5452 41.7323 19.853 41.091 20.0325 40.3472 20.2377 39.706 20.2121 39.193 19.9812 38.68 19.7504 38.3465 19.34 38.1926 18.7244L37.4744 16.0312C37.4488 15.9542 37.4231 15.8773 37.3718 15.826 37.3205 15.7747 37.2436 15.7234 37.141 15.6977 37.064 15.6721 36.9871 15.6721 36.8845 15.6721 36.7819 15.6721 36.7049 15.6977 36.6536 15.6977L36.5767 15.4156 39.3469 14.6717 39.4238 14.9539C39.3469 14.9795 39.2699 15.0052 39.193 15.0565 39.116 15.0821 39.0391 15.1334 38.9621 15.1847 38.8595 15.236 38.8339 15.313 38.8082 15.3899 38.7826 15.4669 38.8082 15.5438 38.8339 15.6464L39.5521 18.314C39.706 18.827 39.9112 19.1861 40.1933 19.3656 40.5011 19.5452 40.8602 19.5708 41.2962 19.4682 41.7323 19.34 42.0401 19.1348 42.2196 18.8013 42.3992 18.4679 42.4248 18.0575 42.2709 17.5445L41.8092 15.749C41.7323 15.4412 41.6297 15.2104 41.5527 15.0565 41.4758 14.9026 41.3732 14.8256 41.2706 14.7743 41.1936 14.7487 41.0654 14.723 40.8858 14.723 40.7063 14.723 40.6037 14.723 40.5267 14.723L40.4498 14.4152 42.7583 13.7996 42.7839 14.1074Z" fill="#9B0000" fill-rule="nonzero" fill-opacity="1" transform="matrix(1 0 0 1.00705 169.997 165.104)"/></g><g clip-path="url(#clip20)"><path d="M53.0952 13.7227C53.0182 13.7227 52.9156 13.7483 52.7874 13.7483 52.6591 13.774 52.5309 13.8253 52.4283 13.9022 52.3257 13.9792 52.2744 14.0818 52.2231 14.2613 52.1718 14.4152 52.1718 14.6717 52.1461 15.0052L52.0948 18.9296 51.4023 18.9296 48.0678 14.6461 48.0422 17.211C48.0422 17.5188 48.0678 17.7753 48.0935 17.9292 48.1448 18.1088 48.1961 18.2114 48.2986 18.2883 48.3756 18.3396 48.4782 18.3909 48.6321 18.4422 48.786 18.4935 48.8886 18.5192 48.9912 18.5448L48.9912 18.8526 46.6314 18.827 46.6314 18.5192C46.734 18.4935 46.8366 18.4935 46.9649 18.4679 47.0931 18.4422 47.1957 18.3909 47.2983 18.3396 47.4009 18.2627 47.4779 18.1601 47.5035 18.0062 47.5548 17.8523 47.5548 17.5958 47.5548 17.2623L47.5805 14.6717C47.5805 14.5435 47.5548 14.4152 47.5292 14.3126 47.4779 14.21 47.4266 14.1074 47.3496 14.0048 47.2727 13.9279 47.1701 13.8509 47.0418 13.7996 46.9392 13.7483 46.7853 13.697 46.6571 13.6714L46.6571 13.3379 48.7347 13.3636 51.6588 17.1084 51.6844 15.0308C51.6844 14.6974 51.6844 14.4665 51.6331 14.287 51.5818 14.1331 51.5305 14.0048 51.4279 13.9279 51.351 13.8766 51.2484 13.8253 51.0945 13.774 50.9406 13.7227 50.838 13.697 50.7354 13.6714L50.7354 13.3892 53.0695 13.4149 53.0952 13.7227Z" fill="#9B0000" fill-rule="nonzero" fill-opacity="1" transform="matrix(1 0 0 1.00705 169.997 165.104)"/></g><g clip-path="url(#clip21)"><path d="M58.969 20.2634 56.0193 19.5195 56.0962 19.2374C56.1731 19.2374 56.2758 19.263 56.404 19.2887 56.5323 19.3143 56.6348 19.3143 56.6861 19.3143 56.7887 19.2887 56.8657 19.263 56.917 19.2117 56.9683 19.1604 56.9939 19.0835 57.0196 19.0065L57.9943 15.2617C58.0199 15.1847 58.0199 15.1078 57.9943 15.0308 57.9686 14.9539 57.9173 14.8769 57.8404 14.8256 57.7891 14.7743 57.7121 14.7487 57.5839 14.6717 57.4813 14.6204 57.3787 14.5691 57.3017 14.5435L57.3787 14.2613 60.3284 15.0308 60.2771 15.2617C60.2002 15.2617 60.0976 15.236 59.995 15.2104 59.8667 15.1847 59.7898 15.1847 59.6872 15.1847 59.5846 15.1847 59.5076 15.236 59.4563 15.2873 59.405 15.3386 59.3794 15.4156 59.3537 15.5182L58.379 19.263C58.3534 19.3656 58.3534 19.4426 58.379 19.4939 58.4047 19.5708 58.456 19.6221 58.5329 19.6991 58.5842 19.7247 58.6612 19.776 58.7638 19.8273 58.8664 19.8786 58.969 19.9043 59.0459 19.9299L58.969 20.2634Z" fill="#9B0000" fill-rule="nonzero" fill-opacity="1" transform="matrix(1 0 0 1.00705 169.997 165.104)"/></g><g clip-path="url(#clip22)"><path d="M69.7419 19.5195C69.665 19.4939 69.588 19.4682 69.5111 19.4426 69.4341 19.4169 69.3315 19.4169 69.2546 19.4169 69.1263 19.4169 69.0237 19.4426 68.9211 19.4682 68.8442 19.5195 68.7416 19.5708 68.6133 19.6478 68.4594 19.776 68.2542 19.9556 67.9464 20.1864 67.6643 20.4173 67.3308 20.6738 66.9717 20.9816 66.6383 21.2381 66.2792 21.5459 65.8944 21.8793 65.5097 22.1871 65.1249 22.5206 64.7915 22.8027L64.1246 22.4693C64.2272 21.5202 64.3042 20.5712 64.4068 19.5965 64.5093 18.6218 64.5606 17.9292 64.5863 17.5445 64.5863 17.4162 64.5863 17.288 64.5863 17.211 64.5606 17.1341 64.5093 17.0315 64.458 16.9032 64.4068 16.8263 64.3555 16.7493 64.3042 16.698 64.2528 16.6467 64.1759 16.5954 64.099 16.5185L64.2528 16.262 66.8691 17.6471 66.6896 17.9036C66.4331 17.801 66.2279 17.724 66.1253 17.724 66.0227 17.6984 65.9457 17.724 65.9201 17.7753 65.9201 17.801 65.8944 17.8266 65.8944 17.8523 65.8944 17.8779 65.8688 17.9292 65.8688 17.9805 65.8431 18.2114 65.7918 18.6218 65.7405 19.1604 65.6892 19.7247 65.6123 20.5712 65.484 21.6998 66.0227 21.2381 66.4587 20.879 66.8435 20.5455 67.2026 20.2377 67.536 19.9556 67.7925 19.7247 67.9208 19.5965 68.049 19.4939 68.1516 19.3913 68.2542 19.2887 68.3312 19.2117 68.3568 19.1348 68.4081 19.0578 68.3825 18.9809 68.3055 18.8783 68.2286 18.7757 68.049 18.6218 67.7669 18.4679L67.8951 18.2114 69.8445 19.2374 69.7419 19.5195Z" fill="#9B0000" fill-rule="nonzero" fill-opacity="1" transform="matrix(1 0 0 1.00705 169.997 165.104)"/></g><g clip-path="url(#clip23)"><path d="M75.667 25.8807 75.4362 25.6755C75.5388 25.4703 75.5644 25.2394 75.5901 24.9573 75.5901 24.6751 75.5644 24.4699 75.4618 24.316 75.4105 24.2391 75.3336 24.1621 75.2566 24.0852 75.154 23.9826 75.0771 23.9057 75.0258 23.8544L74.4358 23.3157 73.0251 24.8803 73.4355 25.2651C73.5381 25.342 73.6407 25.419 73.7433 25.4703 73.8459 25.5216 73.9741 25.5472 74.1024 25.5472 74.1793 25.5472 74.3076 25.4959 74.4358 25.4446 74.5641 25.3677 74.6923 25.3164 74.7949 25.2394L75.0001 25.4446 73.4611 27.1119 73.2303 26.9067C73.2816 26.8297 73.3585 26.7015 73.4098 26.5219 73.4611 26.3424 73.5124 26.2398 73.5124 26.1372 73.5124 26.0089 73.4868 25.9063 73.4355 25.8037 73.3842 25.7011 73.2816 25.5985 73.179 25.4959L72.7686 25.1368 71.7169 26.2911C71.6144 26.4193 71.5374 26.5219 71.4861 26.5989 71.4348 26.6758 71.4348 26.7784 71.4348 26.8554 71.4348 26.9323 71.4861 27.0093 71.5631 27.1119 71.64 27.1888 71.7426 27.3171 71.8965 27.4453 71.9734 27.4966 72.0504 27.5736 72.1274 27.6505 72.2299 27.7275 72.3069 27.8044 72.3839 27.8557 72.4608 27.907 72.5634 27.984 72.6404 28.0096 72.743 28.0609 72.7942 28.0609 72.8712 28.0609 73.0507 28.0609 73.2816 28.0096 73.5637 27.907 73.8459 27.8044 74.0511 27.7531 74.1793 27.6762L74.3845 27.8557 73.1534 29.0356 69.3828 25.5729 69.588 25.342C69.6393 25.3933 69.7163 25.4446 69.8189 25.5216 69.9215 25.5985 69.9984 25.6242 70.0497 25.6498 70.1523 25.6755 70.2293 25.7011 70.3062 25.6755 70.3832 25.6498 70.4345 25.5985 70.5114 25.5216L73.102 22.6745C73.1534 22.5975 73.2047 22.5462 73.2303 22.4693 73.2559 22.3923 73.2303 22.3154 73.179 22.2128 73.1534 22.1358 73.102 22.0589 73.0251 21.9563 72.9482 21.8537 72.8969 21.7767 72.8456 21.7254L73.0507 21.4946 76.6161 24.7521 75.667 25.8807Z" fill="#9B0000" fill-rule="nonzero" fill-opacity="1" transform="matrix(1 0 0 1.00705 169.997 165.104)"/></g><g clip-path="url(#clip24)"><path d="M80.5148 32.2162C80.8226 32.011 80.9765 31.7802 81.0278 31.5237 81.0535 31.2672 80.9765 30.985 80.7713 30.6516L80.5918 30.3951 78.6681 31.6263 78.822 31.8828C79.0272 32.1906 79.258 32.3957 79.5402 32.447 79.8223 32.524 80.1558 32.447 80.5148 32.2162M78.5142 36.6023 77.3856 34.8325C77.6677 34.2425 77.8729 33.7295 78.0012 33.3704 78.1551 32.9857 78.309 32.524 78.4629 32.011L78.3603 31.8315 76.9752 32.7292C76.8982 32.7805 76.8469 32.8318 76.7956 32.9087 76.77 32.96 76.7443 33.0626 76.77 33.1652 76.77 33.2165 76.7956 33.2935 76.8469 33.3961 76.8982 33.4987 76.9239 33.5756 76.9495 33.6526L76.693 33.8065 75.1027 31.3441 75.3592 31.1902C75.4105 31.2415 75.4618 31.3185 75.5388 31.4211 75.6157 31.5237 75.667 31.575 75.7183 31.6006 75.7953 31.6519 75.8979 31.6776 75.9492 31.6776 76.0261 31.6776 76.1031 31.6519 76.18 31.6006L79.4119 29.523C79.4889 29.4717 79.5402 29.4204 79.5915 29.3691 79.6428 29.3178 79.6428 29.2152 79.6171 29.1126 79.5915 29.0356 79.5658 28.933 79.5145 28.8048 79.4632 28.7022 79.4376 28.6252 79.4119 28.5483L79.6684 28.3944 81.3356 30.9594C81.7204 31.5493 81.8999 32.0367 81.9256 32.447 81.9256 32.8574 81.746 33.1909 81.3869 33.4217 81.0535 33.6269 80.7457 33.7039 80.4379 33.6526 80.1301 33.6013 79.7967 33.3961 79.4376 33.1139 79.335 33.3704 79.2324 33.7039 79.1041 34.063 78.9759 34.4221 78.8476 34.7812 78.7194 35.1659 78.6681 35.2942 78.6424 35.4481 78.5911 35.6276 78.5398 35.8328 78.5398 35.9611 78.5655 36.0893 78.5911 36.1406 78.6168 36.2176 78.6424 36.2945 78.6681 36.3715 78.6937 36.4484 78.7194 36.4741L78.5142 36.6023Z" fill="#9B0000" fill-rule="nonzero" fill-opacity="1" transform="matrix(1 0 0 1.00705 169.997 165.104)"/></g><g clip-path="url(#clip25)"><path d="M80.0532 41.091C79.9506 40.7832 79.8736 40.4754 79.8736 40.1677 79.848 39.8599 79.8736 39.6034 79.9249 39.3725L79.5915 39.193 79.4889 38.8852 81.3613 38.2183 81.4639 38.5261C81.31 38.6543 81.1561 38.8082 81.0022 38.9878 80.8483 39.1673 80.72 39.3469 80.6174 39.5521 80.5148 39.7573 80.4379 39.9625 80.3866 40.1933 80.3353 40.3985 80.361 40.6293 80.4379 40.8858 80.5405 41.2193 80.72 41.4501 80.9252 41.5527 81.1304 41.681 81.3869 41.7066 81.6178 41.604 81.823 41.5271 81.9512 41.3988 82.0538 41.2193 82.1308 41.0141 82.1821 40.7576 82.1821 40.3985 82.1821 40.1677 82.1821 39.9625 82.1821 39.7573 82.1821 39.5777 82.1821 39.3982 82.1821 39.2186 82.2077 38.8339 82.3103 38.5004 82.5155 38.2439 82.7207 37.9874 82.9772 37.8079 83.3107 37.7053 83.5159 37.6283 83.7211 37.6027 83.9263 37.6283 84.1315 37.654 84.3623 37.7309 84.5675 37.8335 84.7727 37.9361 84.9523 38.1157 85.1062 38.3465 85.2857 38.5774 85.414 38.8339 85.5166 39.116 85.6192 39.3982 85.6705 39.6803 85.6705 39.9625 85.6705 40.2446 85.6705 40.4754 85.6448 40.6293L85.927 40.7832 86.0296 41.091 84.2854 41.7066 84.1828 41.3988C84.3367 41.2706 84.5162 41.1167 84.6701 40.9371 84.824 40.7832 84.9523 40.6037 85.0549 40.4498 85.1575 40.2702 85.2088 40.1164 85.2601 39.9368 85.2857 39.7573 85.2857 39.5521 85.2088 39.3469 85.1318 39.0904 84.9779 38.8852 84.7727 38.7826 84.5675 38.6543 84.3623 38.6543 84.1315 38.7056 83.9263 38.7826 83.7724 38.9108 83.6954 39.0904 83.6185 39.2699 83.5672 39.5521 83.5672 39.8855 83.5672 40.0907 83.5672 40.2959 83.5672 40.5011 83.5672 40.7063 83.5672 40.8858 83.5672 41.0654 83.5415 41.4758 83.4646 41.8092 83.285 42.0657 83.1055 42.3222 82.849 42.5274 82.4899 42.63 82.259 42.707 82.0282 42.7326 81.7973 42.6813 81.5408 42.6557 81.3356 42.5531 81.1304 42.4248 80.8996 42.2709 80.72 42.0914 80.5405 41.8605 80.3096 41.7323 80.1558 41.4245 80.0532 41.091" fill="#9B0000" fill-rule="nonzero" fill-opacity="1" transform="matrix(1 0 0 1.00705 169.997 165.104)"/></g><g clip-path="url(#clip26)"><path d="M81.823 49.5042 81.5152 46.4775 81.823 46.4519C81.8486 46.5288 81.8486 46.6314 81.8743 46.7597 81.8999 46.8879 81.9256 46.9905 81.9512 47.0162 82.0025 47.1188 82.0538 47.1701 82.1308 47.1957 82.1821 47.2214 82.2847 47.2214 82.3873 47.2214L86.2348 46.8366C86.3374 46.8366 86.3887 46.811 86.4656 46.7597 86.5169 46.7084 86.5682 46.6571 86.5939 46.5545 86.6195 46.5032 86.6195 46.4006 86.6452 46.2723 86.6708 46.1441 86.6708 46.0415 86.6708 45.9645L86.9786 45.9389 87.2864 48.9655 86.9786 48.9912C86.953 48.9142 86.9273 48.8116 86.9017 48.709 86.876 48.6064 86.8504 48.5038 86.7991 48.4269 86.7478 48.3243 86.6965 48.273 86.6195 48.2473 86.5426 48.2217 86.4656 48.2217 86.363 48.2217L82.5155 48.6064C82.4129 48.6064 82.336 48.6321 82.2847 48.6834 82.2334 48.7347 82.1821 48.786 82.1564 48.8886 82.1308 48.9399 82.1308 49.0425 82.1051 49.1707 82.1051 49.299 82.1051 49.4016 82.1051 49.4785L81.823 49.5042Z" fill="#9B0000" fill-rule="nonzero" fill-opacity="1" transform="matrix(1 0 0 1.00705 169.997 165.104)"/></g><g clip-path="url(#clip27)"><path d="M85.1831 58.3277 85.2088 58.0199C85.4396 57.9686 85.7218 57.866 86.0039 57.7378 86.2861 57.5839 86.44 57.4556 86.4913 57.3017 86.5169 57.2248 86.5426 57.1222 86.5426 56.9939 86.5682 56.8657 86.5682 56.7631 86.5939 56.6861L86.6195 56.5066 82.3616 55.9936C82.259 55.9936 82.1821 55.9936 82.1051 56.0193 82.0282 56.0449 81.9769 56.0962 81.9256 56.1988 81.8999 56.2501 81.8743 56.3527 81.823 56.4553 81.7717 56.5835 81.746 56.6861 81.746 56.7631L81.4382 56.7374 81.7973 53.7108 82.0795 53.7364C82.0795 53.8134 82.0795 53.916 82.0795 54.0442 82.0795 54.1725 82.0795 54.2751 82.1051 54.3264 82.1308 54.429 82.1821 54.5059 82.2334 54.5572 82.2847 54.6085 82.3873 54.6342 82.4642 54.6342L86.7478 55.1472 86.7734 54.9676C86.7991 54.8907 86.7991 54.7881 86.7991 54.6598 86.7991 54.5316 86.7991 54.4546 86.7991 54.352 86.7991 54.1981 86.6708 54.0186 86.4143 53.8134 86.1578 53.6082 85.9526 53.4543 85.7218 53.3517L85.7474 53.0439 87.3121 53.2234 86.6965 58.4816 85.1831 58.3277Z" fill="#9B0000" fill-rule="nonzero" fill-opacity="1" transform="matrix(1 0 0 1.00705 169.997 165.104)"/></g><g clip-path="url(#clip28)"><path d="M83.4133 67.7925C83.4389 67.7156 83.4389 67.613 83.4646 67.536 83.4646 67.4591 83.4646 67.3821 83.4389 67.3052 83.4133 67.1769 83.3876 67.0487 83.3363 66.9461 83.285 66.8435 83.2081 66.7152 83.1311 66.587 82.9516 66.3561 82.772 66.0996 82.5668 65.8175 82.3616 65.5353 82.1308 65.2532 81.8999 64.9197 81.746 64.7145 81.6178 64.5606 81.5152 64.4837 81.4126 64.4068 81.233 64.3298 80.9765 64.2272L80.2584 63.9451C80.1814 63.9194 80.0788 63.8938 80.0019 63.9194 79.9249 63.9194 79.848 63.9707 79.771 64.0477 79.7454 64.0733 79.6941 64.1503 79.5915 64.2785 79.5145 64.4068 79.4632 64.4837 79.4376 64.5606L79.1554 64.458 80.2584 61.6109 80.5405 61.7135C80.5148 61.7905 80.4892 61.8931 80.4636 62.0213 80.4379 62.1496 80.4123 62.2522 80.4123 62.3035 80.4123 62.4061 80.4379 62.483 80.4892 62.5343 80.5405 62.5856 80.6174 62.6369 80.6944 62.6626L81.5921 62.996C81.6691 63.0217 81.746 63.0473 81.7973 63.073 81.8486 63.0986 81.8999 63.0986 81.9512 63.0986 82.0025 63.0986 82.0795 63.0986 82.1564 63.073 82.2334 63.0473 82.3616 63.0473 82.4899 63.0217 82.8746 62.9704 83.2594 62.9191 83.6185 62.8421 83.9776 62.7908 84.311 62.7139 84.6188 62.6626 84.7727 62.6369 84.9266 62.5856 85.0292 62.5343 85.1318 62.483 85.2344 62.4317 85.3114 62.3548 85.3627 62.3035 85.4396 62.2265 85.4909 62.1496 85.5422 62.0726 85.5935 61.9957 85.6192 61.9187L85.9013 62.0213 84.7727 64.9454 84.4906 64.8428C84.5932 64.5606 84.6445 64.3811 84.6445 64.2785 84.6445 64.1759 84.6188 64.099 84.5675 64.099 84.5419 64.099 84.4906 64.099 84.388 64.099 84.2854 64.099 84.1571 64.1246 83.9519 64.1503 83.7724 64.1759 83.5159 64.2016 83.1824 64.2528 82.849 64.3042 82.4642 64.3811 82.0025 64.458 82.5412 65.2019 82.9259 65.6892 83.1568 65.9714 83.3876 66.2535 83.5159 66.4074 83.5928 66.4331 83.6698 66.4587 83.7467 66.4331 83.8493 66.3561 83.9263 66.2792 84.0289 66.1253 84.1058 65.8944L84.388 65.997 83.6698 67.8951 83.4133 67.7925Z" fill="#9B0000" fill-rule="nonzero" fill-opacity="1" transform="matrix(1 0 0 1.00705 169.997 165.104)"/></g><g clip-path="url(#clip29)"><path d="M66.8435 65.6892C65.9201 63.509 64.8428 61.5083 63.6886 59.7128 62.4574 57.8404 61.1492 56.1988 59.7385 54.865 58.2251 53.4286 56.6092 52.3 54.942 51.5305 53.839 51.0175 52.7104 50.6584 51.5562 50.4789L51.5562 49.1707C51.5562 47.9396 50.5558 46.9392 49.3246 46.9392 48.0935 46.9392 47.0931 47.9396 47.0931 49.1707L47.0931 50.4789C45.9389 50.6841 44.8103 51.0432 43.733 51.5305 42.0657 52.3 40.4498 53.4286 38.9365 54.865 37.5257 56.1988 36.1919 57.8404 34.9864 59.7128 33.8321 61.4827 32.7548 63.509 31.8315 65.6892 31.3698 66.7922 31.8571 68.049 32.96 68.5107 34.063 68.9724 35.3198 68.4594 35.7815 67.3821 37.4744 63.4321 39.5777 60.1745 41.9118 57.9686 43.5791 56.3783 45.3233 55.3267 47.1188 54.865L47.1188 58.379C47.1188 59.5846 46.221 60.0463 45.8106 60.3028 45.6824 60.3797 45.4002 60.5593 45.272 60.6362 44.4512 61.1749 43.5021 61.9957 42.6044 63.1499 41.0141 65.2019 39.7573 67.9977 39.0904 71.0244 38.8339 72.1786 39.5777 73.3329 40.7319 73.5894 41.8862 73.8459 43.0404 73.102 43.2969 71.9478 43.8099 69.5367 44.7846 67.3565 45.9902 65.7918 46.6058 64.9967 47.8626 63.6629 49.3246 63.6629 50.7867 63.6629 52.0435 64.9967 52.6591 65.7918 53.8647 67.3565 54.8394 69.5367 55.3524 71.9478 55.6089 73.102 56.7631 73.8459 57.9173 73.5894 59.0716 73.3329 59.8154 72.2043 59.5589 71.0244 58.892 67.9977 57.6608 65.2019 56.0449 63.1499 55.1472 62.0213 54.1981 61.1749 53.3773 60.6362 53.2491 60.5593 52.9669 60.3797 52.8387 60.3028 52.4283 60.0463 51.5562 59.5846 51.5562 58.379L51.5562 54.865C53.3517 55.3267 55.0702 56.3783 56.7631 57.9686 59.0972 60.1745 61.2005 63.4321 62.8934 67.3821 63.3551 68.4851 64.6376 68.9724 65.7149 68.5107 66.8178 68.049 67.3308 66.7922 66.8435 65.6892M51.2484 29.959 51.2484 30.036 51.2484 42.7583 51.2484 43.8869C51.2484 44.6307 51.787 45.6824 52.9413 45.9389 55.5319 46.4775 58.4816 47.9908 61.1492 50.1967 63.7655 52.3513 66.2279 55.1985 68.4594 58.6355 69.1007 59.6359 70.4345 59.918 71.4348 59.2768 72.0761 58.8664 72.4095 58.1738 72.4095 57.4556 72.4095 57.0452 72.3069 56.6348 72.0504 56.2758 69.588 52.4796 66.8178 49.3246 63.8681 46.8623 61.2518 44.682 58.5073 43.143 55.7115 42.2453L55.7115 37.2949C59.7385 38.3978 63.9451 40.7063 67.5873 43.8099 68.4851 44.5794 69.8445 44.4768 70.614 43.5791 71.3835 42.6813 71.2809 41.3219 70.3832 40.5524 68.0747 38.5774 65.4327 36.8075 62.7652 35.4481 60.4054 34.2682 58.0456 33.3961 55.7115 32.8574L55.7115 29.9847C55.7115 28.7535 54.7111 27.7531 53.4799 27.7531 52.2487 27.7275 51.2484 28.7278 51.2484 29.959M45.195 27.7275C43.9638 27.7275 42.9635 28.7278 42.9635 29.959L42.9635 32.8318C40.6293 33.3704 38.2696 34.2425 35.9098 35.4224 33.2422 36.7819 30.6003 38.5261 28.2918 40.5267 27.394 41.2962 27.2914 42.6557 28.0609 43.5534 28.8304 44.4512 30.1899 44.5538 31.0876 43.7843 34.7042 40.6806 38.9108 38.3722 42.9635 37.2692L42.9635 42.2196C40.1677 43.143 37.4231 44.682 34.7812 46.8366 31.8315 49.2733 29.0869 52.4283 26.5989 56.2501 26.368 56.6092 26.2398 57.0196 26.2398 57.43 26.2398 58.1482 26.5989 58.8151 27.2145 59.2511 28.2148 59.8924 29.5486 59.6102 30.1899 58.6099 32.4214 55.1728 34.8838 52.3257 37.5001 50.1711 40.1677 47.9652 43.1174 46.4519 45.708 45.9132 46.8623 45.6567 47.3753 44.6051 47.3753 43.8612L47.3753 42.7326 47.3753 30.0103 47.3753 29.9334C47.4266 28.7278 46.4262 27.7275 45.195 27.7275M77.5138 51.3766C77.5138 66.9461 64.8941 79.5658 49.3246 79.5658 33.7552 79.5658 21.1355 66.9461 21.1355 51.3766 21.1355 35.8072 33.7552 23.1875 49.3246 23.1875 64.8941 23.1875 77.5138 35.8072 77.5138 51.3766" fill="#9B0000" fill-rule="nonzero" fill-opacity="1" transform="matrix(1 0 0 1.00705 169.997 165.104)"/></g><g clip-path="url(#clip30)"><path d="M114.988 82.2077C115.193 81.8999 115.347 81.5921 115.399 81.2843 115.476 80.9765 115.501 80.6688 115.501 80.4123 115.501 80.0532 115.45 79.6941 115.373 79.335 115.296 78.9759 115.142 78.6424 114.937 78.3859 114.732 78.1038 114.424 77.8729 114.09 77.719 113.731 77.5651 113.295 77.4882 112.782 77.4882L111.474 77.4882 111.474 83.3107 112.423 83.3107C113.09 83.3107 113.629 83.2081 114.039 83.0029 114.45 82.7977 114.757 82.5412 114.988 82.2077M117.81 79.9762C117.81 80.6688 117.681 81.2843 117.399 81.7973 117.143 82.336 116.758 82.772 116.271 83.1311 115.809 83.4902 115.27 83.7467 114.706 83.9006 114.142 84.0545 113.552 84.1315 112.911 84.1315L111.423 84.1315 111.423 88.1329C111.423 88.3637 111.449 88.5433 111.526 88.6972 111.602 88.851 111.731 88.9793 111.962 89.0819 112.064 89.1332 112.269 89.1588 112.552 89.2101 112.834 89.2614 113.09 89.2614 113.347 89.2871L113.347 89.954 107.729 89.954 107.729 89.2614C107.883 89.2614 108.088 89.2358 108.371 89.1845 108.653 89.1588 108.832 89.1076 108.961 89.0563 109.14 88.9793 109.268 88.851 109.345 88.6972 109.422 88.5433 109.474 88.3381 109.474 88.1072L109.474 78.5655C109.474 78.3603 109.448 78.1551 109.371 77.9755 109.32 77.796 109.166 77.6677 108.935 77.5908 108.704 77.5138 108.473 77.4625 108.242 77.4112 108.011 77.3856 107.806 77.3599 107.652 77.3343L107.652 76.6674 113.68 76.6674C114.911 76.6674 115.912 76.9752 116.655 77.5651 117.425 78.1807 117.81 78.9759 117.81 79.9762" fill="#000000" fill-rule="nonzero" fill-opacity="1" transform="matrix(1 0 0 1.00705 169.997 165.104)"/></g><g clip-path="url(#clip31)"><path d="M130.455 86.0296 130.199 89.9283 119.246 89.9283 119.246 89.2614C119.426 89.2614 119.682 89.2358 119.99 89.1845 120.298 89.1332 120.503 89.1076 120.606 89.0563 120.811 88.9537 120.939 88.851 121.016 88.6972 121.093 88.5433 121.119 88.3637 121.119 88.1329L121.119 78.6168C121.119 78.4116 121.093 78.232 121.016 78.0781 120.939 77.9242 120.811 77.796 120.58 77.6934 120.4 77.6164 120.195 77.5395 119.913 77.4882 119.631 77.4369 119.4 77.3856 119.246 77.3856L119.246 76.7187 129.455 76.7187 129.455 79.8993 128.762 79.8993C128.634 79.4376 128.377 78.9502 127.967 78.4372 127.557 77.9242 127.172 77.6421 126.787 77.5908 126.582 77.5651 126.351 77.5395 126.095 77.5395 125.838 77.5395 125.53 77.5138 125.171 77.5138L123.094 77.5138 123.094 82.7207 124.581 82.7207C125.069 82.7207 125.402 82.6694 125.633 82.5925 125.838 82.5155 126.043 82.3616 126.223 82.1308 126.351 81.9512 126.479 81.7204 126.556 81.4126 126.659 81.1048 126.71 80.8226 126.736 80.5661L127.428 80.5661 127.428 85.7474 126.736 85.7474C126.71 85.4396 126.633 85.1318 126.531 84.7984 126.428 84.4649 126.3 84.2341 126.197 84.0802 125.992 83.8237 125.787 83.6954 125.53 83.5928 125.274 83.5159 124.966 83.4902 124.556 83.4902L123.068 83.4902 123.068 87.4403C123.068 87.8251 123.094 88.1585 123.145 88.3637 123.196 88.5946 123.299 88.7741 123.478 88.8767 123.632 89.005 123.863 89.0819 124.145 89.1076 124.427 89.1332 124.812 89.1588 125.325 89.1588L126.12 89.1588C126.454 89.1588 126.736 89.1588 126.967 89.1332 127.198 89.1076 127.454 89.0563 127.685 89.005 127.941 88.9537 128.121 88.851 128.224 88.7484 128.506 88.4407 128.814 88.0046 129.121 87.389 129.429 86.7734 129.634 86.3374 129.711 86.0552L130.455 86.0552Z" fill="#000000" fill-rule="nonzero" fill-opacity="1" transform="matrix(1 0 0 1.00705 169.997 165.104)"/></g><g clip-path="url(#clip32)"><path d="M144.049 89.9283 140.33 89.9283C139.612 88.8254 138.817 87.7225 137.945 86.6452 137.073 85.5679 136.149 84.4906 135.2 83.4646L134.969 83.4646 134.969 88.0559C134.969 88.2611 135.021 88.4407 135.072 88.5946 135.149 88.7484 135.277 88.8767 135.482 88.9793 135.585 89.0306 135.765 89.0819 136.021 89.1332 136.278 89.1845 136.508 89.2358 136.688 89.2358L136.688 89.9027 131.225 89.9027 131.225 89.2614C131.378 89.2614 131.584 89.2358 131.84 89.2101 132.122 89.1845 132.302 89.1588 132.43 89.1076 132.61 89.0306 132.764 88.9024 132.841 88.7484 132.917 88.5946 132.969 88.3894 132.969 88.1842L132.969 78.6424C132.969 78.4372 132.943 78.2577 132.866 78.1038 132.789 77.9499 132.661 77.8216 132.43 77.719 132.251 77.6421 132.071 77.5651 131.84 77.5138 131.609 77.4625 131.404 77.4112 131.225 77.4112L131.225 76.693 136.688 76.693 136.688 77.3599C136.508 77.3599 136.303 77.3856 136.047 77.4369 135.79 77.4882 135.611 77.5395 135.482 77.5908 135.277 77.6677 135.123 77.796 135.072 77.9499 134.995 78.1294 134.969 78.309 134.969 78.5142L134.969 83.0798 135.149 83.0798C135.713 82.6181 136.252 82.1051 136.791 81.5921 137.329 81.0791 137.817 80.5661 138.253 80.0532 138.74 79.4889 139.099 79.0272 139.33 78.6937 139.561 78.3603 139.663 78.0525 139.663 77.796 139.663 77.6934 139.612 77.6164 139.484 77.5651 139.381 77.5138 139.227 77.4625 139.099 77.4112 138.92 77.3856 138.766 77.3599 138.637 77.3343 138.509 77.3343 138.381 77.3086 138.304 77.3086L138.304 76.693 143.254 76.693 143.254 77.3599C143.229 77.3599 143.203 77.3599 143.126 77.3599 143.075 77.3599 142.998 77.3599 142.921 77.3856 142.844 77.3856 142.741 77.4112 142.664 77.4112 142.587 77.4369 142.459 77.4369 142.331 77.4625 142.126 77.5138 141.895 77.5908 141.664 77.6934 141.433 77.796 141.228 77.9499 141.1 78.1038 140.459 78.822 139.792 79.5915 139.099 80.361 138.407 81.1304 137.714 81.8486 137.021 82.4899 137.97 83.5672 138.74 84.4649 139.356 85.2344 139.971 86.0039 140.638 86.8247 141.331 87.6968 141.587 88.0303 141.869 88.3124 142.126 88.492 142.382 88.6972 142.613 88.851 142.818 88.9537 142.972 89.0306 143.177 89.1076 143.408 89.1332 143.639 89.1845 143.844 89.2101 144.024 89.2101L144.024 89.9283Z" fill="#000000" fill-rule="nonzero" fill-opacity="1" transform="matrix(1 0 0 1.00705 169.997 165.104)"/></g><g clip-path="url(#clip33)"><path d="M150.693 89.9283 144.716 89.9283 144.716 89.2614C144.896 89.2614 145.127 89.2358 145.435 89.2101 145.742 89.1845 145.973 89.1588 146.101 89.1076 146.307 89.0306 146.461 88.928 146.538 88.7741 146.64 88.6459 146.666 88.4407 146.666 88.1842L146.666 78.6168C146.666 78.3859 146.64 78.232 146.563 78.0781 146.486 77.9242 146.332 77.8216 146.076 77.719 145.896 77.6421 145.665 77.5651 145.383 77.5138 145.101 77.4369 144.87 77.4112 144.691 77.3856L144.691 76.693 150.667 76.693 150.667 77.3599C150.462 77.3599 150.231 77.3856 149.975 77.4369 149.718 77.4625 149.462 77.5138 149.282 77.5908 149.051 77.6677 148.897 77.796 148.795 77.9499 148.718 78.1294 148.666 78.309 148.666 78.5142L148.666 88.0816C148.666 88.2868 148.718 88.4663 148.795 88.6202 148.897 88.7741 149.051 88.9024 149.256 89.005 149.385 89.0563 149.59 89.1076 149.898 89.1588 150.205 89.2101 150.436 89.2614 150.642 89.2614L150.642 89.9283Z" fill="#000000" fill-rule="nonzero" fill-opacity="1" transform="matrix(1 0 0 1.00705 169.997 165.104)"/></g><g clip-path="url(#clip34)"><path d="M165.493 77.3599C165.313 77.3599 165.057 77.4112 164.698 77.5138 164.339 77.6164 164.082 77.719 163.928 77.796 163.697 77.9499 163.543 78.2577 163.466 78.6937 163.389 79.1298 163.338 79.6941 163.338 80.361L163.338 90.0566 162.517 90.0566 154.489 79.2324 154.489 86.0552C154.489 86.8247 154.54 87.4147 154.643 87.8251 154.745 88.2355 154.874 88.5176 155.079 88.6972 155.233 88.8254 155.515 88.9537 155.951 89.0819 156.413 89.2101 156.695 89.2614 156.849 89.2614L156.849 89.9283 151.437 89.9283 151.437 89.2614C151.616 89.2614 151.873 89.1845 152.283 89.0819 152.668 88.9793 152.924 88.8767 153.027 88.7741 153.232 88.5946 153.386 88.3381 153.463 87.979 153.54 87.6199 153.591 87.0043 153.591 86.1578L153.591 79.6428C153.591 79.3606 153.54 79.0785 153.437 78.7707 153.335 78.4885 153.206 78.2577 153.053 78.1038 152.822 77.8986 152.54 77.719 152.155 77.5651 151.77 77.4112 151.462 77.3343 151.231 77.3343L151.231 76.693 155.002 76.693 162.44 86.7734 162.44 80.4892C162.44 79.7197 162.389 79.1298 162.287 78.7194 162.184 78.309 162.056 78.0268 161.85 77.8986 161.671 77.7703 161.389 77.6677 161.004 77.5651 160.619 77.4625 160.312 77.3856 160.106 77.3856L160.106 76.693 165.493 76.693 165.493 77.3599Z" fill="#000000" fill-rule="nonzero" fill-opacity="1" transform="matrix(1 0 0 1.00705 169.997 165.104)"/></g><g clip-path="url(#clip35)"><path d="M179.369 84.6188C179.215 84.6445 179.01 84.6701 178.754 84.6958 178.497 84.7471 178.292 84.7984 178.138 84.8753 177.959 84.9779 177.83 85.1062 177.753 85.2601 177.676 85.414 177.651 85.6192 177.651 85.85L177.651 86.876C177.651 87.6199 177.651 88.1329 177.651 88.3894 177.651 88.6459 177.676 88.851 177.676 89.0306 176.856 89.4153 176.035 89.6975 175.214 89.9027 174.393 90.1079 173.598 90.2105 172.803 90.2105 171.957 90.2105 171.136 90.0566 170.366 89.7231 169.597 89.4153 168.904 88.9537 168.314 88.3637 167.724 87.7738 167.263 87.0556 166.904 86.2091 166.544 85.3627 166.391 84.4136 166.391 83.362 166.391 82.3616 166.544 81.4126 166.878 80.5661 167.211 79.7197 167.673 78.9502 168.289 78.3346 168.879 77.719 169.571 77.2317 170.392 76.8726 171.213 76.5135 172.085 76.3596 173.008 76.3596 173.752 76.3596 174.393 76.4622 174.958 76.6417 175.496 76.8213 175.984 77.0521 176.42 77.3086L176.804 76.6674 177.548 76.6674 177.625 81.2843 176.856 81.2843C176.727 80.7713 176.574 80.2584 176.368 79.771 176.189 79.2837 175.932 78.822 175.624 78.4372 175.317 78.0525 174.958 77.7447 174.522 77.4882 174.085 77.2573 173.572 77.1291 172.957 77.1291 172.29 77.1291 171.7 77.2573 171.187 77.5395 170.674 77.796 170.212 78.2064 169.828 78.745 169.443 79.258 169.161 79.8993 168.956 80.6688 168.75 81.4382 168.648 82.3103 168.648 83.2594 168.648 84.1058 168.75 84.901 168.956 85.6448 169.161 86.3887 169.443 87.0299 169.828 87.5686 170.212 88.1329 170.7 88.5689 171.264 88.8767 171.854 89.1845 172.495 89.364 173.239 89.364 173.778 89.364 174.291 89.2871 174.727 89.1076 175.163 88.9537 175.496 88.7741 175.676 88.5689 175.727 88.2355 175.753 87.9277 175.753 87.5942 175.753 87.2608 175.753 86.9786 175.753 86.7478L175.753 86.0296C175.753 85.7731 175.727 85.5422 175.65 85.337 175.573 85.1318 175.445 84.9779 175.214 84.901 175.009 84.7984 174.727 84.7471 174.368 84.6958 174.009 84.6445 173.752 84.6188 173.547 84.6188L173.547 83.9519 179.344 83.9519 179.344 84.6188Z" fill="#000000" fill-rule="nonzero" fill-opacity="1" transform="matrix(1 0 0 1.00705 169.997 165.104)"/></g><g clip-path="url(#clip36)"><path d="M198.376 77.3599C198.196 77.3599 197.94 77.4112 197.606 77.4625 197.273 77.5395 196.991 77.6421 196.786 77.7703 196.58 77.8986 196.426 78.2064 196.35 78.6424 196.273 79.1041 196.221 79.6428 196.221 80.284L196.221 86.0296C196.221 86.7734 196.067 87.389 195.76 87.9277 195.452 88.4663 195.041 88.9024 194.554 89.2614 194.067 89.5949 193.554 89.8514 192.989 89.9796 192.451 90.1335 191.938 90.2105 191.425 90.2105 190.63 90.2105 189.911 90.1079 189.296 89.9027 188.68 89.6975 188.142 89.4153 187.731 89.0563 187.321 88.6972 186.987 88.2868 186.782 87.8507 186.577 87.389 186.474 86.9273 186.474 86.4143L186.474 78.5911C186.474 78.3859 186.449 78.2064 186.372 78.0525 186.295 77.8986 186.167 77.7703 185.936 77.6421 185.782 77.5651 185.577 77.4882 185.346 77.4369 185.115 77.3856 184.91 77.3599 184.756 77.3343L184.756 76.693 190.219 76.693 190.219 77.3599C190.04 77.3599 189.834 77.3856 189.578 77.4369 189.321 77.4882 189.116 77.5395 189.014 77.5651 188.808 77.6421 188.655 77.7703 188.603 77.9242 188.526 78.1038 188.501 78.2833 188.501 78.4885L188.501 85.7731C188.501 86.1322 188.526 86.4913 188.629 86.876 188.706 87.2608 188.86 87.6199 189.091 87.9533 189.347 88.2868 189.655 88.5689 190.091 88.7997 190.501 89.005 191.091 89.1332 191.81 89.1332 192.502 89.1332 193.066 89.0306 193.528 88.7997 193.99 88.5689 194.349 88.2868 194.631 87.9277 194.887 87.5942 195.067 87.2351 195.17 86.876 195.272 86.5169 195.324 86.1322 195.324 85.7731L195.324 80.361C195.324 79.6684 195.272 79.1041 195.17 78.6681 195.067 78.232 194.913 77.9499 194.734 77.796 194.528 77.6421 194.221 77.5138 193.836 77.4369 193.451 77.3599 193.169 77.3086 192.964 77.283L192.964 76.693 198.376 76.693 198.376 77.3599Z" fill="#000000" fill-rule="nonzero" fill-opacity="1" transform="matrix(1 0 0 1.00705 169.997 165.104)"/></g><g clip-path="url(#clip37)"><path d="M213.253 77.3599C213.073 77.3599 212.817 77.4112 212.458 77.5138 212.099 77.6164 211.842 77.719 211.688 77.796 211.457 77.9499 211.303 78.2577 211.226 78.6937 211.149 79.1298 211.098 79.6941 211.098 80.361L211.098 90.0566 210.277 90.0566 202.249 79.2324 202.249 86.0552C202.249 86.8247 202.3 87.4147 202.403 87.8251 202.505 88.2355 202.659 88.5176 202.839 88.6972 202.967 88.8254 203.275 88.9537 203.711 89.0819 204.147 89.2101 204.455 89.2614 204.583 89.2614L204.583 89.9283 199.171 89.9283 199.171 89.2614C199.351 89.2614 199.607 89.1845 200.017 89.0819 200.402 88.9793 200.659 88.8767 200.761 88.7741 200.966 88.5946 201.12 88.3381 201.197 87.979 201.274 87.6199 201.326 87.0043 201.326 86.1578L201.326 79.6428C201.326 79.3606 201.274 79.0785 201.172 78.7707 201.069 78.4885 200.941 78.2577 200.787 78.1038 200.556 77.8986 200.274 77.719 199.889 77.5651 199.504 77.4112 199.197 77.3343 198.966 77.3343L198.966 76.693 202.736 76.693 210.175 86.7734 210.175 80.4892C210.175 79.7197 210.123 79.1298 210.021 78.7194 209.918 78.309 209.79 78.0268 209.585 77.8986 209.405 77.7703 209.123 77.6677 208.738 77.5651 208.354 77.4625 208.046 77.3856 207.841 77.3856L207.841 76.693 213.227 76.693 213.227 77.3599Z" fill="#000000" fill-rule="nonzero" fill-opacity="1" transform="matrix(1 0 0 1.00705 169.997 165.104)"/></g><g clip-path="url(#clip38)"><path d="M219.742 89.9283 213.766 89.9283 213.766 89.2614C213.945 89.2614 214.176 89.2358 214.484 89.2101 214.792 89.1845 215.023 89.1588 215.151 89.1076 215.356 89.0306 215.51 88.928 215.613 88.7741 215.715 88.6459 215.741 88.4407 215.741 88.1842L215.741 78.6168C215.741 78.3859 215.715 78.232 215.638 78.0781 215.561 77.9242 215.407 77.8216 215.151 77.719 214.971 77.6421 214.74 77.5651 214.458 77.5138 214.176 77.4369 213.945 77.4112 213.766 77.3856L213.766 76.693 219.742 76.693 219.742 77.3599C219.537 77.3599 219.306 77.3856 219.05 77.4369 218.768 77.4625 218.537 77.5138 218.357 77.5908 218.126 77.6677 217.972 77.796 217.87 77.9499 217.793 78.1294 217.742 78.309 217.742 78.5142L217.742 88.0816C217.742 88.2868 217.793 88.4663 217.87 88.6202 217.972 88.7741 218.126 88.9024 218.331 89.005 218.46 89.0563 218.665 89.1076 218.973 89.1588 219.28 89.2101 219.511 89.2614 219.717 89.2614L219.717 89.9283Z" fill="#000000" fill-rule="nonzero" fill-opacity="1" transform="matrix(1 0 0 1.00705 169.997 165.104)"/></g><g clip-path="url(#clip39)"><path d="M233.696 77.3599C233.542 77.3599 233.337 77.4112 233.106 77.4625 232.875 77.5138 232.695 77.5908 232.541 77.6934 232.336 77.8216 232.157 78.0012 232.028 78.2064 231.9 78.4116 231.772 78.6681 231.644 78.9502 231.233 79.9249 230.592 81.4895 229.771 83.5672 228.925 85.6705 228.078 87.8251 227.206 90.1079L226.437 90.1079C225.539 87.6968 224.693 85.3883 223.846 83.1568 223.025 80.9252 222.461 79.4119 222.153 78.6424 222.076 78.4629 221.974 78.2833 221.845 78.1294 221.717 77.9755 221.563 77.8473 221.358 77.719 221.204 77.6164 220.999 77.5395 220.794 77.4882 220.589 77.4369 220.409 77.4112 220.23 77.3856L220.23 76.693 225.693 76.693 225.693 77.3599C225.231 77.3856 224.847 77.4369 224.513 77.4882 224.205 77.5651 224.026 77.6677 224.026 77.8473 224.026 77.9242 224.026 78.0012 224.051 78.1038 224.077 78.2064 224.103 78.2833 224.103 78.3346 224.334 78.9502 224.693 79.9249 225.231 81.31 225.744 82.6951 226.488 84.6445 227.437 87.1838 227.899 86.0296 228.463 84.6701 229.079 83.1055 229.694 81.5408 230.105 80.4636 230.31 79.8736 230.515 79.3093 230.643 78.9246 230.669 78.6937 230.695 78.4885 230.72 78.309 230.72 78.1551 230.72 78.0012 230.669 77.8986 230.541 77.796 230.413 77.6934 230.233 77.6164 230.028 77.5651 229.823 77.4882 229.617 77.4625 229.412 77.4112 229.207 77.3856 228.976 77.3599 228.771 77.3343L228.771 76.693 233.696 76.693 233.696 77.3599Z" fill="#000000" fill-rule="nonzero" fill-opacity="1" transform="matrix(1 0 0 1.00705 169.997 165.104)"/></g><g clip-path="url(#clip40)"><path d="M245.315 86.0296 245.059 89.9283 234.106 89.9283 234.106 89.2614C234.286 89.2614 234.542 89.2358 234.85 89.1845 235.158 89.1332 235.363 89.1076 235.466 89.0563 235.671 88.9537 235.799 88.851 235.876 88.6972 235.953 88.5433 236.004 88.3637 236.004 88.1329L236.004 78.6168C236.004 78.4116 235.979 78.232 235.902 78.0781 235.825 77.9242 235.696 77.796 235.466 77.6934 235.286 77.6164 235.081 77.5395 234.799 77.4882 234.516 77.4369 234.286 77.3856 234.132 77.3856L234.132 76.7187 244.34 76.7187 244.34 79.8993 243.648 79.8993C243.52 79.4376 243.263 78.9502 242.853 78.4372 242.442 77.9242 242.032 77.6421 241.673 77.5908 241.493 77.5651 241.262 77.5395 240.98 77.5395 240.724 77.5395 240.416 77.5138 240.083 77.5138L238.005 77.5138 238.005 82.7207 239.493 82.7207C239.98 82.7207 240.313 82.6694 240.544 82.5925 240.749 82.5155 240.955 82.3616 241.134 82.1308 241.262 81.9512 241.391 81.7204 241.468 81.4126 241.57 81.1048 241.621 80.8226 241.673 80.5661L242.365 80.5661 242.365 85.7474 241.621 85.7474C241.596 85.4396 241.519 85.1318 241.416 84.7984 241.314 84.4649 241.185 84.2341 241.083 84.0802 240.878 83.8237 240.672 83.6954 240.416 83.5928 240.159 83.5159 239.852 83.4902 239.441 83.4902L237.954 83.4902 237.954 87.4403C237.954 87.8251 237.979 88.1585 238.031 88.3637 238.082 88.5946 238.184 88.7741 238.364 88.8767 238.518 89.005 238.749 89.0819 239.031 89.1076 239.313 89.1332 239.698 89.1588 240.211 89.1588L241.006 89.1588C241.339 89.1588 241.621 89.1588 241.852 89.1332 242.083 89.1076 242.34 89.0563 242.571 89.005 242.827 88.9537 243.007 88.851 243.109 88.7484 243.391 88.4407 243.699 88.0046 244.007 87.389 244.315 86.7734 244.52 86.3374 244.597 86.0552L245.315 86.0552Z" fill="#000000" fill-rule="nonzero" fill-opacity="1" transform="matrix(1 0 0 1.00705 169.997 165.104)"/></g><g clip-path="url(#clip41)"><path d="M254.677 80.0788C254.677 79.2837 254.446 78.6424 253.985 78.1807 253.523 77.719 252.856 77.4882 252.01 77.4882L250.419 77.4882 250.419 83.1568 251.651 83.1568C252.523 83.1568 253.241 82.8746 253.805 82.336 254.395 81.7717 254.677 81.0278 254.677 80.0788M259.576 89.9283 255.985 89.9283C255.19 88.6972 254.498 87.6455 253.856 86.7478 253.215 85.85 252.523 84.9266 251.779 83.9776L250.419 83.9776 250.419 88.1585C250.419 88.3637 250.445 88.5689 250.522 88.7228 250.599 88.8767 250.727 89.005 250.958 89.1076 251.061 89.1588 251.266 89.1845 251.548 89.2358 251.83 89.2614 252.061 89.2871 252.241 89.3127L252.241 89.9796 246.7 89.9796 246.7 89.2614C246.854 89.2614 247.059 89.2358 247.341 89.1845 247.624 89.1588 247.803 89.1076 247.931 89.0563 248.111 88.9793 248.239 88.851 248.316 88.6972 248.393 88.5433 248.444 88.3381 248.444 88.1072L248.444 78.5398C248.444 78.3346 248.419 78.1294 248.342 77.9499 248.29 77.7703 248.137 77.6421 247.906 77.5651 247.752 77.5138 247.547 77.4625 247.316 77.4112 247.059 77.3599 246.854 77.3343 246.7 77.3343L246.7 76.693 252.805 76.693C253.369 76.693 253.882 76.7443 254.369 76.8726 254.857 76.9752 255.319 77.1804 255.703 77.4369 256.088 77.6934 256.396 78.0012 256.627 78.4116 256.858 78.822 256.96 79.3093 256.96 79.8736 256.96 80.3866 256.883 80.8226 256.729 81.233 256.575 81.6178 256.345 81.9769 256.037 82.259 255.755 82.5412 255.421 82.772 255.036 82.9516 254.652 83.1568 254.216 83.3107 253.728 83.4646 254.369 84.3367 254.934 85.0549 255.37 85.6448 255.806 86.2348 256.345 86.953 256.96 87.7994 257.242 88.1585 257.473 88.4407 257.704 88.6202 257.935 88.7997 258.14 88.928 258.371 89.0563 258.525 89.1332 258.73 89.2101 258.986 89.2358 259.243 89.2871 259.422 89.3127 259.602 89.3127L259.602 89.9283Z" fill="#000000" fill-rule="nonzero" fill-opacity="1" transform="matrix(1 0 0 1.00705 169.997 165.104)"/></g><g clip-path="url(#clip42)"><path d="M268.297 83.875C268.579 84.1828 268.785 84.5162 268.913 84.901 269.041 85.2601 269.118 85.6961 269.118 86.1835 269.118 87.3634 268.682 88.3124 267.836 89.0819 266.964 89.8514 265.912 90.2361 264.629 90.2361 264.039 90.2361 263.45 90.1335 262.86 89.9283 262.27 89.7231 261.757 89.4923 261.346 89.2358L260.936 89.9283 260.192 89.9283 260.064 85.414 260.808 85.414C260.961 85.9783 261.141 86.4913 261.346 86.9273 261.551 87.389 261.834 87.7994 262.167 88.1842 262.5 88.5689 262.86 88.851 263.296 89.0819 263.732 89.3127 264.219 89.4153 264.809 89.4153 265.245 89.4153 265.63 89.364 265.938 89.2358 266.271 89.1332 266.527 88.9793 266.707 88.7741 266.912 88.5689 267.04 88.3124 267.143 88.0559 267.246 87.7738 267.297 87.466 267.297 87.1069 267.297 86.5682 267.143 86.0809 266.861 85.6192 266.579 85.1575 266.117 84.824 265.527 84.5675 265.117 84.4136 264.655 84.2341 264.142 84.0289 263.629 83.8237 263.167 83.6441 262.783 83.4902 262.039 83.1568 261.449 82.7207 261.038 82.1821 260.628 81.6434 260.423 80.9252 260.423 80.0532 260.423 79.5402 260.525 79.0785 260.731 78.6424 260.936 78.2064 261.218 77.8216 261.603 77.4882 261.962 77.1547 262.372 76.9239 262.885 76.7187 263.373 76.5391 263.886 76.4365 264.424 76.4365 265.04 76.4365 265.578 76.5391 266.066 76.7187 266.553 76.8982 266.989 77.1291 267.374 77.3856L267.759 76.7443 268.503 76.7443 268.579 81.1304 267.836 81.1304C267.707 80.6174 267.553 80.1558 267.374 79.6941 267.194 79.2324 266.989 78.822 266.707 78.4372 266.425 78.0781 266.117 77.796 265.732 77.5651 265.348 77.3599 264.86 77.2317 264.322 77.2317 263.732 77.2317 263.219 77.4112 262.808 77.796 262.398 78.1807 262.193 78.6424 262.193 79.1811 262.193 79.7454 262.321 80.2327 262.603 80.5918 262.86 80.9765 263.244 81.2843 263.757 81.5152 264.219 81.746 264.655 81.9256 265.091 82.0795 265.527 82.2334 265.963 82.4129 266.374 82.5925 266.733 82.7464 267.092 82.9259 267.451 83.1311 267.759 83.362 268.041 83.5928 268.297 83.875" fill="#000000" fill-rule="nonzero" fill-opacity="1" transform="matrix(1 0 0 1.00705 169.997 165.104)"/></g><g clip-path="url(#clip43)"><path d="M276.531 89.9283 270.58 89.9283 270.58 89.2614C270.734 89.2614 270.991 89.2358 271.298 89.2101 271.606 89.1845 271.837 89.1588 271.965 89.1076 272.17 89.0306 272.324 88.928 272.427 88.7741 272.53 88.6459 272.555 88.4407 272.555 88.1842L272.555 78.6168C272.555 78.3859 272.53 78.232 272.453 78.0781 272.376 77.9242 272.222 77.8216 271.965 77.719 271.786 77.6421 271.555 77.5651 271.273 77.5138 270.991 77.4369 270.76 77.4112 270.58 77.3856L270.58 76.693 276.531 76.693 276.531 77.3599C276.326 77.3599 276.121 77.3856 275.838 77.4369 275.582 77.4625 275.325 77.5138 275.146 77.5908 274.915 77.6677 274.761 77.796 274.659 77.9499 274.582 78.1294 274.53 78.309 274.53 78.5142L274.53 88.0816C274.53 88.2868 274.582 88.4663 274.659 88.6202 274.761 88.7741 274.915 88.9024 275.12 89.005 275.248 89.0563 275.454 89.1076 275.761 89.1588 276.044 89.2101 276.3 89.2614 276.505 89.2614L276.505 89.9283Z" fill="#000000" fill-rule="nonzero" fill-opacity="1" transform="matrix(1 0 0 1.00705 169.997 165.104)"/></g><g clip-path="url(#clip44)"><path d="M288.971 80.284 288.33 80.284C288.279 80.0532 288.176 79.7967 288.022 79.4889 287.868 79.1811 287.714 78.8989 287.535 78.6168 287.355 78.3346 287.15 78.0781 286.919 77.8729 286.688 77.6677 286.483 77.5395 286.278 77.5138 286.073 77.4882 285.842 77.4625 285.534 77.4625 285.252 77.4625 284.97 77.4369 284.713 77.4369L284.175 77.4369 284.175 88.0303C284.175 88.2355 284.226 88.415 284.303 88.5946 284.405 88.7741 284.534 88.9024 284.765 88.9793 284.867 89.0306 285.124 89.0819 285.457 89.1588 285.816 89.2358 286.098 89.2614 286.278 89.2871L286.278 89.954 280.045 89.954 280.045 89.2614C280.225 89.2614 280.481 89.2358 280.84 89.1845 281.199 89.1588 281.43 89.1076 281.584 89.0563 281.789 88.9793 281.943 88.851 282.046 88.6972 282.148 88.5433 282.2 88.3381 282.2 88.0816L282.2 77.4112 281.661 77.4112C281.481 77.4112 281.225 77.4112 280.943 77.4112 280.661 77.4369 280.378 77.4369 280.122 77.4625 279.917 77.4882 279.712 77.6164 279.481 77.8216 279.275 78.0525 279.045 78.2833 278.865 78.5655 278.686 78.8476 278.506 79.1554 278.378 79.4632 278.224 79.771 278.147 80.0275 278.07 80.2327L277.403 80.2327 277.403 76.6417 288.945 76.6417 288.945 80.284Z" fill="#000000" fill-rule="nonzero" fill-opacity="1" transform="matrix(1 0 0 1.00705 169.997 165.104)"/></g><g clip-path="url(#clip45)"><path d="M302.489 77.3599C302.386 77.3599 302.206 77.4112 301.976 77.4882 301.745 77.5651 301.591 77.6421 301.488 77.719 301.232 77.8729 301.078 77.9755 301.001 78.0525 300.924 78.1294 300.744 78.3346 300.488 78.6937 300.001 79.3863 299.564 80.0788 299.154 80.7713 298.744 81.4639 298.231 82.3616 297.615 83.4389 297.384 83.8237 297.23 84.1571 297.153 84.388 297.076 84.6188 297.051 84.9779 297.051 85.4396L297.051 87.9533C297.051 88.1842 297.102 88.3637 297.179 88.5433 297.282 88.6972 297.436 88.851 297.641 88.928 297.769 88.9793 298 89.0306 298.333 89.1076 298.667 89.1845 298.949 89.2101 299.154 89.2101L299.154 89.877 292.972 89.877 292.972 89.2614C293.152 89.2614 293.409 89.2358 293.742 89.1845 294.101 89.1588 294.332 89.1076 294.46 89.0563 294.691 88.9537 294.845 88.851 294.922 88.6715 294.999 88.5176 295.05 88.3124 295.05 88.0816L295.05 84.8753C295.05 84.7727 294.999 84.5932 294.871 84.3367 294.742 84.0802 294.614 83.7724 294.435 83.4646 294.05 82.7464 293.639 81.9769 293.203 81.1304 292.742 80.284 292.357 79.5658 292.023 78.9759 291.818 78.6168 291.639 78.3603 291.485 78.1807 291.331 78.0012 291.151 77.8473 290.946 77.6934 290.792 77.6164 290.613 77.5395 290.408 77.4882 290.202 77.4369 290.023 77.4112 289.843 77.3856L289.843 76.693 295.486 76.693 295.486 77.3599C294.845 77.3856 294.409 77.4112 294.152 77.4882 293.896 77.5651 293.768 77.6677 293.768 77.796 293.768 77.8216 293.793 77.8986 293.819 78.0012 293.845 78.1038 293.922 78.2064 293.973 78.3603 294.05 78.5142 294.152 78.7194 294.255 78.9246 294.358 79.1298 294.46 79.335 294.563 79.5402 294.845 80.0788 295.153 80.6431 295.461 81.2074 295.768 81.746 296.153 82.4642 296.64 83.362 297.615 81.7973 298.359 80.5661 298.872 79.6941 299.385 78.822 299.641 78.2833 299.641 78.1294 299.641 77.9755 299.59 77.8729 299.488 77.7703 299.385 77.6934 299.257 77.6164 299.077 77.5651 298.898 77.5138 298.692 77.4882 298.487 77.4625 298.282 77.4369 298.077 77.4369 297.897 77.4112L297.897 76.693 302.489 76.693 302.489 77.3599Z" fill="#000000" fill-rule="nonzero" fill-opacity="1" transform="matrix(1 0 0 1.00705 169.997 165.104)"/></g><g clip-path="url(#clip46)"><path d="M151.693 50.0941C151.308 50.1454 150.924 50.1711 150.565 50.1967 149.513 50.5045 148.359 50.9406 147.153 51.3253 145.922 51.7357 144.152 52.4026 142.844 51.4279 142.741 51.3253 142.793 51.4023 142.716 51.1971 143.896 49.9402 143.87 49.1964 145.665 48.35 145.691 47.1188 146.178 45.6311 145.563 44.8359 145.691 42.9635 147.897 43.8869 149.539 43.4765 150.539 43.22 151.796 42.8609 152.617 42.3479 153.591 41.7323 154.566 40.3985 155.002 39.2699 155.182 38.8082 154.976 37.8592 155.233 37.4488L155.233 36.5254C155.156 36.3458 152.334 35.4224 151.95 35.1659 151.668 34.9607 150.924 34.3708 150.821 34.0373 150.718 33.7295 150.847 33.4474 150.718 33.2422 150.59 32.96 150.462 32.9857 150.257 32.7805 149.692 32.8318 149.513 33.037 149.282 33.2422 149.205 33.3191 149.077 33.3704 149.026 33.4474 148.974 33.5243 149.026 33.6269 149.026 33.7295L149.026 36.4997C148.743 37.1153 147.512 37.4744 146.974 37.8592 146.512 38.3465 146.05 38.8339 145.614 39.3469 144.947 39.2956 144.896 39.0391 144.486 38.7826 143.511 34.1912 143.075 30.3438 139.946 27.984 139.202 27.4197 138.612 26.2911 137.663 25.932 137.329 26.8297 136.893 27.7788 136.637 28.7022 136.585 28.9074 136.662 29.1126 136.611 29.3178 136.047 31.4211 135.611 33.5756 135.046 35.8072 134.918 36.3458 134.251 39.193 134.354 39.6803 134.841 41.9375 135.482 44.8359 136.047 46.9392 136.329 47.9139 136.098 48.6321 136.38 49.5555 136.893 51.1971 138.355 55.455 139.561 56.2501 140.92 57.1478 143.152 57.5582 144.896 56.8144 145.435 56.5835 145.896 55.8141 146.255 55.6858L147.948 55.6858C149.616 55.2241 151.283 54.7881 152.95 54.3264 153.54 54.0699 155.028 53.2747 155.438 52.8387 156.054 52.2231 156.079 51.0175 156.797 50.3506 156.823 49.5298 156.721 49.1964 156.464 48.7603 154.361 48.8886 153.13 49.5555 151.693 50.0941" fill="#9B0000" fill-rule="nonzero" fill-opacity="1" transform="matrix(1 0 0 1.00705 169.997 165.104)"/></g><g clip-path="url(#clip47)"><path d="M120.683 51.6844 120.683 53.1465C120.477 53.6082 119.426 53.9929 118.99 54.2751 118.605 54.5316 118.169 54.9933 117.733 55.1728 116.938 55.5319 116.245 55.5319 115.578 55.968 114.963 56.3527 114.27 56.917 113.654 57.3274 113.193 57.6352 111.551 58.2764 110.807 57.7891 110.705 57.7378 110.576 57.7121 110.474 57.6865 110.551 56.4553 111.449 55.9167 111.962 55.0702 112.962 53.4543 114.27 52.0948 115.245 50.5302 115.322 50.2737 115.399 49.9915 115.476 49.735 115.835 49.1707 116.579 48.709 116.835 48.0422 118.836 48.0935 119.862 47.0675 120.246 45.5285 120.529 45.5541 120.631 45.5798 120.811 45.6567 120.836 46.9136 120.862 48.4013 120.811 49.6324 120.759 50.248 120.939 51.274 120.683 51.6844M126.582 35.2172C126.556 33.7039 126.608 31.9854 126.351 30.7798 126.146 29.8051 126.582 28.5226 126.249 27.7275 125.197 25.2651 120.759 23.0849 118.297 21.828 117.348 21.3407 117.348 20.3916 116.014 20.1351 115.706 20.0838 115.091 20.7507 115.116 20.9303 115.04 22.4693 116.245 23.0849 117.04 24.0852 117.528 24.7008 117.835 25.3933 118.297 26.0089 119.015 26.9836 120.246 27.8044 120.683 29.0613 121.375 31.0876 121.401 36.2176 120.913 38.5004L120.913 40.7832C120.836 41.6553 120.759 42.5274 120.683 43.3995 120.041 43.1687 119.631 42.5274 118.99 42.2709 118.502 42.194 118.015 42.117 117.502 42.0401 117.04 41.7579 116.758 41.2193 116.142 41.0141 115.45 40.7832 114.834 41.0397 114.09 40.7832 113.295 40.5011 113.065 39.8855 111.808 39.8855 111.551 39.9112 111.089 40.2959 111.115 40.4498 111.295 41.3988 112.09 41.8862 112.372 42.7326L112.372 43.6304C112.552 44.3486 112.757 45.3233 112.936 46.1184 113.218 47.4266 112.398 48.1704 112.141 48.9655 111.141 52.2231 110.551 55.5063 108.011 57.1735 107.909 57.2248 107.832 57.3017 107.781 57.43 107.729 57.5069 107.729 57.7891 107.729 57.866 107.678 59.7385 107.37 63.3808 109.089 63.9451 109.14 63.9964 109.268 64.0477 109.268 64.0477 109.448 64.1246 110.987 64.1246 111.269 64.0477 111.885 63.7399 112.962 62.1496 113.654 61.6622 114.68 60.9184 115.809 60.4567 116.835 59.7385 117.015 59.5076 117.22 59.2768 117.399 59.0716 118.451 58.3021 119.451 57.4813 120.349 56.5835 120.452 56.5323 120.631 56.5066 120.683 56.5835 120.759 56.9683 120.939 57.8147 120.683 58.1738 120.657 60.1232 120.452 61.5083 121.247 62.7139 121.683 62.7395 122.35 62.7652 122.606 62.6113 123.504 62.2778 123.94 60.7645 124.299 59.8924 125.274 57.6095 125.505 54.8907 126.12 52.1718 126.146 51.2227 126.197 50.2737 126.223 49.3246 126.787 46.7597 126.685 43.6304 126.685 40.6806 126.736 39.5008 126.762 38.3209 126.787 37.1666 126.685 36.5767 126.582 35.8841 126.582 35.2172" fill="#9B0000" fill-rule="nonzero" fill-opacity="1" transform="matrix(1 0 0 1.00705 169.997 165.104)"/></g><g clip-path="url(#clip48)"><path d="M271.837 30.3438C272.196 30.8311 272.837 31.2159 273.196 31.7032 274.376 33.3704 274.71 36.8075 275.351 38.9621 277.403 38.9365 278.249 37.1666 279.224 36.0124 279.224 33.1909 276.326 28.8561 274.684 27.7275 273.735 27.0606 272.581 26.7784 271.606 26.1372 270.58 25.4446 270.016 24.4699 268.759 23.9826 268.579 23.9313 268.22 24.316 268.195 24.4443L268.195 26.2654C268.605 26.5989 269.041 26.958 269.452 27.2914 270.247 28.3431 271.042 29.2665 271.837 30.3438" fill="#9B0000" fill-rule="nonzero" fill-opacity="1" transform="matrix(1 0 0 1.00705 169.997 165.104)"/></g><g clip-path="url(#clip49)"><path d="M292.511 32.0367C292.075 32.6266 291.741 33.3191 291.382 33.9604 291.074 33.9347 290.997 33.9091 290.818 33.8578 290.484 32.1906 290.356 30.9081 289.792 29.6512 289.407 29.5743 289.202 29.523 288.868 29.7538 288.202 30.3181 288.689 31.8058 287.843 32.4727 287.509 32.8061 286.637 31.5237 286.38 31.3441 286.586 28.9074 288.92 27.1119 290.125 25.5472 292.306 25.5985 293.87 26.6758 295.922 26.8041 295.845 29.4973 293.691 30.4464 292.511 32.0367M296.127 33.5243C297.897 31.2415 300.257 29.1382 301.36 26.2654 301.668 25.4446 303.027 23.444 302.155 22.2897 301.77 21.6998 300.667 22.0589 299.872 21.828 299.513 21.7254 299.257 21.3407 298.975 21.2637 298.462 21.1098 297.923 21.5202 297.615 21.5972 296.179 22.0589 294.948 22.2128 293.639 22.7258 293.049 22.9566 291.408 23.957 290.69 23.5209 290.587 23.4953 290.459 23.444 290.356 23.4183 290.484 21.2381 292.023 19.9556 292.742 18.1857 292.947 17.6727 293.614 16.3133 293.203 15.6977 293.152 14.6717 292.075 13.9792 291.51 13.4149 291.331 13.261 290.484 13.5431 290.484 13.8766 290.536 16.775 289.305 19.9043 287.637 21.0329 287.099 21.392 286.637 21.2381 285.944 21.4946 284.816 21.8793 283.636 23.0336 282.302 22.0589 281.61 22.0589 281.533 22.1615 281.174 22.3923 281.302 23.5209 281.969 24.4699 282.866 24.7777 283.097 24.906 283.918 24.8034 284.457 24.7777 284.431 25.6755 283.739 26.4193 283.2 26.8297 283.2 27.2145 283.226 27.4966 283.302 27.7275 284.534 27.9583 284.765 27.3171 285.919 27.2658 285.739 28.5483 284.688 29.1639 284.098 30.1129 283.328 30.2668 282.2 30.3694 281.481 30.4464 281.43 30.4464 281.353 30.549 281.379 30.5746 281.404 31.4467 281.738 31.7289 282.277 32.0367 281.969 33.2165 281.02 34.063 280.353 34.9864 280.096 35.3455 279.327 35.8585 279.788 36.5767 279.942 36.8332 280.122 36.8588 280.481 36.9101 281.635 35.8072 283.559 35.2942 284.123 33.6269 285.919 33.7295 285.919 34.1656 286.97 34.8838 286.919 35.525 286.611 36.1919 286.278 36.5767 286.278 37.0127 286.304 37.4231 286.406 37.7053 287.766 37.654 289.792 35.8585 290.715 36.4484L290.946 36.4484C290.792 37.2179 289.92 37.2436 289.356 37.577 288.15 38.3209 286.714 38.8082 285.38 39.5008 283.585 40.4498 281.584 41.5014 279.942 42.5787 279.455 42.7326 278.968 42.8865 278.455 43.0404 275.761 44.6307 273.196 46.6314 270.401 48.1448 270.324 48.35 270.375 48.2473 270.298 48.3756 270.298 48.7347 270.349 48.9655 270.401 49.1707 273.863 49.8889 276.634 48.2986 279.045 47.3496 282.277 46.0671 285.354 43.9638 288.022 42.0144 288.894 41.3732 289.51 40.3216 290.408 39.7316 291.1 39.2699 291.716 39.0904 292.331 38.603L292.896 38.603C292.69 39.2956 292.203 39.5777 291.87 40.0907 291.741 40.3985 291.639 40.7063 291.536 40.9884 290.921 41.5527 290.331 42.117 289.715 42.6813 289.433 43.0661 289.176 43.656 288.792 43.9382 287.894 44.6307 286.868 45.2976 286.175 46.221 286.073 46.3749 286.227 46.9905 286.278 47.3496 288.099 47.1957 289.151 46.0158 290.484 45.4259 291.305 45.0411 292.203 44.9642 292.972 44.5281 293.511 44.2203 293.768 43.6047 294.229 43.2713 296.435 41.6297 298.436 40.3472 297.974 36.3458 297.41 36.1406 296.589 36.115 296.153 35.7815L293.768 35.7815C294.127 34.4477 295.435 34.4477 296.127 33.5243" fill="#9B0000" fill-rule="nonzero" fill-opacity="1" transform="matrix(1 0 0 1.00705 169.997 165.104)"/></g><g clip-path="url(#clip50)"><path d="M268.195 42.4761C268.477 43.143 269.221 43.9125 269.452 44.6307 269.939 44.7333 270.17 44.682 270.708 44.6307 271.581 43.7073 272.145 42.8865 272.401 41.3219 272.632 39.9881 269.888 36.628 268.99 36.3202 268.759 36.1663 268.246 36.1919 267.861 36.2176 267.682 36.9871 268.118 39.3469 268.195 40.1933L268.195 42.4761Z" fill="#9B0000" fill-rule="nonzero" fill-opacity="1" transform="matrix(1 0 0 1.00705 169.997 165.104)"/></g><g clip-path="url(#clip51)"><path d="M288.073 49.0681C287.201 50.1967 283.585 50.1454 282.046 50.761 279.942 51.6331 277.711 52.3257 275.582 53.2491 274.171 53.8647 272.683 54.7111 271.273 55.3011 270.888 55.378 270.503 55.455 270.144 55.5319 269.529 55.7884 268.862 56.4296 268.323 56.6605 267.784 56.6861 267.271 56.7374 266.733 56.7631 266.168 57.0196 265.886 57.5839 265.476 58.0199 265.501 60.0463 266.553 60.6362 267.066 61.7905 267.169 62.0213 267.066 62.2522 267.297 62.56 267.477 62.7395 267.99 62.9447 268.323 63.0217 269.118 63.1756 270.272 62.4574 270.811 62.2265 272.94 61.3031 274.53 59.7385 276.377 58.5842 277.044 58.1738 278.07 57.6865 278.762 57.4556 279.583 57.1735 280.199 57.43 280.917 57.1222 282.225 56.5835 281.687 55.6858 283.636 56.327 283.713 56.6348 283.918 56.8913 283.969 57.1222 284.2 57.9173 283.713 58.892 283.867 59.5076 284.021 60.1745 284.252 60.3284 284.2 61.2005 283.944 61.4827 283.841 61.9957 283.508 62.2265 282.533 62.9447 280.968 63.2525 279.66 63.586 278.762 63.8168 277.634 63.2012 276.941 63.6886L276.71 63.6886C276.736 64.0733 276.762 64.2785 276.941 64.4837 277.275 65.5097 277.916 65.1506 278.993 65.5097 280.045 65.8431 281.174 67.3308 282.969 66.3048 283.354 66.0996 283.482 65.5353 283.995 65.4071 284.893 65.1506 285.714 65.561 286.278 65.0736 286.817 64.7915 286.919 64.1246 287.176 63.586 287.432 63.1243 287.817 62.4061 287.971 61.8931 288.176 61.1236 287.766 60.4054 287.637 59.9693 287.56 59.5076 287.483 59.0716 287.406 58.6099 286.97 57.5582 286.304 56.9683 286.278 55.4293 286.252 55.2498 286.457 55.0446 286.611 54.9676 287.868 54.6598 289.125 54.3777 290.818 54.4033 291.357 53.8647 292.1 53.4799 292.511 52.813 292.793 52.377 292.793 51.7614 293.075 51.3253 293.075 50.2224 292.69 50.1198 292.28 49.5042 290.638 49.5042 289.638 49.0681 288.073 49.0681" fill="#9B0000" fill-rule="nonzero" fill-opacity="1" transform="matrix(1 0 0 1.00705 169.997 165.104)"/></g><g clip-path="url(#clip52)"><path d="M246.957 34.7555C247.29 34.2682 247.29 33.8321 247.752 33.4987 248.111 33.2678 247.649 31.9854 247.418 31.9084 243.16 30.9594 242.801 34.0886 240.596 35.7815 239.595 36.551 238.441 37.064 237.415 37.8335L237.184 37.8335C236.774 35.5763 237.056 32.5753 237.056 30.1129L237.056 27.1632C237.133 26.958 237.518 26.7015 237.62 26.4706 238.005 25.5729 237.825 24.1365 237.389 23.4183 236.774 22.418 235.491 22.1615 234.542 21.4946 234.055 21.1355 233.67 20.4942 233.08 20.2377 232.157 19.853 231.131 20.2121 230.361 19.6734 229.848 19.7504 229.694 19.9299 229.335 20.1351 228.335 22.7514 230.797 26.4193 231.49 28.3174 232.105 29.959 232.131 35.0633 231.721 36.9358 231.413 38.3722 231.9 40.5011 231.156 41.4758 230.72 42.0657 227.001 43.3226 226.052 43.7586 225.257 44.1177 224.308 44.6051 223.436 44.8872 222.461 45.2207 221.538 45.2976 220.717 45.8106 219.46 46.5801 217.434 47.9396 216.049 48.4269 215.638 48.4525 215.228 48.5038 214.792 48.5295 214.202 48.709 213.458 49.0425 212.868 49.1964 212.509 49.299 212.047 49.3246 211.945 49.3246 211.534 48.9142 210.996 48.3243 210.688 47.837 210.534 47.6318 210.329 47.5035 210.2 47.5805 210.123 47.5805 210.021 47.6831 209.995 47.9396 209.893 51.4792 209.636 52.2231 211.252 54.6342 214.561 55.3267 216.946 53.7108 219.075 52.2487 220.024 51.6075 220.948 51.2227 221.922 50.5558 222.641 50.0685 223.179 49.1707 223.974 48.7347 224.308 48.6577 224.667 48.5808 225 48.5038 226.488 47.9139 228.027 47.0162 230.002 46.9136 229.976 50.6584 226.77 54.4803 224.436 55.9936 224.077 56.2245 223.718 56.4809 223.282 56.6605 222.82 56.84 222.41 57.0452 222.051 57.2248 221.743 57.2504 221.435 57.3017 221.153 57.3274 220.589 57.6095 219.845 58.0712 219.332 58.456 218.562 59.0203 218.665 59.5589 218.203 60.2771L218.203 60.508C224.257 60.4823 228.027 57.8147 231.387 55.0446 232.644 54.0186 234.209 53.0952 234.901 51.5305 235.748 49.6324 236.055 47.324 236.594 45.2976 236.722 44.5025 236.825 43.7073 236.928 42.9122 237.261 42.3222 238.928 41.4245 239.544 40.9884 240.134 40.5524 240.647 39.8342 241.237 39.3982 242.442 38.5004 243.673 37.7053 244.879 36.7819 245.572 36.3202 246.521 35.4481 246.957 34.7555" fill="#9B0000" fill-rule="nonzero" fill-opacity="1" transform="matrix(1 0 0 1.00705 169.997 165.104)"/></g><g clip-path="url(#clip53)"><path d="M247.188 51.9153C246.059 51.0432 245.597 49.735 243.545 49.7607 243.443 49.8633 243.34 49.9146 243.212 49.9915 243.16 52.6591 243.494 53.0439 244.238 54.9933 244.315 55.3267 244.392 55.6602 244.469 56.0193 244.725 56.5323 245.802 57.7378 245.136 58.7381 245.264 59.7641 247.008 60.1489 248.214 59.7641 249.496 59.3537 250.83 58.456 251.625 57.4813 251.599 54.5316 248.906 53.2491 247.188 51.9153" fill="#9B0000" fill-rule="nonzero" fill-opacity="1" transform="matrix(1 0 0 1.00705 169.997 165.104)"/></g><g clip-path="url(#clip54)"><path d="M183.037 16.698C183.191 16.8263 183.345 16.9289 183.499 17.0315 183.909 17.6214 184.422 18.6218 184.628 19.3143 185.089 20.7507 185.217 23.1618 184.166 23.8544 184.012 23.9313 184.14 25.0086 184.499 24.9829 186.295 24.7521 188.116 23.4953 188.808 22.1358 191.938 22.2384 193.682 21.315 193.477 18.1601 193.169 17.8266 193.041 17.288 192.682 17.0315 191.758 16.3133 190.681 15.5951 189.732 14.9795 189.296 14.6974 188.706 14.6974 188.244 14.4152 186.628 13.4405 185.32 12.4402 182.678 12.4915 181.37 14.0305 182.191 14.0048 182.781 15.3386 182.883 15.8003 182.96 16.2363 183.037 16.698" fill="#9B0000" fill-rule="nonzero" fill-opacity="1" transform="matrix(1 0 0 1.00705 169.997 165.104)"/></g><g clip-path="url(#clip55)"><path d="M180.524 37.5001C181.37 37.7309 183.371 37.2692 184.038 37.0384 185.936 36.3971 187.962 33.0113 189.604 31.8058 190.707 31.0107 191.938 29.8308 193.246 29.3178 193.733 29.2408 194.221 29.1639 194.734 29.0869 195.221 28.5483 195.708 28.0353 196.221 27.4966 196.196 26.8554 196.042 26.3424 195.76 26.368L194.4 26.368C193.81 26.7528 192.707 26.5989 192.015 26.8297 190.732 27.2145 189.373 27.8044 188.142 28.1892 187.808 28.2148 187.449 28.2661 187.116 28.2918 183.371 29.7025 179.446 31.3185 175.881 32.8318 175.65 33.3961 175.137 34.2425 175.65 34.8838 176.035 36.0124 179.241 37.1666 180.524 37.5001" fill="#9B0000" fill-rule="nonzero" fill-opacity="1" transform="matrix(1 0 0 1.00705 169.997 165.104)"/></g><g clip-path="url(#clip56)"><path d="M191.886 47.6061C190.501 47.6061 189.245 47.324 188.013 47.7344 187.423 47.9139 187.167 48.4013 186.526 48.5295 186.654 47.7857 188.09 46.9136 188.578 46.3749 188.962 45.9389 189.347 45.3746 189.834 45.0155 190.219 44.7077 190.784 44.5025 191.091 44.1177 191.297 43.8612 191.425 43.4252 191.656 43.22 191.835 43.1943 192.04 43.143 192.22 43.1174 192.502 42.8609 192.579 42.3479 192.912 42.0914 193.861 41.3732 194.785 41.2193 195.4 40.1677 195.529 39.9368 195.298 39.4751 195.067 39.2699 194.323 38.68 190.604 38.167 189.27 38.5774 188.603 38.7826 187.654 39.193 187.116 39.6034 186.936 39.8599 186.731 40.142 186.551 40.3985 185.987 40.4754 185.423 40.5524 184.858 40.6293 184.166 41.0397 183.602 41.8605 182.935 42.3222 181.55 43.2969 180.088 44.0921 178.625 44.9385 177.984 45.2976 177.24 43.7586 176.804 43.4765 176.522 43.2713 176.163 43.2456 175.907 43.0148 175.65 43.0404 175.599 43.0404 175.445 43.1174 175.188 43.1943 175.188 43.2456 174.983 43.3482 174.932 44.1434 175.291 45.1181 175.086 45.9645 174.65 47.837 173.829 51.274 174.522 53.4543 174.624 53.8134 175.06 54.2494 175.214 54.5829 175.394 55.0189 175.317 55.4293 175.548 55.8397 175.881 56.4296 176.65 56.6092 176.907 57.3274 177.907 57.1222 179.626 53.9929 180.395 52.7874 180.395 52.7874 180.395 52.7874 180.395 52.7617 180.575 52.4796 180.549 52.2744 180.549 52.0948L180.549 52.0692 180.549 49.2733C180.934 49.1707 181.678 49.0425 182.037 48.8116 182.576 48.8116 182.755 48.8629 183.063 49.0425 183.037 49.4016 181.755 52.4796 181.575 52.6848 181.678 53.4799 182.191 53.7621 182.832 53.9416 182.627 55.4806 180.908 55.8141 179.882 56.5579 178.651 57.43 177.317 58.379 176.009 59.1742 175.496 59.482 174.932 59.5333 174.419 59.8667 174.111 60.0719 173.829 60.4823 173.521 60.6619 172.983 60.9953 172.418 60.9953 171.931 61.3544 171.7 61.534 171.597 61.9444 171.264 62.047 170.802 62.1752 170.418 61.7648 170.135 61.7135 169.443 61.5596 168.93 62.047 168.443 62.1752 168.314 64.971 169.52 67.8182 172.649 67.8438 174.214 66.1766 175.907 64.8171 177.292 62.9704 177.779 62.56 178.266 62.1496 178.779 61.7135 179.113 61.2262 179.19 60.7901 179.575 60.3541 179.703 60.2002 179.959 60.2515 180.139 60.1232 180.549 59.6615 180.96 59.2255 181.396 58.7638 181.78 58.4816 182.14 58.456 182.422 58.0712 182.653 58.1225 182.653 58.0969 182.755 58.1738 183.063 58.5586 183.037 59.2255 183.319 59.6359 183.345 60.6619 183.422 61.8161 182.755 62.1496 182.422 62.2265 182.088 62.3035 181.729 62.3804 181.447 62.5856 181.344 63.073 181.062 63.2782L181.062 63.9707C181.139 64.1246 183.14 64.7915 183.448 64.9967 183.679 65.1506 184.14 65.7405 184.243 66.0227L184.243 67.0487C184.371 67.3565 184.935 67.7412 185.166 68.0747 185.525 68.1516 186.295 68.3055 186.654 68.0747 186.756 68.049 186.885 67.9977 186.987 67.9721 186.936 64.4837 186.731 61.3031 185.73 58.6612 185.397 57.7634 184.14 56.1218 184.935 54.9163 184.935 53.2234 186.09 53.7108 187.09 53.0952 188.475 52.2487 189.988 51.4536 191.297 50.4789 191.81 50.1198 192.015 49.4785 192.425 48.9912 192.246 48.2986 192.015 48.0678 191.886 47.6061" fill="#9B0000" fill-rule="nonzero" fill-opacity="1" transform="matrix(1 0 0 1.00705 169.997 165.104)"/></g><g clip-path="url(#clip57)"><path d="M198.478 55.1985C197.299 53.5825 196.042 52.0692 193.143 52.1461 192.938 52.2744 192.502 52.2744 192.117 52.2487 191.553 54.6085 191.604 56.5066 192.784 58.2764 193.092 58.5329 193.4 58.8151 193.682 59.0716 194.349 60.0719 194.734 61.0466 195.965 61.457 197.196 62.2522 198.684 60.7132 199.248 60.3284 199.428 59.6615 199.966 57.5069 199.581 56.917 199.556 55.9423 198.889 55.7884 198.478 55.1985" fill="#9B0000" fill-rule="nonzero" fill-opacity="1" transform="matrix(1 0 0 1.00705 169.997 165.104)"/></g><path d="" stroke="#00A0E9" stroke-width="0.156464" stroke-linecap="butt" stroke-linejoin="miter" stroke-miterlimit="4" stroke-opacity="1" fill="none" fill-rule="nonzero" transform="matrix(1 0 0 1.00705 169.997 165.104)"/></g></g></g></g></g></svg>