<svg width="704" height="250" xmlns="http://www.w3.org/2000/svg" xmlns:xlink="http://www.w3.org/1999/xlink" xml:space="preserve" overflow="hidden"><g transform="translate(-420 -288)"><g><g><g><g><path d="M53.118 0C34.7089 0 16.9039 2.51528 0 7.22896L0 52.4446C0 62.5057 1.38637 71.8043 4.12942 80.0731 6.68431 87.7773 10.4869 94.838 15.4383 101.047 24.0041 111.791 36.1052 120.318 52.4149 127.131L53.1279 127.428 53.8409 127.131C70.1506 120.318 82.2516 111.781 90.8175 101.047 95.7688 94.838 99.5714 87.7872 102.126 80.0731 104.869 71.8043 106.256 62.5057 106.256 52.4446L106.256 7.22896C89.3519 2.51528 71.5369 0 53.118 0Z" fill="#440099" fill-rule="nonzero" fill-opacity="1" transform="matrix(1.00679 0 0 1 427.677 296.171)"/><path d="M27.8463 77.2904 27.8463 75.5673 24.4695 78.0232 23.3406 76.4685 23.3307 76.4685C21.1125 78.7263 19.1518 81.2317 17.5178 83.9252L17.498 83.9549 17.5376 83.9549C20.6075 83.2221 23.5981 82.1328 26.4203 80.7167L26.4402 80.7167 25.3112 79.1521 27.876 77.2904Z" fill="#FFFFFF" fill-rule="nonzero" fill-opacity="1" transform="matrix(1.00679 0 0 1 427.677 296.171)"/><path d="M84.1134 36.4122 86.5197 34.6693 85.6978 33.5404 83.3013 35.2832 83.8262 31.9559 77.4885 37.6005 77.1518 39.7494 69.6852 45.176 72.0519 45.176 77.9737 40.8783 80.1226 41.2149 87.4407 36.937 84.1134 36.4122Z" fill="#FFFFFF" fill-rule="nonzero" fill-opacity="1" transform="matrix(1.00679 0 0 1 427.677 296.171)"/><path d="M53.1279 81.5288 53.1279 81.5288C52.4545 81.5288 51.791 81.4297 51.1572 81.2416L34.9763 92.9961 33.8474 91.4413 33.8375 91.4413C31.6193 93.6992 29.6585 96.2045 28.0246 98.8981L28.0048 98.9278 28.0444 98.9278C31.1142 98.195 34.1048 97.1057 36.9271 95.6896L36.9469 95.6896 35.818 94.125 53.1576 81.5288Z" fill="#FFFFFF" fill-rule="nonzero" fill-opacity="1" transform="matrix(1.00679 0 0 1 427.677 296.171)"/><path d="M94.6201 51.385 97.0165 49.6421 96.1946 48.5132 93.7982 50.2561 94.323 46.9288 87.9952 52.5733 87.6486 54.7222 78.3995 61.4461 78.3995 63.1692 88.4705 55.8511 90.6194 56.1878 97.9474 51.9098 94.6201 51.385Z" fill="#FFFFFF" fill-rule="nonzero" fill-opacity="1" transform="matrix(1.00679 0 0 1 427.677 296.171)"/><path d="M41.9973 78.3104 39.6305 78.3104 29.7179 85.5096 28.589 83.9549 28.5791 83.9549C26.3609 86.2127 24.4002 88.7181 22.7663 91.4116L22.7465 91.4413 22.7861 91.4413C25.8559 90.7085 28.8465 89.6192 31.6688 88.2032L31.6886 88.2032 30.5597 86.6385 42.027 78.3104Z" fill="#FFFFFF" fill-rule="nonzero" fill-opacity="1" transform="matrix(1.00679 0 0 1 427.677 296.171)"/><path d="M89.3717 43.8986 91.7681 42.1557 90.9462 41.0268 88.5498 42.7697 89.0746 39.4424 82.7369 45.0869 82.4002 47.2358 78.3995 50.1472 78.3995 51.8603 83.2221 48.3647 85.371 48.7014 92.6891 44.4234 89.3717 43.8986Z" fill="#FFFFFF" fill-rule="nonzero" fill-opacity="1" transform="matrix(1.00679 0 0 1 427.677 296.171)"/><path d="M73.2204 11.5267C73.2204 11.5267 72.9332 11.4871 72.4975 11.4772L72.4975 11.4772C71.4775 11.4673 69.6059 11.6158 68.3582 12.8438 67.8928 13.2993 67.7442 13.9232 67.7442 14.5173 67.7442 14.5767 67.7442 14.6263 67.7442 14.6758 67.7442 14.7055 67.7442 14.7451 67.7442 14.7748L67.7442 14.8243C67.7442 14.8243 67.7541 14.9233 67.764 14.9629 67.7739 15.0818 67.7937 15.1907 67.8135 15.2996 67.6353 15.1016 67.4075 14.9431 67.1402 14.8243 65.0606 13.9628 62.7731 15.0719 62.7731 15.0719 62.7731 15.0719 63.3078 17.6664 65.6746 18.3497 66.2489 18.518 66.8134 18.4289 67.2986 18.2704L66.8035 19.1518C66.1697 20.2807 64.8923 20.8848 63.6148 20.657 61.9809 20.3599 60.8916 18.7755 61.1887 17.1415L60.5054 17.0128 59.8221 16.8841C59.6735 17.6763 59.2279 18.3695 58.5644 18.825 57.901 19.2805 57.0988 19.4588 56.3066 19.3102 54.8707 19.0429 53.831 17.7951 53.831 16.3394L53.831 14.4579C54.237 14.9035 54.8113 15.3293 55.554 15.3293 57.8118 15.3293 59.4953 13.4181 59.4953 13.4181 59.4953 13.4181 57.8019 11.5069 55.554 11.5069 55.2768 11.5069 55.0292 11.5663 54.8014 11.6654 55.247 11.2395 55.6035 10.685 55.6035 10.0215 55.6035 7.50623 53.1378 5.62472 53.1378 5.62472 53.1378 5.62472 50.672 7.50623 50.672 10.0215 50.672 10.6949 51.0285 11.2395 51.4741 11.6654 51.2464 11.5663 50.9988 11.5069 50.7215 11.5069 48.4637 11.5069 46.7803 13.4181 46.7803 13.4181 46.7803 13.4181 48.4736 15.3293 50.7215 15.3293 51.4642 15.3293 52.0386 14.9035 52.4446 14.4579L52.4446 16.3394C52.4446 17.7951 51.4048 19.0429 49.9689 19.3102 49.1767 19.4588 48.3746 19.2805 47.7111 18.825 47.0476 18.3695 46.602 17.6763 46.4535 16.8841L45.7702 17.0128 45.0869 17.1415C45.384 18.7755 44.3046 20.35 42.6607 20.657 41.3833 20.8947 40.1059 20.2906 39.4721 19.1518L38.9769 18.2704C39.4523 18.4289 40.0266 18.518 40.601 18.3497 42.9677 17.6763 43.5025 15.0719 43.5025 15.0719 43.5025 15.0719 41.2149 13.9628 39.1354 14.8243 38.868 14.9332 38.6403 15.1016 38.462 15.2996 38.4818 15.1907 38.4917 15.0818 38.5115 14.9728 38.5115 14.9233 38.5115 14.8738 38.5214 14.8243L38.5214 14.7748C38.5214 14.7748 38.5214 14.7055 38.5214 14.6758 38.5214 14.6263 38.5214 14.5668 38.5214 14.5173 38.5214 13.9133 38.3729 13.2993 37.9075 12.8438 36.6498 11.6158 34.7881 11.4673 33.7681 11.4871 33.3225 11.4871 33.0452 11.5267 33.0452 11.5267 33.0452 11.5267 32.9858 12.0219 33.0254 12.715 34.2633 14.042 35.3724 15.4482 36.3527 16.9336 37.7094 18.9834 38.8284 21.1818 39.68 23.4792L42.3637 25.0241 40.8981 27.5691C41.1357 28.6187 41.314 29.6981 41.4526 30.7775L41.512 30.7775C45.3048 31.5598 49.1866 31.9559 53.1279 31.9559L53.1675 31.9559C57.1087 31.9559 60.9906 31.5598 64.7833 30.7874L64.8427 30.7874C64.9715 29.6882 65.1596 28.6187 65.3973 27.5691L63.9317 25.0241 66.6153 23.4792C67.4669 21.1818 68.576 18.9834 69.9426 16.9336 70.923 15.4482 72.042 14.042 73.2699 12.715 73.3095 12.0119 73.2501 11.5267 73.2501 11.5267ZM59.8122 22.3107C60.7727 22.3107 61.555 23.093 61.555 24.0536 61.555 25.0142 60.7727 25.7965 59.8122 25.7965 58.8516 25.7965 58.0693 25.0142 58.0693 24.0536 58.0693 23.093 58.8516 22.3107 59.8122 22.3107ZM53.118 20.4985 55.5837 22.9643 53.118 25.4301 50.6522 22.9643 53.118 20.4985ZM46.4139 22.3107C47.3744 22.3107 48.1567 23.093 48.1567 24.0536 48.1567 25.0142 47.3744 25.7965 46.4139 25.7965 45.4533 25.7965 44.671 25.0142 44.671 24.0536 44.671 23.093 45.4533 22.3107 46.4139 22.3107ZM63.5554 29.6189C60.139 30.2527 56.6532 30.5795 53.1279 30.5795 49.6025 30.5795 46.1168 30.2626 42.7003 29.6288 42.6706 29.4308 42.6409 29.2426 42.6112 29.0545 46.0574 28.4108 49.5629 28.084 53.1279 28.084 56.6928 28.084 60.2083 28.4108 63.6544 29.0545 63.6247 29.2426 63.595 29.4407 63.5653 29.6288Z" fill="#FFFFFF" fill-rule="nonzero" fill-opacity="1" transform="matrix(1.00679 0 0 1 427.677 296.171)"/><path d="M53.1279 47.6319 33.5305 33.3918 31.3816 33.7285 24.0536 29.4506 27.3809 28.9257 24.9845 27.1829 25.7965 26.0539 28.2028 27.7968 27.678 24.4695 34.0058 30.114 34.3524 32.2629 53.1279 45.9088 71.9034 32.2629 72.24 30.114 78.5778 24.4695 78.0529 27.7968 80.4494 26.0539 81.2713 27.1829 78.8649 28.9257 82.1922 29.4506 74.8742 33.7285 72.7154 33.3918 53.1279 47.6319Z" fill="#FFFFFF" fill-rule="nonzero" fill-opacity="1" transform="matrix(1.00679 0 0 1 427.677 296.171)"/><path d="M74.894 49.1272 74.9237 74.8246 56.673 74.8246 56.5443 75.3594C56.1581 76.9438 54.7618 78.043 53.1279 78.043 51.4939 78.043 50.0977 76.9438 49.7114 75.3594L49.5827 74.8246 31.3321 74.8246 31.3618 49.1272 29.9457 49.1272 29.9457 76.2209 48.5231 76.2209C49.2262 78.142 51.0483 79.4393 53.1279 79.4393 55.2074 79.4393 57.0394 78.142 57.7326 76.2209L76.31 76.2209 76.31 49.1272 74.894 49.1272Z" fill="#FFFFFF" fill-rule="nonzero" fill-opacity="1" transform="matrix(1.00679 0 0 1 427.677 296.171)"/><path d="M88.7478 83.9252C87.1139 81.2317 85.1531 78.7263 82.9349 76.4784L82.925 76.4784 81.7961 78.0232 78.4193 75.5673 78.4193 77.2904 80.9841 79.1521 79.8552 80.7068 79.875 80.7068C82.6973 82.1328 85.6879 83.2221 88.7577 83.945L88.7973 83.945 88.7775 83.9252Z" fill="#FFFFFF" fill-rule="nonzero" fill-opacity="1" transform="matrix(1.00679 0 0 1 427.677 296.171)"/><path d="M34.1939 45.176 36.5706 45.176 29.0941 39.7494 28.7574 37.6005 22.4197 31.9559 22.9544 35.2832 20.5481 33.5404 19.736 34.6693 22.1325 36.4122 18.8052 36.937 26.1332 41.2149 28.282 40.8783 34.1939 45.176Z" fill="#FFFFFF" fill-rule="nonzero" fill-opacity="1" transform="matrix(1.00679 0 0 1 427.677 296.171)"/><path d="M27.8463 50.1472 23.8456 47.2358 23.509 45.0869 17.1712 39.4424 17.706 42.7697 15.2996 41.0268 14.4876 42.1557 16.8841 43.8986 13.5568 44.4234 20.8748 48.7014 23.0336 48.3647 27.8463 51.8603 27.8463 50.1472Z" fill="#FFFFFF" fill-rule="nonzero" fill-opacity="1" transform="matrix(1.00679 0 0 1 427.677 296.171)"/><path d="M83.4895 91.4116C81.8555 88.7181 79.8948 86.2127 77.6766 83.9648L77.6667 83.9648 76.5378 85.5096 66.6252 78.3104 64.2585 78.3104 75.7258 86.6385 74.5969 88.1933 74.6167 88.1933C77.4389 89.6192 80.4296 90.7085 83.4994 91.4314L83.539 91.4314 83.5192 91.4116Z" fill="#FFFFFF" fill-rule="nonzero" fill-opacity="1" transform="matrix(1.00679 0 0 1 427.677 296.171)"/><path d="M27.8463 61.4461 18.5972 54.7222 18.2605 52.5733 11.9228 46.9288 12.4477 50.2561 10.0512 48.5132 9.2293 49.6421 11.6356 51.385 8.30835 51.9098 15.6264 56.1878 17.7852 55.8511 27.8463 63.1692 27.8463 61.4461Z" fill="#FFFFFF" fill-rule="nonzero" fill-opacity="1" transform="matrix(1.00679 0 0 1 427.677 296.171)"/><path d="M72.4282 91.4512 72.4183 91.4512 71.2894 92.9961 55.1084 81.2416C54.4746 81.4297 53.8013 81.5288 53.1378 81.5288L70.4774 94.125 69.3485 95.6797 69.3683 95.6797C72.1905 97.1057 75.1811 98.195 78.251 98.9179L78.2906 98.9179 78.2708 98.8981C76.6368 96.2045 74.6761 93.6992 72.4579 91.4512Z" fill="#FFFFFF" fill-rule="nonzero" fill-opacity="1" transform="matrix(1.00679 0 0 1 427.677 296.171)"/><path d="M27.8463 65.9914 27.8463 64.2684 19.2211 70.5368 18.0922 68.9821 18.0823 68.9821C15.8641 71.2399 13.9034 73.7452 12.2694 76.4388L12.2496 76.4685 12.2892 76.4685C15.3591 75.7357 18.3497 74.6464 21.1719 73.2303L21.1917 73.2303 20.0628 71.6657 27.876 65.9914Z" fill="#FFFFFF" fill-rule="nonzero" fill-opacity="1" transform="matrix(1.00679 0 0 1 427.677 296.171)"/><path d="M93.9962 76.4487C92.3623 73.7552 90.4016 71.2498 88.1834 69.0019L88.1735 69.0019 87.0445 70.5467 78.4193 64.2783 78.4193 66.0014 86.2325 71.6756 85.1036 73.2303 85.1234 73.2303C87.9457 74.6563 90.9363 75.7456 94.0061 76.4685L94.0457 76.4685 94.0259 76.4487Z" fill="#FFFFFF" fill-rule="nonzero" fill-opacity="1" transform="matrix(1.00679 0 0 1 427.677 296.171)"/><path d="M62.5354 110.009C62.7533 109.335 63.4068 107.335 63.6247 106.662 64.0109 105.464 63.3573 104.166 62.1591 103.78L59.0002 103.206 61.2184 100.879C61.9611 99.8586 61.7333 98.4227 60.7133 97.68 60.139 97.2641 58.4357 96.0263 57.8614 95.6104 57.4553 95.3133 56.98 95.1746 56.5146 95.1746 55.8115 95.1746 55.1084 95.5014 54.6628 96.1154L53.1378 98.9476 51.6128 96.1154C51.1671 95.5014 50.4641 95.1746 49.761 95.1746 49.2955 95.1746 48.8202 95.3133 48.4142 95.6104 47.8398 96.0263 46.1366 97.2641 45.5622 97.68 44.5422 98.4227 44.3145 99.8586 45.0572 100.879L47.2754 103.206 44.1164 103.78C42.9182 104.166 42.2547 105.464 42.6508 106.662 42.8687 107.335 43.5223 109.335 43.7401 110.009 44.057 110.979 44.9483 111.593 45.9187 111.593 46.1564 111.593 46.394 111.554 46.6218 111.484L49.5134 110.088 49.0876 113.277C49.0876 114.544 50.1076 115.564 51.3751 115.564L54.8905 115.564C56.1581 115.564 57.1781 114.544 57.1781 113.277L56.7523 110.088 59.6438 111.484C59.8815 111.564 60.1192 111.593 60.3469 111.593 61.3075 111.593 62.2086 110.979 62.5255 110.009ZM55.3758 107.85C55.2966 107.85 55.2074 107.85 55.1282 107.85 54.7321 109.415 53.1378 110.989 53.1378 110.989 53.1378 110.989 51.5434 109.425 51.1473 107.85 51.0681 107.85 50.979 107.85 50.8998 107.85 49.3351 107.85 47.5527 106.919 47.5527 106.919 47.5527 106.919 48.5528 104.919 49.9194 104.057 49.3153 102.552 49.6817 100.354 49.6817 100.354 49.6817 100.354 51.89 100.69 53.1378 101.72 54.3756 100.681 56.5938 100.354 56.5938 100.354 56.5938 100.354 56.9602 102.562 56.3561 104.057 57.7227 104.919 58.7229 106.919 58.7229 106.919 58.7229 106.919 56.9305 107.85 55.3758 107.85Z" fill="#FFFFFF" fill-rule="nonzero" fill-opacity="1" transform="matrix(1.00679 0 0 1 427.677 296.171)"/><path d="M54.643 105.107C54.643 105.938 53.9691 106.612 53.1378 106.612 52.3065 106.612 51.6326 105.938 51.6326 105.107 51.6326 104.276 52.3065 103.602 53.1378 103.602 53.9691 103.602 54.643 104.276 54.643 105.107Z" fill="#FFFFFF" fill-rule="nonzero" fill-opacity="1" transform="matrix(1.00679 0 0 1 427.677 296.171)"/><path d="M43.6411 102.305 43.7401 102.275 43.8392 102.255 44.1758 102.196 43.9382 101.948 43.8689 101.869 43.8095 101.78C43.453 101.285 43.2252 100.73 43.1262 100.146 42.0171 100.423 41.106 100.888 41.0565 100.918L40.7594 101.077 40.908 101.384C40.9377 101.453 41.4031 102.364 42.1359 103.226 42.5518 102.82 43.0568 102.493 43.651 102.305Z" fill="#FFFFFF" fill-rule="nonzero" fill-opacity="1" transform="matrix(1.00679 0 0 1 427.677 296.171)"/><path d="M52.8605 95.2044 52.9199 95.2935 52.9694 95.3826 53.1279 95.6797 53.2863 95.3826 53.3358 95.2935 53.3952 95.2044C53.7517 94.7191 54.2172 94.323 54.742 94.0556 54.1379 93.0951 53.415 92.3722 53.3655 92.3227L53.1279 92.085 52.8902 92.3227C52.8407 92.3722 52.1178 93.0951 51.5137 94.0556 52.0386 94.323 52.504 94.7191 52.8605 95.2044Z" fill="#FFFFFF" fill-rule="nonzero" fill-opacity="1" transform="matrix(1.00679 0 0 1 427.677 296.171)"/><path d="M65.219 100.928C65.1695 100.898 64.2486 100.433 63.1395 100.156 63.0504 100.73 62.8226 101.295 62.4562 101.79L62.3968 101.879 62.3275 101.958 62.0898 102.206 62.4265 102.265 62.5255 102.285 62.6245 102.314C63.2187 102.503 63.7237 102.829 64.1396 103.235 64.8725 102.364 65.328 101.453 65.3676 101.394L65.5161 101.087 65.219 100.928Z" fill="#FFFFFF" fill-rule="nonzero" fill-opacity="1" transform="matrix(1.00679 0 0 1 427.677 296.171)"/><path d="M60.3568 113.138C59.9508 113.138 59.5547 113.079 59.1685 112.95L59.0695 112.92 58.9804 112.871 58.6734 112.722 58.7229 113.059 58.7229 113.267C58.7328 113.891 58.5842 114.475 58.3268 114.99 59.3765 115.416 60.3865 115.574 60.4559 115.584L60.7925 115.634 60.852 115.297C60.8619 115.228 61.0302 114.217 60.9411 113.089 60.7529 113.118 60.5549 113.138 60.3568 113.138Z" fill="#FFFFFF" fill-rule="nonzero" fill-opacity="1" transform="matrix(1.00679 0 0 1 427.677 296.171)"/><path d="M47.5329 113.267 47.5329 113.059 47.5923 112.722 47.2853 112.871 47.1962 112.92 47.0971 112.95C46.7109 113.079 46.3148 113.138 45.9088 113.138 45.7108 113.138 45.5226 113.118 45.3246 113.089 45.2453 114.217 45.4038 115.228 45.4137 115.297L45.4731 115.634 45.8098 115.584C45.8791 115.574 46.8892 115.416 47.9389 114.99 47.6814 114.475 47.5329 113.881 47.5329 113.267Z" fill="#FFFFFF" fill-rule="nonzero" fill-opacity="1" transform="matrix(1.00679 0 0 1 427.677 296.171)"/><path d="M49.7015 58.6338C49.4045 58.6338 49.2163 59.0101 49.1866 59.7033L49.7511 59.7033C50.058 59.7033 50.1373 59.6141 50.1373 59.2972 50.1373 58.8912 49.9689 58.6338 49.6916 58.6338Z" fill="#FFFFFF" fill-rule="nonzero" fill-opacity="1" transform="matrix(1.00679 0 0 1 427.677 296.171)"/><path d="M35.9863 57.5247 35.7883 57.5247C35.7784 58.1089 35.7784 58.6932 35.7784 59.2972L35.7784 59.5349C35.7784 60.1588 35.7784 60.7529 35.7883 61.3372L35.9764 61.3372C36.7885 61.3372 37.2638 60.6242 37.2638 59.426 37.2638 58.2277 36.7984 57.5148 35.9764 57.5148Z" fill="#FFFFFF" fill-rule="nonzero" fill-opacity="1" transform="matrix(1.00679 0 0 1 427.677 296.171)"/><path d="M47.8695 46.5723 32.7482 46.5723 32.7482 72.0915 47.8695 72.0915C49.7015 72.0915 51.3355 72.9233 52.4347 74.2206L52.4347 51.1374C52.4347 48.6222 50.3848 46.5723 47.8695 46.5723ZM39.9276 56.4651C40.3039 56.4651 40.5911 56.7324 40.5911 57.0988 40.5911 57.4652 40.3039 57.7227 39.9276 57.7227 39.5513 57.7227 39.2641 57.4553 39.2641 57.0988 39.2641 56.7423 39.5513 56.4651 39.9276 56.4651ZM35.9764 61.8818 33.8969 61.8818 33.8969 61.3966 34.4415 61.3372C34.4514 60.7628 34.4514 60.1786 34.4514 59.5646L34.4514 59.317C34.4514 58.7427 34.4514 58.1485 34.4415 57.5643L33.8969 57.5049 33.8969 57.0196 36.1052 57.0196C37.6599 57.0196 38.6303 57.9505 38.6303 59.4458 38.6303 60.9411 37.6104 61.8917 35.9764 61.8917ZM40.9377 61.8818 38.9076 61.8818 38.9076 61.4461 39.3037 61.357C39.3037 61.0203 39.3037 60.5846 39.3037 60.3073L39.3037 59.9607C39.3037 59.5745 39.3037 59.3567 39.2839 59.0893L38.8284 59.02 38.8284 58.6536 40.4128 58.1485 40.5812 58.2575 40.5614 59.3368 40.5614 60.2974C40.5614 60.5846 40.5614 61.0203 40.5614 61.3669L40.9278 61.4362 40.9278 61.8719ZM42.433 61.9908C41.9576 61.9908 41.5318 61.8818 41.1456 61.6541L41.1159 61.6343 41.1357 60.6638 41.8091 60.6638 41.9378 61.3966C42.1062 61.456 42.2646 61.4857 42.433 61.4857 42.8291 61.4857 43.0271 61.357 43.0271 61.1094 43.0271 60.9213 42.9281 60.7826 42.4528 60.644L42.0567 60.5252C41.4625 60.3469 41.1456 59.9607 41.1456 59.3963 41.1456 58.6536 41.7794 58.1584 42.7103 58.1584 43.1064 58.1584 43.453 58.2476 43.8788 58.4654L43.9085 58.4852 43.8491 59.3567 43.1757 59.3567 43.0271 58.7229C42.9281 58.6932 42.8192 58.6734 42.6706 58.6734 42.5221 58.6734 42.1755 58.7031 42.1755 59.0299 42.1755 59.1685 42.2151 59.3071 42.7499 59.4656L43.1064 59.5646C43.7896 59.7627 44.1065 60.139 44.1065 60.743 44.1065 61.5253 43.4728 62.0007 42.4132 62.0007ZM47.721 59.2873C47.6319 59.5745 47.4635 59.7033 47.1764 59.7033 46.9684 59.7033 46.6119 59.6042 46.5723 58.9705L46.5228 58.6536C46.5228 58.6536 46.4634 58.6536 46.4337 58.6536 46.0574 58.6536 45.6117 59.0002 45.6117 59.9706 45.6117 60.7529 45.9682 61.2184 46.5723 61.2184 46.8694 61.2184 47.1169 61.0995 47.3447 60.8322L47.3744 60.7925 47.7012 61.0797 47.6814 61.1193C47.3942 61.7036 46.8694 62.0205 46.1465 62.0205 44.8591 62.0205 44.2848 61.0698 44.2848 60.1192 44.2848 58.9804 45.1067 58.1881 46.295 58.1881 47.0575 58.1881 47.6418 58.6536 47.7012 59.2972L47.7012 59.317ZM50.1175 61.1986C50.4442 61.1986 50.7116 61.0797 50.9592 60.8223L50.9988 60.7826 51.3157 61.0797 51.2959 61.1193C50.9988 61.7036 50.4641 61.9908 49.7313 61.9908 48.6023 61.9908 47.8695 61.2382 47.8695 60.0796 47.8695 58.8219 48.8301 58.1584 49.7808 58.1584 50.7314 58.1584 51.3355 58.7823 51.3355 59.7429 51.3355 59.8914 51.3256 60.0102 51.286 60.139L51.286 60.1786 49.1965 60.1786C49.2559 60.8223 49.5827 61.1887 50.1175 61.1887Z" fill="#FFFFFF" fill-rule="nonzero" fill-opacity="1" transform="matrix(1.00679 0 0 1 427.677 296.171)"/><path d="M57.8614 57.5247 57.6633 57.5247C57.6534 58.1089 57.6534 58.6932 57.6534 59.2972L57.6534 59.5349C57.6534 60.1588 57.6534 60.7529 57.6633 61.3372L57.8514 61.3372C58.6635 61.3372 59.1388 60.6242 59.1388 59.426 59.1388 58.2277 58.6734 57.5148 57.8514 57.5148Z" fill="#FFFFFF" fill-rule="nonzero" fill-opacity="1" transform="matrix(1.00679 0 0 1 427.677 296.171)"/><path d="M62.6542 58.6338C62.268 58.6338 62.0898 59.0893 62.0898 60.0696 62.0898 61.3471 62.4166 61.4956 62.6542 61.4956 63.0306 61.4956 63.2088 61.0401 63.2088 60.0696 63.2088 59.0992 63.0306 58.6338 62.6542 58.6338Z" fill="#FFFFFF" fill-rule="nonzero" fill-opacity="1" transform="matrix(1.00679 0 0 1 427.677 296.171)"/><path d="M58.3862 46.5723C55.8709 46.5723 53.8211 48.6222 53.8211 51.1374L53.8211 74.2206C54.9104 72.9233 56.5542 72.0915 58.3862 72.0915L73.5076 72.0915 73.5076 46.5723 58.3862 46.5723ZM57.8514 61.8719 55.7719 61.8719 55.7719 61.3867 56.3165 61.3273C56.3264 60.7529 56.3264 60.1687 56.3264 59.5547L56.3264 59.3071C56.3264 58.7328 56.3264 58.1386 56.3165 57.5544L55.7719 57.495 55.7719 57.0097 57.9802 57.0097C59.5349 57.0097 60.5054 57.9406 60.5054 59.4359 60.5054 60.9312 59.4854 61.8818 57.8514 61.8818ZM62.6542 61.9809C61.5055 61.9809 60.7628 61.2184 60.7628 60.0498 60.7628 58.9506 61.555 58.1485 62.6542 58.1485 63.7534 58.1485 64.5457 58.9308 64.5457 60.0498 64.5457 61.1688 63.803 61.9809 62.6542 61.9809ZM68.1799 59.2774C68.0908 59.5646 67.9225 59.6933 67.6353 59.6933 67.4273 59.6933 67.0708 59.5943 67.0312 58.9605L66.9817 58.6437C66.9817 58.6437 66.9223 58.6437 66.8926 58.6437 66.5163 58.6437 66.0707 58.9903 66.0707 59.9607 66.0707 60.743 66.4272 61.2085 67.0312 61.2085 67.3283 61.2085 67.5759 61.0896 67.8036 60.8223L67.8334 60.7826 68.1502 61.0698 68.1304 61.1094C67.8433 61.6937 67.3184 62.0106 66.5955 62.0106 65.3082 62.0106 64.7338 61.0599 64.7338 60.1093 64.7338 58.9705 65.5557 58.1782 66.7441 58.1782 67.5066 58.1782 68.1007 58.6437 68.1502 59.2873L68.1502 59.3071ZM70.5764 61.1887C70.9032 61.1887 71.1706 61.0698 71.4181 60.8124L71.4577 60.7727 71.7746 61.0698 71.7548 61.1094C71.4577 61.6937 70.923 61.9809 70.1902 61.9809 69.0613 61.9809 68.3285 61.2283 68.3285 60.0696 68.3285 58.812 69.289 58.1485 70.2397 58.1485 71.1904 58.1485 71.7944 58.7724 71.7944 59.733 71.7944 59.8815 71.7845 60.0003 71.7449 60.1291L71.7449 60.1687 69.6554 60.1687C69.7149 60.8124 70.0416 61.1787 70.5764 61.1787Z" fill="#FFFFFF" fill-rule="nonzero" fill-opacity="1" transform="matrix(1.00679 0 0 1 427.677 296.171)"/><path d="M70.1605 58.6338C69.8634 58.6338 69.6752 59.0101 69.6455 59.7033L70.21 59.7033C70.517 59.7033 70.5962 59.6141 70.5962 59.2972 70.5962 58.8912 70.4279 58.6338 70.1506 58.6338Z" fill="#FFFFFF" fill-rule="nonzero" fill-opacity="1" transform="matrix(1.00679 0 0 1 427.677 296.171)"/><path d="M308.548 72.5272C311.865 72.5272 314.469 70.1605 314.469 66.9223 314.469 63.6841 311.865 61.2382 308.548 61.2382 305.23 61.2382 302.547 63.5257 302.547 66.9223 302.547 70.3189 305.151 72.5272 308.548 72.5272Z" fill="#440099" fill-rule="nonzero" fill-opacity="1" transform="matrix(1.00679 0 0 1 427.677 296.171)"/><path d="M145.807 11.8832 158.522 11.8832 158.522 14.3688 154.016 14.9035 154.016 32.2827C154.016 43.4629 148.718 47.9191 140.717 47.9191 132.716 47.9191 127.527 43.8392 127.527 33.7681L127.527 27.9949C127.527 23.6476 127.527 19.2013 127.418 14.8045L123.288 14.3787 123.288 11.8931 139.4 11.8931 139.4 14.3787 134.528 14.9134C134.419 19.2013 134.419 23.608 134.419 28.0048L134.419 32.1342C134.419 40.7693 137.39 43.6312 142.579 43.6312 147.768 43.6312 150.947 40.3435 150.947 31.5994L150.947 14.953 145.807 14.3688 145.807 11.8832Z" fill="#440099" fill-rule="nonzero" fill-opacity="1" transform="matrix(1.00679 0 0 1 427.677 296.171)"/><path d="M159.166 44.8393 162.612 44.1461C162.661 41.5516 162.661 38.155 162.661 35.8774L162.661 33.065C162.661 30.1537 162.612 28.8267 162.503 26.7075L158.789 26.2322 158.789 24.222 167.642 20.8848 168.494 21.4195 168.86 25.4994C171.564 22.4296 174.634 20.8848 177.872 20.8848 182.487 20.8848 185.081 23.7961 185.081 30.3715L185.081 35.8774C185.081 38.264 185.081 41.6012 185.131 44.1957L188.359 44.8294 188.359 46.9981 175.268 46.9981 175.268 44.8294 178.654 44.1362C178.704 41.5417 178.704 38.254 178.704 35.8675L178.704 30.8369C178.704 26.7075 177.644 25.3311 174.99 25.3311 173.138 25.3311 171.178 26.1827 169.059 27.9256L169.059 35.8774C169.059 38.2045 169.059 41.5516 169.108 44.1957L172.237 44.8294 172.237 46.9981 159.146 46.9981 159.146 44.8294Z" fill="#440099" fill-rule="nonzero" fill-opacity="1" transform="matrix(1.00679 0 0 1 427.677 296.171)"/><path d="M191.052 44.8393 194.548 44.1461C194.598 41.5516 194.598 38.155 194.598 35.8774L194.598 33.3918C194.598 30.4804 194.548 28.8366 194.439 26.7174L190.676 26.2421 190.676 24.2319 200.212 20.8947 201.064 21.4294 200.906 28.896 200.906 35.8873C200.906 38.1649 200.906 41.5615 200.955 44.2056L204.183 44.8393 204.183 47.008 191.042 47.008 191.042 44.8393Z" fill="#440099" fill-rule="nonzero" fill-opacity="1" transform="matrix(1.00679 0 0 1 427.677 296.171)"/><path d="M221.345 21.6275 231.416 21.6275 231.416 23.8556 228.445 24.4893 219.75 47.2259 216.621 47.2259 207.025 24.3309 204.272 23.8556 204.272 21.6275 218.206 21.6275 218.206 23.8556 214.126 24.4893 219.958 39.8583 225.207 24.5487 221.335 23.8556 221.335 21.6275Z" fill="#440099" fill-rule="nonzero" fill-opacity="1" transform="matrix(1.00679 0 0 1 427.677 296.171)"/><path d="M231.822 34.4514C231.822 25.9747 238.021 20.8848 244.695 20.8848 250.944 20.8848 255.083 25.1231 255.083 31.54 255.083 32.7581 254.974 33.6592 254.766 34.4514L238.556 34.4514C238.823 40.5416 242.051 43.5619 246.507 43.5619 249.637 43.5619 251.647 42.1854 253.4 40.2247L254.935 41.6012C252.865 45.5226 249.26 47.7507 244.339 47.7507 236.922 47.7507 231.832 42.7697 231.832 34.4514ZM238.605 31.9658 245.864 31.9658C248.409 31.9658 249.042 30.8567 249.042 28.9455 249.042 25.7173 246.923 23.4396 244.329 23.4396 241.734 23.4396 239.031 25.6677 238.605 31.9658Z" fill="#440099" fill-rule="nonzero" fill-opacity="1" transform="matrix(1.00679 0 0 1 427.677 296.171)"/><path d="M281.226 45.5325 281.177 39.383 284.732 39.383 285.682 44.3145C286.95 44.8492 288.277 45.1067 289.812 45.1067 293.416 45.1067 295.159 43.7797 295.159 41.5021 295.159 39.5414 293.892 38.4323 290.495 37.3133L287.841 36.4122C283.87 35.1446 281.434 32.6986 281.434 28.9455 281.434 24.5487 284.989 20.8947 291.505 20.8947 294.525 20.8947 296.912 21.6869 299.398 23.0633L299.13 28.6286 295.635 28.6286 294.684 24.1823C293.674 23.7565 292.674 23.5486 291.396 23.5486 288.584 23.5486 286.95 24.8161 286.95 26.8858 286.95 28.797 288.009 29.7476 291.614 30.9657L293.733 31.5994C298.873 33.3522 300.883 35.9467 300.883 39.6008 300.883 44.3739 296.912 47.7606 289.752 47.7606 286.524 47.7606 283.92 47.0179 281.226 45.5325Z" fill="#440099" fill-rule="nonzero" fill-opacity="1" transform="matrix(1.00679 0 0 1 427.677 296.171)"/><path d="M303.052 44.8393 306.547 44.1461C306.597 41.5516 306.597 38.155 306.597 35.8774L306.597 33.3918C306.597 30.4804 306.547 28.8366 306.438 26.7174L302.675 26.2421 302.675 24.2319 312.212 20.8947 313.063 21.4294 312.905 28.896 312.905 35.8873C312.905 38.1649 312.905 41.5615 312.954 44.2056L316.183 44.8393 316.183 47.008 303.042 47.008 303.042 44.8393Z" fill="#440099" fill-rule="nonzero" fill-opacity="1" transform="matrix(1.00679 0 0 1 427.677 296.171)"/><path d="M320.451 41.0763C320.451 39.482 320.5 38.2144 320.5 36.1448L320.5 24.8557 316.579 24.8557 316.579 22.1028 320.867 21.568 322.877 14.3094 327.165 14.3094 326.957 21.6175 333.314 21.6175 333.314 24.8458 326.907 24.8458 326.907 40.4822C326.907 43.0767 328.016 44.2452 329.72 44.2452 330.779 44.2452 331.73 43.8194 332.948 42.9182L334.215 44.2452C332.839 46.4733 330.502 47.7408 327.224 47.7408 322.986 47.7408 320.441 45.7306 320.441 41.0664Z" fill="#440099" fill-rule="nonzero" fill-opacity="1" transform="matrix(1.00679 0 0 1 427.677 296.171)"/><path d="M375.609 34.3425C375.609 25.8658 381.54 20.8848 388.383 20.8848 395.226 20.8848 401.207 25.8163 401.207 34.3425 401.207 42.8687 395.533 47.7507 388.383 47.7507 381.233 47.7507 375.609 42.7697 375.609 34.3425ZM394.265 34.392C394.265 27.0838 392.196 23.4792 388.383 23.4792 384.571 23.4792 382.55 27.0838 382.55 34.392 382.55 41.7002 384.561 45.1463 388.383 45.1463 392.206 45.1463 394.265 41.7002 394.265 34.392Z" fill="#440099" fill-rule="nonzero" fill-opacity="1" transform="matrix(1.00679 0 0 1 427.677 296.171)"/><path d="M124.407 115.96 124.883 104.592 130.963 104.592 132.537 114.148C134.983 115.257 137.35 115.802 140.509 115.802 147.065 115.802 151.016 112.485 151.016 107.276 151.016 102.612 148.491 100.482 142.727 98.1157L139.489 96.769C130.804 93.0555 125.358 88.4012 125.358 80.0235 125.358 70.7051 133.023 65.1002 144.074 65.1002 149.521 65.1002 154.343 66.6747 157.977 69.2098L157.423 79.875 151.422 79.875 149.847 70.715C147.956 69.8436 146.134 69.4475 143.926 69.4475 138.637 69.4475 134.449 72.3688 134.449 77.4984 134.449 82.0833 137.37 84.6085 142.579 86.7376L145.975 88.1635C156.244 92.5108 160.265 96.9274 160.265 104.671 160.265 113.99 152.838 120.149 140.598 120.149 134.676 120.149 128.517 118.575 124.407 115.96Z" fill="#440099" fill-rule="nonzero" fill-opacity="1" transform="matrix(1.00679 0 0 1 427.677 296.171)"/><path d="M163.157 115.564 168.365 114.534C168.445 110.662 168.445 105.612 168.445 102.215L168.445 68.3384 162.681 67.5462 162.681 64.4664 176.812 60.9114 178.001 61.6244 177.684 72.755 177.684 86.8861C181.714 82.2219 186.368 79.8552 191.191 79.8552 198.063 79.8552 202.015 84.2025 202.015 93.9863L202.015 102.196C202.015 105.751 202.015 110.722 202.094 114.594L206.907 115.544 206.907 118.783 187.398 118.783 187.398 115.544 192.449 114.515C192.528 110.643 192.528 105.751 192.528 102.196L192.528 94.6894C192.528 88.53 191.023 86.4801 187.081 86.4801 184.081 86.4801 181.16 87.9061 177.921 90.9858L177.921 102.196C177.921 105.671 177.921 110.643 178.001 114.594L182.665 115.544 182.665 118.783 163.157 118.783 163.157 115.544Z" fill="#440099" fill-rule="nonzero" fill-opacity="1" transform="matrix(1.00679 0 0 1 427.677 296.171)"/><path d="M209.293 100.086C209.293 87.4506 218.532 79.8651 228.484 79.8651 237.803 79.8651 243.962 86.183 243.962 95.7391 243.962 97.5513 243.804 98.8981 243.487 100.086L219.325 100.086C219.721 109.167 224.533 113.673 231.168 113.673 235.832 113.673 238.833 111.623 241.437 108.702L243.725 110.752C240.645 116.594 235.278 119.912 227.93 119.912 216.879 119.912 209.293 112.485 209.293 100.086ZM219.404 96.3729 230.227 96.3729C234.02 96.3729 234.961 94.7191 234.961 91.8671 234.961 87.0545 231.802 83.6578 227.93 83.6578 224.058 83.6578 220.038 86.9752 219.404 96.3729Z" fill="#440099" fill-rule="nonzero" fill-opacity="1" transform="matrix(1.00679 0 0 1 427.677 296.171)"/><path d="M319.421 100.086C319.421 87.4506 328.66 79.8651 338.612 79.8651 347.931 79.8651 354.09 86.183 354.09 95.7391 354.09 97.5513 353.932 98.8981 353.615 100.086L329.452 100.086C329.848 109.167 334.661 113.673 341.296 113.673 345.96 113.673 348.961 111.623 351.565 108.702L353.852 110.752C350.773 116.594 345.405 119.912 338.058 119.912 327.006 119.912 319.421 112.485 319.421 100.086ZM329.531 96.3729 340.355 96.3729C344.148 96.3729 345.089 94.7191 345.089 91.8671 345.089 87.0545 341.93 83.6578 338.058 83.6578 334.186 83.6578 330.165 86.9752 329.531 96.3729Z" fill="#440099" fill-rule="nonzero" fill-opacity="1" transform="matrix(1.00679 0 0 1 427.677 296.171)"/><path d="M356.922 115.564 362.29 114.534C362.369 110.425 362.448 106.325 362.448 102.215L362.448 68.3384 356.685 67.5462 356.685 64.4664 371.053 60.9114 372.242 61.6244 371.925 72.755 371.925 102.215C371.925 106.325 372.004 110.425 372.083 114.534L377.451 115.564 377.451 118.802 356.922 118.802 356.922 115.564Z" fill="#440099" fill-rule="nonzero" fill-opacity="1" transform="matrix(1.00679 0 0 1 427.677 296.171)"/><path d="M406.683 114.693C403.762 118.089 400.286 119.902 395.632 119.902 386.313 119.902 379.679 112.395 379.679 100.235 379.679 88.0744 387.492 79.8651 396.81 79.8651 400.841 79.8651 403.92 81.2911 406.762 84.5986L406.762 68.3285 400.603 67.5363 400.603 64.4565 415.051 60.9015 416.239 61.6145 415.922 72.7451 415.922 114.683 421.052 115.554 421.052 118.793 407.307 119.664 406.673 114.693ZM399.415 114.297C402.177 114.297 404.307 113.188 406.366 111.059L406.366 88.3913C403.92 86.2622 401.861 85.3908 399.494 85.3908 394.206 85.3908 389.779 89.9757 389.779 100.076 389.779 109.633 393.81 114.287 399.415 114.287Z" fill="#440099" fill-rule="nonzero" fill-opacity="1" transform="matrix(1.00679 0 0 1 427.677 296.171)"/><path d="M275.661 20.8848C272.165 20.8055 269.581 22.9148 267.729 27.6681L267.194 21.4195 266.342 20.8848 257.489 24.222 257.489 26.2322 261.203 26.7075C261.312 28.8267 261.361 30.1537 261.361 33.065L261.361 35.8774C261.361 38.155 261.361 41.5516 261.312 44.1957L257.925 44.8294 257.925 46.9981 272.175 46.9981 272.175 44.8294 267.828 43.9778C267.778 41.3833 267.778 38.0956 267.778 35.8675L267.778 31.9956C268.571 29.1832 270.125 26.6877 272.056 25.2815 272.452 26.8165 273.888 27.8661 275.661 27.8661 277.711 27.8661 279.325 26.4005 279.325 24.3903 279.325 22.3801 277.711 20.9145 275.661 20.8649Z" fill="#440099" fill-rule="nonzero" fill-opacity="1" transform="matrix(1.00679 0 0 1 427.677 296.171)"/><path d="M313.449 114.614C313.37 110.662 313.37 105.691 313.37 102.215L313.37 91.7879 313.598 79.4789 312.42 78.7758 303.557 80.9643 288.138 80.9643C288.138 80.9643 288.138 75.1712 288.138 73.1412 288.138 71.1111 288.267 66.8134 291.099 65.2587 291.099 65.2587 290.693 65.9815 290.762 67.3085 290.921 69.5861 292.822 71.23 295.268 71.23 297.714 71.23 299.724 69.4475 299.724 67.0114 299.724 64.7437 297.882 61.2382 292.476 61.2382 287.722 61.2382 278.879 63.7039 278.879 80.7167L278.879 80.9742 262.51 80.9742 262.51 73.1511C262.51 71.121 262.639 66.8233 265.471 65.2686 265.471 65.2686 265.065 65.9914 265.134 67.3184 265.293 69.596 267.194 71.2399 269.64 71.2399 272.086 71.2399 274.096 69.4574 274.096 67.0213 274.096 64.7536 272.254 61.2481 266.847 61.2481 262.094 61.2481 253.251 63.7138 253.251 80.7266L253.251 80.9049 247.25 81.6971 247.25 85.8067 253.093 85.8067 253.093 102.235C253.093 106.345 253.013 110.445 252.934 114.554L247.646 115.584 247.646 118.822 268.967 118.822 268.967 115.584 262.807 114.396C262.728 110.365 262.649 106.266 262.649 102.235L262.649 85.8067 278.701 85.8067 278.701 102.235C278.701 106.345 278.622 110.445 278.543 114.554L273.255 115.584 273.255 118.822 294.575 118.822 294.575 115.584 288.416 114.396C288.336 110.365 288.257 106.266 288.257 102.235L288.257 85.8067 303.557 85.8067C303.695 89.0647 303.765 92.6198 303.765 97.4127L303.765 102.225C303.765 105.622 303.765 110.672 303.685 114.544L298.556 115.574 298.556 118.812 318.143 118.812 318.143 115.574 313.41 114.624Z" fill="#440099" fill-rule="nonzero" fill-opacity="1" transform="matrix(1.00679 0 0 1 427.677 296.171)"/><path d="M353.437 21.6275 353.437 23.7466 357.467 24.3804 351.694 40.5416 345.762 24.3309 349.951 23.7466 349.951 21.6275 336.067 21.6275 336.067 23.7466 338.771 24.1724 348.842 48.7014 348.733 49.0183C347.782 51.7217 346.406 54.1577 344.494 55.96 344.187 54.3756 342.821 53.3457 341.128 53.3457 339.157 53.3457 337.652 54.6727 337.652 56.6433 337.652 58.614 339.157 59.8914 341.128 59.8914L341.207 59.8914C345.821 59.8914 348.515 56.0789 351.595 47.9686L360.656 24.3408 363.626 23.7565 363.626 21.6374 353.456 21.6374Z" fill="#440099" fill-rule="nonzero" fill-opacity="1" transform="matrix(1.00679 0 0 1 427.677 296.171)"/><path d="M419.537 21.6275 413.11 21.6275C413.11 21.6275 413.11 17.5376 413.11 16.1711 413.11 14.8045 413.199 11.903 415.11 10.8434 415.11 10.8434 414.843 11.3287 414.883 12.2298 414.992 13.7746 416.269 14.8738 417.933 14.8738 419.596 14.8738 420.943 13.6657 420.943 12.0219 420.943 10.4968 419.705 8.1202 416.051 8.1202 412.843 8.1202 406.871 9.78385 406.871 21.2809L406.871 21.6275 402.821 22.1622 402.821 24.8656 406.772 24.8656 406.772 35.8081C406.772 38.5808 406.723 41.3536 406.663 44.1263L403.089 44.8195 403.089 47.008 417.487 47.008 417.487 44.8195 413.328 44.0174C413.278 41.2942 413.219 38.5214 413.219 35.7982L413.219 24.8557 419.537 24.8557 419.537 21.6275Z" fill="#440099" fill-rule="nonzero" fill-opacity="1" transform="matrix(1.00679 0 0 1 427.677 296.171)"/><path d="M305.696 12.2001C305.696 9.92248 307.448 8.38757 309.726 8.38757 312.004 8.38757 313.697 9.92248 313.697 12.2001 313.697 14.4777 311.944 15.9631 309.726 15.9631 307.508 15.9631 305.696 14.3688 305.696 12.2001Z" fill="#440099" fill-rule="nonzero" fill-opacity="1" transform="matrix(1.00679 0 0 1 427.677 296.171)"/><path d="M193.706 12.2001C193.706 9.92248 195.459 8.38757 197.737 8.38757 200.014 8.38757 201.708 9.92248 201.708 12.2001 201.708 14.4777 199.955 15.9631 197.737 15.9631 195.518 15.9631 193.706 14.3688 193.706 12.2001Z" fill="#440099" fill-rule="nonzero" fill-opacity="1" transform="matrix(1.00679 0 0 1 427.677 296.171)"/></g></g></g></g></g></svg>