<svg width="201" height="28" viewBox="0 0 201 28" fill="none" xmlns="http://www.w3.org/2000/svg">
<path d="M12.4595 9.62662L16.7452 1.74761C16.7526 1.73388 16.7634 1.72235 16.7767 1.71421C16.79 1.70607 16.8052 1.70161 16.8208 1.70129H22.2912C22.3066 1.70137 22.3217 1.70548 22.335 1.71321C22.3482 1.72095 22.3593 1.73203 22.3669 1.74536C22.3746 1.75869 22.3786 1.77379 22.3786 1.78916C22.3786 1.80453 22.3745 1.81963 22.3668 1.83294L15.1241 13.9732C15.1154 13.9871 15.1109 14.0032 15.1109 14.0196C15.1109 14.0359 15.1154 14.052 15.1241 14.0659L22.9178 26.8595C22.9261 26.8729 22.9306 26.8882 22.931 26.9039C22.9313 26.9197 22.9274 26.9352 22.9197 26.9489C22.9119 26.9626 22.9007 26.974 22.887 26.9819C22.8734 26.9897 22.8579 26.9938 22.8422 26.9936H17.2937C17.2784 26.9935 17.2634 26.9894 17.2501 26.9817C17.2368 26.974 17.2258 26.963 17.2182 26.9497L12.4595 18.3954C12.452 18.3817 12.4408 18.3703 12.4273 18.3623C12.4138 18.3543 12.3984 18.3501 12.3828 18.3501C12.3671 18.3501 12.3517 18.3543 12.3382 18.3623C12.3247 18.3703 12.3136 18.3817 12.306 18.3954L7.58636 26.9473C7.57901 26.961 7.56814 26.9725 7.55485 26.9807C7.54157 26.9888 7.52637 26.9933 7.51079 26.9936H1.96477C1.94904 26.9938 1.93354 26.9897 1.91991 26.9819C1.90628 26.974 1.89501 26.9626 1.88728 26.9489C1.87956 26.9352 1.87566 26.9197 1.876 26.9039C1.87633 26.8882 1.88089 26.8729 1.8892 26.8595L9.64144 14.0561C9.65008 14.0422 9.65466 14.0262 9.65466 14.0098C9.65466 13.9934 9.65008 13.9774 9.64144 13.9635L2.3987 1.83294C2.39111 1.8198 2.38705 1.80493 2.38692 1.78976C2.38679 1.77459 2.39059 1.75965 2.39796 1.74639C2.40533 1.73313 2.41601 1.722 2.42895 1.7141C2.4419 1.7062 2.45667 1.70179 2.47184 1.70129H7.98129C7.99686 1.70161 8.01207 1.70607 8.02535 1.71421C8.03863 1.72235 8.04951 1.73388 8.05686 1.74761L12.3035 9.62418C12.3107 9.63862 12.3217 9.65082 12.3353 9.65942C12.3489 9.66803 12.3647 9.67271 12.3808 9.67297C12.3969 9.67322 12.4128 9.66903 12.4267 9.66085C12.4406 9.65268 12.4519 9.64083 12.4595 9.62662Z" fill="#010544"/>
<path d="M26.6184 21.4037C28.5101 23.4563 32.2229 23.2028 33.298 20.6285C33.5597 20.0011 33.6913 18.8204 33.6929 17.0863C33.6994 12.0043 33.7011 6.9174 33.6978 1.82562C33.6978 1.74274 33.7392 1.70129 33.8221 1.70129H38.5686C38.6015 1.70129 38.6331 1.71439 38.6565 1.73771C38.6798 1.76103 38.6929 1.79265 38.6929 1.82562C38.6961 6.95965 38.6986 12.088 38.7002 17.2106C38.7018 18.974 38.5864 20.2831 38.354 21.138C36.5842 27.6567 28.1103 29.095 23.3322 24.8264C23.3081 24.8045 23.2886 24.778 23.2749 24.7484C23.2613 24.7188 23.2538 24.6867 23.2529 24.6542C23.252 24.6216 23.2577 24.5892 23.2696 24.5588C23.2816 24.5285 23.2996 24.5009 23.3225 24.4778L26.4039 21.3988C26.4181 21.3847 26.435 21.3735 26.4536 21.3661C26.4722 21.3587 26.4921 21.3551 26.5122 21.3555C26.5322 21.356 26.552 21.3605 26.5702 21.3688C26.5885 21.377 26.6049 21.3889 26.6184 21.4037Z" fill="#010544"/>
<path d="M42.3521 5.96259V1.82806C42.3521 1.81141 42.3553 1.79493 42.3617 1.77955C42.3681 1.76417 42.3774 1.75019 42.3892 1.73842C42.4009 1.72665 42.4149 1.71731 42.4303 1.71094C42.4457 1.70457 42.4622 1.70129 42.4788 1.70129H60.4479C60.4646 1.70129 60.4811 1.70457 60.4964 1.71094C60.5118 1.71731 60.5258 1.72665 60.5376 1.73842C60.5493 1.75019 60.5587 1.76417 60.565 1.77955C60.5714 1.79493 60.5747 1.81141 60.5747 1.82806V5.96259C60.5747 5.99621 60.5613 6.02845 60.5376 6.05222C60.5138 6.076 60.4815 6.08935 60.4479 6.08935H54.0584C54.0248 6.08935 53.9926 6.10271 53.9688 6.12648C53.945 6.15026 53.9317 6.1825 53.9317 6.21612V26.8668C53.9317 26.9004 53.9183 26.9327 53.8945 26.9565C53.8707 26.9802 53.8385 26.9936 53.8049 26.9936H49.0609C49.0273 26.9936 48.995 26.9802 48.9713 26.9565C48.9475 26.9327 48.9341 26.9004 48.9341 26.8668V6.21612C48.9341 6.1825 48.9208 6.15026 48.897 6.12648C48.8732 6.10271 48.841 6.08935 48.8074 6.08935H42.4788C42.4622 6.08935 42.4457 6.08607 42.4303 6.0797C42.4149 6.07333 42.4009 6.064 42.3892 6.05222C42.3774 6.04045 42.3681 6.02648 42.3617 6.0111C42.3553 5.99572 42.3521 5.97924 42.3521 5.96259Z" fill="#010544"/>
<path d="M69.6481 22.5446H80.8767C80.907 22.5446 80.9362 22.5567 80.9577 22.5781C80.9792 22.5996 80.9912 22.6288 80.9912 22.6592V26.879C80.9912 26.9094 80.9792 26.9385 80.9577 26.96C80.9362 26.9815 80.907 26.9936 80.8767 26.9936H64.6506C64.6202 26.9936 64.5911 26.9815 64.5696 26.96C64.5481 26.9385 64.536 26.9094 64.536 26.879V1.81587C64.536 1.78548 64.5481 1.75634 64.5696 1.73485C64.5911 1.71337 64.6202 1.70129 64.6506 1.70129H69.4189C69.4493 1.70129 69.4785 1.71337 69.5 1.73485C69.5215 1.75634 69.5335 1.78548 69.5335 1.81587V22.43C69.5335 22.4604 69.5456 22.4895 69.5671 22.511C69.5886 22.5325 69.6177 22.5446 69.6481 22.5446Z" fill="#010544"/>
<path d="M103.192 18.7026C103.122 28.8853 87.5783 30.3236 84.9235 20.9795C84.7041 20.2059 84.5936 19.1138 84.592 17.7031C84.5838 12.4098 84.583 7.11648 84.5895 1.82318C84.5895 1.74192 84.6302 1.70129 84.7114 1.70129H89.4578C89.4895 1.70129 89.5199 1.71388 89.5423 1.73628C89.5647 1.75868 89.5773 1.78907 89.5773 1.82075C89.5952 7.17255 89.5944 12.5179 89.5749 17.8567C89.5675 20.4407 90.7109 22.5982 93.5144 22.7445C97.1662 22.9371 98.2754 20.4773 98.2852 17.3203C98.303 12.1587 98.3063 6.99541 98.2949 1.8305C98.2949 1.74436 98.3372 1.70129 98.4217 1.70129H103.11C103.126 1.70129 103.143 1.70457 103.158 1.71094C103.173 1.71731 103.187 1.72665 103.199 1.73842C103.211 1.75019 103.22 1.76417 103.227 1.77955C103.233 1.79493 103.236 1.81141 103.236 1.82806C103.246 7.4594 103.231 13.0842 103.192 18.7026Z" fill="#010544"/>
<path d="M113.758 1.82336H112.461C112.382 1.82336 112.317 1.88776 112.317 1.9672V27.4618C112.317 27.5413 112.382 27.6057 112.461 27.6057H113.758C113.837 27.6057 113.902 27.5413 113.902 27.4618V1.9672C113.902 1.88776 113.837 1.82336 113.758 1.82336Z" fill="#010544"/>
<path d="M175.091 11.087H175.917C175.941 11.0871 175.963 11.08 175.982 11.0666C176.002 11.0532 176.016 11.0342 176.024 11.0122C176.032 10.9902 176.032 10.9663 176.026 10.9439C176.019 10.9215 176.006 10.9016 175.988 10.8871L175.527 10.5263C175.509 10.5121 175.493 10.4941 175.483 10.4734C175.472 10.4527 175.466 10.4299 175.465 10.4067C175.464 10.3834 175.468 10.3602 175.477 10.3387C175.486 10.3173 175.5 10.2981 175.517 10.2825L176.115 9.74616C176.196 9.67303 176.276 9.67465 176.356 9.75104L177.426 10.7676C177.439 10.7794 177.449 10.7941 177.454 10.8105C177.46 10.8269 177.462 10.8444 177.46 10.8618C177.457 10.8792 177.451 10.8958 177.441 10.9104C177.431 10.9249 177.417 10.937 177.402 10.9456C177.355 10.9699 177.338 11.009 177.351 11.0626C177.356 11.0866 177.37 11.1078 177.39 11.1218C177.41 11.1359 177.434 11.1417 177.458 11.1382L177.938 11.0723C178.031 11.061 178.077 11.1016 178.077 11.1942V12.0011C178.077 12.123 178.016 12.184 177.894 12.184L175.127 12.1864C175.085 12.1864 175.045 12.2031 175.015 12.2328C174.986 12.2625 174.969 12.3028 174.969 12.3449V12.6398C174.969 12.7422 175.02 12.7934 175.122 12.7934H177.463C177.496 12.7934 177.529 12.8068 177.552 12.8306C177.576 12.8543 177.59 12.8866 177.59 12.9202C177.591 13.9262 177.587 15.7107 177.577 18.2736C177.572 19.5413 176.439 19.4877 175.525 19.4316C175.482 19.429 175.442 19.412 175.409 19.3834C175.377 19.3547 175.355 19.3159 175.347 19.2731L175.193 18.4589C175.189 18.4375 175.19 18.4154 175.196 18.3943C175.201 18.3732 175.211 18.3536 175.225 18.3369C175.239 18.3201 175.257 18.3067 175.276 18.2974C175.296 18.2882 175.318 18.2834 175.339 18.2834L176.007 18.2761C176.082 18.2761 176.148 18.2517 176.205 18.2029C176.384 18.0518 176.432 17.8324 176.349 17.5447C176.324 17.4651 176.271 17.4253 176.188 17.4253H175.152C175.03 17.4253 174.969 17.4862 174.969 17.6081V19.0391C174.969 19.1415 174.918 19.1927 174.815 19.1927H173.994C173.872 19.1927 173.811 19.1317 173.811 19.0098V17.5788C173.811 17.4765 173.76 17.4253 173.657 17.4253H172.592C172.511 17.4253 172.47 17.4659 172.47 17.5472V19.3146C172.47 19.3958 172.43 19.4365 172.348 19.4365H171.434C171.312 19.4365 171.251 19.3755 171.251 19.2536V12.9421C171.251 12.8381 171.303 12.7861 171.407 12.7861L173.674 12.8081C173.765 12.8081 173.811 12.7625 173.811 12.6715V12.3376C173.811 12.2352 173.76 12.184 173.657 12.184H171.434C171.348 12.184 171.289 12.1433 171.256 12.0621C171.238 12.0133 171.191 11.9865 171.115 11.9816C171.082 11.9801 171.049 11.9883 171.02 12.0052C170.992 12.0221 170.968 12.0469 170.954 12.0767L170.812 12.3546C170.803 12.3734 170.789 12.3898 170.773 12.4026C170.756 12.4154 170.737 12.4244 170.716 12.4288C170.696 12.4333 170.674 12.4331 170.654 12.4282C170.633 12.4234 170.614 12.4141 170.598 12.4009L168.94 11.0553C168.872 10.9984 168.864 10.9342 168.916 10.8627L169.45 10.1313C169.518 10.0371 169.598 10.0257 169.689 10.0972L170.91 11.0431C170.97 11.0902 171.039 11.113 171.117 11.1113L173.665 11.0748C173.704 11.0741 173.741 11.0584 173.768 11.0311C173.796 11.0037 173.811 10.9669 173.811 10.9285V10.0509C173.811 9.96963 173.852 9.929 173.933 9.929H174.786C174.908 9.929 174.969 9.98994 174.969 10.1118V10.9651C174.969 11.0463 175.01 11.087 175.091 11.087ZM173.809 14.0545C173.81 14.0138 173.794 13.9745 173.766 13.9452C173.738 13.916 173.699 13.8992 173.658 13.8985L172.635 13.8824C172.594 13.8818 172.554 13.8974 172.525 13.9257C172.496 13.9541 172.479 13.9929 172.479 14.0336L172.472 14.4723C172.471 14.5131 172.487 14.5524 172.515 14.5816C172.543 14.6109 172.582 14.6277 172.623 14.6283L173.647 14.6444C173.687 14.645 173.727 14.6295 173.756 14.6011C173.785 14.5728 173.802 14.534 173.803 14.4933L173.809 14.0545ZM176.373 14.0343C176.373 13.9961 176.358 13.9595 176.331 13.9326C176.304 13.9056 176.267 13.8904 176.229 13.8904H175.113C175.075 13.8904 175.038 13.9056 175.011 13.9326C174.984 13.9595 174.969 13.9961 174.969 14.0343V14.478C174.969 14.5161 174.984 14.5527 175.011 14.5797C175.038 14.6066 175.075 14.6218 175.113 14.6218H176.229C176.267 14.6218 176.304 14.6066 176.331 14.5797C176.358 14.5527 176.373 14.5161 176.373 14.478V14.0343ZM173.811 15.8017C173.811 15.7635 173.796 15.727 173.769 15.7C173.742 15.673 173.705 15.6579 173.667 15.6579H172.614C172.595 15.6579 172.576 15.6616 172.559 15.6688C172.541 15.676 172.526 15.6866 172.512 15.7C172.499 15.7133 172.488 15.7292 172.481 15.7466C172.474 15.7641 172.47 15.7828 172.47 15.8017V16.2454C172.47 16.2643 172.474 16.283 172.481 16.3004C172.488 16.3179 172.499 16.3337 172.512 16.3471C172.526 16.3604 172.541 16.371 172.559 16.3782C172.576 16.3855 172.595 16.3892 172.614 16.3892H173.667C173.705 16.3892 173.742 16.374 173.769 16.3471C173.796 16.3201 173.811 16.2835 173.811 16.2454V15.8017ZM176.368 15.8041C176.367 15.7833 176.363 15.7627 176.355 15.7436C176.347 15.7245 176.335 15.7072 176.32 15.6927C176.305 15.6782 176.287 15.6668 176.268 15.6591C176.248 15.6514 176.228 15.6476 176.207 15.6479L175.12 15.663C175.099 15.6633 175.079 15.6677 175.059 15.676C175.04 15.6842 175.023 15.6961 175.008 15.711C174.994 15.7259 174.983 15.7436 174.975 15.7629C174.967 15.7822 174.963 15.8029 174.964 15.8237L174.969 16.2381C174.97 16.2589 174.974 16.2794 174.982 16.2986C174.991 16.3177 175.002 16.335 175.017 16.3495C175.032 16.364 175.05 16.3754 175.069 16.3831C175.089 16.3908 175.109 16.3946 175.13 16.3943L176.217 16.3791C176.238 16.3788 176.259 16.3745 176.278 16.3662C176.297 16.358 176.314 16.3461 176.329 16.3312C176.343 16.3162 176.355 16.2986 176.362 16.2793C176.37 16.2599 176.374 16.2393 176.373 16.2185L176.368 15.8041Z" fill="#010544"/>
<path d="M142.539 17.0937C143.681 17.6804 144.885 18.094 146.149 18.3346C146.165 18.3375 146.18 18.3438 146.193 18.3531C146.206 18.3624 146.217 18.3744 146.225 18.3884C146.233 18.4023 146.237 18.4178 146.239 18.4338C146.24 18.4498 146.238 18.4658 146.232 18.4808L145.83 19.5315C145.799 19.6144 145.74 19.6453 145.652 19.6242C144.145 19.2634 142.73 18.6864 141.408 17.8933C141.33 17.8478 141.252 17.8486 141.176 17.8958C139.874 18.6954 138.485 19.2975 137.007 19.7022C136.923 19.7266 136.862 19.6989 136.824 19.6193L136.386 18.6539C136.377 18.6352 136.373 18.6149 136.373 18.5943C136.374 18.5738 136.379 18.5536 136.388 18.5352C136.397 18.5167 136.41 18.5006 136.426 18.4878C136.442 18.475 136.461 18.466 136.481 18.4613C137.75 18.1623 138.958 17.7048 140.103 17.0888C140.124 17.0779 140.141 17.0628 140.155 17.0446C140.169 17.0263 140.179 17.0052 140.184 16.9828C140.189 16.9604 140.189 16.9372 140.185 16.9147C140.18 16.8922 140.17 16.8709 140.157 16.8524L138.792 14.9704C138.743 14.9038 138.685 14.8948 138.619 14.9436L137.548 15.709C137.535 15.7193 137.519 15.7265 137.502 15.7303C137.485 15.7341 137.467 15.7344 137.45 15.7313C137.433 15.7281 137.416 15.7215 137.401 15.7118C137.386 15.7021 137.373 15.6896 137.363 15.6749L136.793 14.8607C136.778 14.838 136.771 14.8104 136.775 14.7833C136.779 14.7562 136.793 14.7317 136.815 14.7144L139.367 12.6277C139.392 12.6082 139.41 12.5815 139.418 12.5514C139.427 12.5212 139.426 12.489 139.415 12.4593C139.404 12.4296 139.384 12.4038 139.358 12.3854C139.332 12.3671 139.301 12.3572 139.27 12.3571L136.851 12.3717C136.747 12.3717 136.695 12.3205 136.695 12.2181V11.3015C136.695 11.1991 136.746 11.1479 136.846 11.1479H140.508C140.535 11.1478 140.562 11.1409 140.585 11.1279C140.609 11.1149 140.629 11.0962 140.644 11.0735C140.659 11.0508 140.668 11.0247 140.67 10.9977C140.672 10.9707 140.668 10.9436 140.657 10.9187L140.342 10.1996C140.3 10.1021 140.331 10.0428 140.435 10.0216L141.493 9.80223C141.533 9.79322 141.575 9.79904 141.611 9.81869C141.648 9.83833 141.677 9.8705 141.693 9.9095L142.139 11.0309C142.17 11.1089 142.227 11.1479 142.312 11.1479H145.744C145.847 11.1479 145.898 11.1983 145.898 11.299V12.2132C145.898 12.3156 145.847 12.3668 145.744 12.3668H143.26C142.99 12.3668 142.965 12.4464 143.185 12.6057L145.781 14.4853C145.865 14.547 145.878 14.6202 145.818 14.7047L145.25 15.5116C145.183 15.6058 145.104 15.6172 145.013 15.5457L142.049 13.2371C142.032 13.2238 142.019 13.2074 142.009 13.1888C141.999 13.1702 141.994 13.1499 141.992 13.1291C141.99 13.1083 141.993 13.0875 142 13.0679C142.007 13.0483 142.017 13.0304 142.032 13.0153L142.444 12.5667C142.459 12.5504 142.469 12.5301 142.473 12.5082C142.476 12.4863 142.474 12.4638 142.465 12.4434C142.456 12.423 142.442 12.4056 142.423 12.3933C142.405 12.381 142.383 12.3743 142.361 12.3741L139.877 12.3473C139.862 12.3476 139.848 12.3522 139.836 12.3605C139.824 12.3687 139.815 12.3803 139.81 12.3936C139.805 12.4069 139.804 12.4213 139.808 12.4348C139.812 12.4483 139.819 12.4603 139.83 12.4692L140.454 12.9958C140.47 13.009 140.483 13.0254 140.493 13.0441C140.502 13.0627 140.507 13.0831 140.508 13.1038C140.508 13.1246 140.505 13.1452 140.497 13.1644C140.489 13.1836 140.477 13.2009 140.462 13.2152L139.126 14.4926C139.114 14.5032 139.106 14.5172 139.103 14.5326C139.1 14.5481 139.102 14.5641 139.109 14.5786C139.115 14.5931 139.126 14.6053 139.14 14.6134C139.154 14.6216 139.171 14.6254 139.187 14.6242C139.209 14.6226 139.232 14.6218 139.255 14.6218C139.279 14.6218 139.301 14.6145 139.321 14.5998L139.699 14.3292C139.769 14.2805 139.829 14.2902 139.879 14.3585L141.132 16.0357C141.152 16.0624 141.178 16.0839 141.208 16.0987C141.238 16.1134 141.271 16.1208 141.304 16.1203C141.337 16.1198 141.369 16.1115 141.398 16.0959C141.427 16.0804 141.452 16.058 141.471 16.0308L142.629 14.3634C142.65 14.3337 142.681 14.3124 142.715 14.3034C142.75 14.2945 142.787 14.2984 142.819 14.3146L143.621 14.7169C143.651 14.7318 143.677 14.753 143.697 14.7789C143.718 14.8047 143.733 14.8347 143.741 14.8669C143.749 14.899 143.75 14.9324 143.744 14.965C143.738 14.9976 143.725 15.0285 143.706 15.0557L142.473 16.8256C142.458 16.8473 142.448 16.8718 142.443 16.8977C142.438 16.9235 142.439 16.9499 142.445 16.9753C142.452 17.0007 142.463 17.0243 142.479 17.0448C142.495 17.0652 142.516 17.0819 142.539 17.0937Z" fill="#010544"/>
<path d="M197.782 11.5746H198.981C199.103 11.5746 199.164 11.6355 199.164 11.7574V13.6467C199.164 13.7686 199.103 13.8295 198.981 13.8295H198.106C198.065 13.8295 198.025 13.8131 197.996 13.7838C197.967 13.7546 197.95 13.7149 197.95 13.6735L197.943 12.9105C197.943 12.7886 197.882 12.7276 197.76 12.7276L191.514 12.735C191.414 12.735 191.363 12.7853 191.363 12.8861V13.6711C191.363 13.78 191.309 13.8344 191.2 13.8344L190.325 13.8271C190.204 13.8271 190.144 13.7661 190.144 13.6443L190.147 11.733C190.147 11.7122 190.151 11.6916 190.159 11.6724C190.167 11.6531 190.178 11.6357 190.193 11.621C190.208 11.6063 190.225 11.5946 190.245 11.5866C190.264 11.5787 190.284 11.5746 190.305 11.5746H191.368C191.388 11.5749 191.408 11.5698 191.425 11.5599C191.443 11.5499 191.457 11.5355 191.467 11.5181C191.477 11.5006 191.482 11.4808 191.482 11.4608C191.482 11.4407 191.476 11.421 191.466 11.4039L190.966 10.5824C190.95 10.555 190.939 10.5246 190.935 10.493C190.931 10.4613 190.934 10.4292 190.943 10.3985C190.952 10.3679 190.968 10.3394 190.988 10.3148C191.009 10.2902 191.035 10.2701 191.063 10.2557L191.822 9.88515C191.859 9.86697 191.901 9.86288 191.941 9.87367C191.98 9.88446 192.014 9.90937 192.036 9.94366L193.001 11.4454C193.058 11.5315 193.139 11.5746 193.243 11.5746H194.04C194.157 11.5746 194.189 11.5234 194.135 11.421L193.557 10.3264C193.549 10.3099 193.544 10.2917 193.542 10.2731C193.541 10.2546 193.543 10.2359 193.55 10.2183C193.556 10.2007 193.565 10.1846 193.578 10.1709C193.591 10.1572 193.606 10.1462 193.623 10.1387L194.457 9.77789C194.549 9.73888 194.62 9.76326 194.669 9.85102L195.5 11.3552C195.537 11.4211 195.59 11.4765 195.654 11.5161C195.719 11.5556 195.792 11.578 195.867 11.5809C195.943 11.5838 196.017 11.5673 196.084 11.5329C196.151 11.4985 196.207 11.4473 196.249 11.3844L197.211 9.92416C197.26 9.85103 197.324 9.83396 197.402 9.87296L198.301 10.3093C198.321 10.3187 198.338 10.3323 198.351 10.349C198.365 10.3658 198.375 10.3854 198.38 10.4064C198.385 10.4273 198.385 10.4492 198.381 10.4704C198.377 10.4915 198.368 10.5114 198.355 10.5287L197.699 11.4063C197.687 11.4219 197.68 11.4403 197.678 11.4597C197.676 11.4791 197.68 11.4986 197.689 11.5161C197.697 11.5335 197.71 11.5483 197.727 11.5586C197.743 11.5689 197.762 11.5744 197.782 11.5746Z" fill="#010544"/>
<path d="M160.586 11.8184H161.176C161.286 11.8184 161.337 11.8737 161.327 11.9842L161.276 12.4913C161.274 12.5145 161.279 12.5376 161.292 12.557C161.304 12.5765 161.322 12.5911 161.344 12.5985C161.367 12.6067 161.39 12.6148 161.415 12.6229C161.48 12.6392 161.525 12.6172 161.551 12.5571L162.709 9.90475C162.718 9.88447 162.734 9.86808 162.754 9.85865C162.774 9.84922 162.797 9.84741 162.819 9.85355L163.618 10.0656C163.636 10.0706 163.653 10.0792 163.667 10.0909C163.682 10.1026 163.694 10.1171 163.702 10.1336C163.711 10.1501 163.716 10.1682 163.717 10.1867C163.718 10.2052 163.715 10.2238 163.709 10.2412L163.345 11.1992C163.337 11.2213 163.334 11.2451 163.337 11.2685C163.34 11.2919 163.349 11.3142 163.362 11.3336C163.376 11.353 163.393 11.3689 163.414 11.3798C163.435 11.3908 163.458 11.3966 163.482 11.3967L166.98 11.3894C167.073 11.3894 167.118 11.4349 167.114 11.5259C167.07 13.6029 166.999 15.6767 166.9 17.7472C166.822 19.3708 165.369 19.2294 164.072 19.1806C163.982 19.1757 163.931 19.1302 163.918 19.0441L163.794 18.1787C163.781 18.0828 163.822 18.0348 163.918 18.0348H165.23C165.38 18.035 165.525 17.9772 165.634 17.8734C165.744 17.7695 165.809 17.6275 165.817 17.4766L166.051 12.6643C166.056 12.588 166.021 12.5498 165.944 12.5498H165.815C165.721 12.5498 165.669 12.5977 165.661 12.6936C165.466 15.3004 164.42 17.4839 162.524 19.244C162.441 19.322 162.361 19.3188 162.285 19.2342L161.712 18.5907C161.641 18.5094 161.645 18.4322 161.724 18.3591C163.4 16.8346 164.383 14.9396 164.674 12.6741C164.679 12.6367 164.669 12.5989 164.647 12.5684C164.625 12.538 164.592 12.5173 164.555 12.5108C164.457 12.4945 164.368 12.5205 164.289 12.5888C164.234 12.6359 164.195 12.7139 164.172 12.8228C163.8 14.6252 162.951 16.1642 161.627 17.44C161.614 17.452 161.599 17.4613 161.582 17.4672C161.565 17.4731 161.548 17.4756 161.53 17.4745C161.513 17.4733 161.496 17.4686 161.48 17.4606C161.464 17.4526 161.45 17.4414 161.439 17.4278L160.854 16.7282C160.826 16.6946 160.812 16.6514 160.815 16.6077C160.818 16.564 160.838 16.5232 160.871 16.4942C161.981 15.5011 162.742 14.2782 163.153 12.8252C163.171 12.7667 163.167 12.7033 163.142 12.6474C163.117 12.5915 163.071 12.547 163.015 12.5225C162.959 12.498 162.895 12.4951 162.837 12.5146C162.779 12.534 162.73 12.5744 162.699 12.6278L161.868 14.0027C161.832 14.0628 161.78 14.0832 161.712 14.0637C161.174 13.9076 160.947 13.5696 161.03 13.0495C161.047 12.939 161.002 12.8984 160.893 12.9276L160.615 12.9983C160.514 13.0243 160.464 13.0902 160.464 13.1958V14.461C160.464 14.4791 160.468 14.4969 160.476 14.5129C160.485 14.5289 160.497 14.5426 160.512 14.5527C160.528 14.5629 160.545 14.5691 160.563 14.571C160.582 14.5729 160.6 14.5702 160.618 14.5634L161.215 14.3172C161.239 14.3069 161.265 14.3024 161.292 14.3042C161.318 14.3059 161.344 14.3138 161.367 14.3273C161.39 14.3408 161.409 14.3594 161.424 14.3818C161.439 14.4041 161.448 14.4296 161.451 14.4561L161.556 15.2728C161.566 15.3606 161.531 15.4207 161.451 15.4532L160.586 15.8164C160.55 15.8318 160.519 15.8573 160.497 15.8898C160.475 15.9223 160.464 15.9604 160.464 15.9993V19.3147C160.464 19.396 160.423 19.4366 160.342 19.4366H159.611C159.489 19.4366 159.428 19.3756 159.428 19.2538V16.4259C159.428 16.3154 159.377 16.2812 159.274 16.3235L158.141 16.7916C158.042 16.8322 157.978 16.8013 157.951 16.6989L157.702 15.7823C157.678 15.6978 157.707 15.6409 157.79 15.6117L159.301 15.0632C159.386 15.0323 159.428 14.9721 159.428 14.8828V13.1739C159.428 13.0276 159.356 12.9431 159.211 12.9203C159.047 12.8943 158.952 12.9756 158.928 13.1641C158.861 13.6793 158.762 14.1904 158.628 14.6975C158.62 14.7319 158.598 14.7616 158.568 14.7806C158.538 14.7997 158.502 14.8066 158.467 14.7999L157.736 14.6634C157.702 14.6573 157.671 14.6384 157.651 14.6106C157.63 14.5829 157.621 14.5485 157.626 14.5146L158.126 10.8799C158.134 10.8149 158.172 10.7824 158.238 10.7824H158.879C159.001 10.7824 159.062 10.8433 159.062 10.9652V11.7672C159.062 11.8647 159.109 11.9013 159.204 11.8769C159.421 11.8233 159.522 11.6608 159.506 11.3894C159.481 10.9441 159.478 10.4979 159.496 10.051C159.499 9.96976 159.542 9.92913 159.623 9.92913H160.281C160.403 9.92913 160.464 9.99007 160.464 10.112V11.6965C160.464 11.7778 160.505 11.8184 160.586 11.8184Z" fill="#010544"/>
<path d="M184.72 12.3058H188.377C188.458 12.3058 188.499 12.3465 188.499 12.4277V13.4028C188.499 13.4352 188.486 13.4662 188.463 13.489C188.44 13.5119 188.409 13.5247 188.377 13.5247H184.725C184.705 13.5245 184.685 13.5291 184.667 13.5381C184.649 13.5471 184.633 13.5602 184.622 13.5764C184.61 13.5926 184.602 13.6114 184.599 13.6312C184.595 13.6511 184.597 13.6714 184.603 13.6905C185.304 15.8553 186.705 17.3903 188.808 18.2955C188.825 18.3023 188.839 18.3127 188.851 18.3258C188.863 18.3389 188.872 18.3545 188.878 18.3714C188.883 18.3884 188.885 18.4063 188.882 18.4239C188.88 18.4416 188.874 18.4585 188.864 18.4735L188.231 19.4486C188.179 19.5282 188.11 19.5461 188.026 19.5022C186.34 18.6181 185.035 17.3521 184.108 15.7041C184.061 15.6196 184.012 15.6188 183.962 15.7017C182.98 17.3204 181.666 18.5994 180.018 19.5388C179.927 19.5908 179.853 19.5721 179.796 19.4827L179.186 18.5125C179.177 18.4974 179.17 18.4804 179.167 18.4625C179.164 18.4447 179.165 18.4264 179.17 18.4088C179.174 18.3912 179.182 18.3747 179.194 18.3602C179.205 18.3458 179.219 18.3337 179.235 18.3248C181.127 17.3155 182.753 15.8602 183.218 13.7027C183.223 13.681 183.222 13.6587 183.217 13.6372C183.212 13.6158 183.202 13.5958 183.188 13.5788C183.174 13.5618 183.157 13.5481 183.137 13.5387C183.118 13.5294 183.096 13.5246 183.075 13.5247H179.601C179.477 13.5247 179.415 13.463 179.415 13.3395L179.42 12.4643C179.422 12.3586 179.475 12.3058 179.579 12.3058H183.136C183.184 12.3058 183.231 12.2866 183.265 12.2523C183.299 12.218 183.318 12.1715 183.318 12.123V10.0801C183.318 9.97934 183.37 9.92896 183.472 9.92896H184.415C184.537 9.92896 184.598 9.9899 184.598 10.1118V12.1839C184.598 12.2652 184.639 12.3058 184.72 12.3058Z" fill="#010544"/>
<path d="M155.101 17.7301V10.2339C155.101 10.112 155.162 10.051 155.284 10.051H156.205C156.252 10.051 156.296 10.0695 156.329 10.1024C156.362 10.1354 156.381 10.18 156.381 10.2265C156.39 12.848 156.377 15.4646 156.339 18.0763C156.315 19.7316 154.728 19.4439 153.463 19.4342C153.37 19.4342 153.314 19.3895 153.294 19.3001L153.09 18.3859C153.085 18.3656 153.085 18.3445 153.09 18.3243C153.095 18.3041 153.104 18.2852 153.117 18.2691C153.131 18.2529 153.147 18.2399 153.166 18.231C153.185 18.2222 153.205 18.2176 153.226 18.2177H154.613C154.742 18.2177 154.866 18.1663 154.958 18.0749C155.049 17.9835 155.101 17.8594 155.101 17.7301Z" fill="#010544"/>
<path d="M149.323 16.0771C149.323 16.0656 149.319 16.0543 149.313 16.045C149.306 16.0356 149.296 16.0286 149.285 16.0248C149.274 16.0211 149.262 16.0208 149.251 16.0241C149.24 16.0273 149.23 16.034 149.223 16.043L147.853 17.8177C147.839 17.8363 147.82 17.8513 147.799 17.8615C147.778 17.8717 147.754 17.8769 147.731 17.8767C147.707 17.8764 147.684 17.8708 147.663 17.8601C147.642 17.8495 147.624 17.8341 147.609 17.8153L146.985 16.984C146.932 16.9125 146.937 16.845 147.002 16.7817C147.796 15.9951 148.459 15.1118 148.994 14.1318C149.004 14.1133 149.009 14.0925 149.009 14.0714C149.008 14.0503 149.002 14.0297 148.991 14.0115C148.98 13.9934 148.964 13.9783 148.946 13.9677C148.927 13.9572 148.906 13.9515 148.884 13.9514H147.453C147.351 13.9514 147.3 13.9002 147.3 13.7978V12.8544C147.3 12.7731 147.34 12.7325 147.422 12.7325H149.128C149.177 12.7325 149.223 12.7132 149.257 12.6789C149.292 12.6446 149.311 12.5981 149.311 12.5496V11.867C149.311 11.776 149.266 11.7362 149.174 11.7476L147.724 11.9353C147.686 11.9402 147.648 11.9302 147.618 11.9075C147.587 11.8847 147.567 11.851 147.561 11.8134L147.436 10.9285C147.428 10.8618 147.457 10.8237 147.522 10.8139L151.956 10.1533C152.037 10.1419 152.087 10.176 152.105 10.2556L152.288 11.0845C152.307 11.1771 152.271 11.2324 152.178 11.2503L150.688 11.5331C150.583 11.5526 150.53 11.6159 150.53 11.7232V12.6106C150.53 12.6918 150.571 12.7325 150.652 12.7325H152.297C152.38 12.7325 152.422 12.7731 152.422 12.8544L152.417 13.7929C152.416 13.8352 152.399 13.8754 152.37 13.9051C152.34 13.9347 152.3 13.9514 152.258 13.9514H150.705C150.616 13.9514 150.565 13.9952 150.552 14.083L150.486 14.5243C150.484 14.5425 150.486 14.561 150.494 14.5778C150.501 14.5946 150.513 14.609 150.528 14.6192C150.543 14.6294 150.561 14.635 150.579 14.6355C150.597 14.6359 150.615 14.6312 150.63 14.6218L150.835 14.5047C150.874 14.4818 150.921 14.4727 150.967 14.4789C151.012 14.4851 151.055 14.5061 151.088 14.5389L152.483 15.9357C152.541 15.9939 152.574 16.0725 152.576 16.1549C152.577 16.2373 152.546 16.3169 152.49 16.377L151.944 16.9621C151.867 17.0449 151.79 17.0441 151.712 16.9596L150.664 15.809C150.653 15.7975 150.639 15.7895 150.624 15.7859C150.608 15.7823 150.592 15.7833 150.578 15.7889C150.563 15.7944 150.551 15.8042 150.542 15.817C150.534 15.8297 150.529 15.8448 150.53 15.8602V19.3438C150.53 19.4462 150.48 19.4974 150.379 19.4974H149.46C149.357 19.4974 149.306 19.4454 149.306 19.3414L149.323 16.0771Z" fill="#010544"/>
<path d="M128.651 11.4527H126.123C126.02 11.4527 125.969 11.4015 125.969 11.2991V10.3873C125.969 10.285 126.02 10.2338 126.123 10.2338H135.172C135.253 10.2338 135.294 10.2744 135.294 10.3557V11.2698C135.294 11.3917 135.233 11.4527 135.111 11.4527H132.522C132.419 11.4527 132.368 11.5039 132.368 11.6063V12.3668C132.368 12.4887 132.429 12.5497 132.551 12.5497H134.684C134.806 12.5497 134.867 12.6106 134.867 12.7325V19.1927C134.867 19.3146 134.806 19.3756 134.684 19.3756H133.892C133.843 19.3756 133.797 19.3563 133.763 19.322C133.728 19.2877 133.709 19.2412 133.709 19.1927V18.9392C133.709 18.8531 133.665 18.8108 133.577 18.8124L128.039 18.9026C127.957 18.9026 127.881 18.9221 127.81 18.9611C127.437 19.161 127.036 19.2512 126.605 19.2317C126.549 19.2292 126.495 19.205 126.456 19.1641C126.417 19.1232 126.396 19.0689 126.396 19.0123V12.7033C126.396 12.6009 126.447 12.5497 126.549 12.5497H128.59C128.712 12.5497 128.772 12.4887 128.772 12.3668V11.5746C128.772 11.4933 128.732 11.4527 128.651 11.4527ZM131.145 11.5734C131.145 11.5567 131.141 11.5403 131.135 11.525C131.128 11.5097 131.119 11.4958 131.107 11.4841C131.095 11.4725 131.081 11.4633 131.065 11.4571C131.05 11.4509 131.033 11.4478 131.017 11.4479L130.11 11.4574C130.076 11.4578 130.044 11.4715 130.021 11.4955C129.997 11.5195 129.984 11.5519 129.985 11.5855L129.993 12.429C129.994 12.4456 129.997 12.4621 130.004 12.4774C130.01 12.4927 130.02 12.5066 130.031 12.5182C130.043 12.5299 130.057 12.5391 130.073 12.5453C130.088 12.5515 130.105 12.5546 130.121 12.5544L131.028 12.5449C131.062 12.5446 131.094 12.5309 131.118 12.5068C131.141 12.4828 131.154 12.4504 131.154 12.4168L131.145 11.5734ZM127.761 15.9407C128.476 15.4271 128.811 14.721 128.768 13.8222C128.766 13.7914 128.753 13.7622 128.731 13.7409C128.709 13.7195 128.679 13.7076 128.648 13.7076H127.736C127.615 13.7076 127.554 13.7686 127.554 13.8905V15.8359C127.554 16.0049 127.623 16.0398 127.761 15.9407ZM128.239 16.9816C128.026 17.0011 127.861 16.9361 127.744 16.7866C127.617 16.6225 127.551 16.6436 127.546 16.85L127.534 17.4448C127.531 17.5537 127.584 17.6081 127.695 17.6081H133.555C133.658 17.6081 133.709 17.5569 133.709 17.4546V16.6476C133.709 16.5534 133.662 16.5079 133.568 16.5111C131.276 16.594 131.04 16.2405 131.169 13.8588C131.17 13.8393 131.167 13.8198 131.16 13.8015C131.153 13.7832 131.143 13.7665 131.129 13.7523C131.116 13.7382 131.1 13.7269 131.082 13.7192C131.064 13.7116 131.045 13.7076 131.025 13.7076H130.225C130.184 13.7076 130.143 13.716 130.105 13.7322C130.067 13.7485 130.032 13.7723 130.004 13.8022C129.975 13.8321 129.953 13.8674 129.939 13.9061C129.925 13.9448 129.918 13.9859 129.921 14.027C129.981 15.2752 129.492 16.234 128.456 16.9036C128.39 16.9468 128.316 16.9736 128.239 16.9816ZM133.705 13.8787C133.705 13.855 133.7 13.8316 133.69 13.8098C133.681 13.788 133.668 13.7682 133.651 13.7516C133.634 13.7351 133.614 13.722 133.592 13.7131C133.57 13.7043 133.546 13.6999 133.522 13.7001L132.547 13.7104C132.5 13.7109 132.454 13.7303 132.42 13.7645C132.387 13.7987 132.368 13.8448 132.369 13.8926L132.382 15.17C132.383 15.1937 132.387 15.2171 132.397 15.2389C132.406 15.2607 132.42 15.2804 132.436 15.297C132.453 15.3136 132.473 15.3266 132.495 15.3355C132.517 15.3443 132.541 15.3487 132.565 15.3485L133.54 15.3383C133.587 15.3378 133.633 15.3183 133.667 15.2841C133.7 15.2499 133.719 15.2038 133.718 15.156L133.705 13.8787Z" fill="#010544"/>
<path d="M153.94 10.9042H152.912C152.843 10.9042 152.787 10.9598 152.787 11.0285V16.9963C152.787 17.0649 152.843 17.1206 152.912 17.1206H153.94C154.009 17.1206 154.065 17.0649 154.065 16.9963V11.0285C154.065 10.9598 154.009 10.9042 153.94 10.9042Z" fill="#010544"/>
<path d="M170.908 13.8581L169.177 12.471C169.115 12.4214 169.024 12.4314 168.974 12.4934L168.374 13.243C168.324 13.3049 168.334 13.3955 168.396 13.4451L170.127 14.8322C170.189 14.8818 170.28 14.8719 170.33 14.8099L170.93 14.0603C170.98 13.9983 170.97 13.9077 170.908 13.8581Z" fill="#010544"/>
<path d="M195.249 14.6217H191.821C191.719 14.6217 191.668 14.5705 191.668 14.4681V13.6466C191.668 13.5247 191.729 13.4637 191.851 13.4637H197.489C197.59 13.4637 197.641 13.5149 197.641 13.6173V14.4462C197.641 14.5323 197.603 14.5973 197.528 14.6412L195.78 15.631C195.763 15.6409 195.75 15.6561 195.742 15.6743C195.735 15.6925 195.733 15.7127 195.738 15.7317C195.743 15.7508 195.755 15.7678 195.77 15.7799C195.786 15.7921 195.805 15.7989 195.824 15.7992L199.128 15.7724C199.233 15.7707 199.286 15.8227 199.286 15.9284V16.7548C199.286 16.8767 199.225 16.9376 199.103 16.9376H195.571C195.49 16.9376 195.449 16.9783 195.449 17.0595C195.486 19.5631 194.769 19.5924 192.533 19.4169C192.509 19.4149 192.485 19.4051 192.466 19.3889C192.447 19.3727 192.434 19.3509 192.428 19.3267L192.221 18.4515C192.215 18.4238 192.215 18.395 192.221 18.3672C192.227 18.3393 192.239 18.3132 192.257 18.2908C192.275 18.2683 192.298 18.2501 192.324 18.2374C192.349 18.2247 192.378 18.2179 192.407 18.2175L193.928 18.215C193.977 18.2152 194.024 18.1968 194.06 18.1638C194.096 18.1307 194.117 18.0854 194.12 18.0371L194.184 17.1058C194.192 16.9937 194.14 16.9376 194.028 16.9376H190.115C190.013 16.9376 189.961 16.8864 189.961 16.784V15.9625C189.961 15.8406 190.022 15.7797 190.144 15.7797H194.05C194.142 15.7797 194.182 15.7342 194.169 15.6431C194.098 15.1336 194.922 14.9337 195.278 14.846C195.304 14.8382 195.327 14.8214 195.342 14.7985C195.356 14.7757 195.363 14.7484 195.359 14.7214C195.356 14.6944 195.343 14.6696 195.322 14.6513C195.302 14.6331 195.276 14.6226 195.249 14.6217Z" fill="#010544"/>
<path d="M170.912 15.6077L169.843 15.2541C169.809 15.2427 169.771 15.2614 169.76 15.2959L168.564 18.9112C168.553 18.9457 168.572 18.9829 168.606 18.9943L169.675 19.348C169.71 19.3594 169.747 19.3407 169.759 19.3061L170.954 15.6909C170.966 15.6564 170.947 15.6191 170.912 15.6077Z" fill="#010544"/>
</svg>
